<svg xmlns="http://www.w3.org/2000/svg" xmlns:xlink="http://www.w3.org/1999/xlink" width="110" height="110" viewBox="0 0 110 110">
  <defs>
    <filter id="Trazado_982547" x="0" y="0" width="110" height="110" filterUnits="userSpaceOnUse">
      <feOffset dy="3" input="SourceAlpha"/>
      <feGaussianBlur stdDeviation="3" result="blur"/>
      <feFlood flood-opacity="0.161"/>
      <feComposite operator="in" in2="blur"/>
      <feComposite in="SourceGraphic"/>
    </filter>
  </defs>
  <g id="Grupo_1171244" data-name="Grupo 1171244" transform="translate(-375.228 -2485)">
    <g id="Grupo_1171058" data-name="Grupo 1171058" transform="translate(-1 320)">
      <g id="Grupo_1162529" data-name="Grupo 1162529" transform="translate(385.229 2171)">
        <g id="Grupo_1162411" data-name="Grupo 1162411" transform="translate(0)">
          <g id="Grupo_1158637" data-name="Grupo 1158637" transform="translate(0 0)">
            <g id="Grupo_1155724" data-name="Grupo 1155724">
              <g id="Grupo_1154703" data-name="Grupo 1154703">
                <g id="Grupo_1150789" data-name="Grupo 1150789" transform="translate(0 0)">
                  <g id="Grupo_1154212" data-name="Grupo 1154212" transform="translate(0)">
                    <g id="Grupo_1152583" data-name="Grupo 1152583">
                      <g id="Grupo_1146973" data-name="Grupo 1146973">
                        <g id="Grupo_1146954" data-name="Grupo 1146954">
                          <g transform="matrix(1, 0, 0, 1, -9, -6)" filter="url(#Trazado_982547)">
                            <g id="Trazado_982547-2" data-name="Trazado 982547" transform="translate(9 6)" fill="#ebe9f0">
                              <path d="M 46.00000381469727 90.49986267089844 C 39.99188232421875 90.49986267089844 34.16427230834961 89.32350158691406 28.67905807495117 87.00344848632812 C 23.38020324707031 84.76223754882812 18.62104415893555 81.55341339111328 14.53375053405762 77.46613311767578 C 10.44647026062012 73.37885284423828 7.237643718719482 68.61968994140625 4.996417045593262 63.32085037231445 C 2.676363706588745 57.83565139770508 1.500003814697266 52.00805282592773 1.500003814697266 45.99993133544922 C 1.500003814697266 39.99182510375977 2.676363706588745 34.16422653198242 4.996417045593262 28.67901039123535 C 7.237643718719482 23.38017082214355 10.44647026062012 18.62101173400879 14.53375053405762 14.53373146057129 C 18.62104415893555 10.44645118713379 23.38020324707031 7.237624645233154 28.67905807495117 4.996411323547363 C 34.16427230834961 2.676357984542847 39.99188232421875 1.499997973442078 46.00000381469727 1.499997973442078 C 52.00812530517578 1.499997973442078 57.83573532104492 2.676357984542847 63.32094955444336 4.996411323547363 C 68.61980438232422 7.237624645233154 73.37896728515625 10.44645118713379 77.46625518798828 14.53373146057129 C 81.55353546142578 18.62101173400879 84.76236724853516 23.38017082214355 87.00359344482422 28.67901039123535 C 89.32364654541016 34.16422653198242 90.5 39.99182510375977 90.5 45.99993133544922 C 90.5 52.00805282592773 89.32364654541016 57.83565139770508 87.00359344482422 63.32085037231445 C 84.76236724853516 68.61968994140625 81.55353546142578 73.37885284423828 77.46625518798828 77.46613311767578 C 73.37896728515625 81.55341339111328 68.61980438232422 84.76223754882812 63.32094955444336 87.00344848632812 C 57.83573532104492 89.32350158691406 52.00812530517578 90.49986267089844 46.00000381469727 90.49986267089844 Z" stroke="none"/>
                              <path d="M 46.00000381469727 3 C 40.19371795654297 3 34.56270217895508 4.136505126953125 29.26337432861328 6.377914428710938 C 24.14333343505859 8.54351806640625 19.54441833496094 11.64438629150391 15.59440612792969 15.59439086914062 C 11.64440155029297 19.54440307617188 8.54351806640625 24.14330291748047 6.377914428710938 29.26334381103516 C 4.136505126953125 34.56266021728516 3.000007629394531 40.19366073608398 3.000007629394531 45.99993133544922 C 3.000007629394531 51.80620193481445 4.136505126953125 57.43720245361328 6.377914428710938 62.73651885986328 C 8.54351806640625 67.85655975341797 11.64440155029297 72.45545959472656 15.59440612792969 76.40547180175781 C 19.54441833496094 80.35547637939453 24.14333343505859 83.45634460449219 29.26337432861328 85.6219482421875 C 34.56270217895508 87.86335754394531 40.19371795654297 88.99986267089844 46.00000381469727 88.99986267089844 C 51.80628967285156 88.99986267089844 57.43730545043945 87.86335754394531 62.73661804199219 85.6219482421875 C 67.85667419433594 83.45634460449219 72.45557403564453 80.35547637939453 76.40558624267578 76.40547180175781 C 80.35560607910156 72.45545959472656 83.45647430419922 67.85655975341797 85.62207794189453 62.73651885986328 C 87.86350250244141 57.43720245361328 89 51.80620193481445 89 45.99993133544922 C 89 40.19366073608398 87.86350250244141 34.56266021728516 85.62207794189453 29.26334381103516 C 83.45647430419922 24.14330291748047 80.35560607910156 19.54440307617188 76.40558624267578 15.59439086914062 C 72.45557403564453 11.64438629150391 67.85667419433594 8.54351806640625 62.73661804199219 6.377914428710938 C 57.43730545043945 4.136505126953125 51.80628967285156 3 46.00000381469727 3 M 46.00000381469727 0 C 71.40509033203125 0 92 20.59487152099609 92 45.99993133544922 C 92 71.40499114990234 71.40509033203125 91.99986267089844 46.00000381469727 91.99986267089844 C 20.59490203857422 91.99986267089844 7.62939453125e-06 71.40499114990234 7.62939453125e-06 45.99993133544922 C 7.62939453125e-06 20.59487152099609 20.59490203857422 0 46.00000381469727 0 Z" stroke="none" fill="#453179"/>
                            </g>
                          </g>
                        </g>
                      </g>
                    </g>
                  </g>
                </g>
              </g>
            </g>
          </g>
        </g>
      </g>
    </g>
    <g id="amamantamiento" transform="translate(401.964 2509)">
      <g id="Grupo_1171242" data-name="Grupo 1171242" transform="translate(1.104 0.839)">
        <path id="Trazado_1016998" data-name="Trazado 1016998" d="M110.9,7.5v4.708a3.169,3.169,0,0,1-3.171,3.167h-3.839l.132.272L99.255,58.889l32.829-.078,7.582-13.035-7.191-30.4h-7.3A3.169,3.169,0,0,1,122,12.208V7.5" transform="translate(-89.016 -7.5)" fill="#ffe5c9"/>
        <g id="Grupo_1171241" data-name="Grupo 1171241" transform="translate(0 7.875)">
          <path id="Trazado_1016999" data-name="Trazado 1016999" d="M53.893,109.138c-27.268,0-27.369-31.277-27.369-31.277H19.475A11.736,11.736,0,0,0,7.765,89.555v19.853a16.212,16.212,0,0,0,16.224,16.2H39.037a4.233,4.233,0,1,0,0-8.465H24.687a8.012,8.012,0,0,1-8.017-8.006v.079a7.909,7.909,0,0,0,7.915,7.9H54.428" transform="translate(-7.765 -77.861)" fill="#ffbdf1"/>
          <path id="Trazado_1017000" data-name="Trazado 1017000" d="M39.037,271.668H24.687a8.038,8.038,0,0,1-2.042-.263,7.909,7.909,0,0,1-5.975-7.664V251.858h-8.9v12.074a16.212,16.212,0,0,0,16.224,16.2H39.037a4.233,4.233,0,1,0,0-8.466Z" transform="translate(-7.765 -232.385)" fill="#ffe5c9"/>
          <g id="Grupo_1171238" data-name="Grupo 1171238" transform="translate(3.959 15.085)">
            <g id="Grupo_1171236" data-name="Grupo 1171236" transform="translate(0)">
              <g id="Grupo_1171235" data-name="Grupo 1171235">
                <path id="Trazado_1017001" data-name="Trazado 1017001" d="M79.1,250.5q-.733.7-1.414,1.326l-6.823.313a.909.909,0,0,1-1.023-1.032l.936-5.784-3.758-.663-1.715,9.354a2.5,2.5,0,0,0,1.884,2.872l3.145.742a21.324,21.324,0,0,1-8.819,2.707c.1-.459,4.677-12.959-3.608-13.428-5.172-.292-11.1,11.513-11.1,11.513s-2.7-1.873-3.517-1.522,1.876,5.152,3.869,5.386,7.269-7.025,7.269-7.025-4.651,8.352,1.055,14.674c0,0,4.272,5.2,12.717,3.449,18-3.722,19.724-18.865,19.724-18.865Z" transform="translate(-43.14 -241.076)" fill="#8ce0ff"/>
                <g id="Grupo_1171234" data-name="Grupo 1171234" transform="translate(12.538 5.825)">
                  <path id="Trazado_1017002" data-name="Trazado 1017002" d="M156.43,279.2a24.459,24.459,0,0,0,4.58-1.076c.19-.636.729-2.481.94-3.526,1.264-5.421-.676-7.981-.676-7.981A4.746,4.746,0,0,0,157.4,264.7a4.4,4.4,0,0,0-2.23.539C160.277,267.714,156.521,278.79,156.43,279.2Z" transform="translate(-155.172 -264.69)" fill="#73d9ff"/>
                  <path id="Trazado_1017003" data-name="Trazado 1017003" d="M233.687,296.842q-.733.695-1.414,1.326l-.137.006,5.9,2.685S236.31,316,218.31,319.724c-.377.078-.744.141-1.1.193a15.625,15.625,0,0,0,5.581-.193c18-3.722,19.724-18.865,19.724-18.865Z" transform="translate(-210.262 -293.244)" fill="#73d9ff"/>
                </g>
                <path id="Trazado_1017004" data-name="Trazado 1017004" d="M256.516,216.227l.406-2.087a1.88,1.88,0,1,1,3.675.792l-.323,1.957Z" transform="translate(-232.635 -212.644)" fill="#ffd3a3"/>
              </g>
            </g>
            <g id="Grupo_1171237" data-name="Grupo 1171237" transform="translate(0 15.063)">
              <path id="Trazado_1017005" data-name="Trazado 1017005" d="M46.807,349.511s-2.7-1.873-3.517-1.522,1.867,5.248,3.869,5.386c.637.044,1.173-.443,2.024-1.039a23.488,23.488,0,0,0,2.562-2.618L48.08,347.23C47.777,347.679,46.807,349.511,46.807,349.511Z" transform="translate(-43.138 -347.23)" fill="#ffd3a3"/>
            </g>
          </g>
          <path id="Trazado_1017006" data-name="Trazado 1017006" d="M208.8,95.953v13.186a8.012,8.012,0,0,1-8.017,8.006H186.429a4.233,4.233,0,1,0,0,8.465h15.049a16.212,16.212,0,0,0,16.224-16.2V89.556a11.736,11.736,0,0,0-11.71-11.694h-4.709" transform="translate(-162.669 -77.862)" fill="#ffe5c9"/>
          <g id="Grupo_1171240" data-name="Grupo 1171240" transform="translate(35.963 7.493)">
            <g id="Grupo_1171239" data-name="Grupo 1171239">
              <path id="Trazado_1017007" data-name="Trazado 1017007" d="M334.731,179.862l-.009,0a9.154,9.154,0,0,1-4.909-11.986l1.285-3.064a9.154,9.154,0,0,1,11.974-4.9l.009,0a9.154,9.154,0,0,1,4.909,11.986l-1.285,3.064A9.154,9.154,0,0,1,334.731,179.862Z" transform="translate(-329.097 -157.583)" fill="#ffd6ab"/>
              <path id="Trazado_1017008" data-name="Trazado 1017008" d="M402.462,159.919l-.009,0a9.109,9.109,0,0,0-5.208-.553,9.178,9.178,0,0,1,1.85.553l.009,0a9.154,9.154,0,0,1,4.909,11.986l-1.285,3.064a9.144,9.144,0,0,1-6.766,5.458,9.156,9.156,0,0,0,10.124-5.458l1.285-3.064A9.154,9.154,0,0,0,402.462,159.919Z" transform="translate(-388.479 -157.595)" fill="#ffcf9c"/>
              <path id="Trazado_1017009" data-name="Trazado 1017009" d="M431.622,148.9a2.282,2.282,0,0,1-3.123,1.136,2.445,2.445,0,0,1-1.313-3.2c.523-1.246,2.287-2.8,5.2-1.578,0,0-1.494.4-1.4,1.735C431.029,147.669,431.964,148.087,431.622,148.9Z" transform="translate(-416.039 -144.815)" fill="#fed23a"/>
            </g>
          </g>
        </g>
      </g>
      <g id="Grupo_1171243" data-name="Grupo 1171243" transform="translate(0.265 0)">
        <path id="Trazado_1017010" data-name="Trazado 1017010" d="M56.976,23.764V20.408A12.555,12.555,0,0,0,44.609,7.877l-7.349,0a2.332,2.332,0,0,1-2.332-2.327V.839a.839.839,0,1,0-1.679,0V5.547a4.013,4.013,0,0,0,4.01,4.006h7.166A11.023,11.023,0,0,1,55.3,20.7,9.907,9.907,0,0,0,53.1,18.687c-.559-.375.088-1.1.53-1.225a.845.845,0,0,0,.109-1.586c-2.754-1.152-4.74-.154-5.751,1.114a10.088,10.088,0,0,0-5.542,1.365,9.91,9.91,0,0,0-4.154,4.752l-1.285,3.064a9.929,9.929,0,0,0-.032,7.653l0,0-4.226.194c-.045,0-.165.022-.154-.068l1.253-7.709c.742-3.458-4.61-4.547-5.324-1.111L27.6,30.046a34.829,34.829,0,0,1-5.864-13.317c-.222-1-.4-1.938-.534-2.805h1.83a1.269,1.269,0,0,1,1.033.533l.7.986a.84.84,0,0,0,1.369-.971l-.7-.986a2.95,2.95,0,0,0-2.4-1.241H20.971c-.146-1.216-.213-2.183-.243-2.8a4.013,4.013,0,0,0,3.1-3.9V.839a.839.839,0,1,0-1.679,0V5.547a2.332,2.332,0,0,1-2.332,2.327h-7a12.527,12.527,0,0,0-2.773.31.84.84,0,0,0,.372,1.637,10.841,10.841,0,0,1,2.4-.268h6.236a45.674,45.674,0,0,0,1.04,7.5A34.534,34.534,0,0,0,27.2,32.223l-.8,4.363c-.4,2.223,1.393,3.8,3.425,4.052a20.876,20.876,0,0,1-5.206,1.414c1.776-6.181.893-9.357-.2-10.945a5.568,5.568,0,0,0-4.541-2.316c-2.448-.137-5.211,1.877-8.214,5.99-.284.39-.557.779-.816,1.161V22.216a.84.84,0,0,0-1.679,0v5.132H1.944v-6.94a10.9,10.9,0,0,1,4.509-8.787.84.84,0,0,0-.986-1.359,12.583,12.583,0,0,0-5.2,10.146V40.262A17.071,17.071,0,0,0,17.328,57.3H39.913a16.994,16.994,0,0,0,9.54-2.91A.84.84,0,0,0,48.514,53a15.321,15.321,0,0,1-8.6,2.623H24.864c-4.363,0-4.369-6.787,0-6.787H39.215a8.861,8.861,0,0,0,8.857-8.845,10.125,10.125,0,0,0,3.75-1.691A10.823,10.823,0,0,0,55.3,34.249v6.013a15.326,15.326,0,0,1-3.882,10.2.84.84,0,0,0,1.254,1.116,17,17,0,0,0,4.307-11.318V30.287c0-.026,0-.052,0-.078a10,10,0,0,0,0-6.445ZM51.39,17.041l.129,0a2.131,2.131,0,0,0,.161,2.572,1.849,1.849,0,0,1,.2.324.138.138,0,0,1-.01.03h0a1.462,1.462,0,0,1-2.025.686,1.606,1.606,0,0,1-.863-2.1A2.607,2.607,0,0,1,51.39,17.041ZM30.172,25.466c.277-1.333,2.237-.8,2.025.485l-.185,1.119L29.931,26.7ZM14.014,42.233q-.055.286-.1.584a14.6,14.6,0,0,0-.169,2.921,7.286,7.286,0,0,1-1.556-1.582C12.834,43.556,13.6,42.709,14.014,42.233Zm-3.389,1.045a.849.849,0,0,0-.087.063l-.322.23a2.675,2.675,0,0,1-1.056.6,4.339,4.339,0,0,1-2.068-1.835A9.134,9.134,0,0,1,6.1,40.6l.119.053.107.048.135.066.115.057.15.078.115.06.166.092.111.061.186.108.1.057c.068.041.137.083.205.126l.082.05c.081.05.161.1.241.154l.045.029q.142.093.28.189a.808.808,0,0,0,.077.047l.037.018.044.021.04.014.044.015.039.009.048.011.037,0,.051.006h.089l.034,0,.055,0,.037-.007.047-.009h.009l.035-.011.047-.015.037-.016L9.1,41.9l.035-.019.043-.024.032-.023.04-.029.03-.026c.012-.011.025-.021.037-.033l.027-.029c.011-.012.022-.024.033-.036l.024-.032c.01-.013.02-.026.029-.04s.014-.023.021-.035.014-.022.02-.034c.217-.409.535-1,.8-1.476l2.132,1.448a20.732,20.732,0,0,1-1.781,1.771ZM1.944,40.262V29.027H9.17V38.61c-.3.52-.558.974-.752,1.329l-.1-.059-.071-.043L8.189,39.8l-.121-.072-.009-.005c-.12-.07-.246-.141-.374-.212-1.34-.732-2.177-.93-2.8-.664l-.041.019a1.067,1.067,0,0,0-.583.754h0c-.008.038-.015.077-.021.118,0,.009,0,.019,0,.028,0,.035-.006.071-.008.108,0,.015,0,.031,0,.047,0,.036,0,.074,0,.113,0,.015,0,.031,0,.046,0,.048.009.1.016.151,0,0,0,0,0,.007v0c0,.024.005.046.009.071.256,1.511,2.526,5.3,4.708,5.521l.022,0a2.722,2.722,0,0,0,1.886-.636,8.969,8.969,0,0,0,3.152,2.68,11.627,11.627,0,0,0,2.751,5.323,11.368,11.368,0,0,0,3.142,2.417H17.328A15.39,15.39,0,0,1,1.944,40.262Zm37.271,6.9H24.864a5.122,5.122,0,0,0-4.851,6.574,9.235,9.235,0,0,1-1.957-1.609l-.025-.029a10.419,10.419,0,0,1-2.469-8.965,15.807,15.807,0,0,1,1.524-4.739.841.841,0,0,0-1.412-.9c-.011.015-.947,1.3-2.157,2.744L11.129,38.61c.538-.879,1.185-1.872,1.9-2.855C15.6,32.244,18,30.364,19.784,30.467a3.928,3.928,0,0,1,3.253,1.592c1.329,1.929,1.215,5.656-.322,10.5-.175.55,0,1.43.822,1.335a22.2,22.2,0,0,0,8.851-2.648l3.264.77a.841.841,0,0,0,.386-1.634L29.306,38.79a1.656,1.656,0,0,1-1.252-1.9l1.565-8.534,2.122.374-.8,4.967a1.791,1.791,0,0,0,1.921,2l4.975-.228a9.916,9.916,0,0,0,4.531,3.786l.011,0a9.933,9.933,0,0,0,3.841.774c.058,0,.116,0,.174,0A7.18,7.18,0,0,1,39.215,47.158ZM53.9,33.257a8.326,8.326,0,0,1-10.874,4.456l-.011,0a8.315,8.315,0,0,1-4.459-10.887l1.285-3.064a8.267,8.267,0,0,1,7.383-5.1,3.414,3.414,0,0,0,3.366,3.831,3.014,3.014,0,0,0,2.666-1.534,8.335,8.335,0,0,1,1.929,9.235Z" transform="translate(-0.265 0)" fill="#060606"/>
        <path id="Trazado_1017011" data-name="Trazado 1017011" d="M381.232,247.617a.84.84,0,0,0,.687,1.532,1.01,1.01,0,1,1-.508,1.334.84.84,0,0,0-1.531.689,2.7,2.7,0,0,0,2.459,1.587,2.786,2.786,0,0,0,2.511-1.733,2.669,2.669,0,0,0-.061-2.058,2.7,2.7,0,0,0-3.557-1.351Z" transform="translate(-337.322 -219.695)" fill="#060606"/>
        <path id="Trazado_1017012" data-name="Trazado 1017012" d="M277.533,112.8a.843.843,0,0,0,1.17-.2l.7-.986a1.269,1.269,0,0,1,1.033-.534h8.525a.84.84,0,0,0,0-1.679h-8.525a2.95,2.95,0,0,0-2.4,1.241l-.7.986A.839.839,0,0,0,277.533,112.8Z" transform="translate(-246.188 -97.161)" fill="#060606"/>
      </g>
    </g>
  </g>
</svg>
