<svg xmlns="http://www.w3.org/2000/svg" xmlns:xlink="http://www.w3.org/1999/xlink" width="113" height="113" viewBox="0 0 113 113">
  <defs>
    <filter id="Trazado_982547" x="0" y="0" width="113" height="113" filterUnits="userSpaceOnUse">
      <feOffset dy="3" input="SourceAlpha"/>
      <feGaussianBlur stdDeviation="3" result="blur"/>
      <feFlood flood-opacity="0.161"/>
      <feComposite operator="in" in2="blur"/>
      <feComposite in="SourceGraphic"/>
    </filter>
  </defs>
  <g id="Grupo_1171127" data-name="Grupo 1171127" transform="translate(-189.977 -5029)">
    <g id="Grupo_1171011" data-name="Grupo 1171011" transform="translate(2.749 -5778)">
      <g id="Grupo_1166124" data-name="Grupo 1166124" transform="translate(-8.417 9335)">
        <g id="Grupo_1164308" data-name="Grupo 1164308" transform="translate(204.645 1478)">
          <g id="Grupo_1163948" data-name="Grupo 1163948" transform="translate(0)">
            <g id="Grupo_1158168" data-name="Grupo 1158168" transform="translate(0)">
              <g id="Grupo_1152576" data-name="Grupo 1152576">
                <g id="Grupo_1148633" data-name="Grupo 1148633">
                  <g id="Grupo_1148525" data-name="Grupo 1148525">
                    <g transform="matrix(1, 0, 0, 1, -9, -6)" filter="url(#Trazado_982547)">
                      <g id="Trazado_982547-2" data-name="Trazado 982547" transform="translate(9 6)" fill="#f4fdfe">
                        <path d="M 47.5 93.5 C 41.28937149047852 93.5 35.26533508300781 92.28397369384766 29.59518623352051 89.88570404052734 C 24.11771965026855 87.56893157958984 19.19813346862793 84.25196075439453 14.97309303283691 80.02691650390625 C 10.74804019927979 75.80186462402344 7.431066513061523 70.88229370117188 5.114293098449707 65.40481567382812 C 2.716026782989502 59.73468017578125 1.5 53.71062850952148 1.5 47.5 C 1.5 41.28937149047852 2.716026782989502 35.26533508300781 5.114293098449707 29.59518623352051 C 7.431066513061523 24.11771965026855 10.74804019927979 19.19813346862793 14.97309303283691 14.97309303283691 C 19.19813346862793 10.74804019927979 24.11771965026855 7.431066513061523 29.59518623352051 5.114293098449707 C 35.26533508300781 2.716026782989502 41.28937149047852 1.5 47.5 1.5 C 53.71062850952148 1.5 59.73468017578125 2.716026782989502 65.40481567382812 5.114293098449707 C 70.88229370117188 7.431066513061523 75.80186462402344 10.74804019927979 80.02691650390625 14.97309303283691 C 84.25196075439453 19.19813346862793 87.56893157958984 24.11771965026855 89.88570404052734 29.59518623352051 C 92.28397369384766 35.26533508300781 93.5 41.28937149047852 93.5 47.5 C 93.5 53.71062850952148 92.28397369384766 59.73468017578125 89.88570404052734 65.40481567382812 C 87.56893157958984 70.88229370117188 84.25196075439453 75.80186462402344 80.02691650390625 80.02691650390625 C 75.80186462402344 84.25196075439453 70.88229370117188 87.56893157958984 65.40481567382812 89.88570404052734 C 59.73468017578125 92.28397369384766 53.71062850952148 93.5 47.5 93.5 Z" stroke="none"/>
                        <path d="M 47.5 3 C 41.49121475219727 3 35.66376876831055 4.176155090332031 30.17950439453125 6.495796203613281 C 24.88084411621094 8.736953735351562 20.12152099609375 11.94598388671875 16.03375244140625 16.03375244140625 C 11.94598388671875 20.12152099609375 8.736953735351562 24.88084411621094 6.495796203613281 30.17950439453125 C 4.176155090332031 35.66376876831055 3 41.49121475219727 3 47.5 C 3 53.50878524780273 4.176155090332031 59.33623123168945 6.495796203613281 64.82049560546875 C 8.736953735351562 70.11915588378906 11.94598388671875 74.87847900390625 16.03375244140625 78.96624755859375 C 20.12152099609375 83.05401611328125 24.88084411621094 86.26304626464844 30.17950439453125 88.50419616699219 C 35.66376876831055 90.82384490966797 41.49121475219727 92 47.5 92 C 53.50878524780273 92 59.33623123168945 90.82384490966797 64.82049560546875 88.50419616699219 C 70.11915588378906 86.26304626464844 74.87847900390625 83.05401611328125 78.96624755859375 78.96624755859375 C 83.05401611328125 74.87847900390625 86.26304626464844 70.11915588378906 88.50419616699219 64.82049560546875 C 90.82384490966797 59.33623123168945 92 53.50878524780273 92 47.5 C 92 41.49121475219727 90.82384490966797 35.66376876831055 88.50419616699219 30.17950439453125 C 86.26304626464844 24.88084411621094 83.05401611328125 20.12152099609375 78.96624755859375 16.03375244140625 C 74.87847900390625 11.94598388671875 70.11915588378906 8.736953735351562 64.82049560546875 6.495796203613281 C 59.33623123168945 4.176155090332031 53.50878524780273 3 47.5 3 M 47.5 0 C 73.7335205078125 0 95 21.2664794921875 95 47.5 C 95 73.7335205078125 73.7335205078125 95 47.5 95 C 21.2664794921875 95 0 73.7335205078125 0 47.5 C 0 21.2664794921875 21.2664794921875 0 47.5 0 Z" stroke="none" fill="#56838a"/>
                      </g>
                    </g>
                  </g>
                </g>
              </g>
            </g>
          </g>
        </g>
      </g>
    </g>
    <g id="dia-internacional-del-nino" transform="translate(217.724 5053.244)">
      <g id="Grupo_1171124" data-name="Grupo 1171124" transform="translate(0.898 0.901)">
        <g id="Grupo_1171123" data-name="Grupo 1171123">
          <path id="Trazado_1016285" data-name="Trazado 1016285" d="M298,44.089c2.054-9.92-2.411-17.067-11.315-17.067s-13.369,7.147-11.315,17.067Z" transform="translate(-244.902 -24.885)" fill="#dfaa88"/>
          <path id="Trazado_1016286" data-name="Trazado 1016286" d="M17.283,27.5c-4.352-7.159,1.228-18.03,7.63-19.27C30.24,7.2,32.376,10,32.376,10s1.191-.378,4.2.695c5.386,1.922,7.709,9.665,3.554,15.926l-.219.341Z" transform="translate(-14.869 -8)" fill="#888089"/>
          <path id="Trazado_1016287" data-name="Trazado 1016287" d="M311.1,101.767a27.19,27.19,0,0,1-8.719,7.562v3.5a8.719,8.719,0,1,0,17.438,0v-3.5c-3.954-1.116-8.719-7.562-8.719-7.562Z" transform="translate(-269.317 -91.235)" fill="#ffd6bd"/>
          <path id="Trazado_1016288" data-name="Trazado 1016288" d="M311.1,190.974a8.724,8.724,0,0,1-8.719-8.73v2.022a8.719,8.719,0,1,0,17.438,0v-2.022A8.724,8.724,0,0,1,311.1,190.974Z" transform="translate(-269.316 -162.673)" fill="#f9c6aa"/>
          <g id="Grupo_1171121" data-name="Grupo 1171121" transform="translate(27.86 30.31)">
            <g id="Grupo_1171120" data-name="Grupo 1171120">
              <g id="Grupo_1171119" data-name="Grupo 1171119">
                <g id="Grupo_1171118" data-name="Grupo 1171118">
                  <path id="Trazado_1016289" data-name="Trazado 1016289" d="M283.892,303.254H256.045V288.6a10.744,10.744,0,0,1,10.744-10.744h6.359A10.744,10.744,0,0,1,283.892,288.6v14.656Z" transform="translate(-256.045 -277.854)" fill="#ff748f"/>
                </g>
              </g>
            </g>
          </g>
          <path id="Trazado_1016290" data-name="Trazado 1016290" d="M256.045,486h27.848v2.022H256.045Z" transform="translate(-228.185 -432.312)" fill="#ff577f"/>
          <path id="Trazado_1016291" data-name="Trazado 1016291" d="M65.019,101.767a16.767,16.767,0,0,1-10.624,5.987v5.073a8.719,8.719,0,1,0,17.438,0v-5.072c-3.954-1.116-6.814-5.989-6.814-5.989Z" transform="translate(-49.184 -91.235)" fill="#ffd6bd"/>
          <path id="Trazado_1016292" data-name="Trazado 1016292" d="M63.114,190.974a8.724,8.724,0,0,1-8.719-8.73v2.022a8.719,8.719,0,1,0,17.438,0v-2.022A8.724,8.724,0,0,1,63.114,190.974Z" transform="translate(-49.184 -162.673)" fill="#f9c6aa"/>
          <path id="Trazado_1016293" data-name="Trazado 1016293" d="M35.86,303.353H8V288.714a10.749,10.749,0,0,1,10.749-10.749h6.362A10.749,10.749,0,0,1,35.86,288.714Z" transform="translate(-8 -247.643)" fill="#92e8ff"/>
          <path id="Trazado_1016294" data-name="Trazado 1016294" d="M8,486H35.86v2.022H8Z" transform="translate(-8 -432.312)" fill="#79dbf2"/>
          <path id="Trazado_1016295" data-name="Trazado 1016295" d="M29.043,172.471v-3.5a2.911,2.911,0,1,0,.292,5.745A8.746,8.746,0,0,1,29.043,172.471Z" transform="translate(-23.832 -150.879)" fill="#edbca4"/>
          <path id="Trazado_1016296" data-name="Trazado 1016296" d="M207.642,168.957a2.917,2.917,0,0,0-.3.016v3.5a8.753,8.753,0,0,1-.292,2.247,2.911,2.911,0,1,0,.593-5.761Z" transform="translate(-184.692 -150.879)" fill="#edbca4"/>
          <path id="Trazado_1016297" data-name="Trazado 1016297" d="M28.741,187.773a2.908,2.908,0,0,1-2.727-1.9,2.91,2.91,0,0,0,3.32,3.861,8.733,8.733,0,0,1-.288-1.977A2.91,2.91,0,0,1,28.741,187.773Z" transform="translate(-23.831 -165.895)" fill="#eaab92"/>
          <path id="Trazado_1016298" data-name="Trazado 1016298" d="M207.642,187.773a2.913,2.913,0,0,1-.305-.016,8.747,8.747,0,0,1-.288,1.977,2.912,2.912,0,0,0,3.32-3.861A2.908,2.908,0,0,1,207.642,187.773Z" transform="translate(-184.692 -165.895)" fill="#eaab92"/>
          <g id="Grupo_1171122" data-name="Grupo 1171122" transform="translate(10.353 18.078)">
            <path id="Trazado_1016299" data-name="Trazado 1016299" d="M107.329,277.854s.164,4.271-3.576,4.271-3.576-4.271-3.576-4.271Z" transform="translate(-100.177 -265.623)" fill="#edbca4"/>
            <path id="Trazado_1016300" data-name="Trazado 1016300" d="M277.028,172.471v-3.5a2.911,2.911,0,1,0,.292,5.745A8.757,8.757,0,0,1,277.028,172.471Z" transform="translate(-254.317 -168.957)" fill="#edbca4"/>
            <path id="Trazado_1016301" data-name="Trazado 1016301" d="M455.628,168.957a2.917,2.917,0,0,0-.3.016v3.5a8.748,8.748,0,0,1-.292,2.247,2.911,2.911,0,1,0,.593-5.761Z" transform="translate(-415.178 -168.957)" fill="#edbca4"/>
          </g>
          <path id="Trazado_1016302" data-name="Trazado 1016302" d="M276.728,187.773a2.908,2.908,0,0,1-2.727-1.9,2.91,2.91,0,0,0,3.32,3.861,8.745,8.745,0,0,1-.288-1.977A2.912,2.912,0,0,1,276.728,187.773Z" transform="translate(-243.964 -165.895)" fill="#eaab92"/>
          <path id="Trazado_1016303" data-name="Trazado 1016303" d="M455.629,187.773a2.913,2.913,0,0,1-.305-.016,8.746,8.746,0,0,1-.288,1.977,2.912,2.912,0,0,0,3.32-3.861A2.908,2.908,0,0,1,455.629,187.773Z" transform="translate(-404.825 -165.895)" fill="#eaab92"/>
          <path id="Trazado_1016304" data-name="Trazado 1016304" d="M262.613,197.723a2.908,2.908,0,0,1-3.5-2.85c-3.8,2.911-.6,8.9-.6,8.9C262.972,201.355,262.613,197.723,262.613,197.723Z" transform="translate(-229.256 -173.884)" fill="#dfaa88"/>
          <path id="Trazado_1016305" data-name="Trazado 1016305" d="M265.986,220.247a2.911,2.911,0,0,1-.593.061c-.089,0-.176,0-.263-.012a10.685,10.685,0,0,1-4.079,3.877,12.346,12.346,0,0,0,.835,2.121C266.346,223.879,265.986,220.247,265.986,220.247Z" transform="translate(-232.63 -196.408)" fill="#d99b74"/>
          <path id="Trazado_1016306" data-name="Trazado 1016306" d="M454.981,197.723a2.908,2.908,0,0,0,3.5-2.85c3.8,2.911.6,8.9.6,8.9C454.622,201.355,454.981,197.723,454.981,197.723Z" transform="translate(-404.771 -173.884)" fill="#dfaa88"/>
          <path id="Trazado_1016307" data-name="Trazado 1016307" d="M455.837,220.3c-.087.008-.174.012-.263.012a2.91,2.91,0,0,1-.593-.061s-.359,3.632,4.1,6.046a12.349,12.349,0,0,0,.835-2.121A10.684,10.684,0,0,1,455.837,220.3Z" transform="translate(-404.771 -196.408)" fill="#d99b74"/>
          <path id="Trazado_1016308" data-name="Trazado 1016308" d="M353.588,282.356l-1.941-4.5h6.372l-1.941,4.5A1.355,1.355,0,0,1,353.588,282.356Z" transform="translate(-313.049 -247.544)" fill="#edbca4"/>
          <path id="Trazado_1016309" data-name="Trazado 1016309" d="M8,416.035h5.5v9.88H8Z" transform="translate(-8 -370.205)" fill="#edbca4"/>
          <path id="Trazado_1016310" data-name="Trazado 1016310" d="M207.049,416.035h5.5v9.88h-5.5Z" transform="translate(-184.692 -370.205)" fill="#edbca4"/>
          <path id="Trazado_1016311" data-name="Trazado 1016311" d="M256.045,416.035h5.5v9.88h-5.5Z" transform="translate(-228.185 -370.205)" fill="#ffd6bd"/>
          <path id="Trazado_1016312" data-name="Trazado 1016312" d="M455,416.035h5.5v9.88H455Z" transform="translate(-404.797 -370.205)" fill="#ffd6bd"/>
          <path id="Trazado_1016313" data-name="Trazado 1016313" d="M256.045,486h5.5v2.022h-5.5Z" transform="translate(-228.185 -432.312)" fill="#f9c6aa"/>
          <path id="Trazado_1016314" data-name="Trazado 1016314" d="M455,486h5.5v2.022H455Z" transform="translate(-404.797 -432.312)" fill="#f9c6aa"/>
          <path id="Trazado_1016315" data-name="Trazado 1016315" d="M207.049,486h5.5v2.022h-5.5Z" transform="translate(-184.692 -432.312)" fill="#eaab92"/>
          <path id="Trazado_1016316" data-name="Trazado 1016316" d="M8,486h5.5v2.022H8Z" transform="translate(-8 -432.312)" fill="#eaab92"/>
        </g>
      </g>
      <g id="Grupo_1171126" data-name="Grupo 1171126" transform="translate(0 0.002)">
        <g id="Grupo_1171125" data-name="Grupo 1171125">
          <path id="Trazado_1016317" data-name="Trazado 1016317" d="M87.424,168.692a.844.844,0,0,0-.844.844V171.5a.844.844,0,1,0,1.688,0v-1.961A.844.844,0,0,0,87.424,168.692Z" transform="translate(-76.855 -149.745)"/>
          <path id="Trazado_1016318" data-name="Trazado 1016318" d="M162.805,172.34a.844.844,0,0,0,.844-.844v-1.961a.844.844,0,1,0-1.688,0V171.5A.844.844,0,0,0,162.805,172.34Z" transform="translate(-143.77 -149.744)"/>
          <path id="Trazado_1016319" data-name="Trazado 1016319" d="M112.715,218.517a.844.844,0,0,0-1.561-.642s-.242.492-1.128.492-1.127-.487-1.128-.492a.844.844,0,0,0-1.561.642,3.121,3.121,0,0,0,5.38,0Z" transform="translate(-95.223 -192.939)"/>
          <path id="Trazado_1016320" data-name="Trazado 1016320" d="M335.906,168.692a.844.844,0,0,0-.844.844V171.5a.844.844,0,1,0,1.688,0v-1.961A.844.844,0,0,0,335.906,168.692Z" transform="translate(-297.428 -149.745)"/>
          <path id="Trazado_1016321" data-name="Trazado 1016321" d="M411.287,168.692a.844.844,0,0,0-.844.844V171.5a.844.844,0,0,0,1.688,0v-1.961A.844.844,0,0,0,411.287,168.692Z" transform="translate(-364.343 -149.745)"/>
          <path id="Trazado_1016322" data-name="Trazado 1016322" d="M360.737,217.415a.845.845,0,0,0-1.1.46s-.242.492-1.128.492-1.127-.487-1.128-.492a.844.844,0,0,0-1.561.642,3.121,3.121,0,0,0,5.38,0A.844.844,0,0,0,360.737,217.415Z" transform="translate(-315.795 -192.939)"/>
          <path id="Trazado_1016323" data-name="Trazado 1016323" d="M47.893,30.544a9.663,9.663,0,0,0,2.985-3.056,8.623,8.623,0,0,0,3.982,4.045.849.849,0,0,0,1.146-.344,13.337,13.337,0,0,0,1.216-3.616c.456-2.607-.146-4.711-1.74-6.114a3.737,3.737,0,0,0-.537-1.556C56,14.418,55.141,9.627,52.5,6.381c-2.257-2.772-5.641-4.238-9.787-4.238s-7.53,1.465-9.787,4.238c-2.642,3.246-3.506,8.037-2.447,13.523a3.738,3.738,0,0,0-.538,1.556c-1.595,1.4-2.2,3.506-1.74,6.114a13.337,13.337,0,0,0,1.216,3.616.849.849,0,0,0,1.146.344,8.624,8.624,0,0,0,3.982-4.045,9.6,9.6,0,0,0,2.987,3.057,11.571,11.571,0,0,0-3.821,1.386.844.844,0,0,0,.847,1.46,9.906,9.906,0,0,1,4.415-1.315l1.718,3.985a2.2,2.2,0,0,0,4.045,0l1.718-3.985a9.934,9.934,0,0,1,9.367,9.905v3.941H52V41.291a.844.844,0,0,0-1.688,0V55.822H35.115V46.814c0-.016,0-.032,0-.048s0-.032,0-.048V41.291a.844.844,0,0,0-1.688,0v4.632H29.6V41.981a9.9,9.9,0,0,1,2.54-6.63.844.844,0,0,0-1.256-1.128,11.589,11.589,0,0,0-2.132,3.423,11.652,11.652,0,0,0-8.792-7.091,9.633,9.633,0,0,0,3.882-4.917,3.759,3.759,0,0,0,3.121-5.84A12.76,12.76,0,0,0,28.526,8.835a9.438,9.438,0,0,0-5.652-6.08,10.578,10.578,0,0,0-4.176-.8c-.868-.826-3.344-2.6-7.95-1.708A9.7,9.7,0,0,0,6.362,2.5a.844.844,0,1,0,1.1,1.281A8.015,8.015,0,0,1,11.068,1.9c4.7-.911,6.573,1.369,6.645,1.46a.78.78,0,0,0,.914.3,7.831,7.831,0,0,1,3.679.681,7.766,7.766,0,0,1,4.618,5.023,11.2,11.2,0,0,1-1.211,9.252,3.727,3.727,0,0,0-1.331-.463V17.4a.844.844,0,0,0-.615-.812c-3.571-1.007-6.284-5.541-6.328-5.615a.844.844,0,0,0-1.4-.085c-3.786,4.957-10,5.665-10.061,5.672a.844.844,0,0,0-.758.84v.758a3.737,3.737,0,0,0-1.769.76c-1.427-3.255-1.366-8.17,1.891-12.782A.844.844,0,0,0,3.964,5.16a17.142,17.142,0,0,0-2.976,7.59A12.49,12.49,0,0,0,2.3,20.411a3.761,3.761,0,0,0,3.452,5.226,9.634,9.634,0,0,0,3.881,4.916A11.633,11.633,0,0,0,0,42v7.831a.844.844,0,1,0,1.688,0V47.61H5.514v8.211H1.688V53.205a.844.844,0,1,0-1.688,0v3.46a.844.844,0,0,0,.844.844H56.663a.844.844,0,0,0,.844-.844V41.981a11.628,11.628,0,0,0-9.614-11.437ZM55.088,23.6c1.16,1.943.336,4.647-.2,5.982a6.062,6.062,0,0,1-2.83-3.955A3.763,3.763,0,0,0,55.088,23.6Zm-2.9.3a9.635,9.635,0,0,0,.106-1.42v-2.6a2.071,2.071,0,0,1-.106,4.023Zm-18.948,0a2.071,2.071,0,0,1-.107-4.023v2.6a9.635,9.635,0,0,0,.107,1.421Zm-2.7,5.677c-.54-1.336-1.363-4.039-.2-5.982a3.762,3.762,0,0,0,3.033,2.027A6.059,6.059,0,0,1,30.538,29.58Zm3.256-11.46c-.04,0-.08,0-.12,0a3.73,3.73,0,0,0-1.718.418C31.284,14,32.077,10.1,34.233,7.447a10.478,10.478,0,0,1,8.478-3.615,10.478,10.478,0,0,1,8.478,3.615C53.346,10.1,54.138,14,53.468,18.535a3.729,3.729,0,0,0-1.719-.418c-.068,0-.135,0-.2.006a14.579,14.579,0,0,1-5.33-3.925,37.752,37.752,0,0,1-2.825-3.3.844.844,0,0,0-.672-.342h-.007a.844.844,0,0,0-.671.332A27.2,27.2,0,0,1,33.793,18.12Zm9.39,17.273a.514.514,0,0,1-.944,0L40.8,32.06H44.62Zm-.473-5.021a7.9,7.9,0,0,1-7.892-7.89v-3a28.56,28.56,0,0,0,7.886-6.72c1.4,1.739,4.746,5.576,7.9,6.815v2.9A7.9,7.9,0,0,1,42.711,30.372Zm-16.8-8.494A2.074,2.074,0,0,1,24.277,23.9a9.632,9.632,0,0,0,.106-1.42v-2.6A2.073,2.073,0,0,1,25.909,21.877Zm-22.213,0a2.074,2.074,0,0,1,1.526-2v2.6a9.633,9.633,0,0,0,.106,1.42A2.075,2.075,0,0,1,3.7,21.877Zm3.214.6V18.123a17.673,17.673,0,0,0,9.724-5.307c1.035,1.461,3.225,4.127,6.061,5.194v4.472a7.892,7.892,0,1,1-15.785,0Zm10.565,9.59a3.557,3.557,0,0,1-.831,1.89,2.414,2.414,0,0,1-1.841.689,2.416,2.416,0,0,1-1.836-.684,3.543,3.543,0,0,1-.838-1.895ZM27.916,55.821H24.09V47.61h3.826Zm0-9.9H24.09V41.308a.844.844,0,0,0-1.688,0V55.821H7.2V41.308a.844.844,0,0,0-1.688,0v4.614H1.688V42a9.94,9.94,0,0,1,8.746-9.856,5.346,5.346,0,0,0,1.31,2.989A4.067,4.067,0,0,0,14.8,36.339a4.067,4.067,0,0,0,3.057-1.207,5.345,5.345,0,0,0,1.31-2.989A9.94,9.94,0,0,1,27.916,42v3.924Zm5.512,9.9H29.6V47.61h3.824Zm22.392,0H52V47.61h3.824Z" transform="translate(0 -0.002)"/>
        </g>
      </g>
    </g>
  </g>
</svg>
