<svg xmlns="http://www.w3.org/2000/svg" xmlns:xlink="http://www.w3.org/1999/xlink" width="113" height="113" viewBox="0 0 113 113">
  <defs>
    <filter id="Trazado_982547" x="0" y="0" width="113" height="113" filterUnits="userSpaceOnUse">
      <feOffset dy="3" input="SourceAlpha"/>
      <feGaussianBlur stdDeviation="3" result="blur"/>
      <feFlood flood-opacity="0.161"/>
      <feComposite operator="in" in2="blur"/>
      <feComposite in="SourceGraphic"/>
    </filter>
  </defs>
  <g id="Grupo_1171131" data-name="Grupo 1171131" transform="translate(-1029.228 -5029)">
    <g id="Grupo_1171013" data-name="Grupo 1171013" transform="translate(3 -5778)">
      <g id="Grupo_1167413" data-name="Grupo 1167413" transform="translate(830.583 9335)">
        <g id="Grupo_1164308" data-name="Grupo 1164308" transform="translate(204.645 1478)">
          <g id="Grupo_1163948" data-name="Grupo 1163948" transform="translate(0)">
            <g id="Grupo_1158168" data-name="Grupo 1158168" transform="translate(0)">
              <g id="Grupo_1152576" data-name="Grupo 1152576">
                <g id="Grupo_1148633" data-name="Grupo 1148633">
                  <g id="Grupo_1148525" data-name="Grupo 1148525">
                    <g transform="matrix(1, 0, 0, 1, -9, -6)" filter="url(#Trazado_982547)">
                      <g id="Trazado_982547-2" data-name="Trazado 982547" transform="translate(9 6)" fill="#f4fdfe">
                        <path d="M 47.5 93.5 C 41.28937149047852 93.5 35.26533508300781 92.28397369384766 29.59518623352051 89.88570404052734 C 24.11771965026855 87.56893157958984 19.19813346862793 84.25196075439453 14.97309303283691 80.02691650390625 C 10.74804019927979 75.80186462402344 7.431066513061523 70.88229370117188 5.114293098449707 65.40481567382812 C 2.716026782989502 59.73468017578125 1.5 53.71062850952148 1.5 47.5 C 1.5 41.28937149047852 2.716026782989502 35.26533508300781 5.114293098449707 29.59518623352051 C 7.431066513061523 24.11771965026855 10.74804019927979 19.19813346862793 14.97309303283691 14.97309303283691 C 19.19813346862793 10.74804019927979 24.11771965026855 7.431066513061523 29.59518623352051 5.114293098449707 C 35.26533508300781 2.716026782989502 41.28937149047852 1.5 47.5 1.5 C 53.71062850952148 1.5 59.73468017578125 2.716026782989502 65.40481567382812 5.114293098449707 C 70.88229370117188 7.431066513061523 75.80186462402344 10.74804019927979 80.02691650390625 14.97309303283691 C 84.25196075439453 19.19813346862793 87.56893157958984 24.11771965026855 89.88570404052734 29.59518623352051 C 92.28397369384766 35.26533508300781 93.5 41.28937149047852 93.5 47.5 C 93.5 53.71062850952148 92.28397369384766 59.73468017578125 89.88570404052734 65.40481567382812 C 87.56893157958984 70.88229370117188 84.25196075439453 75.80186462402344 80.02691650390625 80.02691650390625 C 75.80186462402344 84.25196075439453 70.88229370117188 87.56893157958984 65.40481567382812 89.88570404052734 C 59.73468017578125 92.28397369384766 53.71062850952148 93.5 47.5 93.5 Z" stroke="none"/>
                        <path d="M 47.5 3 C 41.49121475219727 3 35.66376876831055 4.176155090332031 30.17950439453125 6.495796203613281 C 24.88084411621094 8.736953735351562 20.12152099609375 11.94598388671875 16.03375244140625 16.03375244140625 C 11.94598388671875 20.12152099609375 8.736953735351562 24.88084411621094 6.495796203613281 30.17950439453125 C 4.176155090332031 35.66376876831055 3 41.49121475219727 3 47.5 C 3 53.50878524780273 4.176155090332031 59.33623123168945 6.495796203613281 64.82049560546875 C 8.736953735351562 70.11915588378906 11.94598388671875 74.87847900390625 16.03375244140625 78.96624755859375 C 20.12152099609375 83.05401611328125 24.88084411621094 86.26304626464844 30.17950439453125 88.50419616699219 C 35.66376876831055 90.82384490966797 41.49121475219727 92 47.5 92 C 53.50878524780273 92 59.33623123168945 90.82384490966797 64.82049560546875 88.50419616699219 C 70.11915588378906 86.26304626464844 74.87847900390625 83.05401611328125 78.96624755859375 78.96624755859375 C 83.05401611328125 74.87847900390625 86.26304626464844 70.11915588378906 88.50419616699219 64.82049560546875 C 90.82384490966797 59.33623123168945 92 53.50878524780273 92 47.5 C 92 41.49121475219727 90.82384490966797 35.66376876831055 88.50419616699219 30.17950439453125 C 86.26304626464844 24.88084411621094 83.05401611328125 20.12152099609375 78.96624755859375 16.03375244140625 C 74.87847900390625 11.94598388671875 70.11915588378906 8.736953735351562 64.82049560546875 6.495796203613281 C 59.33623123168945 4.176155090332031 53.50878524780273 3 47.5 3 M 47.5 0 C 73.7335205078125 0 95 21.2664794921875 95 47.5 C 95 73.7335205078125 73.7335205078125 95 47.5 95 C 21.2664794921875 95 0 73.7335205078125 0 47.5 C 0 21.2664794921875 21.2664794921875 0 47.5 0 Z" stroke="none" fill="#56838a"/>
                      </g>
                    </g>
                  </g>
                </g>
              </g>
            </g>
          </g>
        </g>
      </g>
    </g>
    <g id="asistencia-social_2_" data-name="asistencia-social (2)" transform="translate(1055.227 5052)">
      <g id="Grupo_1171129" data-name="Grupo 1171129" transform="translate(1.181 19.641)">
        <path id="Trazado_1016358" data-name="Trazado 1016358" d="M21.317,192.7l-3.852-4.1a7.1,7.1,0,0,1-1.925-4.86V169.224a2.77,2.77,0,0,0-2.17-2.7h0a2.77,2.77,0,0,0-3.37,2.7v18.3a10.31,10.31,0,0,0,1.9,5.969l2.1,2.964,5.034,7.092,1.776,2.5H34.239l-1.933-9.214a16.289,16.289,0,0,0-6.853-10.173l-4.128-2.775a2.958,2.958,0,0,0-3.865.493h0a3.183,3.183,0,0,0,.067,4.3c2.26,2.4,5.623,5.976,5.623,5.976" transform="translate(-10 -166.453)" fill="#ffcdac"/>
        <path id="Trazado_1016359" data-name="Trazado 1016359" d="M309.5,192.7l3.852-4.1a7.1,7.1,0,0,0,1.925-4.86V169.224a2.77,2.77,0,0,1,2.17-2.7h0a2.77,2.77,0,0,1,3.37,2.7v18.3a10.311,10.311,0,0,1-1.9,5.969l-2.1,2.964-5.034,7.092-1.776,2.5H296.581l1.933-9.214a16.289,16.289,0,0,1,6.853-10.173l4.128-2.775a2.958,2.958,0,0,1,3.865.493h0a3.183,3.183,0,0,1-.067,4.3c-2.26,2.4-5.623,5.976-5.623,5.976" transform="translate(-262.765 -166.453)" fill="#ffcdac"/>
      </g>
      <g id="Grupo_1171130" data-name="Grupo 1171130" transform="translate(12.201 21.194)">
        <path id="Trazado_1016360" data-name="Trazado 1016360" d="M280.137,183.44a4.354,4.354,0,0,1,2.126-1.217l3.013-.722v-1.839h3.679v1.845h0l3.005.718a4.366,4.366,0,0,1,3.351,4.246v2.2H288.65Z" transform="translate(-259.281 -179.656)" fill="#7d9bff"/>
        <path id="Trazado_1016361" data-name="Trazado 1016361" d="M118.565,183.389a4.355,4.355,0,0,0-2.126-1.217l-3.013-.722v-1.839h-3.679v1.845h0l-3.005.718a4.366,4.366,0,0,0-3.351,4.246v2.2h6.661Z" transform="translate(-103.39 -179.611)" fill="#7d9bff"/>
      </g>
      <path id="Trazado_1016362" data-name="Trazado 1016362" d="M168.084,211.07l-4.2,1.006a6.081,6.081,0,0,0-4.664,5.914v4.243h22.839v-4.24a6.081,6.081,0,0,0-4.668-5.914l-4.186-1" transform="translate(-140.434 -186.164)" fill="#78d2fa"/>
      <path id="Trazado_1016363" data-name="Trazado 1016363" d="M239.438,189.357v2.57l-2.561,5.825-2.564-5.833v-2.562" transform="translate(-206.663 -167.013)" fill="#ffb487"/>
      <path id="Trazado_1016364" data-name="Trazado 1016364" d="M219.141,114.551V118.1a5.712,5.712,0,0,1-5.712,5.712h0a5.712,5.712,0,0,1-5.712-5.712v-3.549" transform="translate(-183.205 -101.034)" fill="#ffcdac"/>
      <path id="Trazado_1016365" data-name="Trazado 1016365" d="M213.428,64h0a5.712,5.712,0,0,0-5.712,5.712v1.375h2.793a6.276,6.276,0,0,0,4.81-2.245h0l3.821,2.245V69.712A5.712,5.712,0,0,0,213.428,64Z" transform="translate(-183.205 -56.448)" fill="#bebebe"/>
      <path id="Trazado_1016366" data-name="Trazado 1016366" d="M146.317,94.7v-.987a4.1,4.1,0,0,0-4.1-4.1h0a4.1,4.1,0,0,0-4.1,4.1V94.7h2.827a9.778,9.778,0,0,0,5.026-1.391h0" transform="translate(-121.817 -79.037)" fill="#f5b955"/>
      <path id="Trazado_1016367" data-name="Trazado 1016367" d="M146.317,125.9v2.548a4.1,4.1,0,0,1-4.1,4.1h0a4.1,4.1,0,0,1-4.1-4.1V125.9" transform="translate(-121.817 -111.047)" fill="#ffcdac"/>
      <path id="Trazado_1016368" data-name="Trazado 1016368" d="M304.5,94.751v-.987a4.1,4.1,0,0,1,4.1-4.1h0a4.1,4.1,0,0,1,4.1,4.1v.987h-2.827a9.778,9.778,0,0,1-5.026-1.391h0" transform="translate(-268.568 -79.082)" fill="#f5b955"/>
      <path id="Trazado_1016369" data-name="Trazado 1016369" d="M304.5,125.955V128.5a4.1,4.1,0,0,0,4.1,4.1h0a4.1,4.1,0,0,0,4.1-4.1v-2.548" transform="translate(-268.568 -111.092)" fill="#ffcdac"/>
      <path id="Trazado_1016370" data-name="Trazado 1016370" d="M78.766,471.289a1.18,1.18,0,1,0-1.924,1.366l1.776,2.5a1.18,1.18,0,1,0,1.924-1.366Z" transform="translate(-67.581 -415.238)"/>
      <path id="Trazado_1016371" data-name="Trazado 1016371" d="M24.642,187.769a17.378,17.378,0,0,0-7.349-10.91l-4.128-2.776a4.152,4.152,0,0,0-5.263.537V160.4a3.95,3.95,0,0,0-6.422-3.081A3.931,3.931,0,0,0,0,160.4v18.3a11.43,11.43,0,0,0,2.121,6.652l2.1,2.964a1.18,1.18,0,0,0,1.924-1.366l-2.1-2.964A9.082,9.082,0,0,1,2.361,178.7V160.4a1.59,1.59,0,1,1,3.18,0v14.516a8.245,8.245,0,0,0,2.126,5.536c.059.07.119.14.183.208.784.83,1.7,1.809,2.573,2.731l1.215,1.293.012.012,1.822,1.939a1.18,1.18,0,1,0,1.72-1.616c-.021-.023-1.4-1.494-2.98-3.17l-2.706-2.88-.02-.022a1.991,1.991,0,0,1,.038-2.61,1.784,1.784,0,0,1,2.323-.3l4.128,2.776a15.029,15.029,0,0,1,6.357,9.436l1.933,9.214a1.18,1.18,0,1,0,2.31-.485Z" transform="translate(0 -137.99)"/>
      <path id="Trazado_1016372" data-name="Trazado 1016372" d="M58.025,442.07a1.18,1.18,0,0,0-1.921,1.371l.008.011a1.18,1.18,0,1,0,1.921-1.371Z" transform="translate(-49.289 -389.47)"/>
      <path id="Trazado_1016373" data-name="Trazado 1016373" d="M311.7,157.324a3.95,3.95,0,0,0-6.422,3.081v14.218a4.152,4.152,0,0,0-5.263-.537l-4.128,2.775a17.377,17.377,0,0,0-7.349,10.91l-1.933,9.214a1.18,1.18,0,1,0,2.31.484l1.933-9.214a15.03,15.03,0,0,1,6.357-9.436l4.128-2.775a1.784,1.784,0,0,1,2.323.3,1.991,1.991,0,0,1,.041,2.607l-.022.025-5.686,6.05a1.18,1.18,0,1,0,1.72,1.616c.016-.017,4.838-5.144,5.621-5.974.064-.068.124-.137.183-.208a8.245,8.245,0,0,0,2.127-5.536V160.4a1.59,1.59,0,1,1,3.18,0v18.3a9.082,9.082,0,0,1-1.685,5.286l-8.915,12.558a1.18,1.18,0,1,0,1.924,1.366l8.915-12.558a11.43,11.43,0,0,0,2.121-6.652V160.4A3.933,3.933,0,0,0,311.7,157.324Z" transform="translate(-252.763 -137.992)"/>
      <path id="Trazado_1016374" data-name="Trazado 1016374" d="M124,84.877a1.18,1.18,0,0,0,1.18-1.18v-4.24c0-.146-.006-.291-.014-.435H130.6a1.18,1.18,0,0,0,1.18-1.18v-2.2a5.528,5.528,0,0,0-4.257-5.394l-2.1-.5v-.376a5.278,5.278,0,0,0,2.259-4.327V62.31a5.277,5.277,0,0,0-8.708-4.014,6.89,6.89,0,0,0-12.769.009,5.277,5.277,0,0,0-8.719,4v2.729a5.278,5.278,0,0,0,2.259,4.327v.376l-2.1.5a5.528,5.528,0,0,0-4.257,5.394v2.2a1.18,1.18,0,0,0,1.18,1.18h5.422c-.008.143-.014.287-.014.432V83.7a1.18,1.18,0,0,0,1.18,1.18h7.093a1.18,1.18,0,1,0,0-2.36h-1.219V80.078a1.18,1.18,0,0,0-2.36,0v2.439h-2.334V79.454a4.886,4.886,0,0,1,3.759-4.766l3.238-.776,2.167,4.93a1.18,1.18,0,0,0,1.08.705h0a1.18,1.18,0,0,0,1.08-.705l2.165-4.923,3.228.771a4.885,4.885,0,0,1,3.762,4.767v3.06h-2.334V80.078a1.18,1.18,0,0,0-2.36,0v2.439h-1.337a1.18,1.18,0,1,0,0,2.36ZM108.839,70.561a5.536,5.536,0,0,0-.945-.319l-2.108-.505v-.368a5.324,5.324,0,0,0,1.023-.934,6.947,6.947,0,0,0,2.03,2.035Zm-8.991-5.522v-.562h1.647a10.962,10.962,0,0,0,4.2-.836v1.4a2.921,2.921,0,0,1-5.842,0Zm8.213-.345V63.447h1.613a7.435,7.435,0,0,0,5.014-1.937l2.433,1.43v1.926a4.532,4.532,0,0,1-9.06-.173Zm8.263,5.871v-.08a6.945,6.945,0,0,0,2.047-2.04,5.324,5.324,0,0,0,1.014.924v.368l-2.108.505A5.552,5.552,0,0,0,116.324,70.564Zm3.157-5.526v-.172c0-.057,0-.115,0-.173V63.643a10.961,10.961,0,0,0,4.191.834h1.647v.562a2.921,2.921,0,1,1-5.842,0Zm2.921-5.65a2.925,2.925,0,0,1,2.915,2.729h-1.641a8.6,8.6,0,0,1-3.956-.964A2.925,2.925,0,0,1,122.4,59.388Zm-14.341,1.5a4.533,4.533,0,0,1,9.008-.72L115.082,59a1.18,1.18,0,0,0-1.5.26,5.084,5.084,0,0,1-3.906,1.823h-1.613v-.2Zm-5.292-1.5a2.926,2.926,0,0,1,2.682,1.764,8.6,8.6,0,0,1-3.956.964H99.854A2.925,2.925,0,0,1,102.769,59.388Zm2.778,13a7.237,7.237,0,0,0-5.014,4.269H95.75V75.638a3.175,3.175,0,0,1,2.446-3.1l3.005-.718a1.18,1.18,0,0,0,.906-1.148v-.4a5.122,5.122,0,0,0,1.319,0v.337c0,.018,0,.035,0,.053a1.182,1.182,0,0,0,.959,1.161l1.76.422Zm7.035,3.043L111.2,72.286v-.842a6.916,6.916,0,0,0,2.765,0v.846Zm7.021-3.04-.592-.141,1.77-.424a1.181,1.181,0,0,0,.964-1.162c0-.009,0-.019,0-.028v-.362a5.123,5.123,0,0,0,1.319,0v.4a1.18,1.18,0,0,0,.906,1.148l3.005.718a3.176,3.176,0,0,1,2.446,3.1v1.024h-4.8A7.235,7.235,0,0,0,119.6,72.395Z" transform="translate(-82.369 -47.628)"/>
      <path id="Trazado_1016375" data-name="Trazado 1016375" d="M247.18,295.67a1.179,1.179,0,1,0,.834.345A1.185,1.185,0,0,0,247.18,295.67Z" transform="translate(-216.971 -260.781)"/>
      <path id="Trazado_1016376" data-name="Trazado 1016376" d="M247.174,4.126a1.18,1.18,0,0,0,1.18-1.18V1.18a1.18,1.18,0,1,0-2.36,0V2.946A1.18,1.18,0,0,0,247.174,4.126Z" transform="translate(-216.966)"/>
      <path id="Trazado_1016377" data-name="Trazado 1016377" d="M193.183,22.464a1.18,1.18,0,1,0,1.668-1.669l-1.238-1.237a1.18,1.18,0,1,0-1.668,1.669Z" transform="translate(-168.99 -16.946)"/>
      <path id="Trazado_1016378" data-name="Trazado 1016378" d="M290.926,23.059a1.176,1.176,0,0,0,.835-.346l1.228-1.229a1.18,1.18,0,1,0-1.67-1.668l-1.228,1.229a1.18,1.18,0,0,0,.835,2.014Z" transform="translate(-255.555 -17.172)"/>
    </g>
  </g>
</svg>
