<svg xmlns="http://www.w3.org/2000/svg" xmlns:xlink="http://www.w3.org/1999/xlink" width="110" height="110" viewBox="0 0 110 110">
  <defs>
    <filter id="Trazado_982547" x="0" y="0" width="110" height="110" filterUnits="userSpaceOnUse">
      <feOffset dy="3" input="SourceAlpha"/>
      <feGaussianBlur stdDeviation="3" result="blur"/>
      <feFlood flood-opacity="0.161"/>
      <feComposite operator="in" in2="blur"/>
      <feComposite in="SourceGraphic"/>
    </filter>
  </defs>
  <g id="Grupo_1171229" data-name="Grupo 1171229" transform="translate(-692 -1786)">
    <g id="Grupo_1171023" data-name="Grupo 1171023" transform="translate(0.771 -380)">
      <g id="Grupo_1162553" data-name="Grupo 1162553" transform="translate(700.229 2172)">
        <g id="Grupo_1162412" data-name="Grupo 1162412" transform="translate(0 0)">
          <g id="Grupo_1158638" data-name="Grupo 1158638" transform="translate(0 0)">
            <g id="Grupo_1155734" data-name="Grupo 1155734">
              <g id="Grupo_1154704" data-name="Grupo 1154704">
                <g id="Grupo_1150790" data-name="Grupo 1150790" transform="translate(0 0)">
                  <g id="Grupo_1154214" data-name="Grupo 1154214" transform="translate(0)">
                    <g id="Grupo_1152583" data-name="Grupo 1152583">
                      <g id="Grupo_1146973" data-name="Grupo 1146973">
                        <g id="Grupo_1146954" data-name="Grupo 1146954">
                          <g transform="matrix(1, 0, 0, 1, -9, -6)" filter="url(#Trazado_982547)">
                            <g id="Trazado_982547-2" data-name="Trazado 982547" transform="translate(9 6)" fill="#ebe9f0">
                              <path d="M 46.00000381469727 90.49986267089844 C 39.99188232421875 90.49986267089844 34.16427230834961 89.32350158691406 28.67905807495117 87.00344848632812 C 23.38020324707031 84.76223754882812 18.62104415893555 81.55341339111328 14.53375053405762 77.46613311767578 C 10.44647026062012 73.37885284423828 7.237643718719482 68.61968994140625 4.996417045593262 63.32085037231445 C 2.676363706588745 57.83565139770508 1.500003814697266 52.00805282592773 1.500003814697266 45.99993133544922 C 1.500003814697266 39.99182510375977 2.676363706588745 34.16422653198242 4.996417045593262 28.67901039123535 C 7.237643718719482 23.38017082214355 10.44647026062012 18.62101173400879 14.53375053405762 14.53373146057129 C 18.62104415893555 10.44645118713379 23.38020324707031 7.237624645233154 28.67905807495117 4.996411323547363 C 34.16427230834961 2.676357984542847 39.99188232421875 1.499997973442078 46.00000381469727 1.499997973442078 C 52.00812530517578 1.499997973442078 57.83573532104492 2.676357984542847 63.32094955444336 4.996411323547363 C 68.61980438232422 7.237624645233154 73.37896728515625 10.44645118713379 77.46625518798828 14.53373146057129 C 81.55353546142578 18.62101173400879 84.76236724853516 23.38017082214355 87.00359344482422 28.67901039123535 C 89.32364654541016 34.16422653198242 90.5 39.99182510375977 90.5 45.99993133544922 C 90.5 52.00805282592773 89.32364654541016 57.83565139770508 87.00359344482422 63.32085037231445 C 84.76236724853516 68.61968994140625 81.55353546142578 73.37885284423828 77.46625518798828 77.46613311767578 C 73.37896728515625 81.55341339111328 68.61980438232422 84.76223754882812 63.32094955444336 87.00344848632812 C 57.83573532104492 89.32350158691406 52.00812530517578 90.49986267089844 46.00000381469727 90.49986267089844 Z" stroke="none"/>
                              <path d="M 46.00000381469727 3 C 40.19371795654297 3 34.56270217895508 4.136505126953125 29.26337432861328 6.377914428710938 C 24.14333343505859 8.54351806640625 19.54441833496094 11.64438629150391 15.59440612792969 15.59439086914062 C 11.64440155029297 19.54440307617188 8.54351806640625 24.14330291748047 6.377914428710938 29.26334381103516 C 4.136505126953125 34.56266021728516 3.000007629394531 40.19366073608398 3.000007629394531 45.99993133544922 C 3.000007629394531 51.80620193481445 4.136505126953125 57.43720245361328 6.377914428710938 62.73651885986328 C 8.54351806640625 67.85655975341797 11.64440155029297 72.45545959472656 15.59440612792969 76.40547180175781 C 19.54441833496094 80.35547637939453 24.14333343505859 83.45634460449219 29.26337432861328 85.6219482421875 C 34.56270217895508 87.86335754394531 40.19371795654297 88.99986267089844 46.00000381469727 88.99986267089844 C 51.80628967285156 88.99986267089844 57.43730545043945 87.86335754394531 62.73661804199219 85.6219482421875 C 67.85667419433594 83.45634460449219 72.45557403564453 80.35547637939453 76.40558624267578 76.40547180175781 C 80.35560607910156 72.45545959472656 83.45647430419922 67.85655975341797 85.62207794189453 62.73651885986328 C 87.86350250244141 57.43720245361328 89 51.80620193481445 89 45.99993133544922 C 89 40.19366073608398 87.86350250244141 34.56266021728516 85.62207794189453 29.26334381103516 C 83.45647430419922 24.14330291748047 80.35560607910156 19.54440307617188 76.40558624267578 15.59439086914062 C 72.45557403564453 11.64438629150391 67.85667419433594 8.54351806640625 62.73661804199219 6.377914428710938 C 57.43730545043945 4.136505126953125 51.80628967285156 3 46.00000381469727 3 M 46.00000381469727 0 C 71.40509033203125 0 92 20.59487152099609 92 45.99993133544922 C 92 71.40499114990234 71.40509033203125 91.99986267089844 46.00000381469727 91.99986267089844 C 20.59490203857422 91.99986267089844 7.62939453125e-06 71.40499114990234 7.62939453125e-06 45.99993133544922 C 7.62939453125e-06 20.59487152099609 20.59490203857422 0 46.00000381469727 0 Z" stroke="none" fill="#453179"/>
                            </g>
                          </g>
                        </g>
                      </g>
                    </g>
                  </g>
                </g>
              </g>
            </g>
          </g>
        </g>
      </g>
    </g>
    <g id="grano-de-cacao" transform="translate(707.019 1806.001)">
      <g id="Grupo_1171227" data-name="Grupo 1171227" transform="translate(9.898 0.928)">
        <g id="Grupo_1171226" data-name="Grupo 1171226" transform="translate(0)">
          <path id="Trazado_1016908" data-name="Trazado 1016908" d="M48.453,176.015c-.045,9.49-8.585,17.632-13.216,21.351a4.6,4.6,0,0,1-5.793-.027c-4.6-3.762-13.06-11.983-13.015-21.474.033-7.019,4.713-13.3,9.022-17.6a9.978,9.978,0,0,1,14.146.066C43.865,162.672,48.486,169,48.453,176.015Z" transform="translate(-16.429 -137.146)" fill="#d1a4a4"/>
          <path id="Trazado_1016909" data-name="Trazado 1016909" d="M32.524,197.347c-4.6-3.762-13.06-11.983-13.015-21.474.033-7.019,4.713-13.3,9.022-17.6a9.909,9.909,0,0,1,5.5-2.786,9.957,9.957,0,0,0-8.583,2.786c-4.309,4.3-8.989,10.581-9.022,17.6-.045,9.49,8.419,17.712,13.015,21.474a4.6,4.6,0,0,0,4.452.775,4.6,4.6,0,0,1-1.372-.775Z" transform="translate(-16.429 -137.154)" fill="#c59191"/>
          <path id="Trazado_1016910" data-name="Trazado 1016910" d="M101.3,176.015c-.021,9.49-3.953,17.632-6.085,21.351-.781,1.361-1.893,1.35-2.667-.027-2.116-3.762-6.013-11.983-5.993-21.474a43.029,43.029,0,0,1,4.154-17.6c1.8-3.9,4.73-3.872,6.513.066A43.5,43.5,0,0,1,101.3,176.015Z" transform="translate(-77.912 -137.146)" fill="#b98080"/>
          <path id="Trazado_1016911" data-name="Trazado 1016911" d="M124.316,17.3a1.726,1.726,0,0,0,.894,2.352,17.873,17.873,0,0,0,12.951-.247,17.873,17.873,0,0,0,9.844-8.42,1.726,1.726,0,0,0-.894-2.352,17.873,17.873,0,0,0-12.951.247A17.873,17.873,0,0,0,124.316,17.3Z" transform="translate(-110.871 -7.538)" fill="#bbec6c"/>
          <path id="Trazado_1016912" data-name="Trazado 1016912" d="M128.291,19.659a1.727,1.727,0,0,1-.894-2.352,17.874,17.874,0,0,1,9.844-8.42,20.452,20.452,0,0,1,5.534-1.276,19.589,19.589,0,0,0-8.614,1.276,17.873,17.873,0,0,0-9.844,8.42,1.726,1.726,0,0,0,.894,2.352,15.973,15.973,0,0,0,7.418,1.029A14.707,14.707,0,0,1,128.291,19.659Z" transform="translate(-110.871 -7.544)" fill="#a2e62e"/>
          <path id="Trazado_1016913" data-name="Trazado 1016913" d="M261.6,219.664c-4.958,8-16.4,10.46-22.248,11.2a4.561,4.561,0,0,1-4.885-3.026c-1.936-5.565-4.832-16.906.127-24.909,3.667-5.919,10.882-8.8,16.756-10.207a9.9,9.9,0,0,1,11.929,7.391c1.359,5.883,1.988,13.628-1.679,19.548Z" transform="translate(-205.304 -169.671)" fill="#d1a4a4"/>
          <path id="Trazado_1016914" data-name="Trazado 1016914" d="M237.67,202.933c-4.958,8-2.062,19.345-.127,24.91a4.558,4.558,0,0,0,2.977,2.863c-.41.062-.8.116-1.172.163a4.563,4.563,0,0,1-4.885-3.026c-1.936-5.565-4.831-16.906.127-24.91,3.668-5.919,10.883-8.8,16.756-10.206a9.829,9.829,0,0,1,3.838-.149q-.379.059-.758.149C248.553,194.129,241.338,197.014,237.67,202.933Z" transform="translate(-205.304 -169.672)" fill="#c59191"/>
          <path id="Trazado_1016915" data-name="Trazado 1016915" d="M266.951,252.325a.92.92,0,0,1-1.014-.628c-1.62-5.033-4.019-15.093,0-21.574,3.116-5.029,9.9-7.548,15.039-8.775a5.366,5.366,0,0,1,6.46,4c1.19,5.15,1.954,12.344-1.161,17.373C282.255,249.2,272.18,251.535,266.951,252.325Z" transform="translate(-233.264 -194.876)" fill="#c59191"/>
          <path id="Trazado_1016916" data-name="Trazado 1016916" d="M269.015,230.122c-4.017,6.482-1.616,16.542,0,21.575a.907.907,0,0,0,.124.249c-.792.155-1.53.28-2.191.379a.921.921,0,0,1-1.014-.628c-1.62-5.033-4.02-15.093,0-21.575,3.115-5.029,9.9-7.548,15.039-8.775a5.279,5.279,0,0,1,2.764.076c-5.1,1.254-11.671,3.771-14.722,8.7Z" transform="translate(-233.264 -194.875)" fill="#b98080"/>
        </g>
      </g>
      <g id="Grupo_1171228" data-name="Grupo 1171228" transform="translate(8.981 -0.001)">
        <path id="Trazado_1016917" data-name="Trazado 1016917" d="M68.956,39.959a.923.923,0,0,0-.951.9,19.016,19.016,0,0,1-2.595,9.578c-4.7,7.582-15.536,10-21.579,10.774a3.657,3.657,0,0,1-3.9-2.413,51.126,51.126,0,0,1-1.8-6.482A.927.927,0,0,0,38.1,52.1c-1.107-5.55-1.337-12.24,1.877-17.43,3.565-5.753,10.769-8.5,16.185-9.794a8.973,8.973,0,0,1,10.814,6.7,42.059,42.059,0,0,1,.837,4.846.924.924,0,0,0,1.837-.2,43.922,43.922,0,0,0-.873-5.06,10.821,10.821,0,0,0-13.044-8.081c-4.8,1.146-10.938,3.4-15.1,7.762a36.653,36.653,0,0,0-6.9-9.38,10.8,10.8,0,0,0-6.946-3.216,11.52,11.52,0,0,0-.933-3.7,17.075,17.075,0,0,0,4.246.52,21.015,21.015,0,0,0,7.427-1.407A18.75,18.75,0,0,0,47.872,4.778,2.651,2.651,0,0,0,46.5,1.169a18.748,18.748,0,0,0-13.634.237,18.783,18.783,0,0,0-10.308,8.8,11.689,11.689,0,0,0-7.4-2.646.924.924,0,0,0,0,1.848,9.836,9.836,0,0,1,7.35,3.3c.1.117.208.239.308.364a9.7,9.7,0,0,1,2.119,5.188,10.8,10.8,0,0,0-6.657,3.128c-4.22,4.212-9.258,10.8-9.293,18.25a20.857,20.857,0,0,0,2.927,10.292.924.924,0,0,0,1.612-.9,19.043,19.043,0,0,1-2.691-9.379c.032-6.824,4.777-12.984,8.751-16.95a9.011,9.011,0,0,1,2.7-1.857q-.221.382-.421.816a44.16,44.16,0,0,0-4.239,17.985A45.342,45.342,0,0,0,22.784,59.8a46.74,46.74,0,0,1-6.909-7.2A.924.924,0,1,0,14.4,53.719a49.441,49.441,0,0,0,7.933,8.116,5.549,5.549,0,0,0,6.957.033,50.033,50.033,0,0,0,7.455-7.344c.449,1.836.964,3.5,1.445,4.878a5.519,5.519,0,0,0,5.19,3.682,5.421,5.421,0,0,0,.685-.043c6.369-.811,17.816-3.4,22.916-11.635a20.827,20.827,0,0,0,2.871-10.5.925.925,0,0,0-.9-.951ZM26.842,59.905V20.4a5.224,5.224,0,0,1,1.529,2.1,42.776,42.776,0,0,1,4,17.3A43.389,43.389,0,0,1,26.842,59.905ZM33.523,3.134a16.894,16.894,0,0,1,12.269-.257.8.8,0,0,1,.417,1.1,16.9,16.9,0,0,1-9.341,7.959,17.122,17.122,0,0,1-11.8.439l9.158-3.481a.924.924,0,0,0-.657-1.728l-9.157,3.481a17.121,17.121,0,0,1,9.11-7.51Zm-9.985,19.3a5.232,5.232,0,0,1,1.456-2.014V60.034c-2.221-4.1-5.543-11.687-5.525-20.385A42.3,42.3,0,0,1,23.538,22.434Zm5.52,37.234A44.721,44.721,0,0,0,34.214,39.8a44.63,44.63,0,0,0-4.16-18.067,10.1,10.1,0,0,0-.474-.921,9,9,0,0,1,2.834,1.95,33.833,33.833,0,0,1,6.9,9.629c-.32.421-.624.857-.906,1.312-3.458,5.583-3.294,12.623-2.173,18.469a45.633,45.633,0,0,1-7.174,7.5Z" transform="translate(-8.981 0.001)"/>
        <path id="Trazado_1016918" data-name="Trazado 1016918" d="M278.955,214.628a6.234,6.234,0,0,0-4.736-.758c-5.31,1.268-12.328,3.891-15.61,9.187-4.17,6.731-1.846,16.889-.09,22.344a1.837,1.837,0,0,0,1.751,1.28,1.887,1.887,0,0,0,.281-.021c5.667-.856,15.8-3.3,19.967-10.029,3.282-5.3,2.505-12.749,1.276-18.068A6.231,6.231,0,0,0,278.955,214.628Zm-11.1,24.237a49.4,49.4,0,0,1-5.561-3.441,32.812,32.812,0,0,1,2.945-7.193l7.7,4.769A32.454,32.454,0,0,1,267.856,238.864Zm-7.134,5.338a48.415,48.415,0,0,1,1.079-6.869,51.2,51.2,0,0,0,4.574,2.829A47.528,47.528,0,0,1,260.722,244.2Zm7.416-3.115q1.116.556,2.261,1.059a39.618,39.618,0,0,1-6.086,1.914A47.177,47.177,0,0,0,268.138,241.088Zm-1.929-14.432a32.617,32.617,0,0,1,5.1-5.857,49.424,49.424,0,0,1,5.533,3.424,32.993,32.993,0,0,1-2.933,7.2Zm6.579-7.155a46.672,46.672,0,0,1,3.886-2.908,2.207,2.207,0,0,1,1.1-.449.39.39,0,0,1,.18.037l.02.011c.18.119.315.583.215,1.363a47.542,47.542,0,0,1-.854,4.757A51.26,51.26,0,0,0,272.788,219.5Zm7.114-.855c.034.109.066.22.092.333a39.7,39.7,0,0,1,.942,6.072q-.976-.812-1.986-1.574A48.4,48.4,0,0,0,279.9,218.646Zm-5.253-2.979c.052-.012.1-.022.156-.033a47.472,47.472,0,0,0-3.78,2.941q-1.1-.55-2.233-1.048A39.7,39.7,0,0,1,274.648,215.667Zm-8.125,2.911q1.539.619,3.025,1.334a33.87,33.87,0,0,0-4.912,5.77l-3.925-2.432A16.748,16.748,0,0,1,266.523,218.578Zm-6.788,6.241,3.934,2.437a34.065,34.065,0,0,0-2.952,6.989q-1.336-1.037-2.606-2.168A16.6,16.6,0,0,1,259.735,224.82Zm-1.559,9.754q.987.822,2.008,1.594a48.09,48.09,0,0,0-.963,4.911A39.848,39.848,0,0,1,258.176,234.574Zm14.488,6.519q-1.552-.622-3.051-1.343a33.743,33.743,0,0,0,4.9-5.776l3.928,2.433A16.6,16.6,0,0,1,272.663,241.093Zm6.745-6.259-3.93-2.435a34.213,34.213,0,0,0,2.941-7q1.325,1.028,2.586,2.149A16.748,16.748,0,0,1,279.408,234.834Z" transform="translate(-225.801 -187.368)"/>
      </g>
    </g>
  </g>
</svg>
