<svg xmlns="http://www.w3.org/2000/svg" xmlns:xlink="http://www.w3.org/1999/xlink" width="110" height="110" viewBox="0 0 110 110">
  <defs>
    <filter id="Trazado_982547" x="0" y="0" width="110" height="110" filterUnits="userSpaceOnUse">
      <feOffset dy="3" input="SourceAlpha"/>
      <feGaussianBlur stdDeviation="3" result="blur"/>
      <feFlood flood-opacity="0.161"/>
      <feComposite operator="in" in2="blur"/>
      <feComposite in="SourceGraphic"/>
    </filter>
  </defs>
  <g id="Grupo_1171219" data-name="Grupo 1171219" transform="translate(-377 -1489)">
    <g id="Grupo_1171020" data-name="Grupo 1171020" transform="translate(0.772 -676)">
      <g id="Grupo_1162529" data-name="Grupo 1162529" transform="translate(385.229 2171)">
        <g id="Grupo_1162411" data-name="Grupo 1162411" transform="translate(0)">
          <g id="Grupo_1158637" data-name="Grupo 1158637" transform="translate(0 0)">
            <g id="Grupo_1155724" data-name="Grupo 1155724">
              <g id="Grupo_1154703" data-name="Grupo 1154703">
                <g id="Grupo_1150789" data-name="Grupo 1150789" transform="translate(0 0)">
                  <g id="Grupo_1154212" data-name="Grupo 1154212" transform="translate(0)">
                    <g id="Grupo_1152583" data-name="Grupo 1152583">
                      <g id="Grupo_1146973" data-name="Grupo 1146973">
                        <g id="Grupo_1146954" data-name="Grupo 1146954">
                          <g transform="matrix(1, 0, 0, 1, -9, -6)" filter="url(#Trazado_982547)">
                            <g id="Trazado_982547-2" data-name="Trazado 982547" transform="translate(9 6)" fill="#ebe9f0">
                              <path d="M 46.00000381469727 90.49986267089844 C 39.99188232421875 90.49986267089844 34.16427230834961 89.32350158691406 28.67905807495117 87.00344848632812 C 23.38020324707031 84.76223754882812 18.62104415893555 81.55341339111328 14.53375053405762 77.46613311767578 C 10.44647026062012 73.37885284423828 7.237643718719482 68.61968994140625 4.996417045593262 63.32085037231445 C 2.676363706588745 57.83565139770508 1.500003814697266 52.00805282592773 1.500003814697266 45.99993133544922 C 1.500003814697266 39.99182510375977 2.676363706588745 34.16422653198242 4.996417045593262 28.67901039123535 C 7.237643718719482 23.38017082214355 10.44647026062012 18.62101173400879 14.53375053405762 14.53373146057129 C 18.62104415893555 10.44645118713379 23.38020324707031 7.237624645233154 28.67905807495117 4.996411323547363 C 34.16427230834961 2.676357984542847 39.99188232421875 1.499997973442078 46.00000381469727 1.499997973442078 C 52.00812530517578 1.499997973442078 57.83573532104492 2.676357984542847 63.32094955444336 4.996411323547363 C 68.61980438232422 7.237624645233154 73.37896728515625 10.44645118713379 77.46625518798828 14.53373146057129 C 81.55353546142578 18.62101173400879 84.76236724853516 23.38017082214355 87.00359344482422 28.67901039123535 C 89.32364654541016 34.16422653198242 90.5 39.99182510375977 90.5 45.99993133544922 C 90.5 52.00805282592773 89.32364654541016 57.83565139770508 87.00359344482422 63.32085037231445 C 84.76236724853516 68.61968994140625 81.55353546142578 73.37885284423828 77.46625518798828 77.46613311767578 C 73.37896728515625 81.55341339111328 68.61980438232422 84.76223754882812 63.32094955444336 87.00344848632812 C 57.83573532104492 89.32350158691406 52.00812530517578 90.49986267089844 46.00000381469727 90.49986267089844 Z" stroke="none"/>
                              <path d="M 46.00000381469727 3 C 40.19371795654297 3 34.56270217895508 4.136505126953125 29.26337432861328 6.377914428710938 C 24.14333343505859 8.54351806640625 19.54441833496094 11.64438629150391 15.59440612792969 15.59439086914062 C 11.64440155029297 19.54440307617188 8.54351806640625 24.14330291748047 6.377914428710938 29.26334381103516 C 4.136505126953125 34.56266021728516 3.000007629394531 40.19366073608398 3.000007629394531 45.99993133544922 C 3.000007629394531 51.80620193481445 4.136505126953125 57.43720245361328 6.377914428710938 62.73651885986328 C 8.54351806640625 67.85655975341797 11.64440155029297 72.45545959472656 15.59440612792969 76.40547180175781 C 19.54441833496094 80.35547637939453 24.14333343505859 83.45634460449219 29.26337432861328 85.6219482421875 C 34.56270217895508 87.86335754394531 40.19371795654297 88.99986267089844 46.00000381469727 88.99986267089844 C 51.80628967285156 88.99986267089844 57.43730545043945 87.86335754394531 62.73661804199219 85.6219482421875 C 67.85667419433594 83.45634460449219 72.45557403564453 80.35547637939453 76.40558624267578 76.40547180175781 C 80.35560607910156 72.45545959472656 83.45647430419922 67.85655975341797 85.62207794189453 62.73651885986328 C 87.86350250244141 57.43720245361328 89 51.80620193481445 89 45.99993133544922 C 89 40.19366073608398 87.86350250244141 34.56266021728516 85.62207794189453 29.26334381103516 C 83.45647430419922 24.14330291748047 80.35560607910156 19.54440307617188 76.40558624267578 15.59439086914062 C 72.45557403564453 11.64438629150391 67.85667419433594 8.54351806640625 62.73661804199219 6.377914428710938 C 57.43730545043945 4.136505126953125 51.80628967285156 3 46.00000381469727 3 M 46.00000381469727 0 C 71.40509033203125 0 92 20.59487152099609 92 45.99993133544922 C 92 71.40499114990234 71.40509033203125 91.99986267089844 46.00000381469727 91.99986267089844 C 20.59490203857422 91.99986267089844 7.62939453125e-06 71.40499114990234 7.62939453125e-06 45.99993133544922 C 7.62939453125e-06 20.59487152099609 20.59490203857422 0 46.00000381469727 0 Z" stroke="none" fill="#453179"/>
                            </g>
                          </g>
                        </g>
                      </g>
                    </g>
                  </g>
                </g>
              </g>
            </g>
          </g>
        </g>
      </g>
    </g>
    <g id="aceite-de-palma" transform="translate(393.874 1509)">
      <g id="Grupo_1171217" data-name="Grupo 1171217" transform="translate(8.052 0.925)">
        <path id="Trazado_1016837" data-name="Trazado 1016837" d="M344.934,7.5h-1.241l-.5.354-.463.925v5.269h3.31l.326-.36V8.929A1.429,1.429,0,0,0,344.934,7.5Z" transform="translate(-302.25 -7.5)" fill="#e39b74"/>
        <path id="Trazado_1016838" data-name="Trazado 1016838" d="M403.893,153.855v2.673l.378.678a5.755,5.755,0,0,1,5.176,10.084v1.1l1.3,1.148,1.167.511a9.453,9.453,0,0,0-7.647-16.648Z" transform="translate(-355.87 -135.267)" fill="#dbedff"/>
        <path id="Trazado_1016839" data-name="Trazado 1016839" d="M321.223,8.929A1.429,1.429,0,0,1,322.652,7.5H319.3a1.429,1.429,0,0,0-1.429,1.429v4.76l.311.36h3.352l-.311-.36V8.929Z" transform="translate(-280.462 -7.5)" fill="#da7e4a"/>
        <g id="Grupo_1171216" data-name="Grupo 1171216" transform="translate(44.332 18.135)">
          <path id="Trazado_1016840" data-name="Trazado 1016840" d="M378.045,158.3v-3.8a9.417,9.417,0,0,0-3.7,1.543l-.368.77V161.1l.368.7A5.785,5.785,0,0,1,378.045,158.3Z" transform="translate(-373.976 -154.5)" fill="#b5dcff"/>
          <path id="Trazado_1016841" data-name="Trazado 1016841" d="M415.577,267.06a5.741,5.741,0,0,1-4.691,1.045l.243.844,2.822,2.483.775.129a9.451,9.451,0,0,0,3.322-1.74A19.089,19.089,0,0,0,415.577,267.06Z" transform="translate(-406.332 -253.173)" fill="#b5dcff"/>
        </g>
        <path id="Trazado_1016842" data-name="Trazado 1016842" d="M303.187,84.2a7.088,7.088,0,0,1-3.611-6.141V63.139a.948.948,0,0,1,.948-.948,2.337,2.337,0,0,0,2.32-2.185,2.262,2.262,0,0,0-2.261-2.34h-6.871l-1.426.822v1.892l1.072,2.1,2.28.473V80.531l-6.952,8.574h18.922l.465-.473A15.307,15.307,0,0,0,303.187,84.2Z" transform="translate(-254.876 -51.478)" fill="#dbedff"/>
        <path id="Trazado_1016843" data-name="Trazado 1016843" d="M253.6,86.83a7.088,7.088,0,0,0,3.611-6.141V63.139a.948.948,0,0,0-.948-.948h-.059a2.262,2.262,0,0,1-2.262-2.219,2.311,2.311,0,0,1,2.321-2.306H251.8a2.311,2.311,0,0,0-2.321,2.306,2.262,2.262,0,0,0,2.262,2.219h.059a.948.948,0,0,1,.948.948V78.056a7.088,7.088,0,0,1-3.611,6.141,15.308,15.308,0,0,0-4.885,4.436l.954.473h5.364A15.248,15.248,0,0,1,253.6,86.83Z" transform="translate(-215.928 -51.478)" fill="#b5dcff"/>
        <path id="Trazado_1016844" data-name="Trazado 1016844" d="M278.605,308.665h-19l-.563.695-3.967,7.114.115.581,1.878,12.419v1.275l.669,1.128a1.9,1.9,0,0,0,1.642.948h13.589a1.9,1.9,0,0,0,1.9-1.9,1.9,1.9,0,0,1,.725-1.491,15.23,15.23,0,0,0,3.016-20.77Z" transform="translate(-225.409 -271.51)" fill="#ffe02f"/>
        <path id="Trazado_1016845" data-name="Trazado 1016845" d="M243.156,308.739l-.1.249,1.6,8.065.076.5a25.31,25.31,0,0,1,5.306-8.893h-6.832Z" transform="translate(-214.879 -271.509)" fill="#fbc700"/>
        <path id="Trazado_1016846" data-name="Trazado 1016846" d="M164.894,245.344l-.595-.5-.473-3.557.251-1.088a61.024,61.024,0,0,0-1.864-7.131l-.652-.291-1.875-4.917v-1.135a46.143,46.143,0,0,0-2.989-5.365l-.541-.586-4.339-1.636-1.711.233-.528,1.414,3.671,6.027,1.8,5.964,1.326,5.127,1.108,7.248L157,253.416l.6.925h6.195a1.614,1.614,0,0,0,1.613-1.648C165.349,250.095,165.17,247.646,164.894,245.344Z" transform="translate(-132.932 -193.026)" fill="#da7e4a"/>
        <path id="Trazado_1016847" data-name="Trazado 1016847" d="M142.722,229.534l-1.12,3,.179.78a49.884,49.884,0,0,1,1.766,5.532l.826.674.668,3.378-.47.7a69.352,69.352,0,0,1,.852,7.007l.666,1.314v3.67l-.472.8c0,1.705-.061,3.486-.184,5.346a1.613,1.613,0,0,0,1.608,1.719H150.6C151.731,242.652,145.317,232.677,142.722,229.534Z" transform="translate(-125.938 -202.142)" fill="#cb6c35"/>
        <path id="Trazado_1016848" data-name="Trazado 1016848" d="M120.227,93.39l1.2,7.68,1.434,4.1,1.813,2.917.958-2.834-.242-.555a17.389,17.389,0,0,0-4.723-11.746Z" transform="translate(-107.2 -82.411)" fill="#73d578"/>
        <path id="Trazado_1016849" data-name="Trazado 1016849" d="M108.8,97.509a27.777,27.777,0,0,1-4.194-14.449c-.4-.44-.772-.821-1.106-1.139a.918.918,0,0,0-1.547.606,22.736,22.736,0,0,0,3.369,13.613l.549.8,2.221,1.653h.387l.353-1.043Z" transform="translate(-91.137 -72.518)" fill="#4bce5b"/>
        <path id="Trazado_1016850" data-name="Trazado 1016850" d="M189.632,280.635a3.459,3.459,0,0,1-4.119.967,1.113,1.113,0,0,0-1.421.438,3.477,3.477,0,0,1-.353.482L185,286.687l.411,1.59a3.471,3.471,0,0,0,.511-.456,1.113,1.113,0,0,1,1.479-.151,3.458,3.458,0,0,0,4.762-.692,54.043,54.043,0,0,0-2.527-6.343Z" transform="translate(-162.877 -246.938)" fill="#e39b74"/>
        <path id="Trazado_1016851" data-name="Trazado 1016851" d="M160.94,292.384a3.455,3.455,0,0,1-3.578,1.561c.37,1.427.72,3.011,1.025,4.752a3.457,3.457,0,0,0,4.4-.564A44.571,44.571,0,0,0,160.94,292.384Z" transform="translate(-139.754 -257.238)" fill="#dd8858"/>
        <path id="Trazado_1016852" data-name="Trazado 1016852" d="M216.21,389.846a3.7,3.7,0,0,1-5.183.744,1.191,1.191,0,0,0-1.586.133,3.706,3.706,0,0,1-.393.357l.569,3.719-.126,2.144a3.688,3.688,0,0,0,.32-.3,1.191,1.191,0,0,1,1.586-.133,3.7,3.7,0,0,0,5.629-1.519C216.809,393.188,216.533,391.472,216.21,389.846Z" transform="translate(-185.063 -342.676)" fill="#e39b74"/>
        <path id="Trazado_1016853" data-name="Trazado 1016853" d="M177.414,397.391a3.7,3.7,0,0,1-4.839.365c.13,1.816.2,3.744.195,5.784a3.7,3.7,0,0,0,5.068-.28l.007-.006C177.776,401.164,177.627,399.212,177.414,397.391Z" transform="translate(-153.09 -349.29)" fill="#dd8858"/>
        <path id="Trazado_1016854" data-name="Trazado 1016854" d="M33.686,170.727l5.032,4.346,4.534,1.483,4.49.564.945-.264.2-.472-.211-.212c-.013-.015-.026-.03-.041-.044a22.49,22.49,0,0,0-14.95-5.968Z" transform="translate(-31.336 -150.093)" fill="#4bce5b"/>
        <path id="Trazado_1016855" data-name="Trazado 1016855" d="M31.616,176.734l-.333-.13c-6.888-.016-11.808-3.921-14.3-6.481-.48-.01-.969-.007-1.469.013a.918.918,0,0,0-.642,1.533c1.974,2.174,6.444,6.117,12.9,6.132l.289.113,3.924-1.095.091-.215Z" transform="translate(-14.637 -150.056)" fill="#00c63a"/>
        <path id="Trazado_1016856" data-name="Trazado 1016856" d="M182.911,116.785l-4.01,3.6s-2.9,4.647-3.023,4.822c-.056.079-.461,1.51-.893,3.071l3.638-1.478.327-.533a18.316,18.316,0,0,0,4.769-9.486h-.809Z" transform="translate(-155.204 -103.302)" fill="#4bce5b"/>
        <path id="Trazado_1016857" data-name="Trazado 1016857" d="M164.511,102.505c.065-.347.117-.671.158-.965a.918.918,0,0,0-1.4-.9,22.561,22.561,0,0,0-10.194,14.181c0,.012,0,.023-.006.035v.17l.327.252.787-.627,2.013-.818A22.606,22.606,0,0,1,164.511,102.505Z" transform="translate(-135.995 -89.023)" fill="#00c63a"/>
        <path id="Trazado_1016858" data-name="Trazado 1016858" d="M82.834,233h-1.04l-4.975,3.115-2.921,4.9-1.172,2.93.734.979A22.541,22.541,0,0,0,82.834,233Z" transform="translate(-65.56 -205.176)" fill="#00c63a"/>
        <path id="Trazado_1016859" data-name="Trazado 1016859" d="M67.542,221.572c.077-.235.144-.453.2-.65a.746.746,0,0,0-.937-.922c-8.334,2.646-10.8,9.993-11.5,13.407a.918.918,0,0,0,1.333.993q.8-.432,1.533-.9C58.98,230.189,61.261,224.441,67.542,221.572Z" transform="translate(-50.268 -193.753)" fill="#00b426"/>
        <path id="Trazado_1016860" data-name="Trazado 1016860" d="M174.812,190.648l2.221.241,5.864-.241,5.8-2.12v-.676a22.653,22.653,0,0,0-14.438,1.85Z" transform="translate(-154.568 -165.212)" fill="#00c63a"/>
        <path id="Trazado_1016861" data-name="Trazado 1016861" d="M172.582,191.177q-.386-.088-.766-.162a16.832,16.832,0,0,1-14.438,1.85,20.244,20.244,0,0,0-2.031,1.141.746.746,0,0,0,.1,1.311c8.014,3.5,14.707-.41,17.485-2.514A.918.918,0,0,0,172.582,191.177Z" transform="translate(-137.686 -168.375)" fill="#00b426"/>
      </g>
      <g id="Grupo_1171218" data-name="Grupo 1171218" transform="translate(7.126 0)">
        <path id="Trazado_1016862" data-name="Trazado 1016862" d="M18.561,29.38A19.54,19.54,0,0,0,12.18,40.392a1.843,1.843,0,0,0,2.677,1.995,23.775,23.775,0,0,0,8.837-8.12c2.741,8.13,3.5,17.461,2.93,26.193a2.54,2.54,0,0,0,2.532,2.705h9.753a2.514,2.514,0,0,0,1.51-.5,2.813,2.813,0,0,0,1.6.5H55.608a2.828,2.828,0,0,0,2.825-2.825.968.968,0,0,1,.372-.764A16.15,16.15,0,0,0,62.246,37.9a10.38,10.38,0,0,0-1.365-19.554.925.925,0,1,0-.487,1.785,8.531,8.531,0,0,1,.7,16.239,16.854,16.854,0,0,0-1.454-1.492,6.682,6.682,0,1,0-5.959-11.472V21.1a8.431,8.431,0,0,1,2.822-1.11.925.925,0,1,0-.358-1.816,10.271,10.271,0,0,0-2.464.82v-6.41a.023.023,0,0,1,.023-.023,3.244,3.244,0,0,0,3.245-3.079,3.185,3.185,0,0,0-3.186-3.3h-.668V2.354A2.357,2.357,0,0,0,50.736,0H46.891a2.357,2.357,0,0,0-2.354,2.354V6.189h-.609a3.236,3.236,0,0,0-3.246,3.248,3.2,3.2,0,0,0,3.187,3.127h.059a.023.023,0,0,1,.023.023V23.228a1.841,1.841,0,0,0-.8-.4,24,24,0,0,0-8.943-.373,20.45,20.45,0,0,0,3.431-8.883,1.843,1.843,0,0,0-2.8-1.814,23.806,23.806,0,0,0-7.97,8.138A19.592,19.592,0,0,0,21.053,9.659a1.843,1.843,0,0,0-3.109,1.218,23.859,23.859,0,0,0,2.028,11.381A23.8,23.8,0,0,0,8.9,20.082a1.843,1.843,0,0,0-1.29,3.079A19.337,19.337,0,0,0,18.561,29.38ZM14,40.749c1.213-5.847,4.686-10.59,10.543-12.584A21.746,21.746,0,0,1,14,40.749Zm12.21-11.72A17.38,17.38,0,0,0,31.3,30.158a45.631,45.631,0,0,1,2.4,4.272,2.536,2.536,0,0,1-2.622.318,2.044,2.044,0,0,0-2.6.8,2.533,2.533,0,0,1-2.094,1.219c-.5-1.852-1.016-3.393-1.475-4.61a22.851,22.851,0,0,0,1.3-3.128Zm2.349,21.864A4.628,4.628,0,0,0,33.1,49.611a.265.265,0,0,1,.36-.03,4.625,4.625,0,0,0,5.126.282c.184,1.061.343,2.141.478,3.228a2.777,2.777,0,0,1-4.124.931,2.122,2.122,0,0,0-2.811.236,2.778,2.778,0,0,1-3.472.449C28.653,53.526,28.62,52.159,28.556,50.893Zm7.912-2.249a2.776,2.776,0,0,1-1.9-.545,2.122,2.122,0,0,0-2.811.236,2.769,2.769,0,0,1-3.34.521c-.142-1.8-.34-3.492-.577-5.063a4.387,4.387,0,0,0,.708.06,4.331,4.331,0,0,0,.44-.022,4.379,4.379,0,0,0,2.786-1.4.188.188,0,0,1,.255-.026,4.392,4.392,0,0,0,4.848.191q.152.5.3,1.014l.016.057q.573,2.041,1.011,4.165a2.778,2.778,0,0,1-1.735.81ZM35.845,39.5l.038.1q.2.541.383,1.09l.017.05a2.534,2.534,0,0,1-3.17.165,2.043,2.043,0,0,0-2.7.275,2.531,2.531,0,0,1-1.61.807,2.5,2.5,0,0,1-1.284-.2c-.2-1.086-.421-2.157-.668-3.2a4.382,4.382,0,0,0,3.209-2.078.188.188,0,0,1,.245-.076,4.391,4.391,0,0,0,4.182-.3c.485,1.09.939,2.214,1.36,3.363Zm3.064,21.817H29.157a.687.687,0,0,1-.685-.733q.13-1.983.167-3.852a4.6,4.6,0,0,0,1.471.241q.2,0,.394-.017a4.621,4.621,0,0,0,2.966-1.422.265.265,0,0,1,.36-.03,4.632,4.632,0,0,0,5.494.043c.142,1.613.236,3.274.273,5.066h0a.689.689,0,0,1-.688.7Zm19.24-37.782a4.831,4.831,0,1,1-.864,9.584q-.229-.141-.463-.275A6.187,6.187,0,0,1,53.677,27.5v-.966A4.857,4.857,0,0,1,58.149,23.533ZM46.388,2.354a.5.5,0,0,1,.5-.5h3.845a.5.5,0,0,1,.5.5V6.189H46.388Zm-2.518,8.359A1.343,1.343,0,0,1,42.532,9.4a1.386,1.386,0,0,1,1.4-1.363h9.83a1.336,1.336,0,0,1,1.336,1.384,1.414,1.414,0,0,1-1.4,1.29,1.875,1.875,0,0,0-1.873,1.873V27.5A8.042,8.042,0,0,0,55.9,34.448a14.444,14.444,0,0,1,3.4,2.707H50.973a.925.925,0,0,0,0,1.851h9.78a14.291,14.291,0,0,1-3.093,19.117,2.845,2.845,0,0,0-.553.578,2.806,2.806,0,0,0-.524,1.64.975.975,0,0,1-.974.974H42.019A.971.971,0,0,1,41.4,61.1a2.579,2.579,0,0,0,.043-.522,67.02,67.02,0,0,0-3.811-21.568h9.019a.925.925,0,1,0,0-1.851H38.322a14.432,14.432,0,0,1,3.4-2.707A8.041,8.041,0,0,0,45.8,27.5V12.587a1.875,1.875,0,0,0-1.933-1.873Zm-.013,15.377c.033-.025.064-.051.1-.077V27.5a6.187,6.187,0,0,1-3.145,5.338,16.314,16.314,0,0,0-4.221,3.482,49.34,49.34,0,0,0-3.122-6.181,20.026,20.026,0,0,0,10.393-4.052Zm-1.132-1.464c-4.77,3.606-10.438,4.826-16.02,2.609l-.169-.067-.034-.014A21.719,21.719,0,0,1,42.724,24.626ZM35.807,13.333a17.825,17.825,0,0,1-4.5,9.735,23.2,23.2,0,0,0-4.734,1.906,21.818,21.818,0,0,1,9.23-11.641ZM22.914,23.884A21.909,21.909,0,0,1,19.79,11.011C21.87,13,25.319,17.17,25.32,23.03c-.3.756-.539,1.454-.719,2.063C24.121,24.715,23.515,24.275,22.914,23.884Zm.573,2.69a18.178,18.178,0,0,0-2.538,1.17c-5.89-.109-10.006-3.666-11.961-5.813A21.809,21.809,0,0,1,23.487,26.573Z" transform="translate(-7.126 0)"/>
      </g>
    </g>
  </g>
</svg>
