<svg xmlns="http://www.w3.org/2000/svg" xmlns:xlink="http://www.w3.org/1999/xlink" width="110" height="110" viewBox="0 0 110 110">
  <defs>
    <filter id="Trazado_982547" x="0" y="0" width="110" height="110" filterUnits="userSpaceOnUse">
      <feOffset dy="3" input="SourceAlpha"/>
      <feGaussianBlur stdDeviation="3" result="blur"/>
      <feFlood flood-opacity="0.161"/>
      <feComposite operator="in" in2="blur"/>
      <feComposite in="SourceGraphic"/>
    </filter>
  </defs>
  <g id="Grupo_1171225" data-name="Grupo 1171225" transform="translate(-377 -1785)">
    <g id="Grupo_1171022" data-name="Grupo 1171022" transform="translate(0.772 -380)">
      <g id="Grupo_1162529" data-name="Grupo 1162529" transform="translate(385.229 2171)">
        <g id="Grupo_1162411" data-name="Grupo 1162411" transform="translate(0)">
          <g id="Grupo_1158637" data-name="Grupo 1158637" transform="translate(0 0)">
            <g id="Grupo_1155724" data-name="Grupo 1155724">
              <g id="Grupo_1154703" data-name="Grupo 1154703">
                <g id="Grupo_1150789" data-name="Grupo 1150789" transform="translate(0 0)">
                  <g id="Grupo_1154212" data-name="Grupo 1154212" transform="translate(0)">
                    <g id="Grupo_1152583" data-name="Grupo 1152583">
                      <g id="Grupo_1146973" data-name="Grupo 1146973">
                        <g id="Grupo_1146954" data-name="Grupo 1146954">
                          <g transform="matrix(1, 0, 0, 1, -9, -6)" filter="url(#Trazado_982547)">
                            <g id="Trazado_982547-2" data-name="Trazado 982547" transform="translate(9 6)" fill="#ebe9f0">
                              <path d="M 46.00000381469727 90.49986267089844 C 39.99188232421875 90.49986267089844 34.16427230834961 89.32350158691406 28.67905807495117 87.00344848632812 C 23.38020324707031 84.76223754882812 18.62104415893555 81.55341339111328 14.53375053405762 77.46613311767578 C 10.44647026062012 73.37885284423828 7.237643718719482 68.61968994140625 4.996417045593262 63.32085037231445 C 2.676363706588745 57.83565139770508 1.500003814697266 52.00805282592773 1.500003814697266 45.99993133544922 C 1.500003814697266 39.99182510375977 2.676363706588745 34.16422653198242 4.996417045593262 28.67901039123535 C 7.237643718719482 23.38017082214355 10.44647026062012 18.62101173400879 14.53375053405762 14.53373146057129 C 18.62104415893555 10.44645118713379 23.38020324707031 7.237624645233154 28.67905807495117 4.996411323547363 C 34.16427230834961 2.676357984542847 39.99188232421875 1.499997973442078 46.00000381469727 1.499997973442078 C 52.00812530517578 1.499997973442078 57.83573532104492 2.676357984542847 63.32094955444336 4.996411323547363 C 68.61980438232422 7.237624645233154 73.37896728515625 10.44645118713379 77.46625518798828 14.53373146057129 C 81.55353546142578 18.62101173400879 84.76236724853516 23.38017082214355 87.00359344482422 28.67901039123535 C 89.32364654541016 34.16422653198242 90.5 39.99182510375977 90.5 45.99993133544922 C 90.5 52.00805282592773 89.32364654541016 57.83565139770508 87.00359344482422 63.32085037231445 C 84.76236724853516 68.61968994140625 81.55353546142578 73.37885284423828 77.46625518798828 77.46613311767578 C 73.37896728515625 81.55341339111328 68.61980438232422 84.76223754882812 63.32094955444336 87.00344848632812 C 57.83573532104492 89.32350158691406 52.00812530517578 90.49986267089844 46.00000381469727 90.49986267089844 Z" stroke="none"/>
                              <path d="M 46.00000381469727 3 C 40.19371795654297 3 34.56270217895508 4.136505126953125 29.26337432861328 6.377914428710938 C 24.14333343505859 8.54351806640625 19.54441833496094 11.64438629150391 15.59440612792969 15.59439086914062 C 11.64440155029297 19.54440307617188 8.54351806640625 24.14330291748047 6.377914428710938 29.26334381103516 C 4.136505126953125 34.56266021728516 3.000007629394531 40.19366073608398 3.000007629394531 45.99993133544922 C 3.000007629394531 51.80620193481445 4.136505126953125 57.43720245361328 6.377914428710938 62.73651885986328 C 8.54351806640625 67.85655975341797 11.64440155029297 72.45545959472656 15.59440612792969 76.40547180175781 C 19.54441833496094 80.35547637939453 24.14333343505859 83.45634460449219 29.26337432861328 85.6219482421875 C 34.56270217895508 87.86335754394531 40.19371795654297 88.99986267089844 46.00000381469727 88.99986267089844 C 51.80628967285156 88.99986267089844 57.43730545043945 87.86335754394531 62.73661804199219 85.6219482421875 C 67.85667419433594 83.45634460449219 72.45557403564453 80.35547637939453 76.40558624267578 76.40547180175781 C 80.35560607910156 72.45545959472656 83.45647430419922 67.85655975341797 85.62207794189453 62.73651885986328 C 87.86350250244141 57.43720245361328 89 51.80620193481445 89 45.99993133544922 C 89 40.19366073608398 87.86350250244141 34.56266021728516 85.62207794189453 29.26334381103516 C 83.45647430419922 24.14330291748047 80.35560607910156 19.54440307617188 76.40558624267578 15.59439086914062 C 72.45557403564453 11.64438629150391 67.85667419433594 8.54351806640625 62.73661804199219 6.377914428710938 C 57.43730545043945 4.136505126953125 51.80628967285156 3 46.00000381469727 3 M 46.00000381469727 0 C 71.40509033203125 0 92 20.59487152099609 92 45.99993133544922 C 92 71.40499114990234 71.40509033203125 91.99986267089844 46.00000381469727 91.99986267089844 C 20.59490203857422 91.99986267089844 7.62939453125e-06 71.40499114990234 7.62939453125e-06 45.99993133544922 C 7.62939453125e-06 20.59487152099609 20.59490203857422 0 46.00000381469727 0 Z" stroke="none" fill="#453179"/>
                            </g>
                          </g>
                        </g>
                      </g>
                    </g>
                  </g>
                </g>
              </g>
            </g>
          </g>
        </g>
      </g>
    </g>
    <g id="cana-de-azucar" transform="translate(402.999 1806)">
      <path id="Trazado_1016880" data-name="Trazado 1016880" d="M316.7,290.885l-12.261-2.162a.763.763,0,0,1-.523-1.141,8.538,8.538,0,0,0,1.068-2.877l1.735-9.839a8.533,8.533,0,0,0-.02-3.069.762.762,0,0,1,.881-.893l12.261,2.162a.762.762,0,0,1,.523,1.141,8.525,8.525,0,0,0-1.068,2.877l-1.735,9.84a8.533,8.533,0,0,0,.02,3.069.763.763,0,0,1-.882.893Zm0,0" transform="translate(-267.477 -238.497)" fill="#b4de87"/>
      <path id="Trazado_1016881" data-name="Trazado 1016881" d="M310.821,271.477l-3.24-.571a.762.762,0,0,0-.881.893,8.532,8.532,0,0,1,.02,3.069l-1.735,9.839a8.537,8.537,0,0,1-1.068,2.877.763.763,0,0,0,.523,1.141l10.009,1.764a41.637,41.637,0,0,1-3.627-19.012Zm0,0" transform="translate(-267.477 -238.498)" fill="#92d18a"/>
      <path id="Trazado_1016882" data-name="Trazado 1016882" d="M342.973,141.881l-12.261-2.162a.763.763,0,0,1-.523-1.141,8.526,8.526,0,0,0,1.068-2.877l1.735-9.84a8.511,8.511,0,0,0-.02-3.069.763.763,0,0,1,.882-.893l12.261,2.162a.763.763,0,0,1,.523,1.141,8.529,8.529,0,0,0-1.068,2.877l-1.735,9.839a8.511,8.511,0,0,0,.02,3.069A.763.763,0,0,1,342.973,141.881Zm0,0" transform="translate(-290.607 -107.312)" fill="#8ec15d"/>
      <path id="Trazado_1016883" data-name="Trazado 1016883" d="M337.205,122.493l-3.352-.591a.762.762,0,0,0-.881.893,8.533,8.533,0,0,1,.02,3.069l-1.735,9.839a8.525,8.525,0,0,1-1.068,2.877.763.763,0,0,0,.523,1.141l6.375,1.124C335.6,136.717,336.244,127.6,337.205,122.493Zm0,0" transform="translate(-290.607 -107.313)" fill="#57b33b"/>
      <path id="Trazado_1016884" data-name="Trazado 1016884" d="M370.128,29.215a8.51,8.51,0,0,1-.02-3.069l.663-3.76-11.7-7.214-1.544,8.756a8.523,8.523,0,0,1-1.068,2.877.763.763,0,0,0,.523,1.141l12.261,2.162a.762.762,0,0,0,.882-.893Zm0,0" transform="translate(-313.739 -13.358)" fill="#b4de87"/>
      <path id="Trazado_1016885" data-name="Trazado 1016885" d="M362.512,17.292l-3.438-2.12-1.544,8.756a8.53,8.53,0,0,1-1.068,2.877.763.763,0,0,0,.523,1.14l5.236.924c-1.571-3.474-.64-8.106.291-11.577Zm0,0" transform="translate(-313.739 -13.357)" fill="#92d18a"/>
      <path id="Trazado_1016886" data-name="Trazado 1016886" d="M255.056,331.684,242.8,333.846a.763.763,0,0,1-.882-.893,8.532,8.532,0,0,0,.02-3.069l-1.735-9.839a8.528,8.528,0,0,0-1.068-2.877.763.763,0,0,1,.523-1.141l12.261-2.162a.762.762,0,0,1,.882.893,8.532,8.532,0,0,0-.02,3.069l1.735,9.84a8.526,8.526,0,0,0,1.068,2.877.763.763,0,0,1-.523,1.141Zm0,0" transform="translate(-210.438 -276.321)" fill="#8ec15d"/>
      <path id="Trazado_1016887" data-name="Trazado 1016887" d="M244,325.617l-4.351.767a.763.763,0,0,0-.523,1.141A8.529,8.529,0,0,1,240.2,330.4l1.735,9.839a8.533,8.533,0,0,1-.02,3.069.763.763,0,0,0,.881.893l7.117-1.255c-4.113-3.256-5.686-11.7-5.908-17.331Zm0,0" transform="translate(-210.436 -286.677)" fill="#57b33b"/>
      <path id="Trazado_1016888" data-name="Trazado 1016888" d="M228.782,182.683l-12.261,2.162a.762.762,0,0,1-.882-.893,8.523,8.523,0,0,0,.02-3.069l-1.735-9.84a8.523,8.523,0,0,0-1.068-2.877.763.763,0,0,1,.523-1.141l12.261-2.162a.762.762,0,0,1,.881.893,8.533,8.533,0,0,0-.02,3.069l1.735,9.84a8.52,8.52,0,0,0,1.068,2.877A.763.763,0,0,1,228.782,182.683Zm0,0" transform="translate(-187.306 -145.138)" fill="#b4de87"/>
      <path id="Trazado_1016889" data-name="Trazado 1016889" d="M217.73,176.617l-4.351.767a.763.763,0,0,0-.523,1.141,8.522,8.522,0,0,1,1.068,2.877l1.735,9.84a8.522,8.522,0,0,1-.02,3.069.762.762,0,0,0,.882.893l7.117-1.255C219.525,190.693,217.951,182.248,217.73,176.617Zm0,0" transform="translate(-187.306 -155.496)" fill="#92d18a"/>
      <path id="Trazado_1016890" data-name="Trazado 1016890" d="M219.868,71.4a8.515,8.515,0,0,1-1.068-2.877l-1.505-8.535L205.6,67.2l.624,3.538a8.531,8.531,0,0,1-.02,3.069.763.763,0,0,0,.882.893l12.261-2.162a.763.763,0,0,0,.523-1.141Zm0,0" transform="translate(-181.011 -52.814)" fill="#8ec15d"/>
      <path id="Trazado_1016891" data-name="Trazado 1016891" d="M205.6,102.409l.624,3.538a8.532,8.532,0,0,1-.02,3.069.762.762,0,0,0,.881.893l7.117-1.255c-2.246-1.778-3.734-5.106-4.659-8.677Zm0,0" transform="translate(-181.011 -88.02)" fill="#57b33b"/>
      <path id="Trazado_1016892" data-name="Trazado 1016892" d="M27.229,266.723a5.674,5.674,0,0,0-4.447,2.151l-3.88,4.9a76.953,76.953,0,0,0-9.519,15.469l-1.745,3.771a1.511,1.511,0,0,0,1.372,2.146H45.448a1.511,1.511,0,0,0,1.372-2.146l-1.745-3.771a76.957,76.957,0,0,0-9.519-15.469l-3.88-4.9a5.675,5.675,0,0,0-4.448-2.151Zm0,0" transform="translate(-6.6 -234.826)" fill="#f8eed1"/>
      <path id="Trazado_1016893" data-name="Trazado 1016893" d="M24.212,273.984a5.672,5.672,0,0,0-1.431,1.282l-3.88,4.9a76.949,76.949,0,0,0-9.519,15.469L7.638,299.4a1.511,1.511,0,0,0,1.372,2.146h28.8c-15.674-5.565-17.278-20.512-13.6-27.567Zm0,0" transform="translate(-6.599 -241.219)" fill="#edd8a4"/>
      <path id="Trazado_1016894" data-name="Trazado 1016894" d="M390.646,15.624c-.266,1.509-3.1,1.117-6.33-.874s-5.633-4.831-5.367-6.339,3.1-1.117,6.33.874S390.912,14.115,390.646,15.624Zm0,0" transform="translate(-333.614 -6.596)" fill="#f8eed1"/>
      <path id="Trazado_1016895" data-name="Trazado 1016895" d="M205.45,60.443c.266,1.509,3.1,1.117,6.33-.875s5.633-4.83,5.367-6.339-3.1-1.117-6.33.875S205.183,58.935,205.45,60.443Zm0,0" transform="translate(-180.862 -46.055)" fill="#f8eed1"/>
      <path id="Trazado_1016896" data-name="Trazado 1016896" d="M64.011,465.277a.863.863,0,1,1-.863-.863A.863.863,0,0,1,64.011,465.277Zm0,0" transform="translate(-54.836 -408.876)" fill="#f8eed1"/>
      <path id="Trazado_1016897" data-name="Trazado 1016897" d="M91.191,398.359a.863.863,0,1,1-.863-.863A.863.863,0,0,1,91.191,398.359Zm0,0" transform="translate(-78.766 -349.961)" fill="#f8eed1"/>
      <path id="Trazado_1016898" data-name="Trazado 1016898" d="M121.538,442.726a.863.863,0,1,1-.863-.863A.863.863,0,0,1,121.538,442.726Zm0,0" transform="translate(-105.484 -389.022)" fill="#f8eed1"/>
      <g id="Grupo_1171224" data-name="Grupo 1171224" transform="translate(18.904 1.815)">
        <path id="Trazado_1016899" data-name="Trazado 1016899" d="M231.2,449.937a.863.863,0,1,1-.863-.863A.863.863,0,0,1,231.2,449.937Zm0,0" transform="translate(-220.934 -397.185)" fill="#edd8a4"/>
        <path id="Trazado_1016900" data-name="Trazado 1016900" d="M159.8,317.7a.863.863,0,1,1-.863-.863A.863.863,0,0,1,159.8,317.7Zm0,0" transform="translate(-158.07 -280.765)" fill="#edd8a4"/>
        <path id="Trazado_1016901" data-name="Trazado 1016901" d="M196.9,361.465a.863.863,0,1,1-.863-.863A.863.863,0,0,1,196.9,361.465Zm0,0" transform="translate(-190.742 -319.293)" fill="#edd8a4"/>
        <path id="Trazado_1016902" data-name="Trazado 1016902" d="M258.692,67.5c-.138-.24-.585-.241-1,0s-.635.625-.5.865.585.241,1,0S258.83,67.742,258.692,67.5Zm0,0" transform="translate(-245.307 -61.086)" fill="#edd8a4"/>
        <path id="Trazado_1016903" data-name="Trazado 1016903" d="M223.566,103.524c-.138-.24-.585-.241-1,0s-.635.626-.5.865.585.241,1,0S223.7,103.764,223.566,103.524Zm0,0" transform="translate(-214.381 -92.799)" fill="#edd8a4"/>
        <path id="Trazado_1016904" data-name="Trazado 1016904" d="M399.807,15.352c-.138.24.084.627.5.865s.859.237,1,0-.084-.627-.5-.865-.859-.237-1,0Zm0,0" transform="translate(-370.862 -15.171)" fill="#edd8a4"/>
        <path id="Trazado_1016905" data-name="Trazado 1016905" d="M453.971,60.635c-.138.239.084.627.5.865s.86.237,1,0-.084-.627-.5-.866S454.109,60.4,453.971,60.635Zm0,0" transform="translate(-418.549 -55.039)" fill="#edd8a4"/>
        <path id="Trazado_1016906" data-name="Trazado 1016906" d="M417.167,46.693c-.138.24.084.627.5.866s.859.237,1,0-.084-.627-.5-.866S417.305,46.454,417.167,46.693Zm0,0" transform="translate(-386.146 -42.765)" fill="#edd8a4"/>
      </g>
      <path id="Trazado_1016907" data-name="Trazado 1016907" d="M56.345,5.461a18.047,18.047,0,0,0-4.208-3.535C49.412.245,46.957-.387,45.572.235a1.88,1.88,0,0,0-1.1,1.327c-.009.032-.017.064-.023.1l-1.544,8.757a7.612,7.612,0,0,1-.956,2.574,1.66,1.66,0,0,0-.157,1.343,1.658,1.658,0,0,0-.312,1.315,7.6,7.6,0,0,1,.018,2.746L40.337,25l-.258-1.463a7.6,7.6,0,0,1,.018-2.746,1.659,1.659,0,0,0-.312-1.315,1.659,1.659,0,0,0-.157-1.343,7.608,7.608,0,0,1-.956-2.574l-1.5-8.535a.959.959,0,0,0-.023-.1,1.878,1.878,0,0,0-1.1-1.326c-1.386-.622-3.84.01-6.565,1.691a18.035,18.035,0,0,0-4.208,3.535c-.841.994-1.8,2.446-1.571,3.724l.624,3.538a7.6,7.6,0,0,1-.017,2.746,1.661,1.661,0,0,0,.312,1.316,1.659,1.659,0,0,0,.157,1.343,7.6,7.6,0,0,1,.955,2.574l1.672,9.483-1.628-2.054a6.57,6.57,0,0,0-10.3,0l-3.88,4.9a77.953,77.953,0,0,0-9.63,15.649L.225,57.809A2.408,2.408,0,0,0,2.41,61.229H3.967a.9.9,0,0,0,0-1.794H2.41a.614.614,0,0,1-.557-.872L3.6,54.791A76.158,76.158,0,0,1,13.006,39.5l3.88-4.9a4.776,4.776,0,0,1,7.488,0l3.88,4.9c.185.234.368.47.55.706l.007.009a76.13,76.13,0,0,1,8.851,14.574l.872,1.884,0,.007.87,1.881a.615.615,0,0,1-.558.872H8.073a.9.9,0,1,0,0,1.794H38.848a2.408,2.408,0,0,0,2.186-3.419l-.386-.835,4.125-.727a1.659,1.659,0,0,0,1.138-2.482,7.607,7.607,0,0,1-.557-1.148l3.713.655a1.66,1.66,0,0,0,1.919-1.943,7.608,7.608,0,0,1-.018-2.746l1.735-9.84a7.591,7.591,0,0,1,.956-2.574,1.661,1.661,0,0,0,.157-1.343,1.659,1.659,0,0,0,.312-1.316,7.6,7.6,0,0,1-.017-2.746l.789-4.477a.9.9,0,0,0-1.767-.312l-.789,4.477a9.394,9.394,0,0,0-.012,3.2l-10.8-1.9L41.2,29.866a9.358,9.358,0,0,0,.336-1.321l1.735-9.84a9.382,9.382,0,0,0,.012-3.2l11.883,2.1a9.381,9.381,0,0,0-1.083,3.012l-.208,1.181a.9.9,0,1,0,1.767.312l.208-1.181A7.591,7.591,0,0,1,56.8,18.35a1.659,1.659,0,0,0,.157-1.343,1.661,1.661,0,0,0,.312-1.316,7.6,7.6,0,0,1-.017-2.746l.663-3.76h0c.225-1.279-.73-2.73-1.571-3.724ZM25.558,14.332c-.076-.034-.079-.05-.087-.1-.153-.869,1.7-3.413,4.954-5.42C33.006,7.221,34.793,7,35.314,7.231c.076.034.079.05.087.1h0c.153.87-1.7,3.414-4.954,5.42C27.866,14.343,26.078,14.566,25.558,14.332Zm.536,3.44-.278-1.577c.083,0,.166.008.252.008a11.049,11.049,0,0,0,5.32-1.926A18.047,18.047,0,0,0,35.6,10.742c.11-.13.222-.269.333-.413l.976,5.535a9.387,9.387,0,0,0,1.083,3.012l-11.882,2.1a9.382,9.382,0,0,0-.013-3.2Zm3.565,20.617-.313-.4a9.4,9.4,0,0,0-.11-2.4L27.5,25.75a9.38,9.38,0,0,0-1.083-3.012l11.883-2.1a9.382,9.382,0,0,0,.012,3.2l1.735,9.84A9.381,9.381,0,0,0,41.131,36.7L29.885,38.678Zm22.361-2.97a9.394,9.394,0,0,0-1.083,3.012L49.2,48.271a9.394,9.394,0,0,0-.013,3.2l-4.319-.762-1.65-9.359a7.608,7.608,0,0,1,.017-2.746,1.658,1.658,0,0,0-.312-1.316,1.66,1.66,0,0,0-.157-1.343,7.6,7.6,0,0,1-.9-2.317ZM41.442,38.462a9.37,9.37,0,0,0,.013,3.2L43.19,51.5a9.379,9.379,0,0,0,1.083,3.012l-4.4.776-.579-1.253a78.008,78.008,0,0,0-8.177-13.754ZM55.486,12.633a9.394,9.394,0,0,0-.013,3.2l-11.882-2.1a9.387,9.387,0,0,0,1.083-3.012L45.69,4.97c.111.144.223.283.333.413a18.036,18.036,0,0,0,4.208,3.535,11.049,11.049,0,0,0,5.32,1.926c.086,0,.17,0,.252-.008Zm.663-3.76v0c-.008.047-.013.063-.087.1-.52.234-2.308.011-4.889-1.582-3.254-2.006-5.108-4.55-4.954-5.42.008-.048.011-.064.087-.1a1.253,1.253,0,0,1,.495-.078,9.414,9.414,0,0,1,4.394,1.66C54.448,5.459,56.3,8,56.149,8.873Zm0,0" transform="translate(0 0)"/>
    </g>
  </g>
</svg>
