<svg xmlns="http://www.w3.org/2000/svg" xmlns:xlink="http://www.w3.org/1999/xlink" width="113" height="113" viewBox="0 0 113 113">
  <defs>
    <filter id="Trazado_982547" x="0" y="0" width="113" height="113" filterUnits="userSpaceOnUse">
      <feOffset dy="3" input="SourceAlpha"/>
      <feGaussianBlur stdDeviation="3" result="blur"/>
      <feFlood flood-opacity="0.161"/>
      <feComposite operator="in" in2="blur"/>
      <feComposite in="SourceGraphic"/>
    </filter>
  </defs>
  <g id="Grupo_1171128" data-name="Grupo 1171128" transform="translate(-609.228 -5029)">
    <g id="Grupo_1171012" data-name="Grupo 1171012" transform="translate(3 -5778)">
      <g id="Grupo_1167412" data-name="Grupo 1167412" transform="translate(410.583 9335)">
        <g id="Grupo_1164308" data-name="Grupo 1164308" transform="translate(204.645 1478)">
          <g id="Grupo_1163948" data-name="Grupo 1163948" transform="translate(0)">
            <g id="Grupo_1158168" data-name="Grupo 1158168" transform="translate(0)">
              <g id="Grupo_1152576" data-name="Grupo 1152576">
                <g id="Grupo_1148633" data-name="Grupo 1148633">
                  <g id="Grupo_1148525" data-name="Grupo 1148525">
                    <g transform="matrix(1, 0, 0, 1, -9, -6)" filter="url(#Trazado_982547)">
                      <g id="Trazado_982547-2" data-name="Trazado 982547" transform="translate(9 6)" fill="#f4fdfe">
                        <path d="M 47.5 93.5 C 41.28937149047852 93.5 35.26533508300781 92.28397369384766 29.59518623352051 89.88570404052734 C 24.11771965026855 87.56893157958984 19.19813346862793 84.25196075439453 14.97309303283691 80.02691650390625 C 10.74804019927979 75.80186462402344 7.431066513061523 70.88229370117188 5.114293098449707 65.40481567382812 C 2.716026782989502 59.73468017578125 1.5 53.71062850952148 1.5 47.5 C 1.5 41.28937149047852 2.716026782989502 35.26533508300781 5.114293098449707 29.59518623352051 C 7.431066513061523 24.11771965026855 10.74804019927979 19.19813346862793 14.97309303283691 14.97309303283691 C 19.19813346862793 10.74804019927979 24.11771965026855 7.431066513061523 29.59518623352051 5.114293098449707 C 35.26533508300781 2.716026782989502 41.28937149047852 1.5 47.5 1.5 C 53.71062850952148 1.5 59.73468017578125 2.716026782989502 65.40481567382812 5.114293098449707 C 70.88229370117188 7.431066513061523 75.80186462402344 10.74804019927979 80.02691650390625 14.97309303283691 C 84.25196075439453 19.19813346862793 87.56893157958984 24.11771965026855 89.88570404052734 29.59518623352051 C 92.28397369384766 35.26533508300781 93.5 41.28937149047852 93.5 47.5 C 93.5 53.71062850952148 92.28397369384766 59.73468017578125 89.88570404052734 65.40481567382812 C 87.56893157958984 70.88229370117188 84.25196075439453 75.80186462402344 80.02691650390625 80.02691650390625 C 75.80186462402344 84.25196075439453 70.88229370117188 87.56893157958984 65.40481567382812 89.88570404052734 C 59.73468017578125 92.28397369384766 53.71062850952148 93.5 47.5 93.5 Z" stroke="none"/>
                        <path d="M 47.5 3 C 41.49121475219727 3 35.66376876831055 4.176155090332031 30.17950439453125 6.495796203613281 C 24.88084411621094 8.736953735351562 20.12152099609375 11.94598388671875 16.03375244140625 16.03375244140625 C 11.94598388671875 20.12152099609375 8.736953735351562 24.88084411621094 6.495796203613281 30.17950439453125 C 4.176155090332031 35.66376876831055 3 41.49121475219727 3 47.5 C 3 53.50878524780273 4.176155090332031 59.33623123168945 6.495796203613281 64.82049560546875 C 8.736953735351562 70.11915588378906 11.94598388671875 74.87847900390625 16.03375244140625 78.96624755859375 C 20.12152099609375 83.05401611328125 24.88084411621094 86.26304626464844 30.17950439453125 88.50419616699219 C 35.66376876831055 90.82384490966797 41.49121475219727 92 47.5 92 C 53.50878524780273 92 59.33623123168945 90.82384490966797 64.82049560546875 88.50419616699219 C 70.11915588378906 86.26304626464844 74.87847900390625 83.05401611328125 78.96624755859375 78.96624755859375 C 83.05401611328125 74.87847900390625 86.26304626464844 70.11915588378906 88.50419616699219 64.82049560546875 C 90.82384490966797 59.33623123168945 92 53.50878524780273 92 47.5 C 92 41.49121475219727 90.82384490966797 35.66376876831055 88.50419616699219 30.17950439453125 C 86.26304626464844 24.88084411621094 83.05401611328125 20.12152099609375 78.96624755859375 16.03375244140625 C 74.87847900390625 11.94598388671875 70.11915588378906 8.736953735351562 64.82049560546875 6.495796203613281 C 59.33623123168945 4.176155090332031 53.50878524780273 3 47.5 3 M 47.5 0 C 73.7335205078125 0 95 21.2664794921875 95 47.5 C 95 73.7335205078125 73.7335205078125 95 47.5 95 C 21.2664794921875 95 0 73.7335205078125 0 47.5 C 0 21.2664794921875 21.2664794921875 0 47.5 0 Z" stroke="none" fill="#56838a"/>
                      </g>
                    </g>
                  </g>
                </g>
              </g>
            </g>
          </g>
        </g>
      </g>
    </g>
    <g id="recreo" transform="translate(637.729 5052)">
      <path id="Trazado_1016324" data-name="Trazado 1016324" d="M188.813,297.816v5.1a15.379,15.379,0,0,0,4.031-.121v-.4a9.169,9.169,0,0,1,1.607-5.314,10.147,10.147,0,0,1-5.638.738Zm0,0" transform="translate(-166.038 -261.937)" fill="#a2f9f9"/>
      <path id="Trazado_1016325" data-name="Trazado 1016325" d="M226.131,287.349a3.187,3.187,0,0,1-.244,3.99v5.655h1.81a2.522,2.522,0,0,1,4.735-.862,2.523,2.523,0,0,1,4.736.862h7.33V284.247a8.866,8.866,0,0,0-4.02-7.614,12.056,12.056,0,0,1-5.256,1.2h-3.558a13.769,13.769,0,0,1-5.075-.924,9.024,9.024,0,0,0-3.7,7.457v1.5l.3.03h.006l-.088-.233a.977.977,0,0,1,.569-1.259l.249-.094a.977.977,0,0,1,1.26.569Zm0,0" transform="translate(-196.084 -243.91)" fill="#48e5e1"/>
      <path id="Trazado_1016326" data-name="Trazado 1016326" d="M223.192,287.945h.006l-.088-.233a.977.977,0,0,1,.569-1.259l.249-.094a.977.977,0,0,1,1.259.569l.944,2.469a3.278,3.278,0,0,1,.286.492l.109.025v-3.5a9.027,9.027,0,0,1,2.813-6.713,12.948,12.948,0,0,1-2.75-.744,9.024,9.024,0,0,0-3.7,7.457v1.5Zm0,0" transform="translate(-196.085 -245.959)" fill="#41ceca"/>
      <path id="Trazado_1016327" data-name="Trazado 1016327" d="M248.791,436.373v-3.816a2.464,2.464,0,0,1,.283-1.146,2.522,2.522,0,0,0-4.735.863h-1.81v5.837a.763.763,0,0,1-.764.757h5.246v-.008a2.52,2.52,0,0,0,2.063-1.337,2.463,2.463,0,0,1-.283-1.149Zm0,0" transform="translate(-212.727 -379.19)" fill="#a2f9f9"/>
      <path id="Trazado_1016328" data-name="Trazado 1016328" d="M303.5,438.86v.008h10.2a3.3,3.3,0,1,0,0-6.595h-7.533a2.519,2.519,0,0,0-5.019.284v3.816a2.5,2.5,0,0,0,2.347,2.486Zm0,0" transform="translate(-265.092 -379.191)" fill="#a2f9f9"/>
      <path id="Trazado_1016329" data-name="Trazado 1016329" d="M304.763,436.373v-3.816a2.475,2.475,0,0,1,.715-1.74,2.52,2.52,0,0,0-4.319,1.74v3.816a2.5,2.5,0,0,0,2.346,2.486v.008h3.6v-.008A2.5,2.5,0,0,1,304.763,436.373Zm0,0" transform="translate(-265.095 -379.19)" fill="#91e0e0"/>
      <path id="Trazado_1016330" data-name="Trazado 1016330" d="M288.442,286.115h-3.558a15.2,15.2,0,0,1-1.633-.087A2.878,2.878,0,0,0,289,286.1C288.817,286.11,288.63,286.115,288.442,286.115Zm0,0" transform="translate(-249.304 -252.194)" fill="#ffd5b3"/>
      <path id="Trazado_1016331" data-name="Trazado 1016331" d="M222.762,91.23h-.048V89.549c0-.13,0-.259-.007-.388a3,3,0,0,1-.874.482,6.275,6.275,0,0,1-2.086.383c-3.613,0-5.248-3.8-5.264-3.841l-.112-.267-.107.269c-.019.049-2,4.93-5.311,4.93a3.677,3.677,0,0,1-1.1-.176c-1.568-.494-2.087-1.687-1.541-3.546l-.215-.094c-1.017,1.7-2.578,3.722-4.234,3.722a2.04,2.04,0,0,1-.574-.083,2,2,0,0,1-1.31-1.067,4.644,4.644,0,0,1,.275-3.6l-.216-.1c-1.371,2.875-2.83,4.272-4.459,4.272a2.891,2.891,0,0,1-.561-.056v7.253c0,7.81,5.4,12.028,12.071,12.028h3.558a12.068,12.068,0,0,0,11.671-8.945,2.961,2.961,0,0,0,.45.036c2.067,0,3.743-2.135,3.743-4.769s-1.676-4.768-3.743-4.768Zm0,0" transform="translate(-171.504 -75.755)" fill="#ffd5b3"/>
      <path id="Trazado_1016332" data-name="Trazado 1016332" d="M198.632,118.469v-8.1c0-.282.011-.561.03-.838-.952,1.223-2.158,2.084-3.65,1.8v7.133c0,7.811,5.4,12.028,12.071,12.028h3.578c-6.647-.018-12.029-4.233-12.029-12.027Zm0,0" transform="translate(-171.503 -96.575)" fill="#e5bfa1"/>
      <path id="Trazado_1016333" data-name="Trazado 1016333" d="M266.179,218.852a4.049,4.049,0,0,1-4.062-4.025.76.76,0,0,1,.764-.757h6.6a.76.76,0,0,1,.764.757A4.049,4.049,0,0,1,266.179,218.852Zm0,0" transform="translate(-230.671 -188.748)" fill="#fb8276"/>
      <path id="Trazado_1016334" data-name="Trazado 1016334" d="M265.763,214.827a.76.76,0,0,1,.764-.757h-3.646a.76.76,0,0,0-.764.757,4.066,4.066,0,0,0,5.885,3.6A4.025,4.025,0,0,1,265.763,214.827Zm0,0" transform="translate(-230.671 -188.748)" fill="#e1756a"/>
      <path id="Trazado_1016335" data-name="Trazado 1016335" d="M199.126,7.5h-3.849A13.035,13.035,0,0,0,182.218,20.51v.195a3.531,3.531,0,0,0,.856.477c2.767,1.1,4.636-1.687,5.784-4.094-.855,2.07-.826,4.258,1.112,4.824,1.87.546,3.665-1.56,4.942-3.692-.438,1.491-.341,3.074,1.619,3.692,4.124,1.3,6.561-4.824,6.561-4.824s2.25,5.381,7.5,3.523a3.039,3.039,0,0,0,1.544-1.188A13.038,13.038,0,0,0,199.126,7.5Zm0,0" transform="translate(-160.223 -6.613)" fill="#f7931e"/>
      <path id="Trazado_1016336" data-name="Trazado 1016336" d="M185.829,20.706v-.195A13.035,13.035,0,0,1,198.887,7.5h-3.607a13.035,13.035,0,0,0-13.058,13.011v.195a3.519,3.519,0,0,0,.856.477,3.047,3.047,0,0,0,2.973-.323C185.974,20.811,185.9,20.76,185.829,20.706Zm0,0" transform="translate(-160.227 -6.614)" fill="#de841b"/>
      <path id="Trazado_1016337" data-name="Trazado 1016337" d="M102.137,247.623v-.864a1.673,1.673,0,0,0-1.681-1.665H95.567a1.673,1.673,0,0,0-1.681,1.665v.864Zm0,0" transform="translate(-82.341 -216.102)" fill="#89c947"/>
      <path id="Trazado_1016338" data-name="Trazado 1016338" d="M97.553,247.623v-.864a1.673,1.673,0,0,1,1.681-1.665H95.567a1.673,1.673,0,0,0-1.681,1.665v.864Zm0,0" transform="translate(-82.34 -216.102)" fill="#7bb540"/>
      <path id="Trazado_1016339" data-name="Trazado 1016339" d="M82.912,279.794a.763.763,0,0,1-.764.757H69.468a.763.763,0,0,1-.764-.757V267.229a.762.762,0,0,1,.764-.757h12.68a.763.763,0,0,1,.764.757Zm0,0" transform="translate(-60.137 -234.952)" fill="#d5e962"/>
      <path id="Trazado_1016340" data-name="Trazado 1016340" d="M72.36,279.794v-5.366l-.715-.687a1.314,1.314,0,0,1,.715-2.247V267.23a.763.763,0,0,1,.764-.757H69.467a.762.762,0,0,0-.764.757v12.565a.762.762,0,0,0,.764.756h3.657A.762.762,0,0,1,72.36,279.794Zm0,0" transform="translate(-60.136 -234.952)" fill="#bfd158"/>
      <path id="Trazado_1016341" data-name="Trazado 1016341" d="M103.344,303.595a.436.436,0,0,1-.2-.049l-1.8-.934-1.8.934a.439.439,0,0,1-.458-.033.425.425,0,0,1-.173-.419l.344-1.978-1.458-1.4a.424.424,0,0,1-.11-.439.435.435,0,0,1,.351-.292l2.015-.288.9-1.8a.438.438,0,0,1,.78,0l.9,1.8,2.015.288a.433.433,0,0,1,.351.292.423.423,0,0,1-.11.439l-1.458,1.4.344,1.978a.426.426,0,0,1-.173.419A.44.44,0,0,1,103.344,303.595Zm0,0" transform="translate(-85.668 -261.565)" fill="#89c947"/>
      <path id="Trazado_1016342" data-name="Trazado 1016342" d="M22.208,398.81a.763.763,0,0,1-.764.757H8.764A.763.763,0,0,1,8,398.81V386.245a.763.763,0,0,1,.764-.757h12.68a.763.763,0,0,1,.764.757Zm0,0" transform="translate(-6.613 -339.889)" fill="#fb8276"/>
      <path id="Trazado_1016343" data-name="Trazado 1016343" d="M11.622,398.81v-5.049l-.568-.555a2.79,2.79,0,0,1,0-4,2.9,2.9,0,0,1,.568-.432v-2.53a.763.763,0,0,1,.764-.757H8.764a.763.763,0,0,0-.764.757V398.81a.763.763,0,0,0,.764.757h3.622A.763.763,0,0,1,11.622,398.81Zm0,0" transform="translate(-6.613 -339.889)" fill="#e1756a"/>
      <path id="Trazado_1016344" data-name="Trazado 1016344" d="M38.192,424.007a.363.363,0,0,1-.254-.1L34.763,420.8a1.9,1.9,0,0,1,0-2.73,2,2,0,0,1,2.79,0l.639.624.639-.624a2,2,0,0,1,2.79,0,1.9,1.9,0,0,1,0,2.73L38.446,423.9A.364.364,0,0,1,38.192,424.007Zm0,0" transform="translate(-29.701 -368.117)" fill="#ef5050"/>
      <path id="Trazado_1016345" data-name="Trazado 1016345" d="M139.5,388.387l-2.94-.3a.905.905,0,0,1-.81-.992l.024-.246a.906.906,0,0,1,.992-.81l2.124.214.016-.158-2.592-.261a.9.9,0,0,1-.627-.35h-6.818a.763.763,0,0,0-.764.757v12.564a.763.763,0,0,0,.764.757h12.681a.763.763,0,0,0,.764-.757V387.317a3.338,3.338,0,0,1-2.813,1.071Zm0,0" transform="translate(-112.515 -339.889)" fill="#ffc502"/>
      <path id="Trazado_1016346" data-name="Trazado 1016346" d="M131.722,398.81v-4.1l-.631-1.084a2.315,2.315,0,0,1,0-2.2l.631-1.083v-4.1a.763.763,0,0,1,.764-.757h-3.609a.762.762,0,0,0-.764.757V398.81a.762.762,0,0,0,.764.757h3.609A.763.763,0,0,1,131.722,398.81Zm0,0" transform="translate(-112.518 -339.889)" fill="#e5b102"/>
      <path id="Trazado_1016347" data-name="Trazado 1016347" d="M160.843,424.273a1.471,1.471,0,0,1-1.146-.655l-1.107-1.9a1.441,1.441,0,0,1,0-1.311l1.107-1.9a1.471,1.471,0,0,1,1.146-.655h2.214a1.47,1.47,0,0,1,1.145.655l1.107,1.9a1.441,1.441,0,0,1,0,1.311l-1.107,1.9a1.469,1.469,0,0,1-1.145.655Zm0,0" transform="translate(-139.251 -368.424)" fill="#fcdb67"/>
      <path id="Trazado_1016348" data-name="Trazado 1016348" d="M262.592,318.354a2.417,2.417,0,0,0-3.213,1.1,9.484,9.484,0,0,1-10.792,4.962,3.181,3.181,0,0,1-.552,3.52l.022-.023v1.269a14.322,14.322,0,0,0,15.632-7.645,2.366,2.366,0,0,0-1.1-3.182Zm0,0" transform="translate(-218.255 -280.484)" fill="#a2f9f9"/>
      <path id="Trazado_1016349" data-name="Trazado 1016349" d="M190.872,347.872l.024-.246a.906.906,0,0,1,.992-.81l2.123.214.016-.158-2.592-.261a.906.906,0,0,1-.81-.992l.025-.245a.906.906,0,0,1,.992-.81l2.592.261.016-.158-2.124-.213a.906.906,0,0,1-.81-.992l.025-.246a.906.906,0,0,1,.992-.81l2.407.242h.006l-.088-.232a.977.977,0,0,1,.569-1.26l.249-.094a.978.978,0,0,1,1.26.569l.944,2.469a3.2,3.2,0,0,1,.571,2.163,3.283,3.283,0,0,1-3.628,2.9l-2.94-.3A.9.9,0,0,1,190.872,347.872Zm0,0" transform="translate(-167.632 -300.661)" fill="#ffd5b3"/>
      <path id="Trazado_1016350" data-name="Trazado 1016350" d="M51.462,25.893c2.459-.13,4.427-2.615,4.427-5.65,0-2.769-1.638-5.079-3.791-5.563v-.722a4.03,4.03,0,0,0,.55-.65.888.888,0,0,0,.149-.571A13.926,13.926,0,0,0,38.9,0H35.054A13.938,13.938,0,0,0,21.108,13.9v.195a.888.888,0,0,0,.347.7,4.435,4.435,0,0,0,1.069.6c.032.013.065.023.1.035v6.464a12.681,12.681,0,0,0,3.819,9.593,11.592,11.592,0,0,0,2.446,1.734,9.981,9.981,0,0,0-1.037,1.2,9.183,9.183,0,0,1-3.518.694c-.224,0-.447-.01-.668-.026v-2.81a1.649,1.649,0,0,0-1.651-1.644H20.682A2.563,2.563,0,0,0,18.116,28.1H13.227a2.563,2.563,0,0,0-2.567,2.529H9.331A1.649,1.649,0,0,0,7.68,32.278V44.712H2.15A1.649,1.649,0,0,0,.5,46.356V58.92A1.649,1.649,0,0,0,2.15,60.564H34.285a.873.873,0,0,0,.2-.023,3.4,3.4,0,0,0,1.865-.815,3.4,3.4,0,0,0,1.863.814.869.869,0,0,0,.2.023H48.616a4.182,4.182,0,0,0,.684-8.313V50.509a.887.887,0,0,0-1.774,0V52.2H41.777a3.414,3.414,0,0,0-5.43-1.377A3.413,3.413,0,0,0,30.918,52.2h-.229V49.739a15.033,15.033,0,0,0,1.913.123,15.191,15.191,0,0,0,13.627-8.419,3.253,3.253,0,0,0-1.506-4.374,3.31,3.31,0,0,0-4.394,1.505,8.467,8.467,0,0,1-3.46,3.643.887.887,0,1,0,.869,1.547,10.235,10.235,0,0,0,4.183-4.4,1.529,1.529,0,0,1,2.031-.694,1.478,1.478,0,0,1,.688,1.99,13.424,13.424,0,0,1-13.949,7.286v-.191a4.078,4.078,0,0,0,.81-2.063,3.984,3.984,0,0,0,.012-.651,10.328,10.328,0,0,0,1.829.04.887.887,0,1,0-.122-1.771,8.5,8.5,0,0,1-2.3-.158c-.026-.042-.052-.084-.079-.126l-.906-2.369a1.856,1.856,0,0,0-2.191-1.15,8.123,8.123,0,0,1,2.9-5.514,14.13,14.13,0,0,0,2.5.629,3.771,3.771,0,0,0,7.325.117,12.95,12.95,0,0,0,3.825-1,8.06,8.06,0,0,1,3.229,6.6V46.37a.887.887,0,1,0,1.774,0V40.337A9.685,9.685,0,0,0,46,32.843a12.905,12.905,0,0,0,5.458-6.95ZM36.952,53.367a1.632,1.632,0,0,1,3.25-.183.887.887,0,0,0,.881.786h7.533a2.41,2.41,0,1,1,0,4.82H38.533l-.063-.006a1.619,1.619,0,0,1-1.518-1.6Zm-6.262.6h.923a.886.886,0,0,0,.881-.786,1.635,1.635,0,0,1,2.852-.866,3.341,3.341,0,0,0-.169,1.049v3.816a3.327,3.327,0,0,0,.169,1.046,1.633,1.633,0,0,1-1.121.555l-.063.006H30.69Zm-7.028-17.1c.222.013.445.022.668.022a11.06,11.06,0,0,0,2.291-.241,10.319,10.319,0,0,0-.7,3.436,14.609,14.609,0,0,1-1.6.087c-.224,0-.446-.006-.668-.017Zm.144,13.448a.638.638,0,0,1,.379.214l1.107,1.9a.608.608,0,0,1,0,.418l-1.107,1.9a.639.639,0,0,1-.379.215H21.592a.639.639,0,0,1-.379-.215l-1.107-1.9a.607.607,0,0,1,0-.418l1.107-1.9a.639.639,0,0,1,.379-.215h2.214ZM13.227,29.879h4.889a.786.786,0,0,1,.792.755H12.435a.786.786,0,0,1,.792-.755ZM9.454,32.408H21.888v12.3H9.454ZM14.708,58.79H2.274v-12.3H14.708Zm14.208,0H16.482v-12.3h5.985a1.777,1.777,0,0,0-.085.39l-.025.246a1.788,1.788,0,0,0,.491,1.418H21.592a2.345,2.345,0,0,0-1.913,1.1l-1.107,1.9a2.315,2.315,0,0,0,0,2.2l1.107,1.9a2.346,2.346,0,0,0,1.913,1.1h2.214a2.343,2.343,0,0,0,1.912-1.1l1.107-1.9a2.317,2.317,0,0,0,0-2.2l-1.107-1.9a2.027,2.027,0,0,0-.319-.406l1.5.151c.144.014.289.022.433.022a4.258,4.258,0,0,0,1.582-.3ZM27.821,42.52a.887.887,0,0,0,.122-.847l-.088-.232a.087.087,0,0,1,0-.069.088.088,0,0,1,.051-.047l.248-.094a.092.092,0,0,1,.032-.006.094.094,0,0,1,.085.062l.944,2.469a.873.873,0,0,0,.1.194,2.32,2.32,0,0,1,.414,1.564,2.379,2.379,0,0,1-2.4,2.116c-.085,0-.17,0-.255-.013l-2.94-.3a.018.018,0,0,1-.017-.02l.025-.246a.019.019,0,0,1,.02-.017h0l2.123.213a.887.887,0,0,0,.972-.793l.016-.158a.887.887,0,0,0-.794-.972l-2.592-.261a.021.021,0,0,1-.016-.02L23.9,44.8c0-.013.015-.015.02-.017l2.592.261a.887.887,0,0,0,.972-.794l.016-.158a.887.887,0,0,0-.794-.972l-2.124-.213a.021.021,0,0,1-.017-.02l.025-.246c0-.013.015-.015.02-.016l2.407.242.023,0A.885.885,0,0,0,27.821,42.52Zm9-6.74A1.993,1.993,0,0,1,35.1,34.8c.158,0,.316.007.475.007h2.959a1.992,1.992,0,0,1-1.715.971Zm2.315-2.746H35.58c-6.794,0-11.184-4.373-11.184-11.141V15.685A4.375,4.375,0,0,0,26.943,14.5q.22-.2.434-.426a3.318,3.318,0,0,0,.186.484,3,3,0,0,0,1.935,1.6c1.444.422,2.9-.2,4.352-1.845a3.31,3.31,0,0,0,2.191,1.84,4.692,4.692,0,0,0,1.418.225,5.725,5.725,0,0,0,4.362-2.432,12.319,12.319,0,0,0,1.111-1.613A8.134,8.134,0,0,0,44.44,13.92a.887.887,0,1,0,1.1-1.39,6.913,6.913,0,0,1-1.854-2.4.888.888,0,0,0-.819-.545h-.007a.889.889,0,0,0-.817.559c-.021.054-2.171,5.346-5.47,4.306-.813-.256-1.572-.765-1.034-2.6a.887.887,0,0,0-1.613-.706c-1.44,2.4-2.872,3.606-3.933,3.3a1.233,1.233,0,0,1-.833-.662,3.988,3.988,0,0,1,.292-2.971.887.887,0,0,0-1.621-.721c-2.2,4.623-4.05,3.891-4.657,3.651a3.026,3.026,0,0,1-.292-.134A12.163,12.163,0,0,1,35.054,1.774H38.9A12.219,12.219,0,0,1,51,12.55a2.156,2.156,0,0,1-.923.613,6.066,6.066,0,0,1-1.079.279.887.887,0,0,0,.277,1.753,7.722,7.722,0,0,0,1.053-.246v.528a.887.887,0,0,0,.887.887h.057c1.571.007,2.847,1.745,2.847,3.881s-1.281,3.881-2.856,3.881a2.075,2.075,0,0,1-.317-.025.887.887,0,0,0-.991.649,11.182,11.182,0,0,1-10.813,8.285Zm0,0" transform="translate(0 0)"/>
      <path id="Trazado_1016351" data-name="Trazado 1016351" d="M343.563,156.6a.887.887,0,0,0-.887.887v1.455a.887.887,0,1,0,1.774,0v-1.455A.887.887,0,0,0,343.563,156.6Zm0,0" transform="translate(-301.7 -138.074)"/>
      <path id="Trazado_1016352" data-name="Trazado 1016352" d="M232.746,156.6a.887.887,0,0,0-.887.887v1.455a.887.887,0,1,0,1.774,0v-1.455A.887.887,0,0,0,232.746,156.6Zm0,0" transform="translate(-203.992 -138.074)"/>
      <path id="Trazado_1016353" data-name="Trazado 1016353" d="M283.865,168.722h.575a.887.887,0,1,0,0-1.774h-.263v-.823a.887.887,0,0,0-1.774,0v1.119A1.472,1.472,0,0,0,283.865,168.722Zm0,0" transform="translate(-248.557 -145.692)"/>
      <path id="Trazado_1016354" data-name="Trazado 1016354" d="M262.865,206.566h-6.6a1.649,1.649,0,0,0-1.651,1.644,4.95,4.95,0,0,0,9.9,0,1.65,1.65,0,0,0-1.651-1.644Zm-3.3,4.782a3.163,3.163,0,0,1-3.173-3.008h6.346A3.163,3.163,0,0,1,259.567,211.348Zm0,0" transform="translate(-224.058 -182.131)"/>
      <path id="Trazado_1016355" data-name="Trazado 1016355" d="M98.163,291.491l-1.555-.222-.693-1.384a1.325,1.325,0,0,0-2.367,0l-.693,1.384-1.557.223a1.315,1.315,0,0,0-.729,2.249l1.118,1.073-.263,1.513a1.322,1.322,0,0,0,1.913,1.392L94.732,297l1.389.72a1.329,1.329,0,0,0,.615.151,1.319,1.319,0,0,0,1.3-1.541l-.263-1.513,1.117-1.073a1.315,1.315,0,0,0-.73-2.25Zm-1.957,2.371a.885.885,0,0,0-.259.792l.186,1.071-.993-.515a.888.888,0,0,0-.816,0l-.993.515.186-1.071a.888.888,0,0,0-.26-.792l-.778-.747,1.087-.155a.889.889,0,0,0,.667-.481l.5-.994.5.994a.887.887,0,0,0,.668.481l1.086.155Zm0,0" transform="translate(-79.06 -254.952)"/>
      <path id="Trazado_1016356" data-name="Trazado 1016356" d="M30.707,417.93a1.252,1.252,0,0,0,1.748,0l3.175-3.106a2.789,2.789,0,0,0,0-4,2.893,2.893,0,0,0-4.031,0l-.018.018-.018-.018a2.893,2.893,0,0,0-4.031,0,2.789,2.789,0,0,0,0,4Zm-1.935-5.835a1.118,1.118,0,0,1,1.55,0l.638.625a.888.888,0,0,0,1.241,0l.639-.624a1.117,1.117,0,0,1,1.55,0,1.016,1.016,0,0,1,0,1.461L31.581,416.3l-2.809-2.747a1.016,1.016,0,0,1,0-1.461Zm0,0" transform="translate(-23.09 -361.508)"/>
      <path id="Trazado_1016357" data-name="Trazado 1016357" d="M422.344,158.839a.882.882,0,0,0,.421-.107c1.895-1.024,1.585-3.169,1.157-4.16a.887.887,0,0,0-1.629.7c.024.056.583,1.379-.372,1.895a.887.887,0,0,0,.423,1.668Zm0,0" transform="translate(-371.161 -135.816)"/>
    </g>
  </g>
</svg>
