<svg xmlns="http://www.w3.org/2000/svg" xmlns:xlink="http://www.w3.org/1999/xlink" width="110" height="110" viewBox="0 0 110 110">
  <defs>
    <filter id="Trazado_982547" x="0" y="0" width="110" height="110" filterUnits="userSpaceOnUse">
      <feOffset dy="3" input="SourceAlpha"/>
      <feGaussianBlur stdDeviation="3" result="blur"/>
      <feFlood flood-opacity="0.161"/>
      <feComposite operator="in" in2="blur"/>
      <feComposite in="SourceGraphic"/>
    </filter>
  </defs>
  <g id="Grupo_1171231" data-name="Grupo 1171231" transform="translate(-376.586 -2080)">
    <g id="Grupo_1171024" data-name="Grupo 1171024" transform="translate(0.358 -85)">
      <g id="Grupo_1162529" data-name="Grupo 1162529" transform="translate(385.229 2171)">
        <g id="Grupo_1162411" data-name="Grupo 1162411" transform="translate(0)">
          <g id="Grupo_1158637" data-name="Grupo 1158637" transform="translate(0 0)">
            <g id="Grupo_1155724" data-name="Grupo 1155724">
              <g id="Grupo_1154703" data-name="Grupo 1154703">
                <g id="Grupo_1150789" data-name="Grupo 1150789" transform="translate(0 0)">
                  <g id="Grupo_1154212" data-name="Grupo 1154212" transform="translate(0)">
                    <g id="Grupo_1152583" data-name="Grupo 1152583">
                      <g id="Grupo_1146973" data-name="Grupo 1146973">
                        <g id="Grupo_1146954" data-name="Grupo 1146954">
                          <g transform="matrix(1, 0, 0, 1, -9, -6)" filter="url(#Trazado_982547)">
                            <g id="Trazado_982547-2" data-name="Trazado 982547" transform="translate(9 6)" fill="#ebe9f0">
                              <path d="M 46.00000381469727 90.49986267089844 C 39.99188232421875 90.49986267089844 34.16427230834961 89.32350158691406 28.67905807495117 87.00344848632812 C 23.38020324707031 84.76223754882812 18.62104415893555 81.55341339111328 14.53375053405762 77.46613311767578 C 10.44647026062012 73.37885284423828 7.237643718719482 68.61968994140625 4.996417045593262 63.32085037231445 C 2.676363706588745 57.83565139770508 1.500003814697266 52.00805282592773 1.500003814697266 45.99993133544922 C 1.500003814697266 39.99182510375977 2.676363706588745 34.16422653198242 4.996417045593262 28.67901039123535 C 7.237643718719482 23.38017082214355 10.44647026062012 18.62101173400879 14.53375053405762 14.53373146057129 C 18.62104415893555 10.44645118713379 23.38020324707031 7.237624645233154 28.67905807495117 4.996411323547363 C 34.16427230834961 2.676357984542847 39.99188232421875 1.499997973442078 46.00000381469727 1.499997973442078 C 52.00812530517578 1.499997973442078 57.83573532104492 2.676357984542847 63.32094955444336 4.996411323547363 C 68.61980438232422 7.237624645233154 73.37896728515625 10.44645118713379 77.46625518798828 14.53373146057129 C 81.55353546142578 18.62101173400879 84.76236724853516 23.38017082214355 87.00359344482422 28.67901039123535 C 89.32364654541016 34.16422653198242 90.5 39.99182510375977 90.5 45.99993133544922 C 90.5 52.00805282592773 89.32364654541016 57.83565139770508 87.00359344482422 63.32085037231445 C 84.76236724853516 68.61968994140625 81.55353546142578 73.37885284423828 77.46625518798828 77.46613311767578 C 73.37896728515625 81.55341339111328 68.61980438232422 84.76223754882812 63.32094955444336 87.00344848632812 C 57.83573532104492 89.32350158691406 52.00812530517578 90.49986267089844 46.00000381469727 90.49986267089844 Z" stroke="none"/>
                              <path d="M 46.00000381469727 3 C 40.19371795654297 3 34.56270217895508 4.136505126953125 29.26337432861328 6.377914428710938 C 24.14333343505859 8.54351806640625 19.54441833496094 11.64438629150391 15.59440612792969 15.59439086914062 C 11.64440155029297 19.54440307617188 8.54351806640625 24.14330291748047 6.377914428710938 29.26334381103516 C 4.136505126953125 34.56266021728516 3.000007629394531 40.19366073608398 3.000007629394531 45.99993133544922 C 3.000007629394531 51.80620193481445 4.136505126953125 57.43720245361328 6.377914428710938 62.73651885986328 C 8.54351806640625 67.85655975341797 11.64440155029297 72.45545959472656 15.59440612792969 76.40547180175781 C 19.54441833496094 80.35547637939453 24.14333343505859 83.45634460449219 29.26337432861328 85.6219482421875 C 34.56270217895508 87.86335754394531 40.19371795654297 88.99986267089844 46.00000381469727 88.99986267089844 C 51.80628967285156 88.99986267089844 57.43730545043945 87.86335754394531 62.73661804199219 85.6219482421875 C 67.85667419433594 83.45634460449219 72.45557403564453 80.35547637939453 76.40558624267578 76.40547180175781 C 80.35560607910156 72.45545959472656 83.45647430419922 67.85655975341797 85.62207794189453 62.73651885986328 C 87.86350250244141 57.43720245361328 89 51.80620193481445 89 45.99993133544922 C 89 40.19366073608398 87.86350250244141 34.56266021728516 85.62207794189453 29.26334381103516 C 83.45647430419922 24.14330291748047 80.35560607910156 19.54440307617188 76.40558624267578 15.59439086914062 C 72.45557403564453 11.64438629150391 67.85667419433594 8.54351806640625 62.73661804199219 6.377914428710938 C 57.43730545043945 4.136505126953125 51.80628967285156 3 46.00000381469727 3 M 46.00000381469727 0 C 71.40509033203125 0 92 20.59487152099609 92 45.99993133544922 C 92 71.40499114990234 71.40509033203125 91.99986267089844 46.00000381469727 91.99986267089844 C 20.59490203857422 91.99986267089844 7.62939453125e-06 71.40499114990234 7.62939453125e-06 45.99993133544922 C 7.62939453125e-06 20.59487152099609 20.59490203857422 0 46.00000381469727 0 Z" stroke="none" fill="#453179"/>
                            </g>
                          </g>
                        </g>
                      </g>
                    </g>
                  </g>
                </g>
              </g>
            </g>
          </g>
        </g>
      </g>
    </g>
    <g id="carrot_1620413" transform="translate(404.495 2107.896)">
      <path id="Trazado_1016919" data-name="Trazado 1016919" d="M7.5,273.008H60.095v7.409H7.5Zm0,0" transform="translate(-6.706 -244.117)" fill="#ffead2"/>
      <path id="Trazado_1016920" data-name="Trazado 1016920" d="M16.75,343.016v6.539l4.761,4.577H62.626l4.761-4.577v-6.539Zm0,0" transform="translate(-14.977 -306.716)" fill="#ffead2"/>
      <path id="Trazado_1016921" data-name="Trazado 1016921" d="M81.256,229.508H38.662l-1.9,1.716v2.888h46.4v-2.888Zm0,0" transform="translate(-32.868 -205.22)" fill="#b89558"/>
      <path id="Trazado_1016922" data-name="Trazado 1016922" d="M216.982,15.694a3.443,3.443,0,0,0-3.444,1.786,8.61,8.61,0,0,0-1.775-4.87,8.61,8.61,0,0,0-1.775,4.87,3.443,3.443,0,0,0-3.444-1.786C206.03,24.228,217.5,24.228,216.982,15.694Zm0,0" transform="translate(-184.673 -11.275)" fill="#7fe895"/>
      <path id="Trazado_1016923" data-name="Trazado 1016923" d="M218.262,115.707l.639-10.551-2.917-2.917h-4.126l-2.917,2.917.639,10.551Zm0,0" transform="translate(-186.831 -91.419)" fill="#ff8f5b"/>
      <path id="Trazado_1016924" data-name="Trazado 1016924" d="M78.423,15.694a3.443,3.443,0,0,0-3.444,1.786,8.61,8.61,0,0,0-1.775-4.87,8.607,8.607,0,0,0-1.775,4.87,3.443,3.443,0,0,0-3.444-1.786C67.471,24.228,78.939,24.228,78.423,15.694Zm0,0" transform="translate(-60.777 -11.275)" fill="#7fe895"/>
      <path id="Trazado_1016925" data-name="Trazado 1016925" d="M79.7,115.707l.639-10.551-2.917-2.917H73.3l-2.917,2.917.639,10.551Zm0,0" transform="translate(-62.935 -91.419)" fill="#ff8f5b"/>
      <path id="Trazado_1016926" data-name="Trazado 1016926" d="M355.54,15.694a3.443,3.443,0,0,0-3.444,1.786,8.607,8.607,0,0,0-1.775-4.87,8.61,8.61,0,0,0-1.775,4.87,3.443,3.443,0,0,0-3.444-1.786C344.588,24.228,356.056,24.228,355.54,15.694Zm0,0" transform="translate(-308.568 -11.275)" fill="#7fe895"/>
      <path id="Trazado_1016927" data-name="Trazado 1016927" d="M356.82,115.707l.639-10.551-2.917-2.917h-4.126l-2.917,2.917.639,10.551Zm0,0" transform="translate(-310.726 -91.419)" fill="#ff8f5b"/>
      <path id="Trazado_1016928" data-name="Trazado 1016928" d="M7.5,273.008H9.616v7.409H7.5Zm0,0" transform="translate(-6.706 -244.117)" fill="#ffc177"/>
      <path id="Trazado_1016929" data-name="Trazado 1016929" d="M18.866,343.016H16.75v6.539l4.761,4.577h2.116l-4.761-4.577Zm0,0" transform="translate(-14.977 -306.716)" fill="#ffc177"/>
      <path id="Trazado_1016930" data-name="Trazado 1016930" d="M40.779,229.508H38.662l-1.9,1.716v2.888h2.116v-2.888Zm0,0" transform="translate(-32.868 -205.22)" fill="#9f804c"/>
      <g id="Grupo_1171230" data-name="Grupo 1171230" transform="translate(21.856 1.334)">
        <path id="Trazado_1016931" data-name="Trazado 1016931" d="M243.3,17.479a8.447,8.447,0,0,1,.716-3.071,9.5,9.5,0,0,0-1.058-1.8,8.837,8.837,0,0,0-1.544,3.232,4.244,4.244,0,0,1,1.885,1.638Zm0,0" transform="translate(-237.722 -12.609)" fill="#00d33d"/>
        <path id="Trazado_1016932" data-name="Trazado 1016932" d="M290.817,43.169a4.8,4.8,0,0,1,1.343-1.363c0-.138-.007-.279-.015-.422a2.932,2.932,0,0,0-1.558.148,8.824,8.824,0,0,1,.231,1.638Zm0,0" transform="translate(-281.691 -38.299)" fill="#00d33d"/>
        <path id="Trazado_1016933" data-name="Trazado 1016933" d="M208.646,41.806a2.917,2.917,0,0,0-2.1-.422c-.291,4.82,3.24,6.917,6.277,6.292-2.249-.463-4.226-2.419-4.176-5.87Zm0,0" transform="translate(-206.528 -38.299)" fill="#00d33d"/>
      </g>
      <path id="Trazado_1016934" data-name="Trazado 1016934" d="M213.975,102.238h-2.116l-2.917,2.917.639,10.551H211.7l-.639-10.551Zm0,0" transform="translate(-186.83 -91.419)" fill="#fd7732"/>
      <path id="Trazado_1016935" data-name="Trazado 1016935" d="M104.741,17.479a8.447,8.447,0,0,1,.716-3.071,9.5,9.5,0,0,0-1.058-1.8,8.83,8.83,0,0,0-1.544,3.232,4.244,4.244,0,0,1,1.885,1.638Zm0,0" transform="translate(-91.971 -11.275)" fill="#00d33d"/>
      <path id="Trazado_1016936" data-name="Trazado 1016936" d="M152.258,43.169a4.8,4.8,0,0,1,1.343-1.363c0-.138-.007-.279-.015-.422a2.932,2.932,0,0,0-1.558.148,8.824,8.824,0,0,1,.231,1.638Zm0,0" transform="translate(-135.939 -36.965)" fill="#00d33d"/>
      <path id="Trazado_1016937" data-name="Trazado 1016937" d="M70.088,41.806a2.917,2.917,0,0,0-2.1-.422c-.291,4.82,3.24,6.917,6.277,6.292-2.249-.463-4.226-2.419-4.176-5.87Zm0,0" transform="translate(-60.777 -36.964)" fill="#00d33d"/>
      <path id="Trazado_1016938" data-name="Trazado 1016938" d="M75.416,102.238H73.3l-2.917,2.917.639,10.551h2.116L72.5,105.155Zm0,0" transform="translate(-62.934 -91.419)" fill="#fd7732"/>
      <path id="Trazado_1016939" data-name="Trazado 1016939" d="M429.375,43.169a4.8,4.8,0,0,1,1.343-1.363c0-.138-.007-.279-.015-.422a2.932,2.932,0,0,0-1.558.148,8.824,8.824,0,0,1,.231,1.638Zm0,0" transform="translate(-383.73 -36.965)" fill="#00d33d"/>
      <path id="Trazado_1016940" data-name="Trazado 1016940" d="M347.205,41.806a2.917,2.917,0,0,0-2.1-.422c-.291,4.82,3.24,6.917,6.277,6.292-2.249-.463-4.226-2.419-4.176-5.87Zm0,0" transform="translate(-308.568 -36.964)" fill="#00d33d"/>
      <path id="Trazado_1016941" data-name="Trazado 1016941" d="M381.858,17.479a8.447,8.447,0,0,1,.716-3.071,9.5,9.5,0,0,0-1.058-1.8,8.836,8.836,0,0,0-1.544,3.232,4.244,4.244,0,0,1,1.885,1.638Zm0,0" transform="translate(-339.762 -11.275)" fill="#00d33d"/>
      <path id="Trazado_1016942" data-name="Trazado 1016942" d="M352.533,102.238h-2.117l-2.917,2.917.639,10.551h2.117l-.64-10.551Zm0,0" transform="translate(-310.726 -91.419)" fill="#fd7732"/>
      <path id="Trazado_1016943" data-name="Trazado 1016943" d="M54.182,28.1h-3.1V25.651l-2.393-2.157H46.938l.61-10.066-2.684-2.684a6.658,6.658,0,0,0,2.9-6.372l-.038-.633-.625-.1a3.74,3.74,0,0,0-3.019.8A9.639,9.639,0,0,0,42.392.862L41.754,0l-.638.862a9.643,9.643,0,0,0-1.69,3.571,3.761,3.761,0,0,0-3.019-.8l-.625.1-.038.632a6.658,6.658,0,0,0,2.9,6.373l-2.684,2.684.61,10.066h-4.3l.61-10.066L30.2,10.743a6.658,6.658,0,0,0,2.9-6.372l-.038-.632-.625-.1a3.74,3.74,0,0,0-3.019.8A9.643,9.643,0,0,0,27.729.862L27.091,0l-.638.862a9.637,9.637,0,0,0-1.69,3.571,3.761,3.761,0,0,0-3.019-.8l-.625.1-.038.632a6.659,6.659,0,0,0,2.9,6.373L21.3,13.428l.61,10.065h-4.3l.61-10.065-2.684-2.684a6.658,6.658,0,0,0,2.9-6.373L18.4,3.738l-.625-.1a3.74,3.74,0,0,0-3.019.8A9.637,9.637,0,0,0,13.066.862L12.429,0,11.79.862A9.647,9.647,0,0,0,10.1,4.433a3.762,3.762,0,0,0-3.019-.8l-.625.1-.038.632a6.658,6.658,0,0,0,2.9,6.373L6.635,13.428l.61,10.065H5.49L3.1,25.651V28.1H0v9H.979v6.083l5.235,5.032H47.968L53.2,43.176V37.093h.979ZM37.315,5.184a2.938,2.938,0,0,1,2.01,1.47L40.659,8.6l.113-2.356a7.614,7.614,0,0,1,.982-3.455,7.626,7.626,0,0,1,.982,3.455L42.849,8.6l1.334-1.945a2.937,2.937,0,0,1,2.01-1.47A4.815,4.815,0,0,1,44.012,9.4a4.412,4.412,0,0,1-4.516,0,4.816,4.816,0,0,1-2.181-4.221Zm.273,8.862,2.432-2.432h3.468l2.432,2.432-.257,4.24H40.691v1.587h4.876l-.22,3.621H38.16ZM22.652,5.184a2.937,2.937,0,0,1,2.01,1.47L26,8.6l.113-2.356a7.614,7.614,0,0,1,.982-3.455,7.621,7.621,0,0,1,.982,3.455L28.186,8.6,29.52,6.653a2.937,2.937,0,0,1,2.01-1.47A4.815,4.815,0,0,1,29.349,9.4a4.412,4.412,0,0,1-4.516,0,4.816,4.816,0,0,1-2.181-4.221Zm.273,8.862,2.432-2.432h3.468l2.432,2.432L31,18.285H26.028v1.587H30.9l-.22,3.621H23.5ZM7.989,5.184A2.937,2.937,0,0,1,10,6.653L11.333,8.6l.113-2.356a7.614,7.614,0,0,1,.982-3.455,7.626,7.626,0,0,1,.982,3.455L13.523,8.6l1.334-1.945a2.937,2.937,0,0,1,2.01-1.47A4.816,4.816,0,0,1,14.686,9.4a4.412,4.412,0,0,1-4.516,0A4.816,4.816,0,0,1,7.989,5.184Zm.273,8.862,2.432-2.432h3.468l2.432,2.432-.257,4.24H11.365v1.587h4.876l-.22,3.621H8.835ZM51.616,42.5l-4.287,4.121H6.853L2.566,42.5V37.093H42.218V35.506H1.587V29.684h9.162V28.1H4.684v-1.74L6.1,25.081H48.082L49.5,26.357V28.1H12.866v1.587H52.595v5.821H44.334v1.587h7.282Zm0,0"/>
      <path id="Trazado_1016944" data-name="Trazado 1016944" d="M238.538,387.138h-1.587v-1.587h1.587Zm-2.646,0H234.3v-1.587h1.587Zm0,0" transform="translate(-209.51 -344.75)" fill="#fff"/>
    </g>
  </g>
</svg>
