<svg xmlns="http://www.w3.org/2000/svg" xmlns:xlink="http://www.w3.org/1999/xlink" width="108" height="108" viewBox="0 0 108 108">
  <defs>
    <filter id="Trazado_982547" x="0" y="0" width="108" height="108" filterUnits="userSpaceOnUse">
      <feOffset dy="3" input="SourceAlpha"/>
      <feGaussianBlur stdDeviation="3" result="blur"/>
      <feFlood flood-opacity="0.161"/>
      <feComposite operator="in" in2="blur"/>
      <feComposite in="SourceGraphic"/>
    </filter>
  </defs>
  <g id="Grupo_1171314" data-name="Grupo 1171314" transform="translate(-274.228 -5523)">
    <g id="Grupo_1162628" data-name="Grupo 1162628" transform="translate(0.229 2658.067)">
      <g id="Grupo_1162006" data-name="Grupo 1162006" transform="translate(0 -573.067)">
        <g id="Grupo_1160641" data-name="Grupo 1160641" transform="translate(0 2554)">
          <g id="Grupo_1149835" data-name="Grupo 1149835" transform="translate(0 -3975)">
            <g id="Grupo_1149673" data-name="Grupo 1149673" transform="translate(-52 -2821)">
              <g id="Grupo_1148532" data-name="Grupo 1148532" transform="translate(51 4253)">
                <g id="Grupo_1147065" data-name="Grupo 1147065" transform="translate(-341 -556)">
                  <g transform="matrix(1, 0, 0, 1, 616, 3983)" filter="url(#Trazado_982547)">
                    <g id="Trazado_982547-2" data-name="Trazado 982547" transform="translate(9 6)" fill="#f4fdfe">
                      <path d="M 45 88.5 C 39.12687683105469 88.5 33.43022537231445 87.35007476806641 28.06830024719238 85.08217620849609 C 22.88852500915527 82.89131164550781 18.23629951477051 79.75458526611328 14.2408504486084 75.75914764404297 C 10.24541282653809 71.76370239257812 7.108687400817871 67.11147308349609 4.917825222015381 61.93170166015625 C 2.649924993515015 56.56977462768555 1.5 50.87312316894531 1.5 45 C 1.5 39.12687683105469 2.649924993515015 33.43022537231445 4.917825222015381 28.06830024719238 C 7.108687400817871 22.88852500915527 10.24541282653809 18.23629951477051 14.2408504486084 14.2408504486084 C 18.23629951477051 10.24541282653809 22.88852500915527 7.108687400817871 28.06830024719238 4.917825222015381 C 33.43022537231445 2.649924993515015 39.12687683105469 1.5 45 1.5 C 50.87312316894531 1.5 56.56977462768555 2.649924993515015 61.93170166015625 4.917825222015381 C 67.11147308349609 7.108687400817871 71.76370239257812 10.24541282653809 75.75914764404297 14.2408504486084 C 79.75458526611328 18.23629951477051 82.89131164550781 22.88852500915527 85.08217620849609 28.06830024719238 C 87.35007476806641 33.43022537231445 88.5 39.12687683105469 88.5 45 C 88.5 50.87312316894531 87.35007476806641 56.56977462768555 85.08217620849609 61.93170166015625 C 82.89131164550781 67.11147308349609 79.75458526611328 71.76370239257812 75.75914764404297 75.75914764404297 C 71.76370239257812 79.75458526611328 67.11147308349609 82.89131164550781 61.93170166015625 85.08217620849609 C 56.56977462768555 87.35007476806641 50.87312316894531 88.5 45 88.5 Z" stroke="none"/>
                      <path d="M 45 3 C 39.32871246337891 3 33.82865524291992 4.110054016113281 28.65262985229492 6.299339294433594 C 23.65165710449219 8.414573669433594 19.15968322753906 11.44334411621094 15.301513671875 15.301513671875 C 11.44334411621094 19.15968322753906 8.414573669433594 23.65165710449219 6.299339294433594 28.65262985229492 C 4.110054016113281 33.82865524291992 3 39.32871246337891 3 45 C 3 50.67128753662109 4.110054016113281 56.17134475708008 6.299339294433594 61.34737396240234 C 8.414573669433594 66.34834289550781 11.44334411621094 70.84031677246094 15.301513671875 74.698486328125 C 19.15968322753906 78.55665588378906 23.65165710449219 81.58542633056641 28.65262985229492 83.70066070556641 C 33.82865524291992 85.88994598388672 39.32871246337891 87 45 87 C 50.67128753662109 87 56.17134475708008 85.88994598388672 61.34737396240234 83.70066070556641 C 66.34834289550781 81.58542633056641 70.84031677246094 78.55665588378906 74.698486328125 74.698486328125 C 78.55665588378906 70.84031677246094 81.58542633056641 66.34834289550781 83.70066070556641 61.34737396240234 C 85.88994598388672 56.17134475708008 87 50.67128753662109 87 45 C 87 39.32871246337891 85.88994598388672 33.82865524291992 83.70066070556641 28.65262985229492 C 81.58542633056641 23.65165710449219 78.55665588378906 19.15968322753906 74.698486328125 15.301513671875 C 70.84031677246094 11.44334411621094 66.34834289550781 8.414573669433594 61.34737396240234 6.299339294433594 C 56.17134475708008 4.110054016113281 50.67128753662109 3 45 3 M 45 0 C 69.85281372070312 0 90 20.14718627929688 90 45 C 90 69.85281372070312 69.85281372070312 90 45 90 C 20.14718627929688 90 0 69.85281372070312 0 45 C 0 20.14718627929688 20.14718627929688 0 45 0 Z" stroke="none" fill="#56838a"/>
                    </g>
                  </g>
                </g>
              </g>
            </g>
          </g>
        </g>
      </g>
    </g>
    <g id="estrategia-de-mercadeo" transform="translate(296.155 5535.115)">
      <g id="Grupo_1171309" data-name="Grupo 1171309" transform="translate(3.127 2.939)">
        <path id="Trazado_1017399" data-name="Trazado 1017399" d="M207.7,18.695l6.847-7.178-5.8.14V5.887L201.9,13.066v5.769Z" transform="translate(-150.331 -5.887)" fill="#f9d335"/>
        <circle id="Elipse_12022" data-name="Elipse 12022" cx="28.675" cy="28.675" r="28.675" transform="translate(0.001 6.96)" fill="#3193f3"/>
        <circle id="Elipse_12023" data-name="Elipse 12023" cx="22.89" cy="22.89" r="22.89" transform="translate(5.786 12.745)" fill="#5fcdff"/>
        <circle id="Elipse_12024" data-name="Elipse 12024" cx="17.105" cy="17.105" r="17.105" transform="translate(11.571 18.531)" fill="#3193f3"/>
        <path id="Trazado_1017400" data-name="Trazado 1017400" d="M97.691,113.973l-4.507-.655a1.035,1.035,0,0,1-.779-.566l-2.016-4.084a1.035,1.035,0,0,0-1.857,0l-2.016,4.084a1.036,1.036,0,0,1-.779.566l-4.507.655a1.035,1.035,0,0,0-.574,1.766l3.262,3.18a1.036,1.036,0,0,1,.3.916l-.77,4.489a1.035,1.035,0,0,0,1.5,1.091l4.031-2.119a1.035,1.035,0,0,1,.964,0l4.031,2.119a1.035,1.035,0,0,0,1.5-1.091l-.77-4.489a1.035,1.035,0,0,1,.3-.916l3.262-3.179A1.035,1.035,0,0,0,97.691,113.973Z" transform="translate(-60.784 -81.178)" fill="#f9d335"/>
        <path id="Trazado_1017401" data-name="Trazado 1017401" d="M69.091,110.354a17.448,17.448,0,0,1-1.975.113,17.1,17.1,0,1,1,0-34.208,17.446,17.446,0,0,1,1.975.113,17.105,17.105,0,0,0,0,33.982Z" transform="translate(-38.441 -57.728)" fill="#35b1fc"/>
        <path id="Trazado_1017402" data-name="Trazado 1017402" d="M91.436,110.785l-.969,1.964a1.03,1.03,0,0,1-.779.566l-4.508.656a1.037,1.037,0,0,0-.574,1.767l3.263,3.178a1.032,1.032,0,0,1,.3.916l-.732,4.274-2.486,1.306a1.034,1.034,0,0,1-1.5-1.09l.769-4.49a1.032,1.032,0,0,0-.3-.916l-3.263-3.178a1.037,1.037,0,0,1,.574-1.767l4.508-.656a1.03,1.03,0,0,0,.779-.566l2.014-4.084a1.035,1.035,0,0,1,1.856,0Z" transform="translate(-60.785 -81.177)" fill="#f9e27d"/>
        <path id="Trazado_1017403" data-name="Trazado 1017403" d="M36.722,89.6q-.98.067-1.975.068a28.675,28.675,0,1,1,0-57.349q1,0,1.975.068a28.674,28.674,0,0,0,0,57.212Z" transform="translate(-6.071 -25.359)" fill="#35b1fc"/>
        <path id="Trazado_1017404" data-name="Trazado 1017404" d="M52.907,99.984q-.976.083-1.975.084a22.889,22.889,0,1,1,0-45.779q1,0,1.975.084a22.891,22.891,0,0,0,0,45.61Z" transform="translate(-22.256 -41.544)" fill="#73d7f9"/>
      </g>
      <g id="Grupo_1171310" data-name="Grupo 1171310" transform="translate(2.074 1.885)">
        <path id="Trazado_1017405" data-name="Trazado 1017405" d="M60.518,16.8a1.054,1.054,0,0,0,.737-.326L68.1,9.295a1.054,1.054,0,0,0-.788-1.78l-4.722.114V2.939a1.054,1.054,0,0,0-1.816-.727L53.93,9.391a1.054,1.054,0,0,0-.291.727v5.345l-1.447,1.5C33.352-.821,2.074,12.511,2.074,38.574A29.762,29.762,0,0,0,31.8,68.3c25.847,0,39.329-30.875,21.87-49.843l1.478-1.531Zm-4.772-6.26,4.74-4.97V8.708a1.054,1.054,0,0,0,1.079,1.053l3.256-.079L60.031,14.7l-4.286.1ZM31.8,66.2A27.653,27.653,0,0,1,4.181,38.574c0-24.162,29-36.636,46.548-20.1L48.174,21.12C32.932,6.815,7.859,17.669,7.859,38.574A23.971,23.971,0,0,0,31.8,62.517c20.658,0,31.578-24.537,17.844-39.889l2.561-2.651C68.308,37.627,55.761,66.2,31.8,66.2ZM36.01,41.773l.763,4.453-4-2.1a2.088,2.088,0,0,0-1.944,0l-4,2.1.764-4.453a2.087,2.087,0,0,0-.6-1.849l-3.235-3.154,4.471-.65A2.089,2.089,0,0,0,29.8,34.978l2-4.051,2,4.052a2.085,2.085,0,0,0,.426.579l-3.183,3.3a1.053,1.053,0,1,0,1.515,1.464l3.9-4.039,3.385.492L36.61,39.924a2.089,2.089,0,0,0-.6,1.849Zm-.32-7.729-2.015-4.083a2.088,2.088,0,0,0-3.746,0l-2,4.074-4.507.655a2.089,2.089,0,0,0-1.158,3.562l3.256,3.163-.77,4.489a2.089,2.089,0,0,0,3.03,2.2l4.015-2.119,4.031,2.119a2.09,2.09,0,0,0,3.03-2.2l-.775-4.473,3.261-3.179a2.088,2.088,0,0,0-1.157-3.562l-1.924-.276,5.883-6.091a16.048,16.048,0,1,1-28.393,10.25c0-13.984,16.717-21.238,26.941-11.779ZM13.644,38.574A18.179,18.179,0,0,0,31.8,56.732c15.468,0,23.821-18.2,13.81-29.928l2.564-2.654C60.571,38.2,50.55,60.411,31.8,60.411A21.861,21.861,0,0,1,9.966,38.574c0-19.04,22.822-28.965,36.743-15.937l-2.554,2.644c-11.542-10.733-30.51-2.562-30.51,13.293Z" transform="translate(-2.074 -1.885)" fill="#5f266d"/>
        <path id="Trazado_1017406" data-name="Trazado 1017406" d="M109.487,89.854c-.3-.026-.6-.039-.906-.039a1.06,1.06,0,1,0,0,2.107c.239,0,.481.011.718.032a1.053,1.053,0,0,0,.184-2.1Z" transform="translate(-79.667 -66.66)" fill="#5f266d"/>
        <path id="Trazado_1017407" data-name="Trazado 1017407" d="M81.336,93.038a14.624,14.624,0,0,0-4.712,3.189,1.053,1.053,0,0,0,1.547,1.43,12.538,12.538,0,0,1,3.976-2.674,1.053,1.053,0,1,0-.81-1.944Z" transform="translate(-56.786 -68.975)" fill="#5f266d"/>
      </g>
    </g>
  </g>
</svg>
