<svg xmlns="http://www.w3.org/2000/svg" xmlns:xlink="http://www.w3.org/1999/xlink" width="505" height="363" viewBox="0 0 505 363">
  <defs>
    <clipPath id="clip-path">
      <rect id="Rect치ngulo_409773" data-name="Rect치ngulo 409773" width="505" height="363" transform="translate(180 803)" fill="#fff" stroke="#707070" stroke-width="1" opacity="0.67"/>
    </clipPath>
    <clipPath id="clip-path-2">
      <rect id="Rect치ngulo_409771" data-name="Rect치ngulo 409771" width="645" height="429" transform="translate(-0.362 0)"/>
    </clipPath>
  </defs>
  <g id="Enmascarar_grupo_1098683" data-name="Enmascarar grupo 1098683" transform="translate(-180 -803)" clip-path="url(#clip-path)">
    <g id="OBJECTS" transform="translate(108.362 737)">
      <g id="Grupo_1160560" data-name="Grupo 1160560" transform="translate(103.373 150.253)">
        <path id="Trazado_979531" data-name="Trazado 979531" d="M339.235,174.793c-120.934,0-218.97,98.037-218.97,218.979,0,10-.181,31.351,1.117,40.991,4.192-1.089,9.838-13.806,15.2-15.061,6.589-1.552,14.042-3.2,22.278-4.855,7.1-1.43,14.791-2.876,23.037-4.279q10.341-1.778,21.807-3.443,8.942-1.28,18.53-2.449,9.962-1.216,20.588-2.257-.379-4.276-.383-8.647A96.8,96.8,0,1,1,435.32,405.635q10.55,1.478,20.465,3.138,9.518,1.595,18.417,3.321,11.322,2.183,21.616,4.506,12.172,2.745,22.8,5.535c8.045,2.091,15.392,4.167,22.008,6.154,5.169,1.543,9.892,3.034,14.137,4.428a220.519,220.519,0,0,0,3.451-38.943C558.214,272.83,460.177,174.793,339.235,174.793Z" transform="translate(-120.256 -174.793)" fill="#fc6232"/>
        <path id="Trazado_979532" data-name="Trazado 979532" d="M343.87,200.782c-105.263,0-190.6,85.339-190.6,190.61a193,193,0,0,0,1.521,24.194c6.148-1.448,13.1-2.985,20.786-4.529,6.628-1.334,13.8-2.684,21.494-3.993q9.649-1.66,20.347-3.212,8.344-1.2,17.289-2.285,9.3-1.135,19.208-2.106-.353-3.989-.358-8.067A90.32,90.32,0,1,1,433.52,402.461q9.843,1.378,19.094,2.928,8.88,1.488,17.183,3.1,10.564,2.037,20.168,4.2,11.357,2.562,21.273,5.164c7.506,1.951,14.361,3.887,20.533,5.741a191.847,191.847,0,0,0,2.708-32.2C534.48,286.121,449.141,200.782,343.87,200.782Z" transform="translate(-124.891 -178.442)" fill="#edc137"/>
        <path id="Trazado_979533" data-name="Trazado 979533" d="M347.328,225.417a169.551,169.551,0,0,0-168.3,189.1c6.628-1.334,13.8-2.684,21.494-3.993q9.649-1.659,20.347-3.212,8.344-1.2,17.289-2.285,9.3-1.135,19.208-2.106-.353-3.989-.358-8.067a90.32,90.32,0,1,1,179.965,11.068q9.843,1.378,19.094,2.928,8.88,1.488,17.184,3.1,10.564,2.037,20.168,4.2,11.357,2.562,21.273,5.164a169.564,169.564,0,0,0-167.369-195.9Z" transform="translate(-128.349 -181.9)" fill="#4c9e75"/>
        <path id="Trazado_979534" data-name="Trazado 979534" d="M350.889,250.78a147.74,147.74,0,0,0-146.8,163.3q9.649-1.659,20.347-3.212,8.344-1.2,17.289-2.285,9.3-1.135,19.208-2.106-.353-3.989-.358-8.067a90.32,90.32,0,1,1,179.965,11.068q9.843,1.378,19.094,2.928,8.88,1.488,17.184,3.1,10.564,2.037,20.168,4.2a147.728,147.728,0,0,0-146.1-168.929Z" transform="translate(-131.91 -185.461)" fill="#77b384"/>
        <path id="Trazado_979535" data-name="Trazado 979535" d="M353.654,274.831c-72.178,0-130.7,55.175-130.7,123.236a115.321,115.321,0,0,0,.628,12.083q8.582-1.159,17.783-2.216,9.561-1.1,19.757-2.042-.364-3.868-.368-7.823c0-48.377,41.589-87.6,92.9-87.6s92.906,39.22,92.906,87.6a82.743,82.743,0,0,1-.695,10.734q10.126,1.337,19.64,2.839,9.134,1.443,17.674,3.005a116.609,116.609,0,0,0,1.179-16.577C484.36,330.006,425.841,274.831,353.654,274.831Z" transform="translate(-134.675 -188.838)" fill="#c7d1f8"/>
        <path id="Trazado_979536" data-name="Trazado 979536" d="M356.966,301.852a109.628,109.628,0,0,0-109.63,109.63q0,5.147.463,10.173,9.3-1.135,19.208-2.106-.353-3.988-.358-8.067A90.32,90.32,0,1,1,446.615,422.55q9.843,1.378,19.094,2.928A109.709,109.709,0,0,0,356.966,301.852Z" transform="translate(-138.097 -192.632)" fill="#7b93e0"/>
      </g>
      <g id="Grupo_1160596" data-name="Grupo 1160596" transform="translate(0 0)">
        <g id="Grupo_1160595" data-name="Grupo 1160595" clip-path="url(#clip-path-2)">
          <g id="Grupo_1160561" data-name="Grupo 1160561" transform="translate(-74.118 336.977)">
            <circle id="Elipse_11636" data-name="Elipse 11636" cx="396.469" cy="396.469" r="396.469" transform="translate(0 0.001)" fill="#c7d1f8"/>
            <path id="Trazado_979537" data-name="Trazado 979537" d="M92.608,1137.862c-8.134-15.781-21.139-32.966-19.088-51.684,3.146-28.708,36.395-41.377,44-68.383,1.828-6.489,3.708-15.832-2.321-20.707-5.613-4.539-13.177-6.5-19.169-10.545-7.131-4.818-13.969-11.968-16.475-20.407-1.933-6.505-.681-13.332-.922-19.987-.3-8.286-2.568-17.16-8.128-23.541-4.776-5.481-11.536-8.189-18.618-9.162-15.831-2.175-32.128,2.136-47.736,4.25-16.009,2.169-32.092,1.518-47.188-4.758-14.416-5.993-27.113-17.28-29.336-33.431-2.549-18.519,7.491-36.063,22.112-46.725C-35.479,822-16.755,817.572.954,814.422c28.531-5.073,77.3-12.354,69.408-52.618-3.983-20.32-21.79-34.243-23.9-55.211-.766-7.621.375-15.045,5.719-20.814,4.436-4.789,10.1-8.008,13.894-13.477,3.241-4.679,7.431-11.806,5.7-17.788-1.166-4.028-5.184-6.373-8.907-7.826-12.089-4.72-26.372-4.239-39.108-3.8-14.125.482-28.475,2.635-42.518.186-7.007-1.222-13.991-4.058-18.989-9.269-.191-.2-.343-.419-.526-.622a394.71,394.71,0,0,0-47.952,189.16c0,142.582,75.28,267.564,188.247,337.425A137.785,137.785,0,0,0,92.608,1137.862Z" transform="translate(86.223 -425.873)" fill="#affbf7"/>
            <path id="Trazado_979538" data-name="Trazado 979538" d="M149.912,861.237c-13.164-2.78-27.281,1.049-40.071,4.033-6.77,1.58-13.542,3.245-20.423,4.274-6.933,1.036-13.6.838-20.583.505-14.105-.671-32.88-1.448-39.323,14.184-5.471,13.274,2.06,30.675,17.289,31.774,7.451.537,14.814-1.423,22.257-1.306A28,28,0,0,1,83.821,918.9c9.079,3.2,16.666,9.316,24.077,15.861,8.65,7.642,18.075,16.517,30.489,15.644,13.228-.93,25.406-10.048,31.437-21.523,6.337-12.057,7.769-27.015,4.821-40.23C171.687,875.384,163.764,864.164,149.912,861.237Z" transform="translate(70.224 -457.756)" fill="#affbf7"/>
            <path id="Trazado_979539" data-name="Trazado 979539" d="M656.714,1036.147c-2.694-11.45-7.344-22.354-12.575-32.852-9.96-19.988-24.47-38.757-27.927-61.323-3.029-19.776,4.127-37.807,18.768-51.232,8.45-7.749,18.358-13.822,28.574-18.94,9.75-4.883,20.381-8.377,28.535-15.929,7.887-7.3,13.032-20,8.165-30.418-2.445-5.233-6.432-9.576-8.73-14.894-2.28-5.275-1.861-11.022.227-16.328,3.562-9.053,12.872-13.55,17.111-22.131,3.448-6.98,2.953-13.721.5-20.975-6.459-19.133-20.331-35.655-30.663-52.772-10.418-17.262-19.413-35.864-16.259-56.514,3.5-22.9,18.14-42.57,32.486-60.039C625.257,467.973,499.778,392.014,356.548,392.014c-6.361,0-12.674.2-18.962.5-2.926,3.747-5.7,7.631-8.621,11.245-7.962,9.85-21.847,15.7-33.323,20.336-11.74,4.743-23.812,8.336-34.771,14.823-8.287,4.9-17.067,11.964-17.294,22.442-.207,9.57,4.976,21.731,14.187,25.735,7.2,3.13,15.427,2.544,23,4.081,7.921,1.61,15.2,6.269,18.084,14.141,6.286,17.179-15.573,26.566-18.041,41.546-1.414,8.593,7.42,13.565,14.259,16.033,9.2,3.319,18.974,4.769,28.022,8.534,9.505,3.954,16.63,10.825,19.021,21.09,1.334,5.726,1.649,11.428,5.551,16.115,3.047,3.659,6.275,6.45,10.963,7.539,4.453,1.034,8.856,1.588,13.161,3.242a72.918,72.918,0,0,1,16.837,9.02c9.552,6.949,17.146,15.971,25.693,24.035a70.327,70.327,0,0,0,34.48,17.989c12.625,2.777,25.58,3.324,38.374,4.929,12.393,1.556,24.745,4.009,35.875,9.925,11.159,5.932,20.1,14.964,27.261,25.261,7.141,10.266,12.394,21.693,19.412,32.029,6.04,8.893,15.309,13.914,23.716,20.168,7.867,5.852,13.1,13.02,14.192,22.975.722,6.607-1,12.428-2.915,18.672-1.762,5.737-2.351,10.117,1.54,14.9,5.238,6.439,13.9,10.92,13.692,20.082-.2,8.445-5.2,14.676-12.8,17.919-7.951,3.393-16.84,3.94-25.335,4.89-8.893,1-18.059,2.7-26.164,6.626-16.447,7.969-25.748,23.419-34.6,38.654-8.519,14.665-17.776,29.87-33.325,37.964-8.219,4.279-17.193,6.609-26.17,8.655-6.507,1.484-15.528,2.865-19.028,9.385-4.733,8.816-.7,21.367,4.148,29.219,5.941,9.627,14.588,17.17,21.716,25.862a69.347,69.347,0,0,1,15.268,32.442c2.385,13.817,2.476,27.9,9.7,40.369,12.671,21.855,34.566,32.648,56.509,43.287a398.337,398.337,0,0,0,108.464-89.113A75.415,75.415,0,0,0,656.714,1036.147Z" transform="translate(39.922 -392.014)" fill="#4c9e75"/>
          </g>
          <g id="Grupo_1160562" data-name="Grupo 1160562" transform="translate(113.838 71.045)">
            <path id="Trazado_979540" data-name="Trazado 979540" d="M89.463,68.215c-3.856-10.05-14.189-16.908-25.017-16.009A23.67,23.67,0,0,0,43.515,69.573c-2.76,10.019.715,22.463,9.8,28.065.009.008.014.018.025.025a24.232,24.232,0,0,0,28.733-1.194A25.082,25.082,0,0,0,89.463,68.215ZM53.79,96.894c-8.145-5.663-12.847-20.037-7.727-30.855,5.562-11.753,20.315-15.847,31.513-9.628s15.757,20.959,9.47,32.253C80.447,100.519,64.865,104.595,53.79,96.894Z" transform="translate(-33.121 -37.982)" fill="#eaad2b"/>
            <path id="Trazado_979541" data-name="Trazado 979541" d="M73.145,36.222a.576.576,0,0,0-1.128-.138c-.942,3.644-.786,7.536-.769,11.264,0,.092.15.116.166.021C72,43.679,73.007,39.967,73.145,36.222Z" transform="translate(-37.141 -35.671)" fill="#eaad2b"/>
            <path id="Trazado_979542" data-name="Trazado 979542" d="M56.945,50.2c-.613-1.081-1.149-2.2-1.756-3.285-.168-.3-.36-.589-.542-.882-.092-.149-.177-.3-.271-.45-.015-.033-.036-.062-.054-.093a.406.406,0,0,0-.07-.163.8.8,0,0,0-.4-.309.539.539,0,0,0-.533.144c-.6.658.4,1.6.77,2.111A11.5,11.5,0,0,0,56.7,50.439C56.855,50.54,57.027,50.344,56.945,50.2Z" transform="translate(-34.601 -36.98)" fill="#eaad2b"/>
            <path id="Trazado_979543" data-name="Trazado 979543" d="M108.139,58.482a.576.576,0,0,0-.5-1.02c-3.567,1.2-6.743,3.456-9.858,5.5-.076.051-.015.189.073.15C101.267,61.6,104.925,60.411,108.139,58.482Z" transform="translate(-40.864 -38.726)" fill="#eaad2b"/>
            <path id="Trazado_979544" data-name="Trazado 979544" d="M88.759,52.436c.572-1.1,1.218-2.165,1.794-3.265.16-.305.3-.623.444-.935.075-.158.156-.314.23-.473.019-.031.032-.064.048-.1a.4.4,0,0,0,.1-.148.786.786,0,0,0,.042-.5A.541.541,0,0,0,91,46.65c-.88-.144-1.118,1.209-1.349,1.8a11.5,11.5,0,0,0-1.23,3.916A.178.178,0,0,0,88.759,52.436Z" transform="translate(-39.555 -37.211)" fill="#eaad2b"/>
            <path id="Trazado_979545" data-name="Trazado 979545" d="M108.025,99.488c.579.3,1.1-.552.606-.961-2.894-2.406-6.481-3.925-9.86-5.5-.083-.039-.169.086-.089.141C101.767,95.275,104.7,97.767,108.025,99.488Z" transform="translate(-40.991 -43.723)" fill="#eaad2b"/>
            <path id="Trazado_979546" data-name="Trazado 979546" d="M102.975,79.627c1.24-.094,2.482-.1,3.72-.187.344-.024.686-.075,1.028-.113.174-.02.349-.032.523-.052.036,0,.071-.006.107-.009a.4.4,0,0,0,.178.007.79.79,0,0,0,.449-.227.541.541,0,0,0,.1-.543c-.34-.825-1.617-.316-2.238-.2a11.507,11.507,0,0,0-3.979,1.009A.177.177,0,0,0,102.975,79.627Z" transform="translate(-41.571 -41.62)" fill="#eaad2b"/>
            <path id="Trazado_979547" data-name="Trazado 979547" d="M73.808,122.063a.576.576,0,0,0,1.136-.016c.437-3.738-.248-7.573-.773-11.263-.013-.091-.165-.095-.167,0C73.923,114.52,73.433,118.334,73.808,122.063Z" transform="translate(-37.484 -46.207)" fill="#eaad2b"/>
            <path id="Trazado_979548" data-name="Trazado 979548" d="M87.56,107.1c.755.988,1.439,2.024,2.188,3.016.208.275.438.534.657.8.111.135.217.275.329.409.02.03.044.056.066.085a.389.389,0,0,0,.091.152.789.789,0,0,0,.435.252.54.54,0,0,0,.508-.216c.506-.734-.617-1.528-1.051-1.987a11.507,11.507,0,0,0-3.017-2.783C87.6,106.754,87.458,106.972,87.56,107.1Z" transform="translate(-39.429 -45.66)" fill="#eaad2b"/>
            <path id="Trazado_979549" data-name="Trazado 979549" d="M31.86,98.295a.576.576,0,0,0,.425,1.054c3.645-.94,6.975-2.96,10.229-4.779.08-.045.029-.187-.062-.155C38.938,95.685,35.2,96.6,31.86,98.295Z" transform="translate(-31.574 -43.918)" fill="#eaad2b"/>
            <path id="Trazado_979550" data-name="Trazado 979550" d="M52,105.69c-.65,1.06-1.371,2.072-2.025,3.126-.181.293-.34.6-.51.9-.086.152-.179.3-.263.455-.021.029-.036.062-.055.092a.39.39,0,0,0-.109.14.79.79,0,0,0-.078.5.54.54,0,0,0,.384.4c.867.207,1.2-1.126,1.475-1.7a11.477,11.477,0,0,0,1.509-3.818A.178.178,0,0,0,52,105.69Z" transform="translate(-34.012 -45.49)" fill="#eaad2b"/>
            <path id="Trazado_979551" data-name="Trazado 979551" d="M33.717,56.271c-.565-.327-1.124.5-.652.931,2.777,2.541,6.287,4.228,9.587,5.963.082.043.174-.078.1-.137C39.767,60.777,36.96,58.149,33.717,56.271Z" transform="translate(-31.758 -38.553)" fill="#eaad2b"/>
            <path id="Trazado_979552" data-name="Trazado 979552" d="M38.4,77.23c-1.243.034-2.484-.018-3.726.01-.345.008-.689.042-1.032.064-.174.011-.35.015-.524.028-.036,0-.071,0-.107,0a.4.4,0,0,0-.177-.015.783.783,0,0,0-.458.205.541.541,0,0,0-.123.538c.3.84,1.6.393,2.226.31a11.507,11.507,0,0,0,4.022-.819A.178.178,0,0,0,38.4,77.23Z" transform="translate(-31.666 -41.506)" fill="#eaad2b"/>
            <path id="Trazado_979553" data-name="Trazado 979553" d="M55.205,76.983a1.319,1.319,0,0,0-.929,1.968,1.415,1.415,0,0,0,2.509-.271A1.36,1.36,0,0,0,55.205,76.983Z" transform="translate(-34.738 -41.466)" fill="#eaad2b"/>
            <path id="Trazado_979554" data-name="Trazado 979554" d="M76.887,74.654c-.148-.631-1.223-.5-1.146.164a35.767,35.767,0,0,1,.6,4.7A5.89,5.89,0,0,1,71,85.286c-5.019.476-7.325-3.957-9.115-7.848-.092-.2-.385-.053-.341.144,1.091,4.852,4.515,9.82,10.142,8.883C77.765,85.453,78.016,79.481,76.887,74.654Z" transform="translate(-35.78 -41.087)" fill="#eaad2b"/>
            <path id="Trazado_979555" data-name="Trazado 979555" d="M52.823,71.244c-1.155-.2-2.033,1.023-2.079,2.064a.2.2,0,0,0,.393.048c.206-.957.938-1.306,1.744-1.688A.234.234,0,0,0,52.823,71.244Z" transform="translate(-34.265 -40.663)" fill="#eaad2b"/>
            <path id="Trazado_979556" data-name="Trazado 979556" d="M83.69,67.563a1.319,1.319,0,0,1,1.919,1.026,1.414,1.414,0,0,1-2.176,1.278A1.36,1.36,0,0,1,83.69,67.563Z" transform="translate(-38.781 -40.126)" fill="#eaad2b"/>
            <path id="Trazado_979557" data-name="Trazado 979557" d="M82.169,61.58c.811-.846,2.242-.39,2.9.418.142.174-.118.422-.287.273a2.523,2.523,0,0,0-2.407-.316A.234.234,0,0,1,82.169,61.58Z" transform="translate(-38.67 -39.245)" fill="#eaad2b"/>
          </g>
          <g id="Grupo_1160593" data-name="Grupo 1160593" transform="translate(138.691 165.02)">
            <g id="Grupo_1160566" data-name="Grupo 1160566" transform="translate(181.252 19.372)">
              <path id="Trazado_979558" data-name="Trazado 979558" d="M438.587,215.829c-19.061-4.215-34.07,1.689-42.444,17.195s-17.756,29.7-13.4,40.433c6.282,15.461,22.871,20.459,43.94,24.206,21.024,3.739,32.974,1.11,40.012-6.233,12.65-13.2,9.193-33.129,4.3-49.521C466.585,227.1,459.186,220.383,438.587,215.829Z" transform="translate(-373.523 -214.508)" fill="#522a68"/>
              <path id="Trazado_979559" data-name="Trazado 979559" d="M464.034,265.115a33.6,33.6,0,0,0-27.55-38.713c-13.724-2.311-23.012.861-30.045,11.906-2.344,3.682-6.89,11.36-8.668,15.645-7.314,17.623,9.252,35.631,27.55,38.713A33.6,33.6,0,0,0,464.034,265.115Z" transform="translate(-375.539 -216.078)" fill="#bf8073"/>
              <path id="Trazado_979560" data-name="Trazado 979560" d="M461.2,271.742a11.077,11.077,0,1,0,12.763-9.083A11.078,11.078,0,0,0,461.2,271.742Z" transform="translate(-384.67 -221.246)" fill="#bf8073"/>
              <g id="Grupo_1160563" data-name="Grupo 1160563" transform="translate(0 76.989)">
                <path id="Trazado_979561" data-name="Trazado 979561" d="M414.511,305.2s-2.073-2.8-8.238.418-26.725,22.716-26.725,22.716a34.344,34.344,0,0,1-5.655.983c-2.017.047-1.9,1.744-.359,2.133a16.506,16.506,0,0,0,2.734.461s-1.813,2.017-3.389,3.428-.116,3.077,1.355,2.293a26.824,26.824,0,0,0,3.329-2.277,32.634,32.634,0,0,1-2.176,3.375c-.842,1.02.056,2.847,1.59,1.687s4.709-3.205,4.709-3.205-1.726,2.989-2.194,4.173a1.208,1.208,0,0,0,2.07,1.224,30.908,30.908,0,0,0,3.013-5.168s-.208,2.029-.44,3.408,1.918,2.129,2.449-.232,1.078-6.4,1.078-6.4,18.879-11.912,22.944-14.581S419.522,310.43,414.511,305.2Z" transform="translate(-372.197 -304.071)" fill="#bf8073"/>
                <path id="Trazado_979562" data-name="Trazado 979562" d="M443.61,309.174s2.875-1.967,7.647,3.094,17.808,30.218,17.808,30.218a34.377,34.377,0,0,0,5.022,2.781c1.889.7,1.224,2.27-.359,2.133a16.45,16.45,0,0,1-2.734-.461s1.052,2.5,2.079,4.349-.9,2.945-2.03,1.722a26.81,26.81,0,0,1-2.4-3.242,32.7,32.7,0,0,0,.95,3.9c.461,1.239-.986,2.672-2.055,1.073s-3.4-4.571-3.4-4.571.652,3.389.706,4.661a1.209,1.209,0,0,1-2.357.479,30.91,30.91,0,0,1-1.154-5.87s-.469,1.985-.7,3.365-2.509,1.383-2.238-1.022,1.078-6.4,1.078-6.4-13.934-17.44-16.9-21.293S437.163,312.473,443.61,309.174Z" transform="translate(-381.652 -304.735)" fill="#bf8073"/>
              </g>
              <path id="Trazado_979563" data-name="Trazado 979563" d="M397.219,347.226s-4,18.16-4.881,28.976-1.12,11.421-1.12,11.421-9.977-.391-10.333,2.516,24.23,6.4,24.23,6.4l10.044-28.621,4.427.746-2.371,29.974s25.8,5.835,26.239,2.426-9.093-6.433-9.093-6.433,2.418-6.952,3.743-11.882c4.476-16.66,3.78-28,3.78-28Z" transform="translate(-373.416 -233.141)" fill="#bf8073"/>
              <path id="Trazado_979564" data-name="Trazado 979564" d="M405.976,396.889c-4.925-.176-10.338-.548-14.705-3.008a2.121,2.121,0,0,1-.055.291s-9.977-.391-10.333,2.516,24.23,6.4,24.23,6.4l2.162-6.162Q406.627,396.911,405.976,396.889Z" transform="translate(-373.416 -239.691)" fill="#fffcf5"/>
              <path id="Trazado_979565" data-name="Trazado 979565" d="M441.333,402.4c-5.856.429-12.447.415-17.707-2.406l-.479,6.052s25.8,5.835,26.239,2.426C449.736,405.765,443.79,403.3,441.333,402.4Z" transform="translate(-379.35 -240.549)" fill="#fffcf5"/>
              <g id="Grupo_1160564" data-name="Grupo 1160564" transform="translate(12.421 75.116)">
                <path id="Trazado_979566" data-name="Trazado 979566" d="M399.273,309.857s16.784-13.024,22.147-5.1S410.9,325.073,410.9,325.073s-5.995-.98-8.574-5.543A27.354,27.354,0,0,1,399.273,309.857Z" transform="translate(-388.42 -301.936)" fill="#edc137"/>
                <path id="Trazado_979567" data-name="Trazado 979567" d="M459.737,319.741s-11.59-17.8-19.254-12.072,3.28,22.638,3.28,22.638,5.985,1.038,9.916-2.428A27.348,27.348,0,0,0,459.737,319.741Z" transform="translate(-393.823 -302.544)" fill="#edc137"/>
                <path id="Trazado_979568" data-name="Trazado 979568" d="M426.113,302.122c-5.06-.766-12.948-.5-20.945,15.434-8.048,16.034-18.521,45.569-18.521,45.569a74.442,74.442,0,0,0,28.61,9.617,115.1,115.1,0,0,0,29.533.178s.7-41.961-1.757-51.011S440.157,304.247,426.113,302.122Z" transform="translate(-386.647 -301.893)" fill="#edc137"/>
              </g>
              <path id="Trazado_979569" data-name="Trazado 979569" d="M424.207,292.315s-1.167,5.8-1.571,9.33c-.746,6.5,17.5,10.422,18.4,3.1.547-4.461,1.886-11.2,1.886-11.2Z" transform="translate(-379.275 -225.432)" fill="#bf8073"/>
              <path id="Trazado_979570" data-name="Trazado 979570" d="M455.407,237.11s-4.584,12.18-6.358,12.938-12.444.547-27.207-3c-6.576-1.578-17.1-7.6-17.1-7.6s4.43-23.61,35.289-19.2,31.26,30.725,30,31.333-2.23,1.1-6.316.146S461.344,239.7,455.407,237.11Z" transform="translate(-376.766 -215.237)" fill="#522a68"/>
              <g id="Grupo_1160565" data-name="Grupo 1160565" transform="translate(25.522 30.481)">
                <path id="Trazado_979571" data-name="Trazado 979571" d="M477.851,280.44a.015.015,0,0,0,.005-.03" transform="translate(-412.552 -254.241)" fill="none" stroke="#222221" stroke-linecap="round" stroke-linejoin="round" stroke-width="0"/>
                <path id="Trazado_979572" data-name="Trazado 979572" d="M456.975,270.672a5.274,5.274,0,0,1-2.215-.134,5.022,5.022,0,0,0,.556-1.426,2.053,2.053,0,0,0,1.136.046,1.7,1.7,0,0,0,.627-.283,1.9,1.9,0,0,0,.422-.518.278.278,0,0,0-.373-.4,2.3,2.3,0,0,1-.849.219,2.241,2.241,0,0,1-.838-.109,8.255,8.255,0,0,0-5.872-7.735,8.151,8.151,0,0,0-6.589,1.252c-2.321,1.676-2.76,4.423-3.062,7.05-.03.255.372.327.411.07.654-4.307,3.114-8.494,8.393-7.5a6.5,6.5,0,0,1,4.755,4.027c.774,1.907.367,3.387.089,5.221-.006.008-.017.012-.022.021-.028.041-.055.083-.08.125a.584.584,0,0,0,.279.764,2.935,2.935,0,0,0,3.477-.233C457.4,270.958,457.2,270.648,456.975,270.672Z" transform="translate(-407.226 -251.391)" fill="#222221"/>
                <path id="Trazado_979573" data-name="Trazado 979573" d="M459.325,259.675a2.9,2.9,0,0,0-.707-1.188c-.555-.585-1.837-1.442-2.626-.862a.459.459,0,0,0-.025.731,1.965,1.965,0,0,0,.946.342,2.933,2.933,0,0,1,.971.5,3.2,3.2,0,0,1,1.258,1.791c.011.113.209.128.214.008A3.6,3.6,0,0,0,459.325,259.675Z" transform="translate(-409.456 -251.015)" fill="#222221"/>
                <path id="Trazado_979574" data-name="Trazado 979574" d="M433.054,271.717c-.1-1.584-.264-3.161-.518-4.731-.053-.331-.609-.392-.641-.024-.1,1.132-.14,2.267-.159,3.4-1.38-1.241-3.209-2.8-4.626-1.056-1.5,1.849.818,5.9,2.747,6.7.266.11.647-.149.493-.44-.695-1.3-1.813-2.241-2.264-3.714-.522-.982-.352-2.734,1.213-1.919a4.138,4.138,0,0,1,1.257,1.083,8.882,8.882,0,0,0,1.4,1.257A.675.675,0,0,0,433.054,271.717Z" transform="translate(-405.361 -252.318)" fill="#222221"/>
                <path id="Trazado_979575" data-name="Trazado 979575" d="M435.474,279.765a5.64,5.64,0,0,0-.983-.948,2.4,2.4,0,0,0-1.023-.614c-.065-.011-.148.05-.132.123a1.652,1.652,0,0,0,.367.667c-1.723,1.712-3.088,4.217-5.976,4.082-3.029-.141-4.641-3.009-5.9-5.317.221-.106.444-.254.27-.471a.259.259,0,0,0-.238-.107,2.072,2.072,0,0,0-1.521,1.388c-.055.184.216.281.326.15a3.656,3.656,0,0,1,.831-.785c1.078,2.705,2.732,6,6.144,6.169,2.734.138,5.569-2.084,6.677-4.422a3.708,3.708,0,0,0,.634.567C435.271,280.459,435.729,280.119,435.474,279.765Z" transform="translate(-404.477 -253.787)" fill="#222221"/>
                <path id="Trazado_979576" data-name="Trazado 979576" d="M457.24,283.893a5.286,5.286,0,1,0-6.054,4.141A5.189,5.189,0,0,0,457.24,283.893Z" transform="translate(-408.186 -253.892)" fill="#fc6232"/>
                <path id="Trazado_979577" data-name="Trazado 979577" d="M421.422,258.014a8.154,8.154,0,0,0-5.815-3.342,8.251,8.251,0,0,0-8.123,5.487,2.453,2.453,0,0,1-.615-.046,1.639,1.639,0,0,1-.881-.707c-.2-.3-.605-.031-.523.279a1.811,1.811,0,0,0,1.06,1.157,2.158,2.158,0,0,0,.786.174,5.038,5.038,0,0,0,.017,1.442,2.149,2.149,0,0,1-.743-.04,2.783,2.783,0,0,1-1.356-1,.245.245,0,0,0-.438.165,2.267,2.267,0,0,0,1.347,1.742,2.7,2.7,0,0,0,1.551.238.471.471,0,0,0,.751-.248c.407-2,.416-3.631,1.867-5.287a6.5,6.5,0,0,1,5.812-2.247c5.316.787,6.267,5.548,5.474,9.833-.047.256.356.32.411.07C422.58,263.1,423.065,260.358,421.422,258.014Z" transform="translate(-402.294 -250.624)" fill="#222221"/>
                <path id="Trazado_979578" data-name="Trazado 979578" d="M409.13,251.286a2.9,2.9,0,0,1,1.056-.891c.717-.371,2.207-.761,2.764.046a.458.458,0,0,1-.216.7,1.972,1.972,0,0,1-1.006.014,2.927,2.927,0,0,0-1.08.151,3.193,3.193,0,0,0-1.774,1.28c-.048.1-.24.052-.2-.063A3.586,3.586,0,0,1,409.13,251.286Z" transform="translate(-402.838 -249.967)" fill="#222221"/>
                <path id="Trazado_979579" data-name="Trazado 979579" d="M401.956,274.58a5.286,5.286,0,1,1,4.364,5.9A5.188,5.188,0,0,1,401.956,274.58Z" transform="translate(-401.887 -252.831)" fill="#fc6232"/>
              </g>
              <path id="Trazado_979580" data-name="Trazado 979580" d="M478.661,269.052c-.594-.443-1.326.419-.742.888a5.533,5.533,0,0,1,2.034,4.9,7.229,7.229,0,0,0-3.187-3.059.152.152,0,0,0-.161.253,11.538,11.538,0,0,1,3,4.522.46.46,0,0,0,.054.089,13.712,13.712,0,0,1-2.717,5.1h0s0,0,0,0c-.144.17-.289.337-.435.492-.108.114.056.266.177.192C480.8,279.924,483.145,272.392,478.661,269.052Z" transform="translate(-386.836 -222.148)" fill="#222221"/>
              <path id="Trazado_979581" data-name="Trazado 979581" d="M440.52,303.094a51.611,51.611,0,0,1-15.18-.549c-.034-.006-.052.046-.019.059a30.939,30.939,0,0,0,15.3,1.447C441.228,303.967,441.136,303.014,440.52,303.094Z" transform="translate(-379.653 -226.868)" fill="#222221"/>
              <path id="Trazado_979582" data-name="Trazado 979582" d="M408.342,272.875a.519.519,0,0,0-.97.368.631.631,0,0,0,.085.189.45.45,0,0,0,.656.111.635.635,0,0,0,.142-.15.524.524,0,0,0,.113-.247A.519.519,0,0,0,408.342,272.875Z" transform="translate(-377.131 -222.655)" fill="#222221"/>
              <path id="Trazado_979583" data-name="Trazado 979583" d="M405.233,276.4a1.437,1.437,0,0,0-.349-.116.484.484,0,0,0-.161.955,1.473,1.473,0,0,0,.353.006.437.437,0,0,0,.156-.845Z" transform="translate(-376.707 -223.18)" fill="#222221"/>
              <path id="Trazado_979584" data-name="Trazado 979584" d="M410.733,277.558a.39.39,0,0,0-.113-.16c-.038-.039-.076-.077-.114-.115a.5.5,0,0,0-.637.762.49.49,0,0,0,.236.108.5.5,0,0,0,.259-.025l.146-.071a.391.391,0,0,0,.16-.113.381.381,0,0,0,.084-.184A.376.376,0,0,0,410.733,277.558Z" transform="translate(-377.461 -223.305)" fill="#222221"/>
              <path id="Trazado_979585" data-name="Trazado 979585" d="M453.646,281.473a.415.415,0,0,0-.138.818A.415.415,0,0,0,453.646,281.473Z" transform="translate(-383.566 -223.909)" fill="#222221"/>
              <path id="Trazado_979586" data-name="Trazado 979586" d="M451.2,284.87a.944.944,0,0,0-.167-.165.588.588,0,0,0-.336-.1.37.37,0,0,0-.258.059.347.347,0,0,0-.14.224.356.356,0,0,0,.284.4.591.591,0,0,0,.352.012.975.975,0,0,0,.211-.1A.237.237,0,0,0,451.2,284.87Z" transform="translate(-383.161 -224.348)" fill="#222221"/>
              <path id="Trazado_979587" data-name="Trazado 979587" d="M455.9,285.137a.45.45,0,0,0-.15.886A.45.45,0,0,0,455.9,285.137Z" transform="translate(-383.877 -224.423)" fill="#222221"/>
              <path id="Trazado_979588" data-name="Trazado 979588" d="M456.613,233.787c.044-.348-.506-.566-.625-.194a66.839,66.839,0,0,1-7.834,16.868.414.414,0,0,0-.321-.086,40.428,40.428,0,0,1-10.855-.155,30.733,30.733,0,0,1,2.331-7.388c1.278-2.463,2.943-4.658,4.433-6.987.074-.116-.072-.25-.168-.141-3.45,3.879-7.161,9-7.514,14.388-3.836-.579-7.64-1.513-11.339-2.452a.7.7,0,0,0-.046-.119.42.42,0,0,0-.211-.171l.007-.007c.263.162.8-2.431.853-2.635a23.148,23.148,0,0,1,.927-2.7,33.243,33.243,0,0,1,2.441-4.639c.126-.205-.185-.356-.332-.211a16.719,16.719,0,0,0-4.172,6.8,11.947,11.947,0,0,0-.867,3.3,77.418,77.418,0,0,1-11.017-3.843c1.883-5.383,4.873-9.573,8.272-14.1.116-.155-.07-.38-.237-.256-4.47,3.3-7.509,8.593-9.326,13.761a64.059,64.059,0,0,1-6.305-3.377c.4-.742.545-1.61.9-2.388a20.679,20.679,0,0,1,1.767-2.92.148.148,0,0,0-.2-.215,7.356,7.356,0,0,0-2.185,2.417,6.514,6.514,0,0,0-1,2.675q-1.146-.719-2.27-1.5a.06.06,0,0,0-.077.092q1.168,1.023,2.4,1.949a.373.373,0,0,0,.3.22,58.293,58.293,0,0,0,19.353,8.936c7.249,2,16.792,4.909,24.245,2.6a.28.28,0,0,0,.4-.038A32.819,32.819,0,0,0,456.613,233.787Z" transform="translate(-376.328 -216.546)" fill="#222221"/>
              <path id="Trazado_979589" data-name="Trazado 979589" d="M465.72,297.04a.063.063,0,0,0-.118.045c.742,2.3,1.282,4.641,1.852,6.989.034.142.269.084.249-.058A30.166,30.166,0,0,0,465.72,297.04Z" transform="translate(-385.31 -226.089)" fill="#222221"/>
              <path id="Trazado_979590" data-name="Trazado 979590" d="M475.17,293c-.053-.185-.322-.076-.277.1a26.708,26.708,0,0,1,.614,5.994.19.19,0,0,0,.374.012A16.055,16.055,0,0,0,475.17,293Z" transform="translate(-386.614 -225.514)" fill="#222221"/>
              <path id="Trazado_979591" data-name="Trazado 979591" d="M396.5,285.531a9.168,9.168,0,0,0-3.3,5.495c-.032.294.4.469.523.162a14.6,14.6,0,0,1,3.035-5.379C396.912,285.657,396.667,285.387,396.5,285.531Z" transform="translate(-375.146 -224.473)" fill="#222221"/>
              <path id="Trazado_979592" data-name="Trazado 979592" d="M390.709,277.039a10.047,10.047,0,0,0-2.487,4.451c-.058.224.32.345.392.122a12.148,12.148,0,0,1,2.418-4.3C391.213,277.1,390.893,276.843,390.709,277.039Z" transform="translate(-374.446 -223.277)" fill="#222221"/>
              <path id="Trazado_979593" data-name="Trazado 979593" d="M404.71,399.555c-7.05-1.13-14.916-.994-21.658-3.4a.053.053,0,0,0-.045.1c2.9,1.743,6.333,1.95,9.624,2.5,3.959.658,7.935,1.266,11.918,1.754A.481.481,0,0,0,404.71,399.555Z" transform="translate(-373.711 -240.01)" fill="#222221"/>
              <path id="Trazado_979594" data-name="Trazado 979594" d="M448.837,407.88c-7.949-.027-15.261-2.1-23.1-2.894a.453.453,0,0,0-.15.893c7.125,1.738,15.971,3.634,23.264,2.189A.1.1,0,0,0,448.837,407.88Z" transform="translate(-379.643 -241.25)" fill="#222221"/>
              <path id="Trazado_979595" data-name="Trazado 979595" d="M439.415,358.738a1,1,0,0,0,.1-.56l0-.852a.467.467,0,0,0-.383-.409,6.831,6.831,0,0,0-.892-.12.561.561,0,0,0-.12.009.692.692,0,0,0-.088-.013c-10.12.7-22.712-.1-31.914-4.711a.085.085,0,0,0-.09.142c.052.041.108.077.162.117a.249.249,0,0,0-.284.148c-1.614,3.823-2.5,8.68-.169,12.409,2.572,4.12,7.978,5.7,12.436,6.608,4.571.935,11.363,1.949,15.591-.665C437.883,368.3,438.862,363.2,439.415,358.738Zm-7.242,11.63c-3.718,1.657-9.19.957-13.063.276-3.744-.658-8.239-1.788-11.046-4.525-4-3.9-2.382-8.709-1.607-13.459a.252.252,0,0,0-.034-.152c4.069,2.943,9.519,3.442,14.335,4.341,5.766,1.075,11.547,1.854,17.41,1.233a.612.612,0,0,0,.162-.051C437.715,362.552,436.926,368.249,432.173,370.369Z" transform="translate(-376.707 -233.821)" fill="#222221"/>
            </g>
            <g id="Grupo_1160570" data-name="Grupo 1160570" transform="translate(0 35.138)">
              <path id="Trazado_979596" data-name="Trazado 979596" d="M226.658,238.525s-8.829-10.477-33.535-2.962-31.55,19.17-31.768,32,2.368,18.886,9.125,22.584,42.6,14.217,60.483,8.237,18.7-20.986,12.99-38.4S231.632,235.816,226.658,238.525Z" transform="translate(-161.342 -232.849)" fill="#522a68"/>
              <path id="Trazado_979597" data-name="Trazado 979597" d="M237.383,270.352a33.6,33.6,0,0,0-41.922-22.367c-13.314,4.05-20.214,11.032-21.584,24.053-.456,4.34-1.1,13.241-.783,17.869,1.311,19.035,24.17,27.767,41.922,22.367A33.6,33.6,0,0,0,237.383,270.352Z" transform="translate(-162.98 -234.769)" fill="#bf8073"/>
              <path id="Trazado_979598" data-name="Trazado 979598" d="M234.749,282.313a11.077,11.077,0,1,0,7.375-13.822A11.078,11.078,0,0,0,234.749,282.313Z" transform="translate(-171.581 -237.785)" fill="#bf8073"/>
              <g id="Grupo_1160567" data-name="Grupo 1160567" transform="translate(18.465 76.937)">
                <path id="Trazado_979599" data-name="Trazado 979599" d="M209.423,330.882s-3.1-1.582-7.188,4.048-13.791,32.249-13.791,32.249a34.323,34.323,0,0,1-4.625,3.4c-1.784.941-.924,2.409.629,2.069a16.462,16.462,0,0,0,2.653-.807s-.723,2.613-1.505,4.579,1.267,2.806,2.235,1.448a26.878,26.878,0,0,0,1.965-3.523,32.523,32.523,0,0,1-.443,3.99c-.3,1.288,1.32,2.524,2.176.8s2.785-4.969,2.785-4.969-.212,3.445-.1,4.713a1.209,1.209,0,0,0,2.4.173,30.907,30.907,0,0,0,.392-5.97s.719,1.908,1.126,3.248,2.666,1.05,2.089-1.3-1.888-6.206-1.888-6.206,11.587-19.081,14.035-23.282S216.24,333.329,209.423,330.882Z" transform="translate(-182.823 -323.521)" fill="#bf8073"/>
                <path id="Trazado_979600" data-name="Trazado 979600" d="M235.688,323.916s1.7-3.042,8.225-.64,29.413,19.106,29.413,19.106a34.337,34.337,0,0,0,5.734.25c2.006-.211,2.109,1.486.629,2.069a16.512,16.512,0,0,1-2.653.807s2.056,1.768,3.8,2.966.51,3.036-1.05,2.446a26.8,26.8,0,0,1-3.594-1.832,32.616,32.616,0,0,0,2.589,3.068c.964.9.309,2.831-1.362,1.877s-5.08-2.576-5.08-2.576,2.095,2.743,2.709,3.858a1.209,1.209,0,0,1-1.9,1.479,30.86,30.86,0,0,1-3.65-4.74s.466,1.986.873,3.324-1.629,2.357-2.459.083-1.888-6.206-1.888-6.206-20.249-9.4-24.623-11.523S231.389,329.744,235.688,323.916Z" transform="translate(-190.029 -322.352)" fill="#bf8073"/>
              </g>
              <path id="Trazado_979601" data-name="Trazado 979601" d="M213.149,375.816s4.521,18.037,8.551,28.112,4.09,10.722,4.09,10.722-9.1,4.1-8.127,6.86,24.543-5.073,24.543-5.073l-3.773-30.1,4.3-1.307,11.243,27.886s25.694-6.281,24.567-9.529-11.008-1.7-11.008-1.7-.936-7.3-1.949-12.3c-3.423-16.908-9.1-26.747-9.1-26.747Z" transform="translate(-168.616 -251.071)" fill="#522a68"/>
              <g id="Grupo_1160568" data-name="Grupo 1160568" transform="translate(30.217 75.423)">
                <path id="Trazado_979602" data-name="Trazado 979602" d="M196.494,343.434s9.215-19.142,17.55-14.439-.354,22.872-.354,22.872-5.8,1.8-10.146-1.138A27.355,27.355,0,0,1,196.494,343.434Z" transform="translate(-196.494 -321.666)" fill="#edc137"/>
                <path id="Trazado_979603" data-name="Trazado 979603" d="M254.833,326.109s-18.313-10.768-22.617-2.22,13.031,18.8,13.031,18.8,5.82-1.74,7.793-6.595A27.358,27.358,0,0,0,254.833,326.109Z" transform="translate(-201.413 -320.59)" fill="#edc137"/>
                <path id="Trazado_979604" data-name="Trazado 979604" d="M220.359,322.851c-4.871,1.571-11.812,5.329-11.865,23.154a263.493,263.493,0,0,0,1.145,28.223s10.2,2.584,26.476-3.109,23.092-11.969,23.092-11.969-8.642-19.129-14.879-26.132S233.878,318.491,220.359,322.851Z" transform="translate(-198.178 -320.727)" fill="#edc137"/>
              </g>
              <path id="Trazado_979605" data-name="Trazado 979605" d="M210.664,316.676s1.544,5.716,2.753,9.053c2.228,6.146,20.315,1.522,17.854-5.431-1.5-4.237-3.3-10.863-3.3-10.863Z" transform="translate(-168.267 -243.601)" fill="#bf8073"/>
              <path id="Trazado_979606" data-name="Trazado 979606" d="M236.5,251.932s-.108,20.241-4.288,18.389-5.863-16.9-5.863-16.9-10.731,12.837-16.713,12.663-3.842-6.41-3.842-6.41-14.226,12.782-21.023,12.218-1.181-9.028-1.181-9.028-8.936,13.055-14.1,9.45-.243-16.07,6.909-21.143,29.558-13.085,42.215-10.951A25.907,25.907,0,0,1,236.5,251.932Z" transform="translate(-162.185 -233.835)" fill="#522a68"/>
              <g id="Grupo_1160569" data-name="Grupo 1160569" transform="translate(16.551 32.059)">
                <path id="Trazado_979607" data-name="Trazado 979607" d="M254.972,281.542a.015.015,0,0,0-.009-.029" transform="translate(-191.037 -271.741)" fill="none" stroke="#222221" stroke-linecap="round" stroke-linejoin="round" stroke-width="0"/>
                <path id="Trazado_979608" data-name="Trazado 979608" d="M221.129,275.457a8.151,8.151,0,0,0-5.34,4.059c-1.33,2.535-.5,5.189.4,7.675.088.242.479.126.4-.121-1.335-4.148-1-8.991,4.17-10.453a6.5,6.5,0,0,1,6.052,1.484c1.651,1.457,1.87,3.076,2.529,5a.463.463,0,0,0,.877-.035C231.274,278.4,225.476,274.458,221.129,275.457Z" transform="translate(-185.44 -270.869)" fill="#222221"/>
                <path id="Trazado_979609" data-name="Trazado 979609" d="M229.162,271.127a2.9,2.9,0,0,0-1.162-.748c-.758-.276-2.287-.472-2.735.4a.458.458,0,0,0,.3.664,1.978,1.978,0,0,0,1-.115,2.927,2.927,0,0,1,1.091.012,3.2,3.2,0,0,1,1.924,1.042c.06.1.244.021.2-.089A3.574,3.574,0,0,0,229.162,271.127Z" transform="translate(-186.86 -270.145)" fill="#222221"/>
                <path id="Trazado_979610" data-name="Trazado 979610" d="M211.236,293.3c-.8-1.372-1.645-2.711-2.574-4-.2-.272-.719-.079-.585.265.415,1.058.885,2.091,1.375,3.116-1.788-.5-4.122-1.078-4.611,1.117-.517,2.323,3.362,4.914,5.446,4.771.286-.02.513-.422.244-.614-1.2-.857-2.622-1.2-3.682-2.315-.905-.646-1.535-2.291.23-2.258a4.139,4.139,0,0,1,1.607.408,8.846,8.846,0,0,0,1.816.5A.675.675,0,0,0,211.236,293.3Z" transform="translate(-183.994 -272.815)" fill="#222221"/>
                <path id="Trazado_979611" data-name="Trazado 979611" d="M215.055,299.033c-.817,2.321-.877,5.254-3.569,6.442-2.789,1.231-5.525-.643-7.683-2.152-.187-.131-.434.107-.255.267,2.177,1.955,5.155,4.225,8.318,2.843,2.636-1.152,4.215-4.687,3.988-7.327A.408.408,0,0,0,215.055,299.033Z" transform="translate(-183.81 -274.159)" fill="#222221"/>
                <path id="Trazado_979612" data-name="Trazado 979612" d="M238.345,293.35a5.286,5.286,0,1,0-3.573,6.406A5.188,5.188,0,0,0,238.345,293.35Z" transform="translate(-187.255 -272.902)" fill="#fc6232"/>
                <path id="Trazado_979613" data-name="Trazado 979613" d="M188.546,285.362a8.152,8.152,0,0,1,6.7.4c2.516,1.365,3.3,4.033,3.94,6.6.062.249-.327.371-.4.121-1.2-4.189-4.175-8.025-9.285-6.36a6.5,6.5,0,0,0-4.2,4.6c-.56,2.129.16,3.6.686,5.565a.463.463,0,0,1-.748.459C181.756,293.453,184.378,286.953,188.546,285.362Z" transform="translate(-181.021 -272.206)" fill="#222221"/>
                <path id="Trazado_979614" data-name="Trazado 979614" d="M180.62,285.826a2.9,2.9,0,0,1,.548-1.269c.476-.652,1.637-1.665,2.494-1.191a.458.458,0,0,1,.118.721c-.24.287-.562.321-.894.461a2.932,2.932,0,0,0-.9.617,3.2,3.2,0,0,0-1.018,1.937c0,.113-.191.154-.211.035A3.612,3.612,0,0,1,180.62,285.826Z" transform="translate(-180.597 -271.984)" fill="#222221"/>
                <path id="Trazado_979615" data-name="Trazado 979615" d="M184.708,309.666A5.286,5.286,0,1,1,191.243,313,5.189,5.189,0,0,1,184.708,309.666Z" transform="translate(-181.144 -274.761)" fill="#fc6232"/>
              </g>
              <path id="Trazado_979616" data-name="Trazado 979616" d="M250.834,270.844c-.729-.132-1,.966-.268,1.125a5.534,5.534,0,0,1,4,3.476,7.227,7.227,0,0,0-4.217-1.317.152.152,0,0,0-.031.3,11.534,11.534,0,0,1,4.7,2.711.433.433,0,0,0,.089.056,13.707,13.707,0,0,1-.158,5.776h0s0,0,0,0c-.053.217-.108.431-.17.633-.046.151.168.213.245.093C257.6,279.62,256.337,271.834,250.834,270.844Z" transform="translate(-173.808 -238.182)" fill="#222221"/>
              <path id="Trazado_979617" data-name="Trazado 979617" d="M205.647,351.484a39.8,39.8,0,0,0-3.8-2.9,17.413,17.413,0,0,1-3.579-3.786.129.129,0,0,0-.218.138,15.57,15.57,0,0,0,7.337,6.918A.227.227,0,0,0,205.647,351.484Z" transform="translate(-166.494 -248.557)" fill="#222221"/>
              <path id="Trazado_979618" data-name="Trazado 979618" d="M232.852,324.647c-2.192,8.609-13.21,10.2-19.925,6.134a.1.1,0,0,0-.113.157c6.484,5.757,18.843,2.524,20.882-6.091A.434.434,0,0,0,232.852,324.647Z" transform="translate(-168.564 -245.692)" fill="#222221"/>
              <path id="Trazado_979619" data-name="Trazado 979619" d="M256.295,326.689a55.117,55.117,0,0,1-2.512,9.469c-.034.1.121.153.169.064a29.582,29.582,0,0,0,2.905-9.4C256.916,326.455,256.348,326.321,256.295,326.689Z" transform="translate(-174.32 -245.993)" fill="#222221"/>
              <path id="Trazado_979620" data-name="Trazado 979620" d="M234.107,340.96c-.541.4-4.27,3.792-4.718,3.686-.317-.076-.683-4.7-.85-5.555-.081-.407-.568-.351-.744-.065a.237.237,0,0,0-.217.193c-.948,3.748-1.662,7.55-2.394,11.344a.473.473,0,0,0,.7.5,43.171,43.171,0,0,0,4.83-3.6,113.934,113.934,0,0,0-1.509,12.75.442.442,0,0,0,.826.2,71.911,71.911,0,0,0,4.732-18.984C234.8,341.1,234.451,340.706,234.107,340.96Zm-.725,4.418a65.867,65.867,0,0,1-1.648,7.486c-.315,1.118-.652,2.231-1.027,3.331-.248.726-.421,1.274-.542,1.681.047-.227.1-.49.146-.792.579-3.559.848-7.141,1.524-10.694a.463.463,0,0,0-.784-.418c.357-.321-4.136,3.727-4.441,3.522-.64-.432.036-1.586.165-2.276.424-2.264.817-4.532,1.148-6.811a34.475,34.475,0,0,1,.462,5.584.437.437,0,0,0,.75.282c.527-.5,4.047-3.895,4.278-3.716C234,343.008,233.52,344.509,233.383,345.378Z" transform="translate(-170.304 -247.724)" fill="#222221"/>
              <path id="Trazado_979621" data-name="Trazado 979621" d="M225.774,386.847a8.961,8.961,0,0,1-1.438,4.012,7.42,7.42,0,0,1-1.412,1.545c-.468.386-.9.532-1.041,1.146a.421.421,0,0,0,.308.5c1.266.269,2.509-1.682,3.054-2.626a7.346,7.346,0,0,0,.97-4.529C226.188,386.661,225.807,386.578,225.774,386.847Z" transform="translate(-169.84 -254.446)" fill="#222221"/>
              <path id="Trazado_979622" data-name="Trazado 979622" d="M265.791,376.567a9.7,9.7,0,0,1-7.516-2.1.2.2,0,0,0-.278.3,9.316,9.316,0,0,0,7.816,2.684C266.386,377.389,266.338,376.478,265.791,376.567Z" transform="translate(-174.904 -252.724)" fill="#222221"/>
              <path id="Trazado_979623" data-name="Trazado 979623" d="M240.711,421.439c-6.481,2.823-12.818,5.543-19.909,6.352a.079.079,0,0,0,0,.157c7.143-.174,13.714-2.77,20.181-5.6C241.541,422.105,241.272,421.2,240.711,421.439Z" transform="translate(-169.68 -259.321)" fill="#222221"/>
              <path id="Trazado_979624" data-name="Trazado 979624" d="M283.263,409.788c-6.724,3.049-13.146,6.352-20.735,6.365a.366.366,0,0,0-.075.72c6.573,1.689,15.8-3.01,20.943-6.8C283.53,409.977,283.438,409.708,283.263,409.788Z" transform="translate(-175.5 -257.689)" fill="#222221"/>
              <path id="Trazado_979625" data-name="Trazado 979625" d="M235.4,267.048a3.423,3.423,0,0,1-3.453,3.14l-1.3-1.63a17.42,17.42,0,0,1-2.1-4.4c-.859-2.584-1.181-5.287-1.847-7.916.275-.536-.478-.9-.8-.427a29.429,29.429,0,0,1-7.285,7.477,43.47,43.47,0,0,1-4.968,3.345,3.559,3.559,0,0,1-.364.141c-.371.107-.756.177-1.133.26-.555,0-1.051.168-1.651.214a4.382,4.382,0,0,1-2.732-.6c-2.006-1.293-1.505-3.225-.255-4.784a.284.284,0,0,0,.019-.047c.052-.052.1-.1.156-.153.475-.487-.275-1.154-.766-.709a69.848,69.848,0,0,1-12.372,9.283,32.29,32.29,0,0,1-6.771,3.262c-3.564,1-6.474-.722-5.327-5.064a11.251,11.251,0,0,1,1.04-2.463c.265-.338.481-.629.632-.849.3-.444-.4-.912-.752-.535a77.7,77.7,0,0,1-6.433,6.237,27.512,27.512,0,0,1-3.736,2.9c-2.728,1.59-5.288.289-4.955-2.771.6-5.509,3.077-10.138,5.807-14.847.111-.192-.156-.362-.305-.217a23.072,23.072,0,0,0-5.576,9.538c-.744,2.3-2.386,7.141-.808,9.427,2.934,4.249,10.048-2.054,14.087-6.493-1.115,3.17-.656,6.632,3.767,6.8,3.507.133,7.732-2.671,10.618-4.358a57.86,57.86,0,0,0,9.462-6.867,4.118,4.118,0,0,0,.7,2.6,5.688,5.688,0,0,0,4.922,1.919c1.859.36,4.473-1.744,5.761-2.53,3.684-2.248,7.231-5.008,9.473-8.741.247,4.56,1.429,10.958,5.075,13.791,2.795,2.17,4.66-1.15,4.926-3.851C236.19,266.666,235.531,266.682,235.4,267.048Z" transform="translate(-162.093 -236.043)" fill="#222221"/>
              <path id="Trazado_979626" data-name="Trazado 979626" d="M221.093,250.771c-1.008,1.35-2.322,2.578-4.145,2.543a3.864,3.864,0,0,1-3.719-4.174.432.432,0,0,0-.741-.279c-.914.877-1.772,2.036-3.063,2.326-3.186.716-3.23-2.108-2.863-4.5a.164.164,0,0,0-.318-.076c-.713,1.911-1.12,4.925,1.432,5.661,1.861.538,3.453-.89,4.746-2.156.635,4.591,7.08,5.4,9.225,1.044C221.809,250.834,221.335,250.446,221.093,250.771Z" transform="translate(-167.57 -234.765)" fill="#222221"/>
              <path id="Trazado_979627" data-name="Trazado 979627" d="M227.575,318.274c-4.409,2.862-8.322,5.744-13.838,5.443-.09-.005-.1.135-.015.155,5.252,1.255,10.323-1.748,14.3-4.886C228.441,318.658,228.04,317.971,227.575,318.274Z" transform="translate(-168.688 -244.832)" fill="#222221"/>
            </g>
            <g id="Grupo_1160581" data-name="Grupo 1160581" transform="translate(257.567 38.583)">
              <g id="Grupo_1160572" data-name="Grupo 1160572" transform="translate(0 82.497)">
                <g id="Grupo_1160571" data-name="Grupo 1160571" transform="translate(0.86)">
                  <path id="Trazado_979628" data-name="Trazado 979628" d="M504.917,334.183s-1.87-2.939-8.248-.162S468.412,354.8,468.412,354.8s-11.827,2.183-3.414,11.869c5.531,6.367,11.095-5.431,11.095-5.431s19.67-10.554,23.913-12.931S509.547,339.753,504.917,334.183Z" transform="translate(-461.977 -332.827)" fill="#ff9982"/>
                </g>
                <path id="Trazado_979629" data-name="Trazado 979629" d="M469.5,367.688a1.536,1.536,0,0,0-.615-.635c1.772-.857-.585-3.883-1.318-4.691-.146-.162-.4.054-.292.234.3.5,2.077,3.6.949,3.686-.512.04-1.115-.585-1.43-.915a5.986,5.986,0,0,1-1.081-1.669c-.2-.44-.921-.157-.86.277-1.7-.252-4.6,1.582-3.711,3.486a1.506,1.506,0,0,0,1.583.8,2.006,2.006,0,0,0,2.118,2.152,2.725,2.725,0,0,0,.35-.047,1.4,1.4,0,0,0,1.1,1.3,1.88,1.88,0,0,0,1-.007.192.192,0,0,0,.055.277,2.618,2.618,0,0,0,3.925-1.227C471.737,369.508,471.076,367.3,469.5,367.688Zm-7.584-.914c0-1.387,2.07-1.969,3.094-2.4a7.563,7.563,0,0,0,.582.97,8.244,8.244,0,0,1-1.429,1.5C463.639,367.227,461.91,368.072,461.915,366.774Zm1.319,1.4a2.92,2.92,0,0,0,.436-.147,4.364,4.364,0,0,0,2.238-2.267,4.457,4.457,0,0,0,1.5,1.256,3.819,3.819,0,0,1-1.77,2.445A1.622,1.622,0,0,1,463.233,368.176Zm2.275,2.137a4.086,4.086,0,0,0,2.567-2.979.284.284,0,0,0,.159.181C470.529,368.578,467.033,372.748,465.509,370.313Zm4.867.707a2.242,2.242,0,0,1-2.839.569c-.009,0-.015,0-.025,0a3.32,3.32,0,0,0,1-.613,3.476,3.476,0,0,0,1.194-2.607C470.975,368.227,470.889,370.312,470.376,371.02Z" transform="translate(-460.977 -336.965)" fill="#222221"/>
              </g>
              <path id="Trazado_979630" data-name="Trazado 979630" d="M545.976,342.556s3.007-1.76,7.411,3.624,15.637,31.4,15.637,31.4a34.37,34.37,0,0,0,4.814,3.127c1.835.836,1.062,2.35-.508,2.1a16.561,16.561,0,0,1-2.695-.652s.873,2.567,1.768,4.485-1.1,2.874-2.147,1.575a26.792,26.792,0,0,1-2.165-3.4,32.566,32.566,0,0,0,.673,3.958c.372,1.268-1.172,2.6-2.126.926s-3.069-4.8-3.069-4.8.412,3.427.376,4.7a1.208,1.208,0,0,1-2.385.311,30.941,30.941,0,0,1-.738-5.936s-.607,1.947-.936,3.307-2.6,1.2-2.161-1.177,1.525-6.305,1.525-6.305-12.673-18.377-15.361-22.43S539.312,345.394,545.976,342.556Z" transform="translate(-472.271 -251.658)" fill="#ff9982"/>
              <path id="Trazado_979631" data-name="Trazado 979631" d="M573.812,258.754s-2.286-13.509-27.386-19.58-36.914.494-43.617,11.437-7.55,17.473-3.607,24.089,29.48,33.879,47.922,37.807,26.766-8.585,30.688-26.481S579.472,258.945,573.812,258.754Z" transform="translate(-466.011 -236.856)" fill="#522a68"/>
              <path id="Trazado_979632" data-name="Trazado 979632" d="M566.759,290.828A33.6,33.6,0,0,0,542,250.273c-13.527-3.272-23.015-.759-30.808,9.763-2.6,3.507-7.672,10.847-9.748,15-8.537,17.064,6.723,36.194,24.758,40.555A33.6,33.6,0,0,0,566.759,290.828Z" transform="translate(-466.316 -238.552)" fill="#ff9982"/>
              <path id="Trazado_979633" data-name="Trazado 979633" d="M561.231,298.615a11.077,11.077,0,1,0,13.371-8.163A11.077,11.077,0,0,0,561.231,298.615Z" transform="translate(-475.008 -244.337)" fill="#ff9982"/>
              <path id="Trazado_979634" data-name="Trazado 979634" d="M492.064,369.385s-5.264,17.834-6.908,28.56-1.921,11.313-1.921,11.313-9.925-1.092-10.485,1.783,23.719,8.092,23.719,8.092L508.5,391.289l4.363,1.056-4.474,29.732s25.324,7.635,26,4.266-8.618-7.057-8.618-7.057,2.9-6.765,4.569-11.589c5.636-16.3,5.74-27.665,5.74-27.665Z" transform="translate(-462.628 -255.463)" fill="#522a68"/>
              <g id="Grupo_1160573" data-name="Grupo 1160573" transform="translate(24.854 76.44)">
                <path id="Trazado_979635" data-name="Trazado 979635" d="M497.148,332.256s17.658-11.811,22.45-3.527-11.919,19.523-11.919,19.523-5.911-1.4-8.163-6.132A27.383,27.383,0,0,1,497.148,332.256Z" transform="translate(-490.909 -325.782)" fill="#77b384"/>
                <path id="Trazado_979636" data-name="Trazado 979636" d="M556.766,346.246s-10.309-18.575-18.357-13.4,1.68,22.813,1.68,22.813,5.9,1.456,10.063-1.724A27.36,27.36,0,0,0,556.766,346.246Z" transform="translate(-496.254 -326.646)" fill="#77b384"/>
                <path id="Trazado_979637" data-name="Trazado 979637" d="M525.213,326.653c-4.993-1.12-12.881-1.407-21.979,13.922a263.335,263.335,0,0,0-13.344,24.9s7.475,7.405,24.387,10.766,25.972,1.414,25.972,1.414,2.268-20.867.451-30.067S539.072,329.762,525.213,326.653Z" transform="translate(-489.89 -325.839)" fill="#77b384"/>
              </g>
              <path id="Trazado_979638" data-name="Trazado 979638" d="M523.229,316.339s-1.572,5.709-2.225,9.2c-1.2,6.426,16.728,11.627,18.138,4.387.86-4.411,2.669-11.036,2.669-11.036Z" transform="translate(-469.396 -248.015)" fill="#ff9982"/>
              <path id="Trazado_979639" data-name="Trazado 979639" d="M576.874,274.988S566.5,292.37,563.844,288.652s3.528-17.533,3.528-17.533-15.764,5.61-20.828,2.422-.055-7.473-.055-7.473-18.746,3.788-24.315-.15,3.567-8.378,3.567-8.378-14.327,6.709-16.947.98,7.95-13.969,16.688-14.706,32.109,3.737,41.929,12A25.908,25.908,0,0,1,576.874,274.988Z" transform="translate(-467.633 -237.822)" fill="#522a68"/>
              <path id="Trazado_979640" data-name="Trazado 979640" d="M581.668,296.269c-.561-.483-1.352.325-.8.834a5.534,5.534,0,0,1,1.684,5.028,7.229,7.229,0,0,0-2.965-3.276.152.152,0,0,0-.178.241,11.544,11.544,0,0,1,2.671,4.721.43.43,0,0,0,.048.093,13.713,13.713,0,0,1-3.069,4.9h0s0,0,0,0c-.156.159-.312.316-.468.46-.117.107.038.269.163.2C583.041,307.265,585.906,299.916,581.668,296.269Z" transform="translate(-477.483 -245.177)" fill="#222221"/>
              <g id="Grupo_1160580" data-name="Grupo 1160580" transform="translate(37.189 34.125)">
                <g id="Grupo_1160574" data-name="Grupo 1160574" transform="translate(0 10.198)">
                  <path id="Trazado_979641" data-name="Trazado 979641" d="M579.732,305.264a.015.015,0,1,0,.007-.029" transform="translate(-514.838 -290.779)" fill="none" stroke="#222221" stroke-linecap="round" stroke-linejoin="round" stroke-width="0"/>
                  <path id="Trazado_979642" data-name="Trazado 979642" d="M535.611,293.474c.008-1.588-.041-3.171-.184-4.756-.03-.334-.579-.433-.638-.069-.18,1.123-.3,2.251-.4,3.383-1.289-1.336-3-3.022-4.54-1.378-1.625,1.739.4,5.94,2.268,6.875.257.129.657-.1.522-.4-.6-1.349-1.651-2.363-2-3.864-.452-1.016-.159-2.752,1.344-1.828a4.144,4.144,0,0,1,1.178,1.168,8.856,8.856,0,0,0,1.311,1.352A.675.675,0,0,0,535.611,293.474Z" transform="translate(-507.752 -288.418)" fill="#222221"/>
                  <path id="Trazado_979643" data-name="Trazado 979643" d="M536.069,300.716c-1.883,1.584-3.423,4.081-6.346,3.738-3.027-.356-4.432-3.359-5.526-5.756-.094-.207-.428-.128-.356.1.884,2.789,2.3,6.257,5.723,6.673,2.856.346,6.01-1.9,7.156-4.288A.408.408,0,0,0,536.069,300.716Z" transform="translate(-506.99 -289.844)" fill="#222221"/>
                  <path id="Trazado_979644" data-name="Trazado 979644" d="M558.87,307.316a5.286,5.286,0,1,0-6.33,3.7A5.189,5.189,0,0,0,558.87,307.316Z" transform="translate(-510.448 -290.181)" fill="#fc6232"/>
                  <path id="Trazado_979645" data-name="Trazado 979645" d="M504.378,294.137a5.287,5.287,0,1,1,3.939,6.189A5.188,5.188,0,0,1,504.378,294.137Z" transform="translate(-504.239 -288.679)" fill="#fc6232"/>
                </g>
                <g id="Grupo_1160575" data-name="Grupo 1160575" transform="translate(14.596 5.324)">
                  <path id="Trazado_979646" data-name="Trazado 979646" d="M524.31,283.613a1.558,1.558,0,0,0-1.578-.853,1.744,1.744,0,0,0-1.275.836,1.471,1.471,0,0,0-.164,1.266,1.881,1.881,0,0,0,1.34,1.227,1.538,1.538,0,0,0,1.667-.736A1.882,1.882,0,0,0,524.31,283.613Z" transform="translate(-521.22 -282.748)" fill="#222221"/>
                  <path id="Trazado_979647" data-name="Trazado 979647" d="M548.068,289.4a1.608,1.608,0,0,0-1.266-1.492,1.513,1.513,0,0,0-1.437.454,1.477,1.477,0,0,0-.433.482,1.547,1.547,0,0,0,.32,1.852,1.653,1.653,0,0,0,2.817-1.3Z" transform="translate(-524.524 -283.468)" fill="#222221"/>
                </g>
                <g id="Grupo_1160576" data-name="Grupo 1160576" transform="translate(12.503)">
                  <path id="Trazado_979648" data-name="Trazado 979648" d="M521.468,276.6a2.494,2.494,0,0,0-1.763.333,1.892,1.892,0,0,0-.917,1.372c-.023.108.123.207.2.111a3.228,3.228,0,0,1,1.091-.767,2.34,2.34,0,0,1,1.294-.137C521.9,277.566,521.966,276.715,521.468,276.6Z" transform="translate(-518.785 -276.555)" fill="#222221"/>
                  <path id="Trazado_979649" data-name="Trazado 979649" d="M549.8,282.626c-.584-.2-.814.744-.226.935a2.682,2.682,0,0,1,1.414,1.552.248.248,0,0,0,.448-.07A2.181,2.181,0,0,0,549.8,282.626Z" transform="translate(-523.059 -277.403)" fill="#222221"/>
                </g>
                <g id="Grupo_1160579" data-name="Grupo 1160579" transform="translate(10.956 12.599)">
                  <g id="Grupo_1160577" data-name="Grupo 1160577">
                    <path id="Trazado_979650" data-name="Trazado 979650" d="M518.75,291.222a.346.346,0,0,0-.163.672A.346.346,0,0,0,518.75,291.222Z" transform="translate(-517.174 -291.211)" fill="#222221"/>
                    <path id="Trazado_979651" data-name="Trazado 979651" d="M517.823,293.218a.317.317,0,0,0-.143-.177l-.15-.1a.359.359,0,0,0-.37.008.367.367,0,0,0-.122.505.363.363,0,0,0,.325.176l.181-.021a.336.336,0,0,0,.178-.068.291.291,0,0,0,.107-.162A.366.366,0,0,0,517.823,293.218Z" transform="translate(-516.985 -291.447)" fill="#222221"/>
                    <path id="Trazado_979652" data-name="Trazado 979652" d="M520.664,293.637c-.009-.045-.014-.09-.025-.134a.572.572,0,0,0-.11-.191.394.394,0,0,0-.227-.166.368.368,0,0,0-.444.272l-.01.1a.374.374,0,0,0,.054.18.551.551,0,0,0,.12.185c.035.029.072.056.108.083l.067.05a.246.246,0,0,0,.124.036.308.308,0,0,0,.2-.043.38.38,0,0,0,.114-.119A.349.349,0,0,0,520.664,293.637Z" transform="translate(-517.387 -291.482)" fill="#222221"/>
                  </g>
                  <g id="Grupo_1160578" data-name="Grupo 1160578" transform="translate(24.701 4.004)">
                    <path id="Trazado_979653" data-name="Trazado 979653" d="M547.745,296.056a.405.405,0,0,0-.242-.176.392.392,0,0,0-.481.391l.016.181a.337.337,0,0,0,.252.31.344.344,0,0,0,.367-.161l.1-.154A.382.382,0,0,0,547.745,296.056Z" transform="translate(-545.903 -295.869)" fill="#222221"/>
                    <path id="Trazado_979654" data-name="Trazado 979654" d="M546.58,298.38a.806.806,0,0,0-.326-.157.433.433,0,0,0-.327.052.441.441,0,0,0-.2.268.436.436,0,0,0,.052.328.428.428,0,0,0,.268.2.793.793,0,0,0,.362.009.414.414,0,0,0,.167-.7Z" transform="translate(-545.721 -296.198)" fill="#222221"/>
                    <path id="Trazado_979655" data-name="Trazado 979655" d="M549.282,298.709a.453.453,0,0,0-.213.88A.453.453,0,0,0,549.282,298.709Z" transform="translate(-546.144 -296.266)" fill="#222221"/>
                  </g>
                </g>
              </g>
              <path id="Trazado_979656" data-name="Trazado 979656" d="M511.757,356.911l21.22,5.133s-3.863,12.524-13.844,10.2S511.757,356.911,511.757,356.911Z" transform="translate(-468.063 -253.712)" fill="#77b384"/>
              <path id="Trazado_979657" data-name="Trazado 979657" d="M574.052,279.39c-1.14,1.372-2.134,2.855-3.363,4.151a14.434,14.434,0,0,1-3.122,2.728c-1.736.866-4.292.226-4.615-2.118-.646-4.68,2.543-9.127,3.66-13.42a.2.2,0,0,0-.262-.234c.037-.252-.1-.519-.414-.468-3.758.614-7.424,1.664-11.2,2.238a40.243,40.243,0,0,1-5.39.643q-3.547.62-4.364-3.526a31.257,31.257,0,0,1,1.415-3,.349.349,0,0,0,.015-.05.614.614,0,0,0-.517-1.087,45.457,45.457,0,0,1-15.534,1.238c-1.947-.194-5.223-.234-6.952-1.264-1.557-.928-2.494-2.95-1.6-4.551a5.819,5.819,0,0,1,1.861-1.813,12.219,12.219,0,0,0,1.566-.83.469.469,0,0,0-.084-.818.36.36,0,0,0-.316-.034c-.184.063-.373.138-.566.223-3.873,1.273-7.837,2.491-11.973,1.625-2.376-.5-4.913-1.484-2.163-5.771a6.939,6.939,0,0,1,2.4-1.882,17.194,17.194,0,0,1,5.287-1.609l.136.07a.341.341,0,0,0,.4-.542,31.8,31.8,0,0,0-3.276-2.62c-1.275-.96-4.339-2.685-1.665-4.736,1.415-1.085,4.062-.025,5.425.663a22.479,22.479,0,0,1,3.812,2.691.23.23,0,0,0,.355-.285c-1.766-3.025-7.675-6.757-10.871-3.675-3.021,2.913,1.378,6.026,4.315,7.7-4.345.17-11.059,4.149-8.822,8.7,1.938,3.943,8.389,3.586,13.2,2.17-1.729,1.911-2.427,4.337.37,5.969,2.838,1.656,7.466,1.865,10.7,2.061a44.952,44.952,0,0,0,13.309-1.254c-1.924,2.677-2.1,6.156,1.776,7.26,2.8.8,6.432-.236,9.2-.694a50.634,50.634,0,0,0,9.73-2.314c-2.4,2.608-3.486,6.762-4.006,10.146-.325,2.113-.857,5.165.959,6.775,4.018,3.56,10.491-4.994,11.7-8.07C574.7,279.465,574.314,279.077,574.052,279.39Z" transform="translate(-467.464 -237.323)" fill="#222221"/>
              <path id="Trazado_979658" data-name="Trazado 979658" d="M538.509,326.647c-5.272.211-9.86.193-14.681-2.223-.1-.052-.224.09-.126.17,4,3.314,9.934,3.234,14.837,2.989A.469.469,0,0,0,538.509,326.647Z" transform="translate(-469.778 -249.149)" fill="#222221"/>
              <path id="Trazado_979659" data-name="Trazado 979659" d="M574.52,261.749c-2.447,2.027-4.524,3.968-7.664,4.884-2,.584-4.349.9-6.322-.035a4.161,4.161,0,0,1-1.664-6.491c.135-.048.271-.1.4-.15a.278.278,0,0,0-.089-.542h-.032a.292.292,0,0,0-.39-.087c-.048.027-.083.059-.13.087-2.506.056-5.507.846-7.143-1.656a3.26,3.26,0,0,1,1.374-4.49,6.609,6.609,0,0,1,4.262-.542.217.217,0,0,0,.1-.421c-3.1-1.047-7.826.433-7.148,4.531.546,3.3,4.321,4.154,7.32,3.655-1.946,2.56.434,6.51,3.517,7.5,4.88,1.574,11.67-1.514,14.239-5.783C575.394,261.8,574.841,261.483,574.52,261.749Z" transform="translate(-473.476 -238.98)" fill="#222221"/>
              <path id="Trazado_979660" data-name="Trazado 979660" d="M532.865,360.319a80.673,80.673,0,0,1-11.619-1.206c-3.347-.714-6.511-2.039-9.839-2.768a.082.082,0,0,0-.059.151c5.767,3.958,14.665,5.34,21.547,4.766A.472.472,0,0,0,532.865,360.319Z" transform="translate(-468.043 -253.632)" fill="#222221"/>
              <path id="Trazado_979661" data-name="Trazado 979661" d="M533.1,362.46c-2.4,3.008-4.03,6.708-7.5,8.735-5.06,2.951-9.634.541-12.579-3.948-.065-.1-.249-.031-.2.089,1.613,3.891,5.2,6.963,9.631,6.289,5.113-.776,9.576-6.061,11.359-10.643C533.965,362.565,533.442,362.026,533.1,362.46Z" transform="translate(-468.253 -254.468)" fill="#222221"/>
              <path id="Trazado_979662" data-name="Trazado 979662" d="M500.559,383.5a19.965,19.965,0,0,1-2.952,2.5,13.893,13.893,0,0,1-3.678,1.132c-.487.125-.514.981.028,1.038,2.538.266,6.342-1.859,7.007-4.447A.241.241,0,0,0,500.559,383.5Z" transform="translate(-465.551 -257.436)" fill="#222221"/>
              <path id="Trazado_979663" data-name="Trazado 979663" d="M540.245,396.119a10.7,10.7,0,0,0-1.379-.877,6.955,6.955,0,0,1-1.679-1.585,7.736,7.736,0,0,1-1.482-3.929.261.261,0,0,0-.522.016,7.044,7.044,0,0,0,1.343,4.516c.774,1.078,2.06,2.441,3.465,2.52A.387.387,0,0,0,540.245,396.119Z" transform="translate(-471.393 -258.285)" fill="#222221"/>
              <path id="Trazado_979664" data-name="Trazado 979664" d="M496.867,424.46c-2.436-3.494-6.807-7.356-10.967-8.584a.069.069,0,0,0-.064.117c1.78,1.436,3.793,2.527,5.526,4.049a53.7,53.7,0,0,1,4.721,5.047C496.463,425.518,497.2,424.931,496.867,424.46Z" transform="translate(-464.464 -261.99)" fill="#222221"/>
              <path id="Trazado_979665" data-name="Trazado 979665" d="M531.035,426.771a27.253,27.253,0,0,0-15.812,2.508c-.791.374-.076,1.547.711,1.164a31.616,31.616,0,0,1,15.04-3.07C531.311,427.383,531.377,426.821,531.035,426.771Z" transform="translate(-468.544 -263.48)" fill="#222221"/>
            </g>
            <g id="Grupo_1160592" data-name="Grupo 1160592" transform="translate(82.077)">
              <g id="Grupo_1160583" data-name="Grupo 1160583" transform="translate(17.488 100.445)">
                <g id="Grupo_1160582" data-name="Grupo 1160582">
                  <path id="Trazado_979666" data-name="Trazado 979666" d="M301.718,309.035s-3.092-1.6-7.218,3.995-14.03,32.147-14.03,32.147-9.138,7.819,3,11.981c7.978,2.736,6.877-10.262,6.877-10.262s11.728-18.994,14.207-23.178S308.516,311.532,301.718,309.035Z" transform="translate(-277.17 -308.822)" fill="#ff9982"/>
                </g>
                <path id="Trazado_979667" data-name="Trazado 979667" d="M286.028,358.609a1.542,1.542,0,0,0-.85-.242c1.1-1.63-2.454-3.066-3.493-3.4-.207-.066-.32.248-.135.349.509.277,3.6,2.07,2.669,2.713-.423.292-1.258.052-1.7-.074a5.976,5.976,0,0,1-1.772-.9c-.4-.278-.876.327-.606.67-1.594.633-3.187,3.675-1.463,4.877a1.506,1.506,0,0,0,1.771-.1,2.007,2.007,0,0,0,2.911.8,2.817,2.817,0,0,0,.279-.217,1.4,1.4,0,0,0,1.6.569,1.87,1.87,0,0,0,.86-.506.193.193,0,0,0,.187.211,2.617,2.617,0,0,0,2.781-3.029C288.876,359.062,287.2,357.483,286.028,358.609Zm-7.021,3.012c-.692-1.2.8-2.741,1.472-3.632a7.656,7.656,0,0,0,.99.548,8.174,8.174,0,0,1-.483,2.017C280.726,361.148,279.654,362.746,279.006,361.621Zm1.844.552a2.987,2.987,0,0,0,.3-.346,4.368,4.368,0,0,0,.8-3.083,4.447,4.447,0,0,0,1.926.334,3.818,3.818,0,0,1-.306,3A1.622,1.622,0,0,1,280.85,362.173Zm3.04.708a4.088,4.088,0,0,0,.727-3.865.285.285,0,0,0,.229.077C287.364,358.863,286.43,364.224,283.891,362.881Zm4.565-1.829a2.242,2.242,0,0,1-2.17,1.916c-.01,0-.013.009-.022.01a3.3,3.3,0,0,0,.56-1.032,3.475,3.475,0,0,0-.274-2.854C287.574,358.335,288.546,360.183,288.456,361.052Z" transform="translate(-277.277 -315.3)" fill="#222221"/>
              </g>
              <g id="Grupo_1160586" data-name="Grupo 1160586" transform="translate(69.807 96.89)">
                <g id="Grupo_1160585" data-name="Grupo 1160585">
                  <g id="Grupo_1160584" data-name="Grupo 1160584">
                    <path id="Trazado_979668" data-name="Trazado 979668" d="M341.554,305.211s2.7-2.2,7.883,2.429,20.324,28.586,20.324,28.586,10.547,5.778-.476,12.34c-7.247,4.314-8.835-8.633-8.835-8.633s-15.373-16.185-18.658-19.772S335.411,309.05,341.554,305.211Z" transform="translate(-338.033 -304.687)" fill="#ff9982"/>
                  </g>
                </g>
                <path id="Trazado_979669" data-name="Trazado 979669" d="M367.34,352.175a2.617,2.617,0,0,0,3.343,2.395.193.193,0,0,0,.138-.245,1.884,1.884,0,0,0,.946.32,1.4,1.4,0,0,0,1.452-.885,2.634,2.634,0,0,0,.317.155,2.006,2.006,0,0,0,2.685-1.381,1.507,1.507,0,0,0,1.754-.264c1.44-1.529-.743-4.18-2.432-4.473.194-.393-.4-.886-.731-.532a5.979,5.979,0,0,1-1.549,1.247c-.4.213-1.171.62-1.644.42-1.043-.438,1.615-2.827,2.056-3.2.16-.137-.015-.421-.2-.314-.948.538-4.135,2.673-2.721,4.042a1.535,1.535,0,0,0-.782.411C368.592,349,367.273,350.894,367.34,352.175Zm7.963-1.438a8.224,8.224,0,0,1-.886-1.875,7.667,7.667,0,0,0,.857-.739c.836.734,2.616,1.933,2.185,3.253C377.055,352.609,375.678,351.265,375.3,350.737Zm-2.221,2.025a3.814,3.814,0,0,1-.915-2.876,4.45,4.45,0,0,0,1.817-.723,4.369,4.369,0,0,0,1.416,2.854,2.9,2.9,0,0,0,.367.276A1.622,1.622,0,0,1,373.081,352.762Zm-1.858-2.665a.285.285,0,0,0,.208-.122,4.086,4.086,0,0,0,1.5,3.634C370.726,355.445,368.712,350.389,371.223,350.1Zm-1.667.349a3.476,3.476,0,0,0,.317,2.85,3.319,3.319,0,0,0,.76.9c-.009,0-.015-.007-.024-.005a2.243,2.243,0,0,1-2.518-1.43C367.827,351.923,368.4,349.916,369.557,350.447Z" transform="translate(-342.147 -310.402)" fill="#222221"/>
              </g>
              <path id="Trazado_979670" data-name="Trazado 979670" d="M307.927,209.46c-19.494,1.025-32.383,10.721-36.315,27.9S269.759,297.741,318.3,291.5c35.189-4.524,36.915-51.067,27.827-65.559C337.919,212.853,328.994,208.352,307.927,209.46Z" transform="translate(-258.716 -194.405)" fill="#522a68"/>
              <path id="Trazado_979671" data-name="Trazado 979671" d="M344.211,250.784a33.6,33.6,0,0,0-36.883-29.956c-13.843,1.435-21.947,6.972-25.777,19.492-1.276,4.173-3.609,12.787-4.179,17.391-2.346,18.935,18.427,31.869,36.883,29.956A33.6,33.6,0,0,0,344.211,250.784Z" transform="translate(-259.684 -195.998)" fill="#ff9982"/>
              <path id="Trazado_979672" data-name="Trazado 979672" d="M342.18,259.063a11.077,11.077,0,1,0,9.877-12.16A11.078,11.078,0,0,0,342.18,259.063Z" transform="translate(-268.8 -199.676)" fill="#ff9982"/>
              <path id="Trazado_979673" data-name="Trazado 979673" d="M302.12,347.957s1,18.567,3.029,29.227,1.968,11.306,1.968,11.306-9.72,2.287-9.286,5.183,25.06-.3,25.06-.3l2.041-30.264,4.466-.462,5.715,29.519s26.42-1.263,25.934-4.665-10.48-3.774-10.48-3.774.474-7.346.436-12.45c-.133-17.251-3.83-27.993-3.83-27.993Z" transform="translate(-262.58 -213.216)" fill="#ff9982"/>
              <path id="Trazado_979674" data-name="Trazado 979674" d="M322.792,394.982c-.623.3-1.233.637-1.863.927a17.257,17.257,0,0,1-2.575.838,30.375,30.375,0,0,1-3.279.743,25.348,25.348,0,0,1-5.831.164,8.865,8.865,0,0,1-4.644-1.239c-2.848.893-7.056,2.55-6.769,4.478.433,2.9,25.06-.3,25.06-.3l.4-5.879C323.1,394.82,322.919,394.92,322.792,394.982Z" transform="translate(-262.58 -220.437)" fill="#fffcf5"/>
              <path id="Trazado_979675" data-name="Trazado 979675" d="M359.6,390.67a9.661,9.661,0,0,1-3.3,2.641,19.122,19.122,0,0,1-5.4,1.51,24.969,24.969,0,0,1-10.875-1.235l1.013,5.237s26.42-1.262,25.934-4.665C366.666,392.011,362.58,391.071,359.6,390.67Z" transform="translate(-268.506 -219.868)" fill="#fffcf5"/>
              <g id="Grupo_1160587" data-name="Grupo 1160587" transform="translate(30.745 89.685)">
                <path id="Trazado_979676" data-name="Trazado 979676" d="M292.592,312.085s12.7-17.031,19.982-10.824-4.713,22.384-4.713,22.384-6.039.655-9.742-3.053A27.37,27.37,0,0,1,292.592,312.085Z" transform="translate(-292.592 -296.809)" fill="#fc6232"/>
                <path id="Trazado_979677" data-name="Trazado 979677" d="M353.425,305.953s-15.922-14.065-21.778-6.5,9.2,20.942,9.2,20.942,6.045-.6,8.909-4.987A27.354,27.354,0,0,0,353.425,305.953Z" transform="translate(-297.885 -296.433)" fill="#fc6232"/>
                <path id="Trazado_979678" data-name="Trazado 979678" d="M318.729,296.53c-5.08.612-12.611,2.977-16.066,20.464-3.477,17.6-5.687,48.86-5.687,48.86a74.453,74.453,0,0,0,30.139,1.632,115.078,115.078,0,0,0,28.51-7.711s-10.522-40.627-15.307-48.691S332.832,294.832,318.729,296.53Z" transform="translate(-293.208 -296.304)" fill="#fc6232"/>
              </g>
              <path id="Trazado_979679" data-name="Trazado 979679" d="M311.856,288.618s.425,5.906.976,9.411c1.014,6.458,19.651,5.372,18.562-1.924-.664-4.445-1.17-11.293-1.17-11.293Z" transform="translate(-264.551 -205.006)" fill="#ff9982"/>
              <path id="Trazado_979680" data-name="Trazado 979680" d="M327.8,226.258s-1.167,12.961-2.674,14.165-11.847,3.848-27.021,4.373c-6.759.234-18.512-2.76-18.512-2.76s-2.032-23.936,28.884-27.926S346.8,235.378,345.753,236.3s-1.855,1.654-6.048,1.827S334.21,227.166,327.8,226.258Z" transform="translate(-260.017 -195.02)" fill="#522a68"/>
              <path id="Trazado_979681" data-name="Trazado 979681" d="M360.136,263.549a.015.015,0,1,0,0-.03" transform="translate(-271.329 -202.017)" fill="none" stroke="#222221" stroke-linecap="round" stroke-linejoin="round" stroke-width="0"/>
              <path id="Trazado_979682" data-name="Trazado 979682" d="M314.8,266.854c-.523-1.5-1.1-2.975-1.762-4.421-.14-.3-.691-.215-.624.148.205,1.118.47,2.222.755,3.321-1.661-.829-3.841-1.845-4.739.218-.952,2.183,2.362,5.464,4.435,5.722.285.035.585-.316.357-.556-1.017-1.07-2.345-1.676-3.173-2.975-.765-.806-1.069-2.541.657-2.172a4.135,4.135,0,0,1,1.5.708,8.838,8.838,0,0,0,1.687.836A.675.675,0,0,0,314.8,266.854Z" transform="translate(-264.046 -201.839)" fill="#222221"/>
              <g id="Grupo_1160588" data-name="Grupo 1160588" transform="translate(24.729 64.986)">
                <path id="Trazado_979683" data-name="Trazado 979683" d="M341.384,272.118a5.286,5.286,0,1,0-4.73,5.606A5.188,5.188,0,0,0,341.384,272.118Z" transform="translate(-291.947 -267.572)" fill="#fc6232"/>
                <path id="Trazado_979684" data-name="Trazado 979684" d="M285.62,277.9a5.286,5.286,0,1,1,5.778,4.517A5.188,5.188,0,0,1,285.62,277.9Z" transform="translate(-285.593 -268.23)" fill="#fc6232"/>
              </g>
              <path id="Trazado_979685" data-name="Trazado 979685" d="M358.021,252.274c-.69-.268-1.167.758-.478,1.054a5.535,5.535,0,0,1,3.267,4.176,7.228,7.228,0,0,0-3.889-2.1.152.152,0,0,0-.088.286,11.551,11.551,0,0,1,4.094,3.558.463.463,0,0,0,.077.072,13.7,13.7,0,0,1-1.258,5.64h0s0,0,0,0c-.094.2-.188.4-.288.59-.074.139.126.242.223.138C362.987,262.18,363.233,254.3,358.021,252.274Z" transform="translate(-270.854 -200.432)" fill="#222221"/>
              <path id="Trazado_979686" data-name="Trazado 979686" d="M281.969,220.153,272.1,199.234l-1.543,11.131-11.84-2.31,6.791,7.9-8.684,1.131,23.965,7.874Z" transform="translate(-256.825 -192.992)" fill="#522a68"/>
              <path id="Trazado_979687" data-name="Trazado 979687" d="M338.423,214.47l5.369-22.5,3.793,10.577,11.115-4.688-5.026,9.125,8.731-.673-21.841,12.621Z" transform="translate(-268.281 -191.972)" fill="#522a68"/>
              <g id="Grupo_1160589" data-name="Grupo 1160589" transform="translate(40.028 68.579)">
                <path id="Trazado_979688" data-name="Trazado 979688" d="M313.161,274.831c-2.716.559-4.6-2.816-8.228-1.466s-.85,10.842,8.285,9.806,11.776-7.591,8.79-10.423S317.554,273.927,313.161,274.831Z" transform="translate(-303.391 -271.751)" fill="#222221"/>
                <path id="Trazado_979689" data-name="Trazado 979689" d="M320.036,280.289c-3.242-2.618-11.364-2.268-11.234,3.177a9.975,9.975,0,0,0,5.176.68,13.9,13.9,0,0,0,7.218-2.721A9.119,9.119,0,0,0,320.036,280.289Z" transform="translate(-304.15 -272.728)" fill="#dd4c33"/>
              </g>
              <g id="Grupo_1160590" data-name="Grupo 1160590" transform="translate(32.227 52.259)">
                <path id="Trazado_979690" data-name="Trazado 979690" d="M299.7,261.366a2.5,2.5,0,0,0-1.8,1.083l-.589-.412a4.079,4.079,0,0,0-1.385-.717.326.326,0,0,0-.355.438,4.87,4.87,0,0,0,1.889,1.9,2.615,2.615,0,0,0,0,.464.021.021,0,0,0,0,.007c-.146-.023-.292-.048-.433-.085a12.913,12.913,0,0,0-1.669-.484.306.306,0,0,0-.293.476,3.283,3.283,0,0,0,1.545,1.039,4.094,4.094,0,0,0,1.411.384,2.513,2.513,0,1,0,1.68-4.1Z" transform="translate(-294.412 -253.966)" fill="#222221"/>
                <path id="Trazado_979691" data-name="Trazado 979691" d="M296.316,256.172a2.523,2.523,0,0,0-1.465.762c-.313.327-.7.984-.462,1.442a.362.362,0,0,0,.542.157c.274-.2.394-.567.643-.805a1.463,1.463,0,0,1,.864-.393C297.188,257.254,297.056,256.052,296.316,256.172Z" transform="translate(-294.316 -253.243)" fill="#222221"/>
                <path id="Trazado_979692" data-name="Trazado 979692" d="M326.434,258.507a2.5,2.5,0,0,1,1.987.69q.248-.262.492-.524a4.065,4.065,0,0,1,1.209-.985.326.326,0,0,1,.437.355,4.87,4.87,0,0,1-1.459,2.25,2.543,2.543,0,0,1,.094.455v.007a4.36,4.36,0,0,0,.407-.172,12.932,12.932,0,0,1,1.534-.816.305.305,0,0,1,.384.406,3.291,3.291,0,0,1-1.3,1.334,4.1,4.1,0,0,1-1.3.665,2.513,2.513,0,1,1-2.484-3.665Z" transform="translate(-298.508 -253.453)" fill="#222221"/>
                <path id="Trazado_979693" data-name="Trazado 979693" d="M329.393,252.77a2.521,2.521,0,0,1,1.589.445c.373.256.886.82.749,1.317a.361.361,0,0,1-.5.265c-.309-.138-.5-.475-.794-.657a1.467,1.467,0,0,0-.926-.208C328.762,254.007,328.644,252.8,329.393,252.77Z" transform="translate(-299.169 -252.766)" fill="#222221"/>
              </g>
              <path id="Trazado_979694" data-name="Trazado 979694" d="M330.617,294.13a43.181,43.181,0,0,1-15.928,3.389c-.157.006-.168.268-.009.28a34.929,34.929,0,0,0,16.233-2.908C331.4,294.686,331.1,293.92,330.617,294.13Z" transform="translate(-264.932 -206.309)" fill="#222221"/>
              <path id="Trazado_979695" data-name="Trazado 979695" d="M326.843,220.319c-.046-.142-.259-.081-.248.06a37.49,37.49,0,0,1-.487,11.152c-.622,2.8-1.7,5.517-2.2,8.34a.635.635,0,0,0-.094.021,61.75,61.75,0,0,1-16.183,4.639c.4-1.822.483-3.718.926-5.544a34.915,34.915,0,0,1,2.353-6.5c.059-.127-.127-.205-.2-.089-1.985,3.449-4.2,8.164-4.124,12.284a62.959,62.959,0,0,1-10.091.458c0-.009.005-.014.006-.023.426-7.489,1.268-13.608,4.417-20.532.066-.144-.153-.293-.244-.151-3.707,5.82-6.131,13.711-5.214,20.65,0,0,0,.006,0,.009a67.95,67.95,0,0,1-20.046-4.144.057.057,0,0,0-.046.1c15.383,7.353,33.48,7.072,48.983.238a.706.706,0,0,0,.373-.374.551.551,0,0,0,.13-.187C327.473,234.483,328.964,226.883,326.843,220.319Z" transform="translate(-259.424 -195.94)" fill="#222221"/>
              <path id="Trazado_979696" data-name="Trazado 979696" d="M288.382,233.326c-1.9,3.346-3.176,7.75-2.47,11.6.059.326.6.4.628.02.267-4.142.484-7.61,1.985-11.559A.079.079,0,0,0,288.382,233.326Z" transform="translate(-260.881 -197.772)" fill="#222221"/>
              <path id="Trazado_979697" data-name="Trazado 979697" d="M283.719,228.146a25.455,25.455,0,0,0-9.018,13.182c-.187.615.888.947,1.086.331A32.9,32.9,0,0,1,284,228.445C284.17,228.275,283.9,228.007,283.719,228.146Z" transform="translate(-259.332 -197.045)" fill="#222221"/>
              <path id="Trazado_979698" data-name="Trazado 979698" d="M290.186,215.438c-3.99,1.381-7.949,5.207-9.977,8.85-.046.083.08.152.138.085a38.406,38.406,0,0,1,4.833-4.987c1.666-1.328,3.52-2.278,5.27-3.468C290.715,215.738,290.475,215.338,290.186,215.438Z" transform="translate(-260.107 -195.264)" fill="#222221"/>
              <path id="Trazado_979699" data-name="Trazado 979699" d="M354.886,223.118a28.881,28.881,0,0,0-11.471-10.457,1.765,1.765,0,0,0,.255-.654.294.294,0,0,0-.042-.215,21.979,21.979,0,0,0,.457-7.872.123.123,0,0,0-.244.025,25.207,25.207,0,0,1-1.446,8.266c-.43-.177-.863-.344-1.3-.492a.211.211,0,0,0-.174.383c5.339,2.977,9.806,6.4,13.142,11.62C354.414,224.279,355.245,223.672,354.886,223.118Z" transform="translate(-268.615 -193.635)" fill="#222221"/>
              <path id="Trazado_979700" data-name="Trazado 979700" d="M279.142,222.49c-.884-1.525-2.794-2.688-4.222-3.673a41.831,41.831,0,0,0-4.785-2.832c-.191-.1-.386.206-.2.323a41.351,41.351,0,0,1,4.641,3.367c1.32,1.111,2.51,2.658,4.007,3.5C279.026,223.43,279.346,222.84,279.142,222.49Z" transform="translate(-258.655 -195.341)" fill="#222221"/>
              <path id="Trazado_979701" data-name="Trazado 979701" d="M280.585,219.479a9.77,9.77,0,0,0-3.738-4.316.189.189,0,0,0-.238.293,13.3,13.3,0,0,1,1.889,2.161c.509.726.842,1.546,1.332,2.276C280.114,220.316,280.733,219.932,280.585,219.479Z" transform="translate(-259.593 -195.222)" fill="#222221"/>
              <path id="Trazado_979702" data-name="Trazado 979702" d="M351.349,204.641c-.919,1.408-1.862,2.8-2.838,4.173-.862,1.209-2.17,2.418-2.685,3.813a.456.456,0,0,0,.68.552c1.309-.86,2.166-2.6,2.985-3.912a35.9,35.9,0,0,0,2.309-4.348C351.919,204.652,351.518,204.379,351.349,204.641Z" transform="translate(-269.316 -193.736)" fill="#222221"/>
              <path id="Trazado_979703" data-name="Trazado 979703" d="M321.278,398.127a114.994,114.994,0,0,1-22.942,2.427c-.226,0-.236.375-.013.4a56.062,56.062,0,0,0,23.141-2.056C321.886,398.757,321.724,398.043,321.278,398.127Z" transform="translate(-262.628 -220.914)" fill="#222221"/>
              <path id="Trazado_979704" data-name="Trazado 979704" d="M365.013,393.688c-6.983,1.944-13.709,3.1-20.978,2.612-.669-.045-.847.992-.173,1.036a45.927,45.927,0,0,0,21.325-3.2A.239.239,0,0,0,365.013,393.688Z" transform="translate(-268.985 -220.291)" fill="#222221"/>
              <g id="Grupo_1160591" data-name="Grupo 1160591" transform="translate(45.602 101.785)">
                <path id="Trazado_979705" data-name="Trazado 979705" d="M333.706,319.823a10.29,10.29,0,0,0-11.916-2.531,9.708,9.708,0,0,0-5.526,9.69c.388,4.245,3.52,8.519,7.818,9.357l.013.006a9.94,9.94,0,0,0,10.857-4.609A10.287,10.287,0,0,0,333.706,319.823Zm-9.549,16.161c-3.945-1-7.826-5.835-7.423-10.727a9.328,9.328,0,0,1,10.706-8.248,9.882,9.882,0,0,1,8.3,11.012A9.542,9.542,0,0,1,324.156,335.985Z" transform="translate(-310.766 -311.221)" fill="#222221"/>
                <path id="Trazado_979706" data-name="Trazado 979706" d="M322.417,310.527a.236.236,0,0,0-.453.11,18.2,18.2,0,0,0,1.332,4.435c.014.035.075.023.066-.016A38.322,38.322,0,0,0,322.417,310.527Z" transform="translate(-311.572 -310.381)" fill="#222221"/>
                <path id="Trazado_979707" data-name="Trazado 979707" d="M318.17,318.252c-.392-.327-.759-.679-1.148-1.007-.108-.091-.223-.174-.335-.26-.057-.044-.112-.09-.169-.134a.374.374,0,0,0-.034-.028.164.164,0,0,0-.051-.052.32.32,0,0,0-.2-.061.222.222,0,0,0-.184.132c-.136.34.386.554.6.7a4.725,4.725,0,0,0,1.46.839A.073.073,0,0,0,318.17,318.252Z" transform="translate(-310.739 -311.269)" fill="#222221"/>
                <path id="Trazado_979708" data-name="Trazado 979708" d="M339.137,313.811c.166-.21-.136-.486-.34-.32a18.213,18.213,0,0,0-2.989,3.536c-.022.03.021.075.05.047A38.274,38.274,0,0,0,339.137,313.811Z" transform="translate(-313.515 -310.811)" fill="#222221"/>
                <path id="Trazado_979709" data-name="Trazado 979709" d="M330.808,314.469c.06-.506.155-1.007.217-1.512.017-.14.024-.282.035-.423.006-.071.015-.143.02-.215a.381.381,0,0,0,0-.044.161.161,0,0,0,.016-.071.33.33,0,0,0-.056-.2.221.221,0,0,0-.211-.082c-.358.071-.254.626-.258.885a4.712,4.712,0,0,0,.094,1.681A.072.072,0,0,0,330.808,314.469Z" transform="translate(-312.777 -310.597)" fill="#222221"/>
                <path id="Trazado_979710" data-name="Trazado 979710" d="M344.887,329.805a.236.236,0,0,0,.094-.456,18.215,18.215,0,0,0-4.579-.687c-.038,0-.052.058-.014.067A38.417,38.417,0,0,0,344.887,329.805Z" transform="translate(-314.156 -312.948)" fill="#222221"/>
                <path id="Trazado_979711" data-name="Trazado 979711" d="M340.11,322.778c.462-.215.938-.4,1.4-.609.129-.059.253-.128.378-.193.064-.033.13-.063.193-.1.014-.005.027-.013.04-.019a.159.159,0,0,0,.07-.023.323.323,0,0,0,.139-.152.221.221,0,0,0-.041-.223c-.249-.267-.666.112-.889.245a4.714,4.714,0,0,0-1.381.962A.073.073,0,0,0,340.11,322.778Z" transform="translate(-314.105 -311.924)" fill="#222221"/>
                <path id="Trazado_979712" data-name="Trazado 979712" d="M335.036,343.406a.236.236,0,0,0,.434-.17,18.225,18.225,0,0,0-1.924-4.212c-.018-.033-.077-.013-.064.025A37.917,37.917,0,0,0,335.036,343.406Z" transform="translate(-313.189 -314.4)" fill="#222221"/>
                <path id="Trazado_979713" data-name="Trazado 979713" d="M338.135,335.683c.432.27.845.57,1.275.842.119.076.245.142.368.212.062.036.123.075.186.109.012.009.025.015.038.023a.166.166,0,0,0,.057.046.322.322,0,0,0,.2.034.223.223,0,0,0,.164-.156c.089-.355-.457-.5-.69-.611a4.714,4.714,0,0,0-1.56-.633A.073.073,0,0,0,338.135,335.683Z" transform="translate(-313.838 -313.914)" fill="#222221"/>
                <path id="Trazado_979714" data-name="Trazado 979714" d="M315.579,340.1c-.181.2.1.494.315.343a18.2,18.2,0,0,0,3.236-3.312c.024-.029-.015-.077-.046-.051A38.123,38.123,0,0,0,315.579,340.1Z" transform="translate(-310.668 -314.128)" fill="#222221"/>
                <path id="Trazado_979715" data-name="Trazado 979715" d="M324.394,340.206c-.1.5-.227.993-.326,1.493-.028.138-.044.279-.065.419-.011.07-.025.142-.035.212,0,.015-.005.029-.008.043a.165.165,0,0,0-.021.07.329.329,0,0,0,.041.2.219.219,0,0,0,.2.1c.363-.046.3-.606.321-.864a4.716,4.716,0,0,0,.028-1.683A.072.072,0,0,0,324.394,340.206Z" transform="translate(-311.849 -314.56)" fill="#222221"/>
                <path id="Trazado_979716" data-name="Trazado 979716" d="M310.131,323.938a.236.236,0,0,0-.115.451,18.2,18.2,0,0,0,4.541.9c.037.005.055-.055.017-.066A38.152,38.152,0,0,0,310.131,323.938Z" transform="translate(-309.875 -312.284)" fill="#222221"/>
                <path id="Trazado_979717" data-name="Trazado 979717" d="M314.96,331.175c-.472.193-.956.352-1.429.542-.131.052-.259.116-.387.174-.065.029-.132.056-.2.086a.392.392,0,0,0-.04.017.168.168,0,0,0-.07.02.319.319,0,0,0-.146.145.221.221,0,0,0,.031.224c.236.279.671-.081.9-.2a4.725,4.725,0,0,0,1.425-.9C315.1,331.229,315.024,331.149,314.96,331.175Z" transform="translate(-310.268 -313.3)" fill="#222221"/>
                <path id="Trazado_979718" data-name="Trazado 979718" d="M321.385,328.761a.541.541,0,0,0-.072.89.58.58,0,0,0,.924-.466A.558.558,0,0,0,321.385,328.761Z" transform="translate(-311.452 -312.949)" fill="#222221"/>
                <path id="Trazado_979719" data-name="Trazado 979719" d="M329.423,324.422c-.148-.221-.542-.015-.416.229a14.784,14.784,0,0,1,.91,1.717,2.415,2.415,0,0,1-1.217,2.985c-1.858.908-3.383-.461-4.632-1.7-.065-.064-.156.035-.11.1,1.119,1.7,3.152,3.117,5.176,1.944C331.32,328.44,330.554,326.111,329.423,324.422Z" transform="translate(-311.85 -312.339)" fill="#222221"/>
                <path id="Trazado_979720" data-name="Trazado 979720" d="M319.658,326.893a.835.835,0,0,0-.5,1.093.082.082,0,0,0,.158-.039c-.059-.4.171-.637.426-.9A.1.1,0,0,0,319.658,326.893Z" transform="translate(-311.172 -312.699)" fill="#222221"/>
                <path id="Trazado_979721" data-name="Trazado 979721" d="M330.96,321.03a.541.541,0,0,1,.885.117.58.58,0,0,1-.651.805A.558.558,0,0,1,330.96,321.03Z" transform="translate(-312.813 -311.85)" fill="#222221"/>
                <path id="Trazado_979722" data-name="Trazado 979722" d="M329.5,318.956a.835.835,0,0,1,1.173-.259.082.082,0,0,1-.07.146,1.037,1.037,0,0,0-.97.226A.1.1,0,0,1,329.5,318.956Z" transform="translate(-312.629 -311.53)" fill="#222221"/>
              </g>
            </g>
          </g>
          <g id="Grupo_1160594" data-name="Grupo 1160594" transform="translate(8.649 90.052)">
            <path id="Trazado_979724" data-name="Trazado 979724" d="M392.512,22.194c-.921-7.147-9.2-9.519-14.852-6.241a4.437,4.437,0,0,0-8.568-2.239c-1.8-3.083-4.955-5.371-8.593-3.3a8.84,8.84,0,0,0-4.231,9.748c-3.239-1.985-7.393,2.941-5.651,6.91,1.613,3.677,5.54,4.855,9.211,5.339a89.4,89.4,0,0,0,17.923.329C384.422,32.27,393.669,31.167,392.512,22.194Z" transform="translate(25.566 1.881)" fill="#9ef0fd"/>
            <path id="Trazado_979725" data-name="Trazado 979725" d="M743.733,109.606c-1.235-9.576-12.33-12.754-19.9-8.361.926-7.793-9.014-9.675-11.48-3-2.412-4.131-6.639-7.2-11.514-4.417-4.524,2.579-7.069,8.208-5.668,13.06-4.34-2.659-9.9,3.94-7.572,9.259,2.161,4.927,7.422,6.5,12.34,7.153a119.908,119.908,0,0,0,24.014.441C732.894,123.1,745.284,121.627,743.733,109.606Z" transform="translate(-179.877 7.852)" fill="#9ef0fd"/>
            <path id="Trazado_979726" data-name="Trazado 979726" d="M67.569,368.642c-.729-5.651-7.277-7.527-11.743-4.934a3.508,3.508,0,0,0-6.775-1.771c-1.424-2.438-3.918-4.246-6.8-2.606a6.99,6.99,0,0,0-3.346,7.707c-2.561-1.57-5.845,2.325-4.468,5.464,1.276,2.907,4.381,3.839,7.283,4.222a70.726,70.726,0,0,0,14.171.26C61.173,376.609,68.484,375.737,67.569,368.642Z" transform="translate(31.261 -130.097)" fill="#9ef0fd"/>
            <path id="Trazado_979727" data-name="Trazado 979727" d="M546.328,14.276c-.564-4.369-5.625-5.819-9.079-3.815a2.712,2.712,0,0,0-5.238-1.368c-1.1-1.885-3.029-3.283-5.253-2.015a5.4,5.4,0,0,0-2.586,5.959c-1.98-1.213-4.519,1.8-3.454,4.224.986,2.248,3.386,2.967,5.63,3.264a54.645,54.645,0,0,0,10.956.2C541.384,20.435,547.036,19.761,546.328,14.276Z" transform="translate(-70.545 44.287)" fill="#9ef0fd"/>
            <path id="Trazado_979729" data-name="Trazado 979729" d="M81.523,214.75c-.836-6.483-8.348-8.635-13.472-5.661a4.024,4.024,0,0,0-7.772-2.031c-1.633-2.8-4.495-4.871-7.795-2.991a8.019,8.019,0,0,0-3.838,8.842c-2.938-1.8-6.706,2.667-5.126,6.268,1.463,3.335,5.024,4.4,8.354,4.843a81.227,81.227,0,0,0,16.257.3C74.186,223.889,82.573,222.889,81.523,214.75Z" transform="translate(29.993 -103.616)" fill="#9ef0fd"/>
            <path id="Trazado_979730" data-name="Trazado 979730" d="M215.478,64.827c-.543-4.211-5.422-5.609-8.751-3.677a2.614,2.614,0,0,0-5.048-1.319c-1.061-1.816-2.919-3.164-5.063-1.943a5.208,5.208,0,0,0-2.493,5.743c-1.908-1.169-4.356,1.733-3.329,4.071.951,2.166,3.264,2.861,5.427,3.146a52.684,52.684,0,0,0,10.56.194C210.711,70.764,216.159,70.114,215.478,64.827Z" transform="translate(78.438 -48.005)" fill="#9ef0fd"/>
            <path id="Trazado_979734" data-name="Trazado 979734" d="M636.359,58.86a113.183,113.183,0,0,0,22.687-.417c4.647-.613,9.617-2.1,11.659-6.758,2.2-5.025-3.053-11.26-7.153-8.747,1.323-4.584-1.082-9.9-5.355-12.339-4.606-2.625-8.6.27-10.878,4.173a5.616,5.616,0,0,0-10.846,2.834c-7.151-4.15-17.633-1.148-18.8,7.9C616.207,56.863,627.912,58.259,636.359,58.86Z" transform="translate(-117.574 -32.767)" fill="#9ef0fd"/>
          </g>
        </g>
      </g>
    </g>
  </g>
</svg>
