<svg xmlns="http://www.w3.org/2000/svg" xmlns:xlink="http://www.w3.org/1999/xlink" width="108" height="108" viewBox="0 0 108 108">
  <defs>
    <filter id="Fondo" x="0" y="0" width="108" height="108" filterUnits="userSpaceOnUse">
      <feOffset dy="3" input="SourceAlpha"/>
      <feGaussianBlur stdDeviation="3" result="blur"/>
      <feFlood flood-opacity="0.161"/>
      <feComposite operator="in" in2="blur"/>
      <feComposite in="SourceGraphic"/>
    </filter>
  </defs>
  <g id="Grupo_1171320" data-name="Grupo 1171320" transform="translate(-198.228 -7780)">
    <g id="Grupo_1171093" data-name="Grupo 1171093" transform="translate(207.228 7786)">
      <g id="Grupo_1163006" data-name="Grupo 1163006">
        <g id="Grupo_1158161" data-name="Grupo 1158161">
          <g transform="matrix(1, 0, 0, 1, -9, -6)" filter="url(#Fondo)">
            <g id="Fondo-2" data-name="Fondo" transform="translate(9 6)" fill="#ebe9f0">
              <path d="M 45 88.5 C 39.12687683105469 88.5 33.43022537231445 87.35007476806641 28.06830024719238 85.08217620849609 C 22.88852500915527 82.89131164550781 18.23629951477051 79.75458526611328 14.2408504486084 75.75914764404297 C 10.24541282653809 71.76370239257812 7.108687400817871 67.11147308349609 4.917825222015381 61.93170166015625 C 2.649924993515015 56.56977462768555 1.5 50.87312316894531 1.5 45 C 1.5 39.12687683105469 2.649924993515015 33.43022537231445 4.917825222015381 28.06830024719238 C 7.108687400817871 22.88852500915527 10.24541282653809 18.23629951477051 14.2408504486084 14.2408504486084 C 18.23629951477051 10.24541282653809 22.88852500915527 7.108687400817871 28.06830024719238 4.917825222015381 C 33.43022537231445 2.649924993515015 39.12687683105469 1.5 45 1.5 C 50.87312316894531 1.5 56.56977462768555 2.649924993515015 61.93170166015625 4.917825222015381 C 67.11147308349609 7.108687400817871 71.76370239257812 10.24541282653809 75.75914764404297 14.2408504486084 C 79.75458526611328 18.23629951477051 82.89131164550781 22.88852500915527 85.08217620849609 28.06830024719238 C 87.35007476806641 33.43022537231445 88.5 39.12687683105469 88.5 45 C 88.5 50.87312316894531 87.35007476806641 56.56977462768555 85.08217620849609 61.93170166015625 C 82.89131164550781 67.11147308349609 79.75458526611328 71.76370239257812 75.75914764404297 75.75914764404297 C 71.76370239257812 79.75458526611328 67.11147308349609 82.89131164550781 61.93170166015625 85.08217620849609 C 56.56977462768555 87.35007476806641 50.87312316894531 88.5 45 88.5 Z" stroke="none"/>
              <path d="M 45 3 C 39.32871246337891 3 33.82865524291992 4.110054016113281 28.65262985229492 6.299339294433594 C 23.65165710449219 8.414573669433594 19.15968322753906 11.44334411621094 15.301513671875 15.301513671875 C 11.44334411621094 19.15968322753906 8.414573669433594 23.65165710449219 6.299339294433594 28.65262985229492 C 4.110054016113281 33.82865524291992 3 39.32871246337891 3 45 C 3 50.67128753662109 4.110054016113281 56.17134475708008 6.299339294433594 61.34737396240234 C 8.414573669433594 66.34834289550781 11.44334411621094 70.84031677246094 15.301513671875 74.698486328125 C 19.15968322753906 78.55665588378906 23.65165710449219 81.58542633056641 28.65262985229492 83.70066070556641 C 33.82865524291992 85.88994598388672 39.32871246337891 87 45 87 C 50.67128753662109 87 56.17134475708008 85.88994598388672 61.34737396240234 83.70066070556641 C 66.34834289550781 81.58542633056641 70.84031677246094 78.55665588378906 74.698486328125 74.698486328125 C 78.55665588378906 70.84031677246094 81.58542633056641 66.34834289550781 83.70066070556641 61.34737396240234 C 85.88994598388672 56.17134475708008 87 50.67128753662109 87 45 C 87 39.32871246337891 85.88994598388672 33.82865524291992 83.70066070556641 28.65262985229492 C 81.58542633056641 23.65165710449219 78.55665588378906 19.15968322753906 74.698486328125 15.301513671875 C 70.84031677246094 11.44334411621094 66.34834289550781 8.414573669433594 61.34737396240234 6.299339294433594 C 56.17134475708008 4.110054016113281 50.67128753662109 3 45 3 M 45 0 C 69.85281372070312 0 90 20.14718627929688 90 45 C 90 69.85281372070312 69.85281372070312 90 45 90 C 20.14718627929688 90 0 69.85281372070312 0 45 C 0 20.14718627929688 20.14718627929688 0 45 0 Z" stroke="none" fill="#453179"/>
            </g>
          </g>
        </g>
      </g>
    </g>
    <g id="bebita" transform="translate(217.977 7801.179)">
      <path id="Trazado_1017408" data-name="Trazado 1017408" d="M68.493,295.827a2.542,2.542,0,0,1-3.135,1.914,98.508,98.508,0,0,0-11.868-2.367,93.363,93.363,0,0,0-25.236,0,98.483,98.483,0,0,0-11.868,2.367,2.542,2.542,0,0,1-3.135-1.914,31.572,31.572,0,0,1-.67-8.628,1.149,1.149,0,0,1,1.085-1.137,5.835,5.835,0,0,1,3.944,1.8.592.592,0,0,0,.8.085,20.326,20.326,0,0,1,9.533-3.659,38.1,38.1,0,0,1,4.039-13.709H49.766a38.1,38.1,0,0,1,4.039,13.709,20.326,20.326,0,0,1,9.533,3.659.592.592,0,0,0,.8-.085,5.835,5.835,0,0,1,3.944-1.8,1.149,1.149,0,0,1,1.085,1.137A31.568,31.568,0,0,1,68.493,295.827Z" transform="translate(-6.621 -239.059)" fill="#ddebfd"/>
      <path id="Trazado_1017409" data-name="Trazado 1017409" d="M69.547,449.175a2.578,2.578,0,0,1-3.18,1.942,99.906,99.906,0,0,0-12.037-2.4,94.693,94.693,0,0,0-25.6,0,99.91,99.91,0,0,0-12.037,2.4,2.578,2.578,0,0,1-3.18-1.942c-.1-.444-.183-.9-.261-1.355a33.8,33.8,0,0,0,.655,4.6,2.542,2.542,0,0,0,3.135,1.914,98.5,98.5,0,0,1,11.868-2.367,93.36,93.36,0,0,1,25.236,0,98.483,98.483,0,0,1,11.868,2.367,2.542,2.542,0,0,0,3.135-1.914,33.825,33.825,0,0,0,.655-4.6c-.078.457-.164.911-.261,1.355Z" transform="translate(-7.281 -395.655)" fill="#bed9fd"/>
      <g id="Grupo_1171315" data-name="Grupo 1171315" transform="translate(18.689 31.519)">
        <path id="Trazado_1017410" data-name="Trazado 1017410" d="M299.273,284.728a15.818,15.818,0,0,0-2.628-.443,38.1,38.1,0,0,0-4.039-13.709h-3.164a3.571,3.571,0,0,0,.792,1.844c1.618,1.962,2.454,5.267,2.238,8.841a18.291,18.291,0,0,1-4.243,10.771,3.576,3.576,0,0,0-.856,2.558q3.749.148,7.5.6A25.484,25.484,0,0,0,299.273,284.728Z" transform="translate(-268.15 -270.577)" fill="#bed9fd"/>
        <path id="Trazado_1017411" data-name="Trazado 1017411" d="M132.238,270.577h-3.164a38.1,38.1,0,0,0-4.039,13.709,15.817,15.817,0,0,0-2.628.443,25.486,25.486,0,0,0,4.4,10.46q3.749-.45,7.5-.6a3.575,3.575,0,0,0-.856-2.558,18.291,18.291,0,0,1-4.243-10.771c-.216-3.574.621-6.879,2.238-8.841A3.569,3.569,0,0,0,132.238,270.577Z" transform="translate(-122.406 -270.577)" fill="#bed9fd"/>
      </g>
      <path id="Trazado_1017412" data-name="Trazado 1017412" d="M120.815,267.364a3.589,3.589,0,0,1-3.272-2.111,25.507,25.507,0,0,1-1.511-16.077c1.205-5.293,3.971-9.74,7.59-12.2a3.588,3.588,0,1,1,4.035,5.935c-2.1,1.43-3.833,4.367-4.627,7.858a18.29,18.29,0,0,0,1.053,11.529,3.59,3.59,0,0,1-3.268,5.067Z" transform="translate(-97.507 -208.821)" fill="#ddebfd"/>
      <path id="Trazado_1017413" data-name="Trazado 1017413" d="M116.033,249.177c1.205-5.293,3.971-9.74,7.59-12.2a3.586,3.586,0,0,1,3.527-.288,3.607,3.607,0,0,0-.508.288c-3.618,2.46-6.385,6.907-7.59,12.2a25.507,25.507,0,0,0,1.511,16.077,3.572,3.572,0,0,0,1.761,1.776l-.032.016a3.586,3.586,0,0,1-4.748-1.792A25.509,25.509,0,0,1,116.033,249.177Z" transform="translate(-97.507 -208.823)" fill="#bed9fd"/>
      <path id="Trazado_1017414" data-name="Trazado 1017414" d="M286.125,267.364a3.589,3.589,0,0,0,3.272-2.111,25.508,25.508,0,0,0,1.511-16.077c-1.205-5.293-3.971-9.74-7.59-12.2a3.588,3.588,0,1,0-4.035,5.935c2.1,1.43,3.833,4.367,4.627,7.858a18.291,18.291,0,0,1-1.053,11.529,3.59,3.59,0,0,0,3.268,5.067Z" transform="translate(-240.932 -208.821)" fill="#ddebfd"/>
      <path id="Trazado_1017415" data-name="Trazado 1017415" d="M130.143,441.43a3.588,3.588,0,0,0,1.792-4.748,16.912,16.912,0,0,1-.975-2.8,5.985,5.985,0,0,0-6.7,2.7,23.9,23.9,0,0,0,1.131,3.048,3.586,3.586,0,0,0,4.748,1.792Z" transform="translate(-105.359 -383.207)" fill="#ffcdbe"/>
      <path id="Trazado_1017416" data-name="Trazado 1017416" d="M124.264,440.989a5.847,5.847,0,0,1,2.459-2.28,24.249,24.249,0,0,0,1.692,5.327,3.573,3.573,0,0,0,1.761,1.777l-.032.016a3.586,3.586,0,0,1-4.748-1.792A24.2,24.2,0,0,1,124.264,440.989Z" transform="translate(-105.359 -387.605)" fill="#ebae9d"/>
      <path id="Trazado_1017417" data-name="Trazado 1017417" d="M321.253,441.43a3.588,3.588,0,0,1-1.792-4.748,16.909,16.909,0,0,0,.975-2.8,5.985,5.985,0,0,1,6.7,2.7A23.9,23.9,0,0,1,326,439.638a3.586,3.586,0,0,1-4.748,1.792Z" transform="translate(-277.536 -383.207)" fill="#ffcdbe"/>
      <g id="Grupo_1171316" data-name="Grupo 1171316" transform="translate(38.858 27.533)">
        <path id="Trazado_1017418" data-name="Trazado 1017418" d="M306.675,249.177c-1.205-5.293-3.971-9.74-7.59-12.2a3.586,3.586,0,0,0-3.527-.288,3.6,3.6,0,0,1,.508.288c3.619,2.46,6.385,6.907,7.59,12.2a25.507,25.507,0,0,1-1.511,16.077,3.572,3.572,0,0,1-1.761,1.776l.032.016a3.586,3.586,0,0,0,4.748-1.792A25.508,25.508,0,0,0,306.675,249.177Z" transform="translate(-295.558 -236.356)" fill="#bed9fd"/>
        <path id="Trazado_1017419" data-name="Trazado 1017419" d="M342.9,440.989a5.847,5.847,0,0,0-2.459-2.28,24.251,24.251,0,0,1-1.692,5.327,3.573,3.573,0,0,1-1.761,1.777l.032.016a3.586,3.586,0,0,0,4.748-1.792A24.19,24.19,0,0,0,342.9,440.989Z" transform="translate(-332.165 -415.138)" fill="#ebae9d"/>
      </g>
      <path id="Trazado_1017420" data-name="Trazado 1017420" d="M190.139,269.139c-1.819-.132-9.883-.132-11.7,0a3.681,3.681,0,1,0,.312,7.355,4.142,4.142,0,0,0,.99-.119.691.691,0,0,1,.784.338,4.282,4.282,0,0,0,7.532,0,.691.691,0,0,1,.784-.338,4.144,4.144,0,0,0,.99.119,3.681,3.681,0,1,0,.311-7.355Z" transform="translate(-150.037 -237.7)" fill="#9ec8fc"/>
      <g id="Grupo_1171318" data-name="Grupo 1171318" transform="translate(15.293 0.874)">
        <path id="Trazado_1017421" data-name="Trazado 1017421" d="M127.785,87.167a3.364,3.364,0,0,0-1.809.525c-1.469-6.836-7.075-12.066-13.767-12.066s-12.3,5.23-13.767,12.066a3.381,3.381,0,1,0-.206,5.834c1.056,6.744,6.91,9.184,13.974,9.184s12.918-2.44,13.974-9.184a3.382,3.382,0,1,0,1.6-6.36Z" transform="translate(-93.251 -67.691)" fill="#ffcdbe"/>
        <path id="Trazado_1017422" data-name="Trazado 1017422" d="M210.29,60.429,196.9,60.1a9.317,9.317,0,0,0,1.517,7.725,9.43,9.43,0,0,0,6.567,3.422.323.323,0,0,0,.313-.478,5.081,5.081,0,0,1-.534-3.151.323.323,0,0,1,.525-.194,5.189,5.189,0,0,0,2.436,1.059.323.323,0,0,0,.344-.454,5.987,5.987,0,0,1,2.218-7.6Z" transform="translate(-184.587 -53.972)" fill="#ffc250"/>
        <g id="Grupo_1171317" data-name="Grupo 1171317" transform="translate(6.28)">
          <path id="Trazado_1017423" data-name="Trazado 1017423" d="M270.761,14.1a1.086,1.086,0,0,1,0-1.493c1.091-1.194,1.488-2.551.893-3.611-.953-1.7-4.081-1.989-6.987-.656-1.323.607-4.985,2.81-4.985,5.013s3.662,4.406,4.985,5.013c2.906,1.334,6.034,1.04,6.987-.656C272.25,16.646,271.852,15.29,270.761,14.1Z" transform="translate(-246.575 -7.5)" fill="#df75a5"/>
          <path id="Trazado_1017424" data-name="Trazado 1017424" d="M148.333,14.1a1.085,1.085,0,0,0,0-1.493c-1.091-1.194-1.488-2.551-.893-3.611.953-1.7,4.081-1.989,6.987-.656,1.323.607,4.985,2.81,4.985,5.013s-3.662,4.406-4.985,5.013c-2.906,1.334-6.034,1.04-6.987-.656C146.845,16.646,147.242,15.29,148.333,14.1Z" transform="translate(-147.164 -7.5)" fill="#df75a5"/>
        </g>
        <path id="Trazado_1017425" data-name="Trazado 1017425" d="M236.016,19.166a2.635,2.635,0,0,0-2.635,2.635v3.711a2.635,2.635,0,1,0,5.27,0V21.8A2.635,2.635,0,0,0,236.016,19.166Z" transform="translate(-217.058 -17.807)" fill="#e490b7"/>
      </g>
      <g id="Grupo_1171319" data-name="Grupo 1171319" transform="translate(5.015 0.001)">
        <path id="Trazado_1017426" data-name="Trazado 1017426" d="M63.412,48.062a2.022,2.022,0,0,0-1.985-1.933,6.753,6.753,0,0,0-4.394,1.911,23.088,23.088,0,0,0-5.545-2.785A25.2,25.2,0,0,0,47.15,31.711a10.656,10.656,0,0,0,1.732-3.831,4.255,4.255,0,1,0-.268-8.227,17.212,17.212,0,0,0-3.43-6.477,3.72,3.72,0,0,0,2.229-1.667c.766-1.365.39-3.1-1.01-4.629a.213.213,0,0,1,0-.313c1.4-1.532,1.775-3.262,1.009-4.628C46.224-.177,42.661-.626,39.3.917a15.4,15.4,0,0,0-2.527,1.517,3.5,3.5,0,0,0-5.046,0A15.4,15.4,0,0,0,29.2.917C25.84-.626,22.277-.177,21.088,1.939,20.322,3.3,20.7,5.034,22.1,6.568a.213.213,0,0,1,0,.313c-1.4,1.532-1.775,3.262-1.009,4.628a3.72,3.72,0,0,0,2.229,1.667,17.209,17.209,0,0,0-3.43,6.477,4.255,4.255,0,1,0-.268,8.227,10.658,10.658,0,0,0,1.733,3.831,21.458,21.458,0,0,0-1.628,2.709.874.874,0,1,0,1.559.788,19.889,19.889,0,0,1,1.257-2.145,10.759,10.759,0,0,0,1.472,1.171,4.237,4.237,0,0,0-.079.562,4.4,4.4,0,0,0,1.194,3.336,4.942,4.942,0,0,0,4.654,1.419,5.162,5.162,0,0,0,8.938,0,4.943,4.943,0,0,0,4.654-1.419A4.4,4.4,0,0,0,44.568,34.8a4.243,4.243,0,0,0-.079-.563,10.758,10.758,0,0,0,1.473-1.172,24.433,24.433,0,0,1,3.224,18.413,6.775,6.775,0,0,0-5.171-1.812,19.717,19.717,0,0,0-.185-7.913.874.874,0,1,0-1.7.388,17.411,17.411,0,0,1-1,10.975,4.437,4.437,0,0,0-.393,1.7,94.381,94.381,0,0,0-12.967,0,4.456,4.456,0,0,0-.4-1.7,16.048,16.048,0,0,1-.917-2.618l0-.006a17.824,17.824,0,0,1-.079-8.35.874.874,0,0,0-1.7-.388,19.719,19.719,0,0,0-.185,7.913,6.775,6.775,0,0,0-5.171,1.812,25.144,25.144,0,0,1,.063-10.93c.13-.571.281-1.141.45-1.695a.874.874,0,0,0-1.672-.509c-.181.594-.343,1.2-.482,1.816a27.14,27.14,0,0,0-.66,5.1,23.086,23.086,0,0,0-5.546,2.786,6.754,6.754,0,0,0-4.394-1.911,2.019,2.019,0,0,0-1.985,1.933,32.493,32.493,0,0,0,.687,8.89,3.418,3.418,0,0,0,3.329,2.688,3.455,3.455,0,0,0,.882-.115,98.609,98.609,0,0,1,9.655-2.034,4.458,4.458,0,0,0,7.815-.908,92.568,92.568,0,0,1,13.588,0,4.454,4.454,0,0,0,7.813.908c1.053.166,2.11.35,3.15.551a.874.874,0,0,0,.331-1.715c-.886-.171-1.784-.33-2.68-.477a25.84,25.84,0,0,0,1.828-8.741A21.392,21.392,0,0,1,56.212,49.6a1.47,1.47,0,0,0,1.941-.2,4.93,4.93,0,0,1,3.331-1.518c.039,0,.166.118.186.341a30.606,30.606,0,0,1-.654,8.365,1.667,1.667,0,0,1-2.059,1.254c-.87-.228-1.759-.45-2.643-.659a.874.874,0,0,0-.4,1.7c.87.205,1.745.424,2.6.648a3.453,3.453,0,0,0,.882.115,3.418,3.418,0,0,0,3.329-2.688,32.49,32.49,0,0,0,.687-8.891ZM40.029,2.5c2.142-.983,5.076-1.106,5.86.29.38.676.09,1.646-.775,2.593a1.966,1.966,0,0,0,0,2.671c.865.949,1.156,1.919.776,2.594-.715,1.272-4.215,1.9-8.249-1.172A11.98,11.98,0,0,0,37.759,6.7a4.145,4.145,0,0,1,.89-.03,2.009,2.009,0,0,1,1.739,1.076.874.874,0,1,0,1.636-.614,3.691,3.691,0,0,0-3.229-2.2,5.684,5.684,0,0,0-1.036.012V4.868a3.5,3.5,0,0,0-.118-.9A13.868,13.868,0,0,1,40.029,2.5ZM37.6,14.254a3.945,3.945,0,0,1-1.048-.605,1.2,1.2,0,0,0-1.939.729,5.929,5.929,0,0,0,.224,2.756,8.221,8.221,0,0,1-5.006-2.926,8.076,8.076,0,0,1-.9-1.557,14.906,14.906,0,0,0,2.8-1.637,3.5,3.5,0,0,0,5.046,0c.21.155.421.3.63.44a6.919,6.919,0,0,0,.2,2.8ZM34.251,3.107a1.763,1.763,0,0,1,1.761,1.761V8.579a1.761,1.761,0,1,1-3.522,0V4.868a1.763,1.763,0,0,1,1.761-1.761ZM22.612,10.653c-.38-.676-.09-1.646.775-2.593a1.966,1.966,0,0,0,0-2.671c-.865-.949-1.156-1.919-.776-2.594.784-1.4,3.718-1.273,5.861-.289A13.876,13.876,0,0,1,30.86,3.967a3.5,3.5,0,0,0-.118.9v.071a5.659,5.659,0,0,0-1.036-.012,3.691,3.691,0,0,0-3.228,2.2.874.874,0,1,0,1.636.614,2.009,2.009,0,0,1,1.738-1.076,4.135,4.135,0,0,1,.891.03V8.579a3.5,3.5,0,0,0,.118.9C26.827,12.553,23.326,11.925,22.612,10.653Zm16.4,27.173a1.568,1.568,0,0,0-1.776.793,3.409,3.409,0,0,1-5.97,0,1.566,1.566,0,0,0-1.771-.795,3.2,3.2,0,0,1-3.088-.884,2.676,2.676,0,0,1-.735-1.785,20.448,20.448,0,0,0,8.579,1.611,20.448,20.448,0,0,0,8.579-1.611,2.676,2.676,0,0,1-.735,1.785A3.2,3.2,0,0,1,39.012,37.826ZM34.251,35.02c-5.378,0-12.018-1.465-13.11-8.446a.874.874,0,0,0-1.278-.634,2.478,2.478,0,0,1-1.188.3,2.508,2.508,0,1,1,1.341-4.627.874.874,0,0,0,1.322-.554,15.349,15.349,0,0,1,4.113-7.616,8.976,8.976,0,0,0,1.813-.244,9.822,9.822,0,0,0,1.161,2.047,10.3,10.3,0,0,0,7.176,3.77,1.2,1.2,0,0,0,1.178-1.757,4.253,4.253,0,0,1-.482-1.687,6.269,6.269,0,0,0,1.995.673,1.2,1.2,0,0,0,1.279-1.683,5.185,5.185,0,0,1-.482-2.132,9.805,9.805,0,0,0,3.961,1.014,15.349,15.349,0,0,1,4.114,7.616.874.874,0,0,0,1.322.554,2.508,2.508,0,1,1,.153,4.327.874.874,0,0,0-1.278.634C46.268,33.555,39.628,35.02,34.251,35.02ZM9.542,57.836a1.668,1.668,0,0,1-2.058-1.255,30.6,30.6,0,0,1-.654-8.365c.02-.222.146-.341.186-.341h0a4.93,4.93,0,0,1,3.332,1.519,1.469,1.469,0,0,0,1.939.2,21.391,21.391,0,0,1,4.726-2.489A25.843,25.843,0,0,0,18.84,55.85C15.75,56.358,12.627,57.024,9.542,57.836Zm13.767-.169a2.722,2.722,0,0,1-2.476-1.6,22.943,22.943,0,0,1-.972-2.552,5.113,5.113,0,0,1,5.046-2.063,17.68,17.68,0,0,0,.873,2.38,2.716,2.716,0,0,1-2.472,3.833Zm21.884,0a2.719,2.719,0,0,1-2.472-3.834,17.679,17.679,0,0,0,.873-2.38,5.113,5.113,0,0,1,5.047,2.063,22.965,22.965,0,0,1-.973,2.553A2.719,2.719,0,0,1,45.193,57.667Z" transform="translate(-5.015 -0.001)"/>
        <path id="Trazado_1017427" data-name="Trazado 1017427" d="M201.051,177.5a.874.874,0,0,0-.874.874v.512a.874.874,0,1,0,1.747,0v-.512A.874.874,0,0,0,201.051,177.5Z" transform="translate(-177.443 -156.82)"/>
        <path id="Trazado_1017428" data-name="Trazado 1017428" d="M297.7,177.5a.874.874,0,0,0-.874.874v.512a.874.874,0,1,0,1.747,0v-.512A.874.874,0,0,0,297.7,177.5Z" transform="translate(-262.832 -156.82)"/>
        <path id="Trazado_1017429" data-name="Trazado 1017429" d="M229.057,224.876a3.28,3.28,0,0,1-4.735,0,.874.874,0,1,0-1.247,1.224,5.027,5.027,0,0,0,7.228,0,.874.874,0,1,0-1.246-1.224Z" transform="translate(-197.454 -198.45)"/>
      </g>
    </g>
  </g>
</svg>
