<svg xmlns="http://www.w3.org/2000/svg" xmlns:xlink="http://www.w3.org/1999/xlink" width="108" height="108" viewBox="0 0 108 108">
  <defs>
    <filter id="Fondo" x="0" y="0" width="108" height="108" filterUnits="userSpaceOnUse">
      <feOffset dy="3" input="SourceAlpha"/>
      <feGaussianBlur stdDeviation="3" result="blur"/>
      <feFlood flood-opacity="0.161"/>
      <feComposite operator="in" in2="blur"/>
      <feComposite in="SourceGraphic"/>
    </filter>
  </defs>
  <g id="Grupo_1171233" data-name="Grupo 1171233" transform="translate(-154.228 -5056)">
    <g id="Grupo_1171032" data-name="Grupo 1171032" transform="translate(0 -158)">
      <g id="Grupo_1163006" data-name="Grupo 1163006" transform="translate(0 327)">
        <g id="Grupo_1158161" data-name="Grupo 1158161" transform="translate(-42.458 3701)">
          <g transform="matrix(1, 0, 0, 1, 196.69, 1186)" filter="url(#Fondo)">
            <g id="Fondo-2" data-name="Fondo" transform="translate(9 6)" fill="#f4fdfe">
              <path d="M 45 88.5 C 39.12687683105469 88.5 33.43022537231445 87.35007476806641 28.06830024719238 85.08217620849609 C 22.88852500915527 82.89131164550781 18.23629951477051 79.75458526611328 14.2408504486084 75.75914764404297 C 10.24541282653809 71.76370239257812 7.108687400817871 67.11147308349609 4.917825222015381 61.93170166015625 C 2.649924993515015 56.56977462768555 1.5 50.87312316894531 1.5 45 C 1.5 39.12687683105469 2.649924993515015 33.43022537231445 4.917825222015381 28.06830024719238 C 7.108687400817871 22.88852500915527 10.24541282653809 18.23629951477051 14.2408504486084 14.2408504486084 C 18.23629951477051 10.24541282653809 22.88852500915527 7.108687400817871 28.06830024719238 4.917825222015381 C 33.43022537231445 2.649924993515015 39.12687683105469 1.5 45 1.5 C 50.87312316894531 1.5 56.56977462768555 2.649924993515015 61.93170166015625 4.917825222015381 C 67.11147308349609 7.108687400817871 71.76370239257812 10.24541282653809 75.75914764404297 14.2408504486084 C 79.75458526611328 18.23629951477051 82.89131164550781 22.88852500915527 85.08217620849609 28.06830024719238 C 87.35007476806641 33.43022537231445 88.5 39.12687683105469 88.5 45 C 88.5 50.87312316894531 87.35007476806641 56.56977462768555 85.08217620849609 61.93170166015625 C 82.89131164550781 67.11147308349609 79.75458526611328 71.76370239257812 75.75914764404297 75.75914764404297 C 71.76370239257812 79.75458526611328 67.11147308349609 82.89131164550781 61.93170166015625 85.08217620849609 C 56.56977462768555 87.35007476806641 50.87312316894531 88.5 45 88.5 Z" stroke="none"/>
              <path d="M 45 3 C 39.32871246337891 3 33.82865524291992 4.110054016113281 28.65262985229492 6.299339294433594 C 23.65165710449219 8.414573669433594 19.15968322753906 11.44334411621094 15.301513671875 15.301513671875 C 11.44334411621094 19.15968322753906 8.414573669433594 23.65165710449219 6.299339294433594 28.65262985229492 C 4.110054016113281 33.82865524291992 3 39.32871246337891 3 45 C 3 50.67128753662109 4.110054016113281 56.17134475708008 6.299339294433594 61.34737396240234 C 8.414573669433594 66.34834289550781 11.44334411621094 70.84031677246094 15.301513671875 74.698486328125 C 19.15968322753906 78.55665588378906 23.65165710449219 81.58542633056641 28.65262985229492 83.70066070556641 C 33.82865524291992 85.88994598388672 39.32871246337891 87 45 87 C 50.67128753662109 87 56.17134475708008 85.88994598388672 61.34737396240234 83.70066070556641 C 66.34834289550781 81.58542633056641 70.84031677246094 78.55665588378906 74.698486328125 74.698486328125 C 78.55665588378906 70.84031677246094 81.58542633056641 66.34834289550781 83.70066070556641 61.34737396240234 C 85.88994598388672 56.17134475708008 87 50.67128753662109 87 45 C 87 39.32871246337891 85.88994598388672 33.82865524291992 83.70066070556641 28.65262985229492 C 81.58542633056641 23.65165710449219 78.55665588378906 19.15968322753906 74.698486328125 15.301513671875 C 70.84031677246094 11.44334411621094 66.34834289550781 8.414573669433594 61.34737396240234 6.299339294433594 C 56.17134475708008 4.110054016113281 50.67128753662109 3 45 3 M 45 0 C 69.85281372070312 0 90 20.14718627929688 90 45 C 90 69.85281372070312 69.85281372070312 90 45 90 C 20.14718627929688 90 0 69.85281372070312 0 45 C 0 20.14718627929688 20.14718627929688 0 45 0 Z" stroke="none" fill="#56838a"/>
            </g>
          </g>
        </g>
      </g>
    </g>
    <g id="Layer_33" data-name="Layer 33" transform="translate(182.228 5081)">
      <path id="Trazado_1016945" data-name="Trazado 1016945" d="M43.893,1a9.893,9.893,0,0,1,9.893,9.893V24.907a6.6,6.6,0,0,1-6.6,6.6H40.6a6.6,6.6,0,0,1-6.6-6.6V10.893A9.893,9.893,0,0,1,43.893,1Z" transform="translate(-5.971 -0.176)" fill="#c67a60"/>
      <path id="Trazado_1016946" data-name="Trazado 1016946" d="M29.029,41.272v16.46H4.3a3.3,3.3,0,0,1-3.3-3.3V41.272a6.6,6.6,0,0,1,4.782-6.341L12.541,33h4.946l6.76,1.931A6.6,6.6,0,0,1,29.029,41.272Z" transform="translate(-0.176 -5.795)" fill="#62b5e8"/>
      <path id="Trazado_1016947" data-name="Trazado 1016947" d="M3.473,54.434V41.272a6.6,6.6,0,0,1,4.782-6.341L15.014,33H12.541l-6.76,1.931A6.6,6.6,0,0,0,1,41.272V54.434a3.3,3.3,0,0,0,3.3,3.3H6.771A3.3,3.3,0,0,1,3.473,54.434Z" transform="translate(-0.176 -5.795)" fill="#44a7d8"/>
      <path id="Trazado_1016948" data-name="Trazado 1016948" d="M36.473,24.906V10.892a9.887,9.887,0,0,1,8.655-9.81A9.832,9.832,0,0,0,34,10.892V24.906a6.6,6.6,0,0,0,6.6,6.6h2.473A6.6,6.6,0,0,1,36.473,24.906Z" transform="translate(-5.971 -0.175)" fill="#b26049"/>
      <path id="Trazado_1016949" data-name="Trazado 1016949" d="M57.029,41.272V54.434a3.3,3.3,0,0,1-3.3,3.3H29V41.272a6.6,6.6,0,0,1,4.782-6.341L40.541,33h4.946l6.76,1.931A6.6,6.6,0,0,1,57.029,41.272Z" transform="translate(-5.093 -5.795)" fill="#f2a7b1"/>
      <path id="Trazado_1016950" data-name="Trazado 1016950" d="M43,28h4.946v4.122a2.473,2.473,0,0,1-4.946,0Z" transform="translate(-7.552 -4.917)" fill="#ffddb0" stroke="#000" stroke-linecap="round" stroke-linejoin="round" stroke-width="2"/>
      <path id="Trazado_1016951" data-name="Trazado 1016951" d="M9,11H23.839v9.068A7.419,7.419,0,1,1,9,20.068Z" transform="translate(-1.581 -1.932)" fill="#f7d1c6"/>
      <path id="Trazado_1016952" data-name="Trazado 1016952" d="M23.543,24.323l-2.021-1.607A3.3,3.3,0,0,0,19.467,22H13.532a3.3,3.3,0,0,0-2.052.716L9.456,24.323a7.419,7.419,0,0,0,14.087,0Z" transform="translate(-1.661 -3.864)" fill="#c67a60"/>
      <path id="Trazado_1016953" data-name="Trazado 1016953" d="M8.473,15v4.946a2.473,2.473,0,1,1,0-4.946Z" transform="translate(-1.054 -2.634)" fill="#f4b19f"/>
      <path id="Trazado_1016954" data-name="Trazado 1016954" d="M2.473,0V4.946A2.473,2.473,0,0,1,2.473,0Z" transform="translate(24.731 17.312) rotate(180)" fill="#f7d1c6"/>
      <path id="Trazado_1016955" data-name="Trazado 1016955" d="M44.419,27.488A7.419,7.419,0,0,1,37,20.068V14.3h3.3a6.6,6.6,0,0,0,5.276-2.638l.495-.66.495.66A6.6,6.6,0,0,0,51.839,14.3v5.771A7.419,7.419,0,0,1,44.419,27.488Z" transform="translate(-6.498 -1.932)" fill="#f7d1c6"/>
      <path id="Trazado_1016956" data-name="Trazado 1016956" d="M11.473,20.068V11H9v9.068a7.379,7.379,0,0,0,8.656,7.308,7.415,7.415,0,0,1-6.183-7.308Z" transform="translate(-1.581 -1.932)" fill="#f4b19f"/>
      <path id="Trazado_1016957" data-name="Trazado 1016957" d="M36.473,15v4.946a2.473,2.473,0,1,1,0-4.946Z" transform="translate(-5.971 -2.634)" fill="#f4b19f"/>
      <path id="Trazado_1016958" data-name="Trazado 1016958" d="M2.473,0V4.946A2.473,2.473,0,0,1,2.473,0Z" transform="translate(47.814 17.312) rotate(180)" fill="#f7d1c6"/>
      <path id="Trazado_1016959" data-name="Trazado 1016959" d="M20.839,3.463V2.649A1.649,1.649,0,0,0,19.19,1H12.854A6.854,6.854,0,0,0,6,7.854a4.687,4.687,0,0,0,4.687,4.687A14.839,14.839,0,0,0,19.957,9.29l.058-.046a3.3,3.3,0,0,0,3.3,3.3V5.112a1.649,1.649,0,0,0-1.649-1.649Z" transform="translate(-1.054 -0.176)" fill="#c67a60"/>
      <path id="Trazado_1016960" data-name="Trazado 1016960" d="M57,49.012h4.946v8.234a3.3,3.3,0,0,1-3.3,3.3H57Z" transform="translate(-10.01 -8.608)" fill="#f7d1c6"/>
      <path id="Trazado_1016961" data-name="Trazado 1016961" d="M20.808,53.031H12.564a6.6,6.6,0,0,0-6.6,6.6v1.623H27.4V59.626A6.6,6.6,0,0,0,20.808,53.031Z" transform="translate(-1.048 -9.313)" fill="#f96464"/>
      <path id="Trazado_1016962" data-name="Trazado 1016962" d="M17,53h3.3v.824a1.649,1.649,0,0,1-3.3,0Z" transform="translate(-2.986 -9.308)" fill="#f7d1c6"/>
      <path id="Trazado_1016963" data-name="Trazado 1016963" d="M11,37H24.19v6.6A6.6,6.6,0,0,1,11,43.6Z" transform="translate(-1.932 -6.498)" fill="#f7d1c6"/>
      <path id="Trazado_1016964" data-name="Trazado 1016964" d="M13.473,43.6V37H11v6.6a6.583,6.583,0,0,0,7.832,6.475A6.6,6.6,0,0,1,13.473,43.6Z" transform="translate(-1.932 -6.498)" fill="#f4b19f"/>
      <path id="Trazado_1016965" data-name="Trazado 1016965" d="M17.737,29.449a7.667,7.667,0,0,1-1.237.107,7.4,7.4,0,0,1-7.04-5.095l2.02-1.608a.5.5,0,0,1,.107-.074,7.409,7.409,0,0,0,6.15,6.669Z" transform="translate(-1.661 -4.001)" fill="#b26049"/>
      <path id="Trazado_1016966" data-name="Trazado 1016966" d="M9.649,41h.824v3.3H9.649a1.649,1.649,0,0,1,0-3.3Z" transform="translate(-1.405 -7.2)" fill="#f4b19f"/>
      <path id="Trazado_1016967" data-name="Trazado 1016967" d="M1.649,0h.824V3.3H1.649a1.649,1.649,0,0,1,0-3.3Z" transform="translate(24.731 37.126) rotate(180)" fill="#f7d1c6"/>
      <path id="Trazado_1016968" data-name="Trazado 1016968" d="M24.19,38.893H20.61a3.3,3.3,0,0,1-2.332-.966l-.683-.683-.683.683a3.3,3.3,0,0,1-2.332.966H11V35.6a6.6,6.6,0,0,1,13.19,0Z" transform="translate(-1.932 -5.093)" fill="#c67a60"/>
      <path id="Trazado_1016969" data-name="Trazado 1016969" d="M18.832,29.12A6.583,6.583,0,0,0,11,35.6v3.3h2.473V35.6a6.6,6.6,0,0,1,5.358-6.475Z" transform="translate(-1.932 -5.093)" fill="#b26049"/>
      <path id="Trazado_1016970" data-name="Trazado 1016970" d="M51.136,43H34.649L33,51.244H52.785Z" transform="translate(-5.795 -7.552)" fill="#c67a60"/>
      <path id="Trazado_1016971" data-name="Trazado 1016971" d="M37,37H50.19v6.6A6.6,6.6,0,0,1,37,43.6Z" transform="translate(-6.498 -6.498)" fill="#f7d1c6"/>
      <g id="Grupo_1171232" data-name="Grupo 1171232" transform="translate(28.029 12.366)">
        <path id="Trazado_1016972" data-name="Trazado 1016972" d="M39.473,43.6V37H37v6.6a6.583,6.583,0,0,0,7.832,6.475A6.6,6.6,0,0,1,39.473,43.6Z" transform="translate(-34.527 -18.864)" fill="#f4b19f"/>
        <path id="Trazado_1016973" data-name="Trazado 1016973" d="M35.649,41h.824v3.3h-.824a1.649,1.649,0,0,1,0-3.3Z" transform="translate(-34 -19.566)" fill="#f4b19f"/>
        <path id="Trazado_1016974" data-name="Trazado 1016974" d="M39.473,20.771V15H37v5.771a7.379,7.379,0,0,0,8.656,7.308,7.415,7.415,0,0,1-6.183-7.308Z" transform="translate(-34.527 -15)" fill="#f4b19f"/>
      </g>
      <path id="Trazado_1016975" data-name="Trazado 1016975" d="M1.649,0h.824V3.3H1.649a1.649,1.649,0,0,1,0-3.3Z" transform="translate(46.165 37.126) rotate(180)" fill="#f7d1c6"/>
      <path id="Trazado_1016976" data-name="Trazado 1016976" d="M49.839,38.893h-3.3l-1.649-1.649-1.649,1.649h-6.6A1.649,1.649,0,0,1,35,37.244a8.244,8.244,0,0,1,16.488,0A1.649,1.649,0,0,1,49.839,38.893Z" transform="translate(-6.147 -5.093)" fill="#c67a60"/>
      <path id="Trazado_1016977" data-name="Trazado 1016977" d="M37.473,37.244A8.238,8.238,0,0,1,44.48,29.1,8.184,8.184,0,0,0,35,37.244a1.649,1.649,0,0,0,1.649,1.649h2.473A1.649,1.649,0,0,1,37.473,37.244Z" transform="translate(-6.147 -5.093)" fill="#b26049"/>
      <path id="Trazado_1016978" data-name="Trazado 1016978" d="M10.949,59.122V57.473A2.473,2.473,0,0,0,8.476,55c-.087,0-.171.017-.256.026a6.574,6.574,0,0,0-2.2,4.235,2.468,2.468,0,0,0,4.932-.139Z" transform="translate(-1.057 -9.659)" fill="#d34444"/>
      <path id="Trazado_1016979" data-name="Trazado 1016979" d="M46.808,53.031H38.564a6.6,6.6,0,0,0-6.6,6.6v1.623H53.4V59.626A6.6,6.6,0,0,0,46.808,53.031Z" transform="translate(-5.614 -9.313)" fill="#fcab68"/>
      <path id="Trazado_1016980" data-name="Trazado 1016980" d="M41.037,53.031H38.564a6.6,6.6,0,0,0-6.6,6.6v1.623h2.473V59.626A6.6,6.6,0,0,1,41.037,53.031Z" transform="translate(-5.614 -9.313)" fill="#ea8e49"/>
      <path id="Trazado_1016981" data-name="Trazado 1016981" d="M43,53h3.3v.824a1.649,1.649,0,1,1-3.3,0Z" transform="translate(-7.552 -9.308)" fill="#f7d1c6"/>
      <rect id="Rect치ngulo_413677" data-name="Rect치ngulo 413677" width="4" height="7" rx="2" transform="translate(4 45)" fill="#f7d1c6"/>
      <path id="Trazado_1016982" data-name="Trazado 1016982" d="M5.732,59.122V57.473a2.465,2.465,0,0,1,1.649-2.321A2.445,2.445,0,0,0,6.556,55a2.473,2.473,0,0,0-2.473,2.473v1.649A2.473,2.473,0,0,0,6.556,61.6a2.445,2.445,0,0,0,.824-.152,2.465,2.465,0,0,1-1.649-2.321Z" transform="translate(-0.717 -9.659)" fill="#f4b19f"/>
      <rect id="Rect치ngulo_413678" data-name="Rect치ngulo 413678" width="5" height="7" rx="2.5" transform="translate(44 45)" fill="#f7d1c6"/>
      <path id="Trazado_1016983" data-name="Trazado 1016983" d="M8.473,7.854A6.854,6.854,0,0,1,15.327,1H12.854A6.854,6.854,0,0,0,6,7.854a4.687,4.687,0,0,0,4.687,4.687,14.792,14.792,0,0,0,1.555-.092,4.687,4.687,0,0,1-3.769-4.6Z" transform="translate(-1.054 -0.176)" fill="#b26049"/>
      <path id="Trazado_1016984" data-name="Trazado 1016984" d="M55.649,59.122V57.473A2.465,2.465,0,0,1,57.3,55.152,2.442,2.442,0,0,0,56.473,55,2.473,2.473,0,0,0,54,57.473v1.649A2.473,2.473,0,0,0,56.473,61.6a2.442,2.442,0,0,0,.824-.152,2.465,2.465,0,0,1-1.649-2.321Z" transform="translate(-9.484 -9.659)" fill="#f4b19f"/>
      <path id="Trazado_1016985" data-name="Trazado 1016985" d="M40.824,17a.824.824,0,0,0-.824.824v.784a.824.824,0,0,0,1.649,0v-.784A.824.824,0,0,0,40.824,17Z" transform="translate(-7.025 -2.986)"/>
      <path id="Trazado_1016986" data-name="Trazado 1016986" d="M50.824,19.473a.824.824,0,0,0,.824-.824v-.824a.824.824,0,1,0-1.649,0v.824A.824.824,0,0,0,50.824,19.473Z" transform="translate(-8.781 -2.986)"/>
      <path id="Trazado_1016987" data-name="Trazado 1016987" d="M46.539,25.242a1.266,1.266,0,0,1-2.132,0,.824.824,0,1,0-1.166,1.166,2.872,2.872,0,0,0,4.463,0,.824.824,0,1,0-1.166-1.166Z" transform="translate(-7.552 -4.391)"/>
      <path id="Trazado_1016988" data-name="Trazado 1016988" d="M12.824,19.473a.824.824,0,0,0,.824-.824v-.824a.824.824,0,1,0-1.649,0v.824A.824.824,0,0,0,12.824,19.473Z" transform="translate(-2.107 -2.986)"/>
      <path id="Trazado_1016989" data-name="Trazado 1016989" d="M22.824,19.473a.824.824,0,0,0,.824-.824v-.824a.824.824,0,1,0-1.649,0v.824A.824.824,0,0,0,22.824,19.473Z" transform="translate(-3.864 -2.986)"/>
      <path id="Trazado_1016990" data-name="Trazado 1016990" d="M19.7,25.242a.824.824,0,0,0-1.166,0,1.266,1.266,0,0,1-2.132,0,.824.824,0,1,0-1.166,1.166,3.184,3.184,0,0,0,2.232,1.066A3.184,3.184,0,0,0,19.7,26.409a.824.824,0,0,0,0-1.167Z" transform="translate(-2.634 -4.391)"/>
      <path id="Trazado_1016991" data-name="Trazado 1016991" d="M47.649,28.431a7.442,7.442,0,0,0,.989-3.7V10.717a10.717,10.717,0,1,0-21.434,0V24.731a7.45,7.45,0,0,0,1,3.71,7.388,7.388,0,0,0-1.814.88,7.362,7.362,0,0,0-2.089-.975l-1.711-.492a7.443,7.443,0,0,0-2.548-3.331,8.284,8.284,0,0,0,3.043-6.386v-.117a3.282,3.282,0,0,0,0-6.361V4.936a2.473,2.473,0,0,0-2.473-2.473A2.473,2.473,0,0,0,18.136,0H11.8A7.687,7.687,0,0,0,4.122,7.678a5.5,5.5,0,0,0,1.922,4.173A3.283,3.283,0,0,0,6.6,18.019v.117a8.229,8.229,0,0,0,3.93,7.026,7.452,7.452,0,0,0-1.552,2.154L5.382,28.343A7.45,7.45,0,0,0,0,35.476V48.638A4.127,4.127,0,0,0,4.122,52.76H48.638a4.127,4.127,0,0,0,4.122-4.122V35.476A7.447,7.447,0,0,0,47.649,28.431Zm3.462,7.045v4.1h-4.1l-.528-2.644a2.446,2.446,0,0,0-.645-3.573,2.446,2.446,0,0,0,.331-1.213,9.016,9.016,0,0,0-.37-2.546l1.131.323A5.8,5.8,0,0,1,51.111,35.476ZM48.638,49.463a1.649,1.649,0,0,1-3.3,0V47.814a1.649,1.649,0,0,1,3.3,0ZM24.731,44.81V37.278a2.433,2.433,0,0,0,.241-3.406,5.744,5.744,0,0,1,3.282-3.7,9.04,9.04,0,0,0-.225,1.983,2.446,2.446,0,0,0,.33,1.213,2.446,2.446,0,0,0-.644,3.574l-1.313,6.6a.824.824,0,0,0,.809.989h1.112a7.468,7.468,0,0,0-1.964,2.427,7.455,7.455,0,0,0-1.627-2.138ZM7.419,35.448a.824.824,0,0,1,.824-.824v1.649A.824.824,0,0,1,7.419,35.448Zm2.473-.824h2.756a4.094,4.094,0,0,0,2.914-1.207l.1-.1.1.1a4.094,4.094,0,0,0,2.914,1.207h2.756V37.1a5.771,5.771,0,1,1-11.541,0Zm14.014.824a.824.824,0,0,1-.824.824V34.624A.824.824,0,0,1,23.907,35.448Zm-7.419,9.068a.824.824,0,0,1-1.649,0Zm6.546-6.6h.049v5.749a7.337,7.337,0,0,0-2.8-.775,7.411,7.411,0,0,0,2.754-4.974Zm5.819-20.243a3.27,3.27,0,0,0,.824.341v.117a8.181,8.181,0,0,0,2.833,6.205,9.126,9.126,0,0,0-3.05,2.938,5.709,5.709,0,0,1-.607-2.548ZM46.99,14.839a1.649,1.649,0,0,1-.824,1.427V13.412A1.649,1.649,0,0,1,46.99,14.839Zm0,2.839v7.053a5.688,5.688,0,0,1-1,3.215l-1.029-.294a9.121,9.121,0,0,0-2.391-2.716,8.282,8.282,0,0,0,3.6-6.8v-.117a3.269,3.269,0,0,0,.824-.341Zm-1.006,25.19H41.75a7.415,7.415,0,0,0,2.72-4.946h.046a2.514,2.514,0,0,0,.469-.047ZM37.1,34.624a.824.824,0,0,0,.583-.241l1.066-1.066,1.066,1.066a.824.824,0,0,0,.583.242h2.473V37.1a5.771,5.771,0,1,1-11.541,0V34.624Zm7.419,1.649V34.624a.824.824,0,1,1,0,1.649Zm-14.839,0a.824.824,0,1,1,0-1.649Zm-.467,1.6a2.48,2.48,0,0,0,.467.047h.049a7.415,7.415,0,0,0,2.72,4.946H28.216Zm14.481-4.9H40.736l-1.407-1.407a.824.824,0,0,0-1.166,0l-1.407,1.407H30.5a.824.824,0,0,1-.824-.824,7.419,7.419,0,1,1,14.839,0A.824.824,0,0,1,43.692,32.975Zm.824-15.663v.824a6.616,6.616,0,0,1-3.545,5.83,8.947,8.947,0,0,0-6.777-.4,6.547,6.547,0,0,1-2.868-5.429V13.19H33.8a7.456,7.456,0,0,0,5.771-2.757,7.46,7.46,0,0,0,4.946,2.71ZM29.678,16.266a1.649,1.649,0,0,1,0-2.854Zm8.244,28.251a.824.824,0,1,1-1.649,0Zm8.244,0v.117c-.04.011-.078.025-.117.036-.059-.05-.115-.1-.175-.153ZM37.921,1.649a9.079,9.079,0,0,1,9.068,9.068V12a3.264,3.264,0,0,0-1.649-.458,5.8,5.8,0,0,1-4.617-2.308l-.495-.66a.854.854,0,0,0-1.319,0l-.495.66A5.8,5.8,0,0,1,33.8,11.541H30.5A3.264,3.264,0,0,0,28.853,12V10.717a9.079,9.079,0,0,1,9.068-9.068ZM23.844,29.925a5.771,5.771,0,0,1,1.214.509,7.385,7.385,0,0,0-1.551,2.581,2.478,2.478,0,0,0-.424-.04V30.5a7.628,7.628,0,0,0-.045-.8Zm-15.6-16.92a5.488,5.488,0,0,0,1.39.185,15.731,15.731,0,0,0,8.761-2.685A4.133,4.133,0,0,0,21.434,13.1s-.02,5.621-.059,5.907l-1-.8a4.138,4.138,0,0,0-2.568-.9H11.871a4.138,4.138,0,0,0-2.565.9l-1,.791c-.041-.285-.068-5.993-.068-5.993Zm15.663,1.833a1.649,1.649,0,0,1-.824,1.427V13.412A1.649,1.649,0,0,1,23.907,14.839ZM11.8,1.649h6.336a.824.824,0,0,1,.824.824v.814a.824.824,0,0,0,.824.824h.824a.824.824,0,0,1,.824.824V11.4a2.478,2.478,0,0,1-1.649-2.332.824.824,0,0,0-.495-.721.882.882,0,0,0-.9.123,14.068,14.068,0,0,1-8.757,3.071A3.867,3.867,0,0,1,5.771,7.678,6.036,6.036,0,0,1,11.8,1.649Zm-6.03,13.19A1.649,1.649,0,0,1,6.6,13.412v2.854A1.649,1.649,0,0,1,5.771,14.839Zm3.015,5.886L10.329,19.5a2.473,2.473,0,0,1,1.542-.537h5.936a2.481,2.481,0,0,1,1.539.537l1.545,1.228a6.621,6.621,0,0,1-2.435,2.908,7.362,7.362,0,0,0-6.473.433,6.563,6.563,0,0,1-3.2-3.342Zm6.878,4.006A5.777,5.777,0,0,1,21.434,30.5v2.473H18.678a2.49,2.49,0,0,1-1.749-.724l-.683-.683a.824.824,0,0,0-1.166,0l-.683.683a2.49,2.49,0,0,1-1.749.724H9.893V30.5a5.777,5.777,0,0,1,5.771-5.771ZM1.649,48.638V35.476a5.8,5.8,0,0,1,4.185-5.551L8.365,29.2a7.386,7.386,0,0,0-.121,1.3v2.473a2.473,2.473,0,1,0,0,4.946h.049a7.419,7.419,0,0,0,2.749,4.97,7.353,7.353,0,0,0-4.354,1.771c-.031-.009-.061-.021-.093-.029V38.746a.824.824,0,0,0-1.649,0v5.888a3.3,3.3,0,0,0-2.473,3.18v1.649a3.269,3.269,0,0,0,.233,1.2,2.473,2.473,0,0,1-1.058-2.022Zm2.473.824V47.814a1.649,1.649,0,0,1,3.3,0v1.649a1.649,1.649,0,0,1-3.3,0Zm21.4,1.649H8.61a3.264,3.264,0,0,0,.458-1.649V47.814a3.274,3.274,0,0,0-.885-2.232,5.723,5.723,0,0,1,3.325-1.066H13.19a2.473,2.473,0,1,0,4.946,0h1.615a5.787,5.787,0,0,1,5.771,5.79Zm1.683-.824a5.777,5.777,0,0,1,5.771-5.771h1.649a2.473,2.473,0,1,0,4.946,0h1.649A5.737,5.737,0,0,1,44.568,45.6a3.276,3.276,0,0,0-.876,2.219v1.649a3.264,3.264,0,0,0,.458,1.649H27.2Zm23.907-1.649a2.473,2.473,0,0,1-1.058,2.022,3.27,3.27,0,0,0,.233-1.2V47.814a3.3,3.3,0,0,0-2.473-3.18v-3.4h3.3Z"/>
      <path id="Trazado_1016992" data-name="Trazado 1016992" d="M14.824,45.316a.824.824,0,0,0,.824-.824v-.667a.824.824,0,0,0-1.649,0v.667A.824.824,0,0,0,14.824,45.316Z" transform="translate(-2.459 -7.552)"/>
      <path id="Trazado_1016993" data-name="Trazado 1016993" d="M22.824,45.316a.824.824,0,0,0,.824-.824v-.667a.824.824,0,1,0-1.649,0v.667A.824.824,0,0,0,22.824,45.316Z" transform="translate(-3.864 -7.552)"/>
      <path id="Trazado_1016994" data-name="Trazado 1016994" d="M16.242,49.408a3.184,3.184,0,0,0,2.232,1.066A3.184,3.184,0,0,0,20.7,49.409a.824.824,0,1,0-1.166-1.166,1.266,1.266,0,0,1-2.132,0,.824.824,0,1,0-1.166,1.166Z" transform="translate(-2.81 -8.43)"/>
      <path id="Trazado_1016995" data-name="Trazado 1016995" d="M40.824,45.316a.824.824,0,0,0,.824-.824v-.667a.824.824,0,1,0-1.649,0v.667A.824.824,0,0,0,40.824,45.316Z" transform="translate(-7.025 -7.552)"/>
      <path id="Trazado_1016996" data-name="Trazado 1016996" d="M48.824,45.316a.824.824,0,0,0,.824-.824v-.667a.824.824,0,1,0-1.649,0v.667A.824.824,0,0,0,48.824,45.316Z" transform="translate(-8.43 -7.552)"/>
      <path id="Trazado_1016997" data-name="Trazado 1016997" d="M42.242,49.407a2.872,2.872,0,0,0,4.463,0,.824.824,0,1,0-1.166-1.166,1.266,1.266,0,0,1-2.132,0,.824.824,0,1,0-1.166,1.166Z" transform="translate(-7.376 -8.43)"/>
    </g>
  </g>
</svg>
