<svg xmlns="http://www.w3.org/2000/svg" xmlns:xlink="http://www.w3.org/1999/xlink" width="110" height="110" viewBox="0 0 110 110">
  <defs>
    <filter id="Trazado_982547" x="0" y="0" width="110" height="110" filterUnits="userSpaceOnUse">
      <feOffset dy="3" input="SourceAlpha"/>
      <feGaussianBlur stdDeviation="3" result="blur"/>
      <feFlood flood-opacity="0.161"/>
      <feComposite operator="in" in2="blur"/>
      <feComposite in="SourceGraphic"/>
    </filter>
  </defs>
  <g id="Grupo_1171270" data-name="Grupo 1171270" transform="translate(-690.228 -2486)">
    <g id="Grupo_1171059" data-name="Grupo 1171059" transform="translate(-1 320)">
      <g id="Grupo_1162553" data-name="Grupo 1162553" transform="translate(700.229 2172)">
        <g id="Grupo_1162412" data-name="Grupo 1162412" transform="translate(0 0)">
          <g id="Grupo_1158638" data-name="Grupo 1158638" transform="translate(0 0)">
            <g id="Grupo_1155734" data-name="Grupo 1155734">
              <g id="Grupo_1154704" data-name="Grupo 1154704">
                <g id="Grupo_1150790" data-name="Grupo 1150790" transform="translate(0 0)">
                  <g id="Grupo_1154214" data-name="Grupo 1154214" transform="translate(0)">
                    <g id="Grupo_1152583" data-name="Grupo 1152583">
                      <g id="Grupo_1146973" data-name="Grupo 1146973">
                        <g id="Grupo_1146954" data-name="Grupo 1146954">
                          <g transform="matrix(1, 0, 0, 1, -9, -6)" filter="url(#Trazado_982547)">
                            <g id="Trazado_982547-2" data-name="Trazado 982547" transform="translate(9 6)" fill="#ebe9f0">
                              <path d="M 46.00000381469727 90.49986267089844 C 39.99188232421875 90.49986267089844 34.16427230834961 89.32350158691406 28.67905807495117 87.00344848632812 C 23.38020324707031 84.76223754882812 18.62104415893555 81.55341339111328 14.53375053405762 77.46613311767578 C 10.44647026062012 73.37885284423828 7.237643718719482 68.61968994140625 4.996417045593262 63.32085037231445 C 2.676363706588745 57.83565139770508 1.500003814697266 52.00805282592773 1.500003814697266 45.99993133544922 C 1.500003814697266 39.99182510375977 2.676363706588745 34.16422653198242 4.996417045593262 28.67901039123535 C 7.237643718719482 23.38017082214355 10.44647026062012 18.62101173400879 14.53375053405762 14.53373146057129 C 18.62104415893555 10.44645118713379 23.38020324707031 7.237624645233154 28.67905807495117 4.996411323547363 C 34.16427230834961 2.676357984542847 39.99188232421875 1.499997973442078 46.00000381469727 1.499997973442078 C 52.00812530517578 1.499997973442078 57.83573532104492 2.676357984542847 63.32094955444336 4.996411323547363 C 68.61980438232422 7.237624645233154 73.37896728515625 10.44645118713379 77.46625518798828 14.53373146057129 C 81.55353546142578 18.62101173400879 84.76236724853516 23.38017082214355 87.00359344482422 28.67901039123535 C 89.32364654541016 34.16422653198242 90.5 39.99182510375977 90.5 45.99993133544922 C 90.5 52.00805282592773 89.32364654541016 57.83565139770508 87.00359344482422 63.32085037231445 C 84.76236724853516 68.61968994140625 81.55353546142578 73.37885284423828 77.46625518798828 77.46613311767578 C 73.37896728515625 81.55341339111328 68.61980438232422 84.76223754882812 63.32094955444336 87.00344848632812 C 57.83573532104492 89.32350158691406 52.00812530517578 90.49986267089844 46.00000381469727 90.49986267089844 Z" stroke="none"/>
                              <path d="M 46.00000381469727 3 C 40.19371795654297 3 34.56270217895508 4.136505126953125 29.26337432861328 6.377914428710938 C 24.14333343505859 8.54351806640625 19.54441833496094 11.64438629150391 15.59440612792969 15.59439086914062 C 11.64440155029297 19.54440307617188 8.54351806640625 24.14330291748047 6.377914428710938 29.26334381103516 C 4.136505126953125 34.56266021728516 3.000007629394531 40.19366073608398 3.000007629394531 45.99993133544922 C 3.000007629394531 51.80620193481445 4.136505126953125 57.43720245361328 6.377914428710938 62.73651885986328 C 8.54351806640625 67.85655975341797 11.64440155029297 72.45545959472656 15.59440612792969 76.40547180175781 C 19.54441833496094 80.35547637939453 24.14333343505859 83.45634460449219 29.26337432861328 85.6219482421875 C 34.56270217895508 87.86335754394531 40.19371795654297 88.99986267089844 46.00000381469727 88.99986267089844 C 51.80628967285156 88.99986267089844 57.43730545043945 87.86335754394531 62.73661804199219 85.6219482421875 C 67.85667419433594 83.45634460449219 72.45557403564453 80.35547637939453 76.40558624267578 76.40547180175781 C 80.35560607910156 72.45545959472656 83.45647430419922 67.85655975341797 85.62207794189453 62.73651885986328 C 87.86350250244141 57.43720245361328 89 51.80620193481445 89 45.99993133544922 C 89 40.19366073608398 87.86350250244141 34.56266021728516 85.62207794189453 29.26334381103516 C 83.45647430419922 24.14330291748047 80.35560607910156 19.54440307617188 76.40558624267578 15.59439086914062 C 72.45557403564453 11.64438629150391 67.85667419433594 8.54351806640625 62.73661804199219 6.377914428710938 C 57.43730545043945 4.136505126953125 51.80628967285156 3 46.00000381469727 3 M 46.00000381469727 0 C 71.40509033203125 0 92 20.59487152099609 92 45.99993133544922 C 92 71.40499114990234 71.40509033203125 91.99986267089844 46.00000381469727 91.99986267089844 C 20.59490203857422 91.99986267089844 7.62939453125e-06 71.40499114990234 7.62939453125e-06 45.99993133544922 C 7.62939453125e-06 20.59487152099609 20.59490203857422 0 46.00000381469727 0 Z" stroke="none" fill="#453179"/>
                            </g>
                          </g>
                        </g>
                      </g>
                    </g>
                  </g>
                </g>
              </g>
            </g>
          </g>
        </g>
      </g>
    </g>
    <g id="verduras_1_" data-name="verduras (1)" transform="translate(714.229 2485.648)">
      <path id="Trazado_1017013" data-name="Trazado 1017013" d="M422.249,278.237a7.455,7.455,0,0,1-1.85.234h-.014l-1.8-.146a6.536,6.536,0,0,1-.959,2.787,7.147,7.147,0,0,1,.346,3.263H424.8a6.635,6.635,0,0,0,.061-.886A6.568,6.568,0,0,0,422.249,278.237Z" transform="translate(-366.984 -223.101)" fill="#c53287"/>
      <g id="Grupo_1171246" data-name="Grupo 1171246" transform="translate(2.62 31.722)">
        <g id="Grupo_1171245" data-name="Grupo 1171245" transform="translate(0 0)">
          <path id="Trazado_1017014" data-name="Trazado 1017014" d="M31.946,97.754l-.3-1.629a6.891,6.891,0,0,1,1.66-5.872c.1-.113.209-.22.319-.324l-1.039-1.8a.156.156,0,0,1-.1-.1c-.015-.051-.032-.1-.048-.151l-1.281-2.218a5.294,5.294,0,0,0-.512-.488.163.163,0,0,0-.206,0,5.87,5.87,0,0,0-1.807,2.742.161.161,0,0,1-.264.07,7.694,7.694,0,0,0-5.892-2.12.163.163,0,0,0-.145.145,7.693,7.693,0,0,0,2.12,5.892.161.161,0,0,1-.07.264,5.87,5.87,0,0,0-2.742,1.807.163.163,0,0,0,0,.206,5.889,5.889,0,0,0,2.857,1.84.159.159,0,0,1,.044.285,6.855,6.855,0,0,0-1.468,1.328.163.163,0,0,0,0,.206,7.422,7.422,0,0,0,4.008,2.436A6.566,6.566,0,0,1,31.946,97.754Z" transform="translate(-21.606 -85.133)" fill="#00c285"/>
        </g>
        <path id="Trazado_1017015" data-name="Trazado 1017015" d="M28.9,103.73a10.34,10.34,0,0,1-1.868-2.819,9.492,9.492,0,0,1,.284-8.708,7.474,7.474,0,0,0-4.831-1.286.163.163,0,0,0-.145.145,7.693,7.693,0,0,0,2.12,5.892.161.161,0,0,1-.07.264,5.87,5.87,0,0,0-2.742,1.807.163.163,0,0,0,0,.206,5.889,5.889,0,0,0,2.857,1.84.159.159,0,0,1,.044.285,6.855,6.855,0,0,0-1.468,1.328.163.163,0,0,0,0,.206,7.421,7.421,0,0,0,4.007,2.436A6.613,6.613,0,0,1,28.9,103.73Z" transform="translate(-21.606 -90.188)" fill="#07b27b"/>
      </g>
      <g id="Grupo_1171249" data-name="Grupo 1171249" transform="translate(48.91 41.836)">
        <g id="Grupo_1171247" data-name="Grupo 1171247" transform="translate(0 0)">
          <path id="Trazado_1017016" data-name="Trazado 1017016" d="M414.423,176.323a5.165,5.165,0,0,0-2.414-1.59.142.142,0,0,1-.062-.232,6.772,6.772,0,0,0,1.866-5.186.144.144,0,0,0-.128-.128,6.772,6.772,0,0,0-5.186,1.866.142.142,0,0,1-.232-.062,5.165,5.165,0,0,0-1.59-2.414.143.143,0,0,0-.182,0,5.184,5.184,0,0,0-1.62,2.514.14.14,0,0,1-.251.039,6.037,6.037,0,0,0-1.169-1.292.14.14,0,0,0-.078-.03,6.577,6.577,0,0,1,.727,6.716,6.558,6.558,0,0,1,1.995,4.717,6.666,6.666,0,0,1-.036.691l1.8.146h.014a6.816,6.816,0,0,0,5.278-2.354.143.143,0,0,0,0-.181,6.033,6.033,0,0,0-1.292-1.169.14.14,0,0,1,.039-.25,5.184,5.184,0,0,0,2.514-1.62A.143.143,0,0,0,414.423,176.323Z" transform="translate(-403.379 -168.545)" fill="#0ed290"/>
        </g>
        <g id="Grupo_1171248" data-name="Grupo 1171248" transform="translate(0 0)">
          <path id="Trazado_1017017" data-name="Trazado 1017017" d="M407.334,175.633a11.4,11.4,0,0,1,.941-4.626.142.142,0,0,1-.007-.016,5.165,5.165,0,0,0-1.59-2.414.143.143,0,0,0-.182,0,5.184,5.184,0,0,0-1.62,2.514.14.14,0,0,1-.251.039,6.037,6.037,0,0,0-1.169-1.292.14.14,0,0,0-.078-.03,6.577,6.577,0,0,1,.727,6.716,6.558,6.558,0,0,1,1.995,4.717,6.666,6.666,0,0,1-.036.691l1.8.146h.014a7.51,7.51,0,0,0,1.384-.131A10.509,10.509,0,0,1,407.334,175.633Z" transform="translate(-403.379 -168.545)" fill="#00c285"/>
        </g>
      </g>
      <path id="Trazado_1017018" data-name="Trazado 1017018" d="M339.714,160.3a5.1,5.1,0,0,1-1.326,3.438,5.115,5.115,0,0,1,1.072,1.846A6.574,6.574,0,0,1,347,166.747a6.58,6.58,0,0,0-7.975-9.019A5.1,5.1,0,0,1,339.714,160.3Z" transform="translate(-297.358 -116.93)" fill="#98246a"/>
      <g id="Grupo_1171250" data-name="Grupo 1171250" transform="translate(6.699 44.344)">
        <path id="Trazado_1017019" data-name="Trazado 1017019" d="M60,195.537h2.667l-1.155-6.308a6.584,6.584,0,0,0-6.053,8.217A6.338,6.338,0,0,1,60,195.537Z" transform="translate(-55.247 -189.229)" fill="#fedf30"/>
      </g>
      <path id="Trazado_1017020" data-name="Trazado 1017020" d="M347.485,221.295c0,.08,0,.159-.006.238l.17.251a7.4,7.4,0,0,0,3.667,2.8,7.322,7.322,0,0,1,4.449,4.472,6.578,6.578,0,0,0-8.535-9.357A5.106,5.106,0,0,1,347.485,221.295Z" transform="translate(-305.129 -171.05)" fill="#e03d9c"/>
      <g id="Grupo_1171253" data-name="Grupo 1171253" transform="translate(24.906 32.544)">
        <g id="Grupo_1171251" data-name="Grupo 1171251" transform="translate(0 0)">
          <path id="Trazado_1017021" data-name="Trazado 1017021" d="M222.858,102.737a5.12,5.12,0,0,0-4.645-5.1,5.12,5.12,0,1,0-10.166,0,5.087,5.087,0,0,0-1.534.389,6.868,6.868,0,0,1,.482,4.054l-1.587,8.667a6.389,6.389,0,0,1,2.016,1.664.24.24,0,0,1,0,.3,6.4,6.4,0,0,1-.759.8l.011-.009a8.863,8.863,0,0,1,2.5,6.177,8.985,8.985,0,0,1-.053.965h4.057a7.236,7.236,0,0,1,4.8-7.736,7.4,7.4,0,0,0,3.667-2.8l.4-.586a.355.355,0,0,1,.587,0l.227.335c0-.079.006-.159.006-.239a5.1,5.1,0,0,0-1.326-3.438,5.1,5.1,0,0,0,1.326-3.438Z" transform="translate(-205.408 -91.912)" fill="#a2e62e"/>
        </g>
        <g id="Grupo_1171252" data-name="Grupo 1171252" transform="translate(0 0)">
          <path id="Trazado_1017022" data-name="Trazado 1017022" d="M216.2,92.937a5.12,5.12,0,0,0-8.192,4.1,5.165,5.165,0,0,0,.037.608,5.087,5.087,0,0,0-1.534.389,6.868,6.868,0,0,1,.482,4.054l-1.587,8.667a6.389,6.389,0,0,1,2.016,1.664.24.24,0,0,1,0,.3,6.4,6.4,0,0,1-.759.8l.011-.009a8.863,8.863,0,0,1,2.5,6.177,8.993,8.993,0,0,1-.053.965h2.552a5.119,5.119,0,0,1-1.1-7.231.6.6,0,0,0,0-.72,5.121,5.121,0,0,1,0-6.155.6.6,0,0,0,0-.72,5.12,5.12,0,0,1,3.088-8.1.609.609,0,0,0,.493-.608c0-.026,0-.051,0-.077A5.112,5.112,0,0,1,216.2,92.937Z" transform="translate(-205.409 -91.913)" fill="#97d729"/>
        </g>
      </g>
      <g id="Grupo_1171258" data-name="Grupo 1171258" transform="translate(9.725 25.262)">
        <g id="Grupo_1171255" data-name="Grupo 1171255" transform="translate(0 0)">
          <g id="Grupo_1171254" data-name="Grupo 1171254" transform="translate(0 1.16)">
            <path id="Trazado_1017023" data-name="Trazado 1017023" d="M87.336,50.235l-.127-.819L82.756,41.7a.572.572,0,0,0-.781-.209l-1.485.857a.571.571,0,0,0-.209.781l4.839,8.382A5.634,5.634,0,0,1,87.336,50.235Z" transform="translate(-80.205 -41.418)" fill="#a2e62e"/>
            <path id="Trazado_1017024" data-name="Trazado 1017024" d="M187.8,42.352l-1.485-.857a.572.572,0,0,0-.781.209l-4.453,7.712-.112.723A5.685,5.685,0,0,1,183.3,51.3l4.714-8.165A.572.572,0,0,0,187.8,42.352Z" transform="translate(-168.752 -41.418)" fill="#a2e62e"/>
          </g>
          <path id="Trazado_1017025" data-name="Trazado 1017025" d="M128.761,41.83a5.935,5.935,0,0,1,1.736-.26h1.969a5.951,5.951,0,0,1,1.381.164l1.393-8.962a.567.567,0,0,0-.473-.648l-1.7-.265a.567.567,0,0,0-.648.473l-1,6.464a.117.117,0,0,1-.232,0l-1.005-6.464a.567.567,0,0,0-.648-.473l-1.7.265a.567.567,0,0,0-.473.648Z" transform="translate(-121.63 -31.853)" fill="#97d729"/>
        </g>
        <g id="Grupo_1171256" data-name="Grupo 1171256" transform="translate(2.821 9.717)">
          <path id="Trazado_1017026" data-name="Trazado 1017026" d="M105.039,127.667h7.835a6.328,6.328,0,0,1,2.957.731l1.587-8.667a6.891,6.891,0,0,0-1.66-5.872,5.729,5.729,0,0,0-4.271-1.863h-1.969a5.729,5.729,0,0,0-4.271,1.863,6.891,6.891,0,0,0-1.66,5.872Z" transform="translate(-103.471 -111.995)" fill="#fe9901"/>
        </g>
        <g id="Grupo_1171257" data-name="Grupo 1171257" transform="translate(2.821 9.717)">
          <path id="Trazado_1017027" data-name="Trazado 1017027" d="M105.039,127.668H110.2l-1.453-7.937a6.891,6.891,0,0,1,1.66-5.872,5.608,5.608,0,0,1,2.677-1.644,5.944,5.944,0,0,0-1.594-.219h-1.969a5.729,5.729,0,0,0-4.271,1.863,6.891,6.891,0,0,0-1.66,5.872Z" transform="translate(-103.471 -111.996)" fill="#fb8801"/>
        </g>
      </g>
      <g id="Grupo_1171260" data-name="Grupo 1171260" transform="translate(32.619 49.994)">
        <g id="Grupo_1171259" data-name="Grupo 1171259">
          <path id="Trazado_1017028" data-name="Trazado 1017028" d="M287.386,247.1a7.236,7.236,0,0,0-4.8-7.736,7.4,7.4,0,0,1-3.667-2.8l-.4-.586a.355.355,0,0,0-.587,0l-.4.586a7.4,7.4,0,0,1-3.667,2.8,7.236,7.236,0,0,0-4.8,7.736Z" transform="translate(-269.022 -235.824)" fill="#fe9901"/>
          <path id="Trazado_1017029" data-name="Trazado 1017029" d="M310.583,247.1c.021-.291.034-.587.034-.888,0-3.15-1.214-5.849-2.9-6.848a5.64,5.64,0,0,1-2.19-2.8l-.238-.586c-.084-.207-.267-.207-.351,0l-.238.586a5.64,5.64,0,0,1-2.19,2.8c-1.684,1-2.9,3.7-2.9,6.848,0,.3.012.6.034.888Z" transform="translate(-295.905 -235.824)" fill="#fb8801"/>
          <path id="Trazado_1017030" data-name="Trazado 1017030" d="M333.473,247.105q.011-.437.011-.888c0-3.15-.406-5.849-.97-6.848a8.684,8.684,0,0,1-.733-2.8l-.079-.586c-.028-.207-.089-.207-.117,0l-.079.586a8.684,8.684,0,0,1-.733,2.8c-.563,1-.97,3.7-.97,6.848q0,.451.011.888Z" transform="translate(-322.434 -235.825)" fill="#fe9901"/>
        </g>
      </g>
      <g id="Grupo_1171264" data-name="Grupo 1171264" transform="translate(4.725 50.651)">
        <path id="Trazado_1017031" data-name="Trazado 1017031" d="M60.418,269.953a6.355,6.355,0,0,1-6.947.994.24.24,0,0,0-.33.138,6.371,6.371,0,0,1-2.049,2.9.241.241,0,0,1-.3,0,6.37,6.37,0,0,1-2.049-2.9.24.24,0,0,0-.33-.138,6.355,6.355,0,0,1-6.947-.994,8.862,8.862,0,0,0-2.5,6.177,8.989,8.989,0,0,0,.053.965H62.863a8.987,8.987,0,0,0,.053-.965,8.863,8.863,0,0,0-2.5-6.177Z" transform="translate(-38.969 -266.473)" fill="#fb2b3a"/>
        <path id="Trazado_1017032" data-name="Trazado 1017032" d="M45.336,271.55a6.331,6.331,0,0,1-3.869-1.6,8.862,8.862,0,0,0-2.5,6.177,8.991,8.991,0,0,0,.053.965h5.1a8.991,8.991,0,0,1-.053-.965A8.847,8.847,0,0,1,45.336,271.55Z" transform="translate(-38.969 -266.473)" fill="#e41f2d"/>
        <g id="Grupo_1171261" data-name="Grupo 1171261" transform="translate(1.699 0)">
          <path id="Trazado_1017033" data-name="Trazado 1017033" d="M68.5,241.25H58a6.348,6.348,0,0,0-4.972,2.395.24.24,0,0,0,0,.3,6.357,6.357,0,0,0,7.7,1.782.24.24,0,0,1,.33.138,6.371,6.371,0,0,0,2.049,2.9.24.24,0,0,0,.3,0,6.37,6.37,0,0,0,2.049-2.9.24.24,0,0,1,.33-.138,6.357,6.357,0,0,0,7.7-1.782.24.24,0,0,0,0-.3A6.347,6.347,0,0,0,68.5,241.25Z" transform="translate(-52.978 -241.25)" fill="#00c285"/>
        </g>
        <g id="Grupo_1171263" data-name="Grupo 1171263" transform="translate(1.699 0)">
          <g id="Grupo_1171262" data-name="Grupo 1171262">
            <path id="Trazado_1017034" data-name="Trazado 1017034" d="M58,243.942a.24.24,0,0,1,0-.3,6.347,6.347,0,0,1,4.972-2.395H58a6.348,6.348,0,0,0-4.972,2.395.24.24,0,0,0,0,.3,6.352,6.352,0,0,0,7.455,1.888A6.378,6.378,0,0,1,58,243.942Z" transform="translate(-52.978 -241.249)" fill="#07b27b"/>
          </g>
        </g>
      </g>
      <g id="Grupo_1171265" data-name="Grupo 1171265" transform="translate(2.488 61.274)">
        <path id="Trazado_1017035" data-name="Trazado 1017035" d="M77.626,335.052v-5.589a.606.606,0,0,0-.606-.606H21.128a.606.606,0,0,0-.606.606v5.589Z" transform="translate(-20.522 -328.856)" fill="#f6a96c"/>
        <path id="Trazado_1017036" data-name="Trazado 1017036" d="M20.522,429.051v5.589a.606.606,0,0,0,.606.606H77.02a.606.606,0,0,0,.606-.606v-5.589Z" transform="translate(-20.522 -416.902)" fill="#f6a96c"/>
      </g>
      <g id="Grupo_1171266" data-name="Grupo 1171266" transform="translate(2.488 61.274)">
        <path id="Trazado_1017037" data-name="Trazado 1017037" d="M28.219,434.64v-5.589h-7.7v5.589a.606.606,0,0,0,.606.606h7.7A.606.606,0,0,1,28.219,434.64Z" transform="translate(-20.522 -416.902)" fill="#ea9b58"/>
        <path id="Trazado_1017038" data-name="Trazado 1017038" d="M28.219,335.052v-5.589a.606.606,0,0,1,.606-.606h-7.7a.606.606,0,0,0-.606.606v5.589Z" transform="translate(-20.522 -328.856)" fill="#ea9b58"/>
      </g>
      <g id="Grupo_1171267" data-name="Grupo 1171267" transform="translate(0.909 67.348)">
        <path id="Trazado_1017039" data-name="Trazado 1017039" d="M67.4,385.148H7.864a.364.364,0,0,1-.364-.364v-5.468a.364.364,0,0,1,.364-.364H67.4a.364.364,0,0,1,.364.364v5.468A.364.364,0,0,1,67.4,385.148Z" transform="translate(-7.5 -378.952)" fill="#ffbd86"/>
      </g>
      <g id="Grupo_1171268" data-name="Grupo 1171268" transform="translate(0.909 67.348)">
        <path id="Trazado_1017040" data-name="Trazado 1017040" d="M15.321,384.784v-5.468a.364.364,0,0,1,.364-.364H7.864a.364.364,0,0,0-.364.364v5.468a.364.364,0,0,0,.364.364h7.821A.364.364,0,0,1,15.321,384.784Z" transform="translate(-7.5 -378.952)" fill="#f6a96c"/>
      </g>
      <g id="Grupo_1171269" data-name="Grupo 1171269" transform="translate(0 24.352)">
        <path id="Trazado_1017041" data-name="Trazado 1017041" d="M60.808,66.439H60.5V61.88a1.517,1.517,0,0,0-1.516-1.516h-.2a7.45,7.45,0,0,0-1.84-4.883A7.137,7.137,0,0,0,59.4,53.593a1.054,1.054,0,0,0,0-1.335q-.209-.254-.445-.49a5.825,5.825,0,0,0,1.7-1.392,1.053,1.053,0,0,0,0-1.342,5.86,5.86,0,0,0-1.829-1.459,7.483,7.483,0,0,0,1.424-5.059,1.055,1.055,0,0,0-.943-.943A7.485,7.485,0,0,0,54.249,43a5.863,5.863,0,0,0-1.46-1.829,1.053,1.053,0,0,0-1.342,0,5.822,5.822,0,0,0-1.392,1.7q-.235-.236-.49-.445c-.022-.018-.046-.031-.068-.047a7.476,7.476,0,0,0-7.428-2.631,5.984,5.984,0,0,0-3.414-2.241,6.029,6.029,0,0,0-12.055,0c-.047.011-.093.024-.14.037a7.925,7.925,0,0,0-.952-1.31c-.031-.034-.063-.066-.095-.1l.78-1.352a.909.909,0,0,0-1.575-.909l-.644,1.115a6.612,6.612,0,0,0-.937-.454l4.088-7.08.9.519L26.742,30.2a.909.909,0,0,0,1.575.909l1.453-2.517a1.483,1.483,0,0,0-.542-2.023l-1.485-.857a1.481,1.481,0,0,0-2.023.542l-2.019,3.5.533-3.428A1.479,1.479,0,0,0,23,24.635l-1.7-.265A1.478,1.478,0,0,0,19.614,25.6l-.222,1.43L19.17,25.6a1.479,1.479,0,0,0-1.686-1.232l-1.7.265a1.477,1.477,0,0,0-1.232,1.686l.533,3.428-2.018-3.5a1.481,1.481,0,0,0-2.023-.542l-1.485.857a1.483,1.483,0,0,0-.542,2.023l1.573,2.725a6.621,6.621,0,0,0-1.4,1.911A8.4,8.4,0,0,0,3.4,31.546a1.074,1.074,0,0,0-.96.961,8.4,8.4,0,0,0,1.681,5.78,6.559,6.559,0,0,0-2.168,1.692,1.072,1.072,0,0,0,0,1.367A6.517,6.517,0,0,0,4,42.976a7.468,7.468,0,0,0-.618.666,1.075,1.075,0,0,0,0,1.358,8.105,8.105,0,0,0,3.3,2.361A7.457,7.457,0,0,0,5.919,52.3c-.052.061-.1.12-.154.182a1.143,1.143,0,0,0,0,1.432c.071.089.145.174.219.259a9.752,9.752,0,0,0-2.168,6.139c0,.019,0,.037,0,.055H3.095A1.517,1.517,0,0,0,1.579,61.88v4.559H1.273A1.275,1.275,0,0,0,0,67.712V73.18a1.275,1.275,0,0,0,1.273,1.273h.306v4.559a1.517,1.517,0,0,0,1.516,1.516H48.379a.909.909,0,0,0,0-1.819H3.4V74.453H58.683v4.256h-6.06a.909.909,0,0,0,0,1.819h6.363A1.517,1.517,0,0,0,60.5,79.012V74.453h.306a1.275,1.275,0,0,0,1.273-1.273V67.712a1.274,1.274,0,0,0-1.273-1.273Zm-3.836-6.074H51.949a8.109,8.109,0,0,0-.324-2.248,7.438,7.438,0,0,0,.729-1.919l.978.079c.028,0,.055,0,.084,0a8.354,8.354,0,0,0,1.612-.161A5.654,5.654,0,0,1,56.972,60.364Zm-6.065-15.19a1.05,1.05,0,0,0,.371-.531,4.5,4.5,0,0,1,.841-1.586,4.425,4.425,0,0,1,.814,1.5,1.051,1.051,0,0,0,1.716.453,6.079,6.079,0,0,1,3.81-1.648,6.079,6.079,0,0,1-1.648,3.81,1.051,1.051,0,0,0,.453,1.716,4.424,4.424,0,0,1,1.5.814,4.5,4.5,0,0,1-1.586.841,1.05,1.05,0,0,0-.287,1.875,5.324,5.324,0,0,1,.639.506,6.082,6.082,0,0,1-4.088,1.535l-.906-.073a7.44,7.44,0,0,0-.73-3.086l2.144-2.144a.909.909,0,0,0-1.286-1.286L50.8,49.738c-.033-.039-.067-.078-.1-.117a7.474,7.474,0,0,0,.209-4.447Zm-.185,9.358a5.655,5.655,0,0,1-.156,1.319,8.2,8.2,0,0,0-4.075-3.171,6.457,6.457,0,0,1-3.218-2.457l-.008-.012a6.041,6.041,0,0,0-.093-1.024,5.663,5.663,0,0,1,7.551,5.345Zm-.593,5.831H48.239a11.068,11.068,0,0,0-1.364-5.518A6.369,6.369,0,0,1,50.13,60.364Zm-3.71,0H44.579a25.159,25.159,0,0,0-.627-6.054l.016.01C45.409,55.175,46.415,57.658,46.421,60.364ZM42.954,41.442a5.662,5.662,0,0,1,6.24,6.856,7.46,7.46,0,0,0-6.608-.832,6.018,6.018,0,0,0-.4-.658,6.016,6.016,0,0,0,1.076-3.438A6.085,6.085,0,0,0,42.954,41.442Zm-1.2,12.543q.04-.071.079-.149c.026.052.052.1.079.149.423.75.85,3.18.852,6.38H40.9c0-3.2.43-5.63.852-6.38ZM26.047,50.2a.9.9,0,0,0,.083-.378c0-.02,0-.039,0-.059l1.261-6.886a7.81,7.81,0,0,0-.191-3.636,4.292,4.292,0,0,1,.432-.065.909.909,0,0,0,.82-1.012,4.211,4.211,0,1,1,8.36,0,.909.909,0,0,0,.82,1.013A4.21,4.21,0,0,1,40.356,46.2a.909.909,0,0,0,0,1.221,4.2,4.2,0,0,1,.957,1.779,1.261,1.261,0,0,0-.53.441l-.4.586a6.458,6.458,0,0,1-3.218,2.457,8.191,8.191,0,0,0-3.631,2.568V53.454l3.569-3.9a.909.909,0,1,0-1.342-1.228L33.537,50.76V47.746L37.1,43.9a.909.909,0,1,0-1.334-1.237L33.537,45.07V40.78a.909.909,0,1,0-1.819,0V45.07l-2.231-2.406A.909.909,0,1,0,28.154,43.9l3.565,3.845V50.76l-2.227-2.433a.909.909,0,1,0-1.342,1.228l3.569,3.9v2.959l-1.079-1.2a.909.909,0,1,0-1.353,1.215l2.432,2.707v.893c0,.112-.008.224-.008.336H29.58c0-.019,0-.037,0-.055a9.751,9.751,0,0,0-2.168-6.139c.074-.085.148-.17.219-.259a1.143,1.143,0,0,0,0-1.432,7.3,7.3,0,0,0-1.717-1.56Zm13.66,4.109a25.164,25.164,0,0,0-.627,6.054H37.238c.005-2.706,1.012-5.19,2.452-6.044Zm-2.923.536a11.065,11.065,0,0,0-1.364,5.518H33.529A6.369,6.369,0,0,1,36.784,54.846ZM11.448,51.561h10.5A5.421,5.421,0,0,1,25.841,53.2,5.448,5.448,0,0,1,19.617,54.3a1.15,1.15,0,0,0-1.58.664A5.442,5.442,0,0,1,16.7,57.086a5.444,5.444,0,0,1-1.338-2.118,1.15,1.15,0,0,0-1.58-.664A5.448,5.448,0,0,1,7.556,53.2a5.421,5.421,0,0,1,3.892-1.634ZM7.61,50.835a5.676,5.676,0,0,1,4.609-5.488l.8,4.395H11.448A7.239,7.239,0,0,0,7.61,50.835ZM24.156,37.45A5.967,5.967,0,0,1,25.7,41.4H21.583a.909.909,0,0,0,0,1.819h3.894l-.355,1.94H22.189a.909.909,0,1,0,0,1.819h2.6l-.355,1.94H22.8a.909.909,0,0,0-.905.828H17.608V48.415a.909.909,0,0,0-1.819,0v1.327h-.917l-1.317-7.191A5.972,5.972,0,0,1,15,37.45a4.819,4.819,0,0,1,3.594-1.561h1.969a4.819,4.819,0,0,1,3.594,1.561ZM17.425,26.22l.953,6.126a1.027,1.027,0,0,0,2.029,0l.952-6.126,1.026.159-1.2,7.72c-.206-.019-.414-.03-.623-.03H18.592a6.883,6.883,0,0,0-.986.072L16.4,26.379Zm-5.767,1.235,4.16,7.2a6.568,6.568,0,0,0-.912.5l-4.147-7.183ZM5.23,44.321a6.139,6.139,0,0,1,.837-.678,1.069,1.069,0,0,0-.293-1.909,5.2,5.2,0,0,1-1.956-1.074,5.109,5.109,0,0,1,1.857-1.043,1.07,1.07,0,0,0,.461-1.748,7,7,0,0,1-1.909-4.54,7,7,0,0,1,4.54,1.909,1.07,1.07,0,0,0,1.748-.461,5.12,5.12,0,0,1,1.016-1.826l1.983,3.435a7.8,7.8,0,0,0-1.669,3.275l-1-1a.909.909,0,0,0-1.286,1.286l2.1,2.1a7.987,7.987,0,0,0,.106.829l.125.681a7.485,7.485,0,0,0-4.1,2.269A6.558,6.558,0,0,1,5.23,44.321ZM7.345,55.38a7.274,7.274,0,0,0,6.56.841,7.268,7.268,0,0,0,2.077,2.657,1.143,1.143,0,0,0,1.434,0,7.267,7.267,0,0,0,2.077-2.657,7.273,7.273,0,0,0,6.56-.841,7.942,7.942,0,0,1,1.71,4.929c0,.019,0,.037,0,.055H5.635c0-.018,0-.037,0-.055a7.942,7.942,0,0,1,1.71-4.929ZM60.262,72.634H1.819V68.257H14.671a.909.909,0,0,0,0-1.819H3.4V62.183H58.683v4.256H18.915a.909.909,0,1,0,0,1.819H60.262Z" transform="translate(0 -24.352)"/>
        <circle id="Elipse_11985" data-name="Elipse 11985" cx="0.909" cy="0.909" r="0.909" transform="translate(5.032 39.243)"/>
        <circle id="Elipse_11986" data-name="Elipse 11986" cx="0.909" cy="0.909" r="0.909" transform="translate(55.23 39.243)"/>
        <circle id="Elipse_11987" data-name="Elipse 11987" cx="0.909" cy="0.909" r="0.909" transform="translate(5.032 51.126)"/>
        <circle id="Elipse_11988" data-name="Elipse 11988" cx="0.909" cy="0.909" r="0.909" transform="translate(55.23 51.126)"/>
      </g>
    </g>
  </g>
</svg>
