<svg xmlns="http://www.w3.org/2000/svg" xmlns:xlink="http://www.w3.org/1999/xlink" width="108" height="108" viewBox="0 0 108 108">
  <defs>
    <filter id="Trazado_982547" x="0" y="0" width="108" height="108" filterUnits="userSpaceOnUse">
      <feOffset dy="3" input="SourceAlpha"/>
      <feGaussianBlur stdDeviation="3" result="blur"/>
      <feFlood flood-opacity="0.161"/>
      <feComposite operator="in" in2="blur"/>
      <feComposite in="SourceGraphic"/>
    </filter>
  </defs>
  <g id="Grupo_1171000" data-name="Grupo 1171000" transform="translate(-171 -749)">
    <g id="Grupo_1158003" data-name="Grupo 1158003" transform="translate(10 -3206)">
      <g id="Grupo_1154108" data-name="Grupo 1154108" transform="translate(0 2503)">
        <g id="Grupo_1153117" data-name="Grupo 1153117" transform="translate(-93 939)">
          <g id="Grupo_1149598" data-name="Grupo 1149598" transform="translate(80 315)">
            <g id="Grupo_1148770" data-name="Grupo 1148770" transform="translate(-27 -2583)">
              <g id="Grupo_1146954" data-name="Grupo 1146954" transform="translate(-415 -1202)">
                <g transform="matrix(1, 0, 0, 1, 616, 3983)" filter="url(#Trazado_982547)">
                  <g id="Trazado_982547-2" data-name="Trazado 982547" transform="translate(9 6)" fill="#f4fdfe">
                    <path d="M 45 88.5 C 39.12687683105469 88.5 33.43022537231445 87.35007476806641 28.06830024719238 85.08217620849609 C 22.88852500915527 82.89131164550781 18.23629951477051 79.75458526611328 14.2408504486084 75.75914764404297 C 10.24541282653809 71.76370239257812 7.108687400817871 67.11147308349609 4.917825222015381 61.93170166015625 C 2.649924993515015 56.56977462768555 1.5 50.87312316894531 1.5 45 C 1.5 39.12687683105469 2.649924993515015 33.43022537231445 4.917825222015381 28.06830024719238 C 7.108687400817871 22.88852500915527 10.24541282653809 18.23629951477051 14.2408504486084 14.2408504486084 C 18.23629951477051 10.24541282653809 22.88852500915527 7.108687400817871 28.06830024719238 4.917825222015381 C 33.43022537231445 2.649924993515015 39.12687683105469 1.5 45 1.5 C 50.87312316894531 1.5 56.56977462768555 2.649924993515015 61.93170166015625 4.917825222015381 C 67.11147308349609 7.108687400817871 71.76370239257812 10.24541282653809 75.75914764404297 14.2408504486084 C 79.75458526611328 18.23629951477051 82.89131164550781 22.88852500915527 85.08217620849609 28.06830024719238 C 87.35007476806641 33.43022537231445 88.5 39.12687683105469 88.5 45 C 88.5 50.87312316894531 87.35007476806641 56.56977462768555 85.08217620849609 61.93170166015625 C 82.89131164550781 67.11147308349609 79.75458526611328 71.76370239257812 75.75914764404297 75.75914764404297 C 71.76370239257812 79.75458526611328 67.11147308349609 82.89131164550781 61.93170166015625 85.08217620849609 C 56.56977462768555 87.35007476806641 50.87312316894531 88.5 45 88.5 Z" stroke="none"/>
                    <path d="M 45 3 C 39.32871246337891 3 33.82865524291992 4.110054016113281 28.65262985229492 6.299339294433594 C 23.65165710449219 8.414573669433594 19.15968322753906 11.44334411621094 15.301513671875 15.301513671875 C 11.44334411621094 19.15968322753906 8.414573669433594 23.65165710449219 6.299339294433594 28.65262985229492 C 4.110054016113281 33.82865524291992 3 39.32871246337891 3 45 C 3 50.67128753662109 4.110054016113281 56.17134475708008 6.299339294433594 61.34737396240234 C 8.414573669433594 66.34834289550781 11.44334411621094 70.84031677246094 15.301513671875 74.698486328125 C 19.15968322753906 78.55665588378906 23.65165710449219 81.58542633056641 28.65262985229492 83.70066070556641 C 33.82865524291992 85.88994598388672 39.32871246337891 87 45 87 C 50.67128753662109 87 56.17134475708008 85.88994598388672 61.34737396240234 83.70066070556641 C 66.34834289550781 81.58542633056641 70.84031677246094 78.55665588378906 74.698486328125 74.698486328125 C 78.55665588378906 70.84031677246094 81.58542633056641 66.34834289550781 83.70066070556641 61.34737396240234 C 85.88994598388672 56.17134475708008 87 50.67128753662109 87 45 C 87 39.32871246337891 85.88994598388672 33.82865524291992 83.70066070556641 28.65262985229492 C 81.58542633056641 23.65165710449219 78.55665588378906 19.15968322753906 74.698486328125 15.301513671875 C 70.84031677246094 11.44334411621094 66.34834289550781 8.414573669433594 61.34737396240234 6.299339294433594 C 56.17134475708008 4.110054016113281 50.67128753662109 3 45 3 M 45 0 C 69.85281372070312 0 90 20.14718627929688 90 45 C 90 69.85281372070312 69.85281372070312 90 45 90 C 20.14718627929688 90 0 69.85281372070312 0 45 C 0 20.14718627929688 20.14718627929688 0 45 0 Z" stroke="none" fill="#56838a"/>
                  </g>
                </g>
              </g>
            </g>
          </g>
        </g>
      </g>
    </g>
    <g id="dietetico" transform="translate(188.998 767.995)">
      <path id="Trazado_997365" data-name="Trazado 997365" d="M55,37.995h2.83A3.114,3.114,0,0,0,61,35.157,3,3,0,0,0,58,32a33.419,33.419,0,0,1-1-8.114V19.447c0-8.615-6.621-16.028-15.227-16.433-.259-.013-1.287-.013-1.546,0C31.621,3.419,25,10.832,25,19.447v4.434A33.429,33.429,0,0,1,24,32a3,3,0,0,0-3,3.157A3.114,3.114,0,0,0,24.166,38H27a6,6,0,0,0-6,6c0,1.9,1.012,4.086,1.829,5.763l35.917.285A12.791,12.791,0,0,0,61,44a6,6,0,0,0-6-6.005Z" fill="#44330c"/>
      <path id="Trazado_997366" data-name="Trazado 997366" d="M36,36.493V43l5,9,5-9V36.543Z" fill="#ffccb8"/>
      <path id="Trazado_997367" data-name="Trazado 997367" d="M36,42.313l10-5.625v-.145l-10-.05Z" fill="#ffb091"/>
      <path id="Trazado_997368" data-name="Trazado 997368" d="M50.344,22a3.692,3.692,0,0,1-3.582-2.8l-2.07-7.358L42.8,18.5A4.615,4.615,0,0,1,38.32,22H31v5.49a10.259,10.259,0,0,0,9.382,10.372A10,10,0,0,0,51,27.881V22Z" fill="#ffccb8"/>
      <path id="Trazado_997369" data-name="Trazado 997369" d="M36,43l5,9,5-9A13.462,13.462,0,0,1,36,43Z" fill="#50dde8"/>
      <path id="Trazado_997370" data-name="Trazado 997370" d="M58.185,47.319a2,2,0,0,0-1.414-1.706L46,43l-5,9v9H61Z" fill="#fff"/>
      <path id="Trazado_997371" data-name="Trazado 997371" d="M20,20.715l-.964-.348a4.1,4.1,0,0,0-5.248,2.465l.964.348A4.1,4.1,0,0,0,20,20.715Z" fill="#308021"/>
      <path id="Trazado_997372" data-name="Trazado 997372" d="M8.889,24.333c-2.663-.961-4.321-.1-5.248,2.465s.071,6.563,2.733,7.523a3.89,3.89,0,0,0,2.114.182,3.886,3.886,0,0,0,1.742,1.21c2.662.96,5.981-1.477,6.908-4.045s.2-4.287-2.465-5.248a5.081,5.081,0,0,0-3.248-.058,5.078,5.078,0,0,0-2.536-2.029Z" fill="#b72525"/>
      <path id="Trazado_997373" data-name="Trazado 997373" d="M17.138,29.741c-.927,2.568-4.246,5.006-6.908,4.045a3.886,3.886,0,0,1-1.742-1.21A3.889,3.889,0,0,1,6.374,32.4c-1.724-.623-2.746-2.519-3-4.475-.351,2.482.7,5.572,3,6.4a3.89,3.89,0,0,0,2.114.182,3.886,3.886,0,0,0,1.742,1.21c2.662.96,5.981-1.477,6.908-4.045a4.592,4.592,0,0,0,.25-2.787,7.083,7.083,0,0,1-.25.856Z" fill="#ad2323"/>
      <ellipse id="Elipse_11654" data-name="Elipse 11654" cx="1.5" cy="0.5" rx="1.5" ry="0.5" transform="translate(6 25)" fill="#f06767"/>
      <path id="Trazado_997374" data-name="Trazado 997374" d="M23.815,47.319a2,2,0,0,1,1.414-1.706L36,43l5,9v9H21Z" fill="#fff"/>
      <path id="Trazado_997375" data-name="Trazado 997375" d="M16.774,43.124a1.506,1.506,0,0,0-2.542-1.361L13,43,5.666,40.062A1.944,1.944,0,0,0,3.98,43.555L10,47l4,14h9L16,47Z" fill="#ffccb8"/>
      <g id="Grupo_1161801" data-name="Grupo 1161801">
        <path id="Trazado_997376" data-name="Trazado 997376" d="M57,25.839a33.435,33.435,0,0,0,.709,6.847,2.03,2.03,0,0,0,1.329,1.452,3.007,3.007,0,0,1,1.784,1.813A2.76,2.76,0,0,0,61,35.157,3,3,0,0,0,58,32a33.419,33.419,0,0,1-1-8.114Z" fill="#543f0f"/>
        <path id="Trazado_997377" data-name="Trazado 997377" d="M22.962,34.138a2.03,2.03,0,0,0,1.329-1.451A33.438,33.438,0,0,0,25,25.839V23.881A33.429,33.429,0,0,1,24,32a3,3,0,0,0-3,3.157,2.76,2.76,0,0,0,.174.794,3.007,3.007,0,0,1,1.788-1.818Z" fill="#543f0f"/>
        <path id="Trazado_997378" data-name="Trazado 997378" d="M40.227,4.971c.259-.012,1.287-.012,1.546,0C50.379,5.376,57,12.789,57,21.405V19.447c0-8.615-6.621-16.028-15.227-16.433-.259-.013-1.287-.013-1.546,0C31.621,3.419,25,10.832,25,19.447v1.958c0-8.616,6.621-16.029,15.227-16.434Z" fill="#543f0f"/>
        <ellipse id="Elipse_11655" data-name="Elipse 11655" cx="3.5" cy="1" rx="3.5" ry="1" transform="matrix(0.294, -0.956, 0.956, 0.294, 26.677, 18.403)" fill="#543f0f"/>
        <ellipse id="Elipse_11656" data-name="Elipse 11656" cx="2" cy="0.5" rx="2" ry="0.5" transform="matrix(0.294, -0.956, 0.956, 0.294, 29.177, 17.079)" fill="#543f0f"/>
      </g>
      <ellipse id="Elipse_11657" data-name="Elipse 11657" cx="1" cy="1.46" rx="1" ry="1.46" transform="translate(35 26)"/>
      <ellipse id="Elipse_11658" data-name="Elipse 11658" cx="1" cy="1.46" rx="1" ry="1.46" transform="translate(45 26)"/>
      <path id="Trazado_997379" data-name="Trazado 997379" d="M41,34.746c2.1,0,3.75-1.206,3.75-2.746a.75.75,0,1,0-1.5,0c0,.589-.924,1.246-2.25,1.246S38.75,32.589,38.75,32a.75.75,0,1,0-1.5,0C37.25,33.54,38.9,34.746,41,34.746Z"/>
      <path id="Trazado_997380" data-name="Trazado 997380" d="M3.483,44.423,9.15,47.662l3.888,13.609A1,1,0,0,0,14,62H61a1,1,0,0,0,.979-1.2L59.8,50.242A13.382,13.382,0,0,0,62,44a6.989,6.989,0,0,0-2.479-5.341,3.977,3.977,0,0,0-.711-7.576,32.409,32.409,0,0,1-.81-7.2V19.447A17.208,17.208,0,0,0,41.82,2.015c-.291-.014-1.349-.014-1.64,0A17.208,17.208,0,0,0,24,19.447v4.434a32.408,32.408,0,0,1-.81,7.2,4.02,4.02,0,0,0-2.09,1.161,3.96,3.96,0,0,0,1.38,6.413A6.989,6.989,0,0,0,20,44a14.492,14.492,0,0,0,1.786,5.9l-.959,4.517-3.779-7.558.707-3.536a2.506,2.506,0,0,0-4.23-2.263l-.766.766L6.037,39.134a2.944,2.944,0,0,0-2.554,5.289Zm32.833,5.628-2.428-.809-.758-4.55,2.36-.551L40,52.259v3.123l-3.777-1.888.725-2.178a1,1,0,0,0-.632-1.265ZM32,23h6.319a5.6,5.6,0,0,0,5.44-4.222l.928-3.26,1.1,3.927A4.673,4.673,0,0,0,50,22.971v4.91a9,9,0,0,1-9.559,8.983A9.217,9.217,0,0,1,32,27.49ZM45.052,51.316l.725,2.178L42,55.382V52.259l4.506-8.111,2.359.572-.753,4.518-2.429.814A1,1,0,0,0,45.052,51.316ZM41,49.941l-2.937-5.286a13.98,13.98,0,0,0,5.874,0ZM40.322,38.86c.23.015.459.021.687.021A10.964,10.964,0,0,0,45,38.134v4.155a12.371,12.371,0,0,1-8,0V38.1A10.556,10.556,0,0,0,40.322,38.86ZM55,60V56a1,1,0,0,0-2,0v4H42V57.618L47.447,54.9a1,1,0,0,0,.5-1.211l-.683-2.053,2.052-.687a1,1,0,0,0,.669-.784l.828-4.966,5.669,1.376a1.052,1.052,0,0,1,.723.951L59.773,60ZM27,39a1,1,0,1,0,0-2H24.17A2.119,2.119,0,0,1,22,35.1,2,2,0,0,1,24,33a1,1,0,0,0,.97-.758A34.473,34.473,0,0,0,26,23.881V19.447A15.212,15.212,0,0,1,40.273,4.013C40.5,4,41.5,4,41.727,4.013A15.212,15.212,0,0,1,56,19.447v4.434a34.459,34.459,0,0,0,1.028,8.35A1,1,0,0,0,58,33a2,2,0,0,1,2,2.1A2.119,2.119,0,0,1,57.83,37H55a1,1,0,0,0,0,2,5.006,5.006,0,0,1,5,5,8.742,8.742,0,0,1-.83,3.165,3.01,3.01,0,0,0-2.162-2.52L47,42.209V37.1a11.192,11.192,0,0,0,1.54-1.208A11.05,11.05,0,0,0,52,27.881V23h1a1,1,0,0,0,0-2H50.345a2.694,2.694,0,0,1-2.619-2.068l-2.071-7.357a1,1,0,0,0-1.923,0l-1.9,6.689A3.611,3.611,0,0,1,38.319,21H29a1,1,0,0,0,0,2h1v4.49a11.5,11.5,0,0,0,5,9.544V42.2L24.484,44.655a2.988,2.988,0,0,0-1.96,1.875A8.04,8.04,0,0,1,22,44a5.006,5.006,0,0,1,5-5Zm-2.665,8.531a.9.9,0,0,0,.016-.1A.988.988,0,0,1,25,46.587l6.18-1.441.836,5.018a1,1,0,0,0,.67.785l2.051.683-.683,2.052a1,1,0,0,0,.5,1.211L40,57.618V60H29V56a1,1,0,0,0-2,0v4H23.618l-1.356-2.713ZM4.415,41.085a.923.923,0,0,1,.88-.094l7.334,2.933a1,1,0,0,0,1.078-.221l1.232-1.233a.507.507,0,0,1,.855.457L15.02,46.8a1,1,0,0,0,.085.644L21.382,60H14.754L10.962,46.721a1,1,0,0,0-.466-.594l-6.02-3.44A.948.948,0,0,1,4,41.867a.932.932,0,0,1,.415-.782Z"/>
      <path id="Trazado_997381" data-name="Trazado 997381" d="M13.448,23.772l.965.349a5.1,5.1,0,0,0,6.527-3.066,1,1,0,0,0-.6-1.28l-.965-.349a5.1,5.1,0,0,0-6.188,2.36,8.025,8.025,0,0,0-.69-2.351,1,1,0,1,0-1.81.851,5.955,5.955,0,0,1,.345,4.156,5.974,5.974,0,0,0-1.8-1.049c-3.139-1.133-5.4-.074-6.529,3.065a8.019,8.019,0,0,0,.01,5.013,5.667,5.667,0,0,0,3.324,3.791,5.027,5.027,0,0,0,2.071.3,5.006,5.006,0,0,0,1.786,1.091,4.57,4.57,0,0,0,1.564.268,7.74,7.74,0,0,0,6.623-4.914,5.192,5.192,0,0,0,.082-3.983,5.153,5.153,0,0,0-3.147-2.545,5.976,5.976,0,0,0-2.1-.344,7.967,7.967,0,0,0,.3-1.507.957.957,0,0,0,.232.144Zm5.114-2.509a3.1,3.1,0,0,1-3.336,1.022A3.1,3.1,0,0,1,18.562,21.263Zm-4.228,6.1a3.285,3.285,0,0,1,2.008,1.5,3.328,3.328,0,0,1-.145,2.47c-.771,2.134-3.571,4.189-5.628,3.444a2.9,2.9,0,0,1-1.306-.9,1,1,0,0,0-.776-.369.989.989,0,0,0-.194.019,2.883,2.883,0,0,1-1.579-.141,3.782,3.782,0,0,1-2.1-2.527,6.04,6.04,0,0,1-.032-3.717c.758-2.1,1.867-2.62,3.969-1.863a4.074,4.074,0,0,1,2.037,1.634,1,1,0,0,0,1.134.409,4.082,4.082,0,0,1,2.612.039Z"/>
    </g>
  </g>
</svg>
