<svg xmlns="http://www.w3.org/2000/svg" xmlns:xlink="http://www.w3.org/1999/xlink" width="108" height="108" viewBox="0 0 108 108">
  <defs>
    <filter id="Fondo" x="0" y="0" width="108" height="108" filterUnits="userSpaceOnUse">
      <feOffset dy="3" input="SourceAlpha"/>
      <feGaussianBlur stdDeviation="3" result="blur"/>
      <feFlood flood-opacity="0.161"/>
      <feComposite operator="in" in2="blur"/>
      <feComposite in="SourceGraphic"/>
    </filter>
  </defs>
  <g id="Grupo_1171143" data-name="Grupo 1171143" transform="translate(-617.228 -702)">
    <g id="Grupo_1171016" data-name="Grupo 1171016" transform="translate(8 -6652)">
      <g id="Grupo_1163208" data-name="Grupo 1163208" transform="translate(618.228 7360)">
        <g id="Grupo_1158163" data-name="Grupo 1158163">
          <g transform="matrix(1, 0, 0, 1, -9, -6)" filter="url(#Fondo)">
            <g id="Fondo-2" data-name="Fondo" transform="translate(9 6)" fill="#ebe9f0">
              <path d="M 45 88.5 C 39.12687683105469 88.5 33.43022537231445 87.35007476806641 28.06830024719238 85.08217620849609 C 22.88852500915527 82.89131164550781 18.23629951477051 79.75458526611328 14.2408504486084 75.75914764404297 C 10.24541282653809 71.76370239257812 7.108687400817871 67.11147308349609 4.917825222015381 61.93170166015625 C 2.649924993515015 56.56977462768555 1.5 50.87312316894531 1.5 45 C 1.5 39.12687683105469 2.649924993515015 33.43022537231445 4.917825222015381 28.06830024719238 C 7.108687400817871 22.88852500915527 10.24541282653809 18.23629951477051 14.2408504486084 14.2408504486084 C 18.23629951477051 10.24541282653809 22.88852500915527 7.108687400817871 28.06830024719238 4.917825222015381 C 33.43022537231445 2.649924993515015 39.12687683105469 1.5 45 1.5 C 50.87312316894531 1.5 56.56977462768555 2.649924993515015 61.93170166015625 4.917825222015381 C 67.11147308349609 7.108687400817871 71.76370239257812 10.24541282653809 75.75914764404297 14.2408504486084 C 79.75458526611328 18.23629951477051 82.89131164550781 22.88852500915527 85.08217620849609 28.06830024719238 C 87.35007476806641 33.43022537231445 88.5 39.12687683105469 88.5 45 C 88.5 50.87312316894531 87.35007476806641 56.56977462768555 85.08217620849609 61.93170166015625 C 82.89131164550781 67.11147308349609 79.75458526611328 71.76370239257812 75.75914764404297 75.75914764404297 C 71.76370239257812 79.75458526611328 67.11147308349609 82.89131164550781 61.93170166015625 85.08217620849609 C 56.56977462768555 87.35007476806641 50.87312316894531 88.5 45 88.5 Z" stroke="none"/>
              <path d="M 45 3 C 39.32871246337891 3 33.82865524291992 4.110054016113281 28.65262985229492 6.299339294433594 C 23.65165710449219 8.414573669433594 19.15968322753906 11.44334411621094 15.301513671875 15.301513671875 C 11.44334411621094 19.15968322753906 8.414573669433594 23.65165710449219 6.299339294433594 28.65262985229492 C 4.110054016113281 33.82865524291992 3 39.32871246337891 3 45 C 3 50.67128753662109 4.110054016113281 56.17134475708008 6.299339294433594 61.34737396240234 C 8.414573669433594 66.34834289550781 11.44334411621094 70.84031677246094 15.301513671875 74.698486328125 C 19.15968322753906 78.55665588378906 23.65165710449219 81.58542633056641 28.65262985229492 83.70066070556641 C 33.82865524291992 85.88994598388672 39.32871246337891 87 45 87 C 50.67128753662109 87 56.17134475708008 85.88994598388672 61.34737396240234 83.70066070556641 C 66.34834289550781 81.58542633056641 70.84031677246094 78.55665588378906 74.698486328125 74.698486328125 C 78.55665588378906 70.84031677246094 81.58542633056641 66.34834289550781 83.70066070556641 61.34737396240234 C 85.88994598388672 56.17134475708008 87 50.67128753662109 87 45 C 87 39.32871246337891 85.88994598388672 33.82865524291992 83.70066070556641 28.65262985229492 C 81.58542633056641 23.65165710449219 78.55665588378906 19.15968322753906 74.698486328125 15.301513671875 C 70.84031677246094 11.44334411621094 66.34834289550781 8.414573669433594 61.34737396240234 6.299339294433594 C 56.17134475708008 4.110054016113281 50.67128753662109 3 45 3 M 45 0 C 69.85281372070312 0 90 20.14718627929688 90 45 C 90 69.85281372070312 69.85281372070312 90 45 90 C 20.14718627929688 90 0 69.85281372070312 0 45 C 0 20.14718627929688 20.14718627929688 0 45 0 Z" stroke="none" fill="#453179"/>
            </g>
          </g>
        </g>
      </g>
    </g>
    <g id="agricultura-de-cosecha" transform="translate(641.848 721.989)">
      <g id="Grupo_1171142" data-name="Grupo 1171142" transform="translate(1.933 4.565)">
        <g id="Grupo_1171140" data-name="Grupo 1171140">
          <path id="Trazado_1016379" data-name="Trazado 1016379" d="M91.01,138.78H66.922a6.572,6.572,0,0,0-.472-6.385,4.893,4.893,0,0,1-.767-2.772,4.781,4.781,0,0,0-1.242-3.307,14.709,14.709,0,0,1,27.572-1.694,15.181,15.181,0,0,1,.563,1.51C88.486,126.212,87.007,134.309,91.01,138.78Z" transform="translate(-51.009 -91.57)" fill="#72c2e9"/>
          <path id="Trazado_1016380" data-name="Trazado 1016380" d="M91.01,144.811H66.922a6.572,6.572,0,0,0-.472-6.385,4.893,4.893,0,0,1-.767-2.772,4.781,4.781,0,0,0-1.242-3.307,14.629,14.629,0,0,1,.579-1.6,6.521,6.521,0,0,1,.574.561,6.333,6.333,0,0,1,1.641,4.373,3.353,3.353,0,0,0,.514,1.9,8.144,8.144,0,0,1,1.242,5.679h1.8a7.8,7.8,0,0,1-.16-1.572v-6.657a2.242,2.242,0,0,1,1.5-2.113c.47-2.861,2-9.356,6.227-9.356,4.171,0,5.715,6.278,6.214,9.265a2.24,2.24,0,0,1,1.858,2.2v6.657a7.928,7.928,0,0,1-.157,1.572h1.878a11.6,11.6,0,0,1-.246-9.119,5.39,5.39,0,0,1,4.1-3.486,15.181,15.181,0,0,1,.563,1.51C88.486,132.243,87.007,140.34,91.01,144.811Z" transform="translate(-51.009 -97.601)" fill="#4ba5c8"/>
          <g id="Grupo_1171132" data-name="Grupo 1171132" transform="translate(37.645 34.56)">
            <path id="Trazado_1016381" data-name="Trazado 1016381" d="M186.8,175H175.979c-4-4.471-2.524-12.568,1.566-12.647,1.159-.032,3.166,1.081,6.7.129C189.165,161.143,191.024,170.325,186.8,175Z" transform="translate(-173.622 -162.347)" fill="#fc5d3d"/>
          </g>
          <g id="Grupo_1171133" data-name="Grupo 1171133" transform="translate(22.491 27.51)">
            <path id="Trazado_1016382" data-name="Trazado 1016382" d="M115.025,139.873a5.656,5.656,0,0,0-4.7,5.58,5.666,5.666,0,0,0-5.034-5.627h0c.022-.213.048-.426.075-.638.4-3.045,1.905-8.627,4.79-8.627,2.867,0,4.386,5.505,4.795,8.674Q114.992,139.552,115.025,139.873Z" transform="translate(-105.291 -130.56)" fill="#f1bf20"/>
          </g>
          <path id="Trazado_1016383" data-name="Trazado 1016383" d="M112.068,172.874v6.658a6.345,6.345,0,0,1-.823,3.125H100.193a6.343,6.343,0,0,1-.823-3.125v-6.658a.686.686,0,0,1,.687-.685,5.847,5.847,0,0,1,.625.033h0a5.665,5.665,0,0,1,5.034,5.626,5.658,5.658,0,0,1,4.7-5.58,5.715,5.715,0,0,1,.962-.08A.686.686,0,0,1,112.068,172.874Z" transform="translate(-78.192 -135.447)" fill="#13bf6d"/>
          <path id="Trazado_1016384" data-name="Trazado 1016384" d="M3.875,219.389H58.929v6.675H3.875Z" transform="translate(-3.875 -172.179)" fill="#f1bf20"/>
          <path id="Trazado_1016385" data-name="Trazado 1016385" d="M31,170.065H18.883a6.64,6.64,0,0,1,.439-6.325,4.972,4.972,0,0,0,.807-2.788,4.816,4.816,0,0,1,4.817-4.943c.106,0,.217,0,.326.011a4.825,4.825,0,0,1,4.489,4.888,4.893,4.893,0,0,0,.767,2.772A6.572,6.572,0,0,1,31,170.065Z" transform="translate(-15.087 -122.855)" fill="#13bf6d"/>
          <g id="Grupo_1171135" data-name="Grupo 1171135" transform="translate(17.131 10.452)">
            <g id="Grupo_1171134" data-name="Grupo 1171134">
              <path id="Trazado_1016386" data-name="Trazado 1016386" d="M84.149,72.819h-.872a2.154,2.154,0,1,1,0-4.308h.757v3a6.943,6.943,0,0,0,.116,1.3Z" transform="translate(-81.121 -65.214)" fill="#ffb69f"/>
              <path id="Trazado_1016387" data-name="Trazado 1016387" d="M164.262,70.666a2.152,2.152,0,0,1-2.153,2.153h-.872a7.013,7.013,0,0,0,.116-1.3v-3h.757A2.153,2.153,0,0,1,164.262,70.666Z" transform="translate(-143.47 -65.214)" fill="#ffb69f"/>
              <path id="Trazado_1016388" data-name="Trazado 1016388" d="M109.224,53.642v6.3a7.013,7.013,0,0,1-.116,1.3c-1.4,8.1-13.282,8.281-14.74,0a6.925,6.925,0,0,1-.116-1.3v-6.3Z" transform="translate(-91.341 -53.642)" fill="#ffb69f"/>
            </g>
            <path id="Trazado_1016389" data-name="Trazado 1016389" d="M97.253,53.642l-3,4.291V53.642Z" transform="translate(-91.338 -53.642)" fill="#afafaf"/>
            <path id="Trazado_1016390" data-name="Trazado 1016390" d="M151.207,53.642v4.291L148.2,53.642Z" transform="translate(-133.324 -53.642)" fill="#afafaf"/>
          </g>
          <g id="Grupo_1171138" data-name="Grupo 1171138" transform="translate(8.64 13.786)">
            <g id="Grupo_1171136" data-name="Grupo 1171136">
              <path id="Trazado_1016391" data-name="Trazado 1016391" d="M42.836,71.276c.835-.276,1.7-.517,2.181-2.6.446,1.92,1.16,2.264,2.181,2.6a2.9,2.9,0,0,0-2.181,2.6C44.56,71.911,43.806,71.6,42.836,71.276Z" transform="translate(-42.836 -68.674)" fill="#f0c020"/>
            </g>
            <g id="Grupo_1171137" data-name="Grupo 1171137" transform="translate(33.412)">
              <path id="Trazado_1016392" data-name="Trazado 1016392" d="M193.5,71.276c.835-.276,1.7-.517,2.181-2.6.446,1.92,1.16,2.264,2.181,2.6a2.9,2.9,0,0,0-2.181,2.6C195.223,71.911,194.469,71.6,193.5,71.276Z" transform="translate(-193.499 -68.674)" fill="#f0c020"/>
            </g>
          </g>
          <path id="Trazado_1016393" data-name="Trazado 1016393" d="M94.961,14.689v-.555a7.624,7.624,0,0,0-15.248,0v.555h-2.65a1.137,1.137,0,1,0,0,2.274H97.886a1.137,1.137,0,1,0,0-2.274Z" transform="translate(-59.947 -6.51)" fill="#f1bf20"/>
          <g id="Grupo_1171139" data-name="Grupo 1171139" transform="translate(24.256 1.663)">
            <path id="Trazado_1016394" data-name="Trazado 1016394" d="M120.984,18.422a4.862,4.862,0,0,0-.183-.462.554.554,0,0,1,1.008-.461,5.933,5.933,0,0,1,.225.568.554.554,0,1,1-1.05.355Zm-1.354-2.055a4.844,4.844,0,0,0-5.559-.66.555.555,0,0,1-.531-.974,5.952,5.952,0,0,1,6.832.81.554.554,0,0,1-.742.824Z" transform="translate(-113.252 -14.01)" fill="#f9e5af"/>
          </g>
        </g>
        <path id="Trazado_1016395" data-name="Trazado 1016395" d="M219.665,178.814a.554.554,0,0,0-.554.554v.2a.554.554,0,0,0,1.109,0v-.2A.554.554,0,0,0,219.665,178.814Z" transform="translate(-171.379 -140.602)" fill="#b34f33"/>
        <path id="Trazado_1016396" data-name="Trazado 1016396" d="M216.54,203.6a.554.554,0,0,0-.554.554v.2a.554.554,0,0,0,1.109,0v-.2A.554.554,0,0,0,216.54,203.6Z" transform="translate(-168.947 -159.889)" fill="#b34f33"/>
        <path id="Trazado_1016397" data-name="Trazado 1016397" d="M192.351,198.877a.554.554,0,0,0-.554.554v.2a.554.554,0,0,0,1.109,0v-.2A.554.554,0,0,0,192.351,198.877Z" transform="translate(-150.122 -156.216)" fill="#b34f33"/>
        <path id="Trazado_1016398" data-name="Trazado 1016398" d="M37.832,183.857a.554.554,0,0,0-.554.554v.216a.554.554,0,1,0,1.109,0v-.216A.554.554,0,0,0,37.832,183.857Z" transform="translate(-29.87 -144.527)" fill="#139c6e"/>
        <path id="Trazado_1016399" data-name="Trazado 1016399" d="M49.42,197.469a.554.554,0,0,0-.554.554v.216a.554.554,0,0,0,1.109,0v-.216A.554.554,0,0,0,49.42,197.469Z" transform="translate(-38.888 -155.12)" fill="#139c6e"/>
        <g id="Grupo_1171141" data-name="Grupo 1171141" transform="translate(24.493 30.208)">
          <path id="Trazado_1016400" data-name="Trazado 1016400" d="M115.312,156.764h-.436a.554.554,0,1,0,0,1.109h.436a.554.554,0,1,0,0-1.109Z" transform="translate(-114.321 -153.65)" fill="#cf941e"/>
          <path id="Trazado_1016401" data-name="Trazado 1016401" d="M122.764,143.832a.554.554,0,1,0,0-1.109h-.436a.554.554,0,1,0,0,1.109Z" transform="translate(-120.121 -142.723)" fill="#cf941e"/>
          <path id="Trazado_1016402" data-name="Trazado 1016402" d="M132.287,152.473h-.436a.554.554,0,1,0,0,1.109h.436a.554.554,0,1,0,0-1.109Z" transform="translate(-127.531 -150.311)" fill="#cf941e"/>
          <path id="Trazado_1016403" data-name="Trazado 1016403" d="M124.746,166.39h-.436a.554.554,0,1,0,0,1.109h.436a.554.554,0,1,0,0-1.109Z" transform="translate(-121.663 -161.141)" fill="#cf941e"/>
        </g>
      </g>
      <path id="Trazado_1016404" data-name="Trazado 1016404" d="M43.6,66.587a.561.561,0,0,0-1.092,0c-.411,1.77-1.025,1.937-1.811,2.2a.561.561,0,0,0,0,1.064c.818.27,1.409.465,1.81,2.2a.561.561,0,0,0,1.092,0c.242-1.042.4-1.731,1.81-2.2a.561.561,0,0,0,0-1.064c-.848-.281-1.408-.466-1.81-2.2Zm-.557,3.669a2.773,2.773,0,0,0-.829-.936,2.862,2.862,0,0,0,.838-.97,2.779,2.779,0,0,0,.868.977A2.91,2.91,0,0,0,43.042,70.256Z" transform="translate(-30.299 -48.362)"/>
      <path id="Trazado_1016405" data-name="Trazado 1016405" d="M194.262,66.587a.561.561,0,0,0-1.092,0c-.411,1.77-1.025,1.937-1.811,2.2a.561.561,0,0,0,0,1.064c.818.27,1.409.465,1.81,2.2a.561.561,0,0,0,1.092,0c.242-1.042.4-1.731,1.81-2.2a.561.561,0,0,0,0-1.064C195.225,68.5,194.664,68.317,194.262,66.587Zm-.557,3.669a2.773,2.773,0,0,0-.829-.936,2.862,2.862,0,0,0,.838-.97,2.779,2.779,0,0,0,.868.977A2.908,2.908,0,0,0,193.705,70.256Z" transform="translate(-147.55 -48.362)"/>
      <path id="Trazado_1016406" data-name="Trazado 1016406" d="M139.842,140.643a.565.565,0,0,0-.743-.253.557.557,0,0,0-.251.743s0,0,0,0a.55.55,0,0,0,.741.251.556.556,0,0,0,.253-.741A0,0,0,0,0,139.842,140.643Z" transform="translate(-106.938 -106.093)"/>
      <path id="Trazado_1016407" data-name="Trazado 1016407" d="M121.107,91.152a.553.553,0,0,0-.326-.712.563.563,0,0,0-.712.324,1.784,1.784,0,0,1-1.661,1.149h0a1.774,1.774,0,0,1-1.659-1.149.569.569,0,0,0-.714-.326.556.556,0,0,0-.326.714v0a2.885,2.885,0,0,0,5.4,0Z" transform="translate(-88.946 -67.235)"/>
      <path id="Trazado_1016408" data-name="Trazado 1016408" d="M110.345,68.649a.554.554,0,0,0-.554.554v.441a.554.554,0,0,0,1.109,0V69.2A.554.554,0,0,0,110.345,68.649Z" transform="translate(-84.369 -50.303)"/>
      <path id="Trazado_1016409" data-name="Trazado 1016409" d="M141.762,70.2a.554.554,0,0,0,.554-.554V69.2a.554.554,0,0,0-1.109,0v.441A.554.554,0,0,0,141.762,70.2Z" transform="translate(-108.819 -50.304)"/>
      <path id="Trazado_1016410" data-name="Trazado 1016410" d="M126.054,73.757a.554.554,0,0,0,.554-.554V71.191a.554.554,0,0,0-1.109,0V73.2A.554.554,0,0,0,126.054,73.757Z" transform="translate(-96.594 -51.85)"/>
      <path id="Trazado_1016411" data-name="Trazado 1016411" d="M56.988,51.221h-3.1c2.23-3.258,2.235-7.879.629-10.538a3.839,3.839,0,0,0-4.469-1.961,10.337,10.337,0,0,1-2.15.349,1.047,1.047,0,0,1,.456-.848l.9-.619a.551.551,0,0,0,.144-.77.568.568,0,0,0-.77-.146l-.9.619a2.153,2.153,0,0,0-.939,1.76c-1.22-.08-2.08-.378-2.891-.471a15.24,15.24,0,0,0-11.081-9.972,8.068,8.068,0,0,0,4.46-5.447H37.7a2.708,2.708,0,0,0,0-5.417h-.2V15.572h2.37a1.691,1.691,0,1,0,0-3.382H37.5a8.178,8.178,0,0,0-16.357,0h-2.1a1.691,1.691,0,1,0,0,3.382h2.372v2.188h-.2a2.708,2.708,0,1,0,0,5.417h.422a8.077,8.077,0,0,0,4.448,5.448,15.248,15.248,0,0,0-10.982,9.694A5.307,5.307,0,0,0,12.347,37.2a3.073,3.073,0,0,1,1.184-2.382.556.556,0,0,0,0-.785.571.571,0,0,0-.785,0,4.067,4.067,0,0,0-1.508,3.162A5.375,5.375,0,0,0,6.419,42.53,4.414,4.414,0,0,1,5.7,45.153a7.185,7.185,0,0,0-1.127,3.868,7.107,7.107,0,0,0,.347,2.2H1.934a.554.554,0,0,0,0,1.109H56.988a.554.554,0,0,0,0-1.109Zm-20.6-33.651-1.379-1.942h1.379Zm1.311,1.3a1.6,1.6,0,0,1,0,3.2h-.236c.007-.079.014-.187.018-.264.02-.335.016,0,.016-2.935h.2Zm-15.45-6.68a7.07,7.07,0,0,1,14.139,0H22.253Zm-1.034,9.879a1.6,1.6,0,1,1,0-3.2h.2c0,1.977-.006,2.532.014,2.918,0,.1.012.185.02.281Zm-2.17-7.605a.582.582,0,0,1,0-1.165H39.872a.582.582,0,1,1,0,1.165Zm4.857,1.165-1.376,1.94v-1.94ZM22.53,21.319V19.484l2.736-3.857h8.387l2.739,3.858v1.834a6.931,6.931,0,0,1-13.862,0Zm-5.052,29.9H6.1a6.008,6.008,0,0,1-.415-2.2,6.085,6.085,0,0,1,.954-3.273,5.516,5.516,0,0,0,.892-3.218,4.275,4.275,0,0,1,3.71-4.214v1.249a1.389,1.389,0,0,1-.186-.1.554.554,0,0,0-.588.94,2.5,2.5,0,0,0,2.659,0,.554.554,0,0,0-.588-.94,1.367,1.367,0,0,1-.189.1v-1.25a4.261,4.261,0,0,1,3.706,4.217,5.485,5.485,0,0,0,.858,3.162,5.944,5.944,0,0,1,.991,3.3,6.1,6.1,0,0,1-.424,2.231Zm11.428-4.254v4.254H24.268a5.815,5.815,0,0,1-.6-2.57V41.993a.132.132,0,0,1,.133-.131A5.093,5.093,0,0,1,28.906,46.967Zm6.349,1.683a5.775,5.775,0,0,1-.6,2.57h-4.64V46.967a5.107,5.107,0,0,1,5.107-5.105.132.132,0,0,1,.133.131Zm.613,2.57a6.9,6.9,0,0,0,.5-2.57V41.993a1.242,1.242,0,0,0-1.242-1.24c-.161,0-.319.008-.477.02a23.53,23.53,0,0,0-.894-4.085.564.564,0,0,0-.7-.359.556.556,0,0,0-.361.694,0,0,0,0,0,0,0,22.62,22.62,0,0,1,.855,3.931A6.227,6.227,0,0,0,29.462,44.4a6.194,6.194,0,0,0-4.425-3.517c.273-2.2,1.185-5.909,2.743-7.5a1.886,1.886,0,0,1,3-.027.566.566,0,0,0,.783,0,.556.556,0,0,0,0-.785,2.985,2.985,0,0,0-4.582.035c-1.78,1.872-2.745,5.643-3.049,8.147-.045,0-.09,0-.135,0a1.242,1.242,0,0,0-1.242,1.24V48.65a6.916,6.916,0,0,0,.5,2.57h-4.4a7.27,7.27,0,0,0,.357-2.231,7.123,7.123,0,0,0-1.171-3.9,4.369,4.369,0,0,1-.679-2.555,5.318,5.318,0,0,0-1.178-3.341,14.155,14.155,0,0,1,26.772-.527,4.222,4.222,0,0,0-2.6,2.047,10.377,10.377,0,0,0,.645,10.51H35.868Zm16.639,0H42.188c-2.471-2.936-2.563-7.5-1.08-9.935a2.9,2.9,0,0,1,2.444-1.606c.023,0,2.383.442,3.242.495v.967a2.694,2.694,0,0,1-.89-.353.563.563,0,0,0-.763.175.552.552,0,0,0,.175.763,3.806,3.806,0,0,0,4.063,0,.553.553,0,0,0,.175-.763.568.568,0,0,0-.765-.175,2.668,2.668,0,0,1-.887.353v-.959a11.594,11.594,0,0,0,2.439-.392,2.744,2.744,0,0,1,3.231,1.466c1.479,2.43,1.387,7.067-1.067,9.964Z"/>
    </g>
  </g>
</svg>
