<svg xmlns="http://www.w3.org/2000/svg" xmlns:xlink="http://www.w3.org/1999/xlink" width="110" height="110" viewBox="0 0 110 110">
  <defs>
    <filter id="Trazado_982547" x="0" y="0" width="110" height="110" filterUnits="userSpaceOnUse">
      <feOffset dy="3" input="SourceAlpha"/>
      <feGaussianBlur stdDeviation="3" result="blur"/>
      <feFlood flood-opacity="0.161"/>
      <feComposite operator="in" in2="blur"/>
      <feComposite in="SourceGraphic"/>
    </filter>
  </defs>
  <g id="Grupo_1171271" data-name="Grupo 1171271" transform="translate(-4706 -2485)">
    <g id="Grupo_1171060" data-name="Grupo 1171060" transform="translate(4329.771 320)">
      <g id="Grupo_1162529" data-name="Grupo 1162529" transform="translate(385.229 2171)">
        <g id="Grupo_1162411" data-name="Grupo 1162411" transform="translate(0)">
          <g id="Grupo_1158637" data-name="Grupo 1158637" transform="translate(0 0)">
            <g id="Grupo_1155724" data-name="Grupo 1155724">
              <g id="Grupo_1154703" data-name="Grupo 1154703">
                <g id="Grupo_1150789" data-name="Grupo 1150789" transform="translate(0 0)">
                  <g id="Grupo_1154212" data-name="Grupo 1154212" transform="translate(0)">
                    <g id="Grupo_1152583" data-name="Grupo 1152583">
                      <g id="Grupo_1146973" data-name="Grupo 1146973">
                        <g id="Grupo_1146954" data-name="Grupo 1146954">
                          <g transform="matrix(1, 0, 0, 1, -9, -6)" filter="url(#Trazado_982547)">
                            <g id="Trazado_982547-2" data-name="Trazado 982547" transform="translate(9 6)" fill="#ebe9f0">
                              <path d="M 46.00000381469727 90.49986267089844 C 39.99188232421875 90.49986267089844 34.16427230834961 89.32350158691406 28.67905807495117 87.00344848632812 C 23.38020324707031 84.76223754882812 18.62104415893555 81.55341339111328 14.53375053405762 77.46613311767578 C 10.44647026062012 73.37885284423828 7.237643718719482 68.61968994140625 4.996417045593262 63.32085037231445 C 2.676363706588745 57.83565139770508 1.500003814697266 52.00805282592773 1.500003814697266 45.99993133544922 C 1.500003814697266 39.99182510375977 2.676363706588745 34.16422653198242 4.996417045593262 28.67901039123535 C 7.237643718719482 23.38017082214355 10.44647026062012 18.62101173400879 14.53375053405762 14.53373146057129 C 18.62104415893555 10.44645118713379 23.38020324707031 7.237624645233154 28.67905807495117 4.996411323547363 C 34.16427230834961 2.676357984542847 39.99188232421875 1.499997973442078 46.00000381469727 1.499997973442078 C 52.00812530517578 1.499997973442078 57.83573532104492 2.676357984542847 63.32094955444336 4.996411323547363 C 68.61980438232422 7.237624645233154 73.37896728515625 10.44645118713379 77.46625518798828 14.53373146057129 C 81.55353546142578 18.62101173400879 84.76236724853516 23.38017082214355 87.00359344482422 28.67901039123535 C 89.32364654541016 34.16422653198242 90.5 39.99182510375977 90.5 45.99993133544922 C 90.5 52.00805282592773 89.32364654541016 57.83565139770508 87.00359344482422 63.32085037231445 C 84.76236724853516 68.61968994140625 81.55353546142578 73.37885284423828 77.46625518798828 77.46613311767578 C 73.37896728515625 81.55341339111328 68.61980438232422 84.76223754882812 63.32094955444336 87.00344848632812 C 57.83573532104492 89.32350158691406 52.00812530517578 90.49986267089844 46.00000381469727 90.49986267089844 Z" stroke="none"/>
                              <path d="M 46.00000381469727 3 C 40.19371795654297 3 34.56270217895508 4.136505126953125 29.26337432861328 6.377914428710938 C 24.14333343505859 8.54351806640625 19.54441833496094 11.64438629150391 15.59440612792969 15.59439086914062 C 11.64440155029297 19.54440307617188 8.54351806640625 24.14330291748047 6.377914428710938 29.26334381103516 C 4.136505126953125 34.56266021728516 3.000007629394531 40.19366073608398 3.000007629394531 45.99993133544922 C 3.000007629394531 51.80620193481445 4.136505126953125 57.43720245361328 6.377914428710938 62.73651885986328 C 8.54351806640625 67.85655975341797 11.64440155029297 72.45545959472656 15.59440612792969 76.40547180175781 C 19.54441833496094 80.35547637939453 24.14333343505859 83.45634460449219 29.26337432861328 85.6219482421875 C 34.56270217895508 87.86335754394531 40.19371795654297 88.99986267089844 46.00000381469727 88.99986267089844 C 51.80628967285156 88.99986267089844 57.43730545043945 87.86335754394531 62.73661804199219 85.6219482421875 C 67.85667419433594 83.45634460449219 72.45557403564453 80.35547637939453 76.40558624267578 76.40547180175781 C 80.35560607910156 72.45545959472656 83.45647430419922 67.85655975341797 85.62207794189453 62.73651885986328 C 87.86350250244141 57.43720245361328 89 51.80620193481445 89 45.99993133544922 C 89 40.19366073608398 87.86350250244141 34.56266021728516 85.62207794189453 29.26334381103516 C 83.45647430419922 24.14330291748047 80.35560607910156 19.54440307617188 76.40558624267578 15.59439086914062 C 72.45557403564453 11.64438629150391 67.85667419433594 8.54351806640625 62.73661804199219 6.377914428710938 C 57.43730545043945 4.136505126953125 51.80628967285156 3 46.00000381469727 3 M 46.00000381469727 0 C 71.40509033203125 0 92 20.59487152099609 92 45.99993133544922 C 92 71.40499114990234 71.40509033203125 91.99986267089844 46.00000381469727 91.99986267089844 C 20.59490203857422 91.99986267089844 7.62939453125e-06 71.40499114990234 7.62939453125e-06 45.99993133544922 C 7.62939453125e-06 20.59487152099609 20.59490203857422 0 46.00000381469727 0 Z" stroke="none" fill="#453179"/>
                            </g>
                          </g>
                        </g>
                      </g>
                    </g>
                  </g>
                </g>
              </g>
            </g>
          </g>
        </g>
      </g>
    </g>
    <g id="carne" transform="translate(4728 2416)">
      <path id="Trazado_1017042" data-name="Trazado 1017042" d="M368.516,183.836a2.517,2.517,0,0,1-2.542-2.492h-15.02v-3.738h15.02a2.542,2.542,0,0,1,5.084,0,2.463,2.463,0,0,1-.864,1.869,2.463,2.463,0,0,1,.864,1.869A2.517,2.517,0,0,1,368.516,183.836Z" transform="translate(-305.002 -64.41)" fill="#fff1ba"/>
      <path id="Trazado_1017043" data-name="Trazado 1017043" d="M127.584,123.557v22.322H85.642V123.557A15.057,15.057,0,0,1,100.7,108.5h11.828A15.057,15.057,0,0,1,127.584,123.557Z" transform="translate(-74.429 -6.518)" fill="#f85c52"/>
      <path id="Trazado_1017044" data-name="Trazado 1017044" d="M291.243,122.829v23.051h-2.669V122.829A14.475,14.475,0,0,0,273.958,108.5h2.669A14.475,14.475,0,0,1,291.243,122.829Z" transform="translate(-238.088 -6.518)" fill="#d54f4b"/>
      <path id="Trazado_1017045" data-name="Trazado 1017045" d="M113.9,123.116v22.763H84.67V123.116A14.616,14.616,0,0,1,99.286,108.5h0A14.616,14.616,0,0,1,113.9,123.116Z" transform="translate(-73.584 -6.518)" fill="#ff8e8c"/>
      <path id="Trazado_1017046" data-name="Trazado 1017046" d="M135.4,147.851V170.69H113.791V147.851a10.8,10.8,0,0,1,10.8-10.8h0A10.8,10.8,0,0,1,135.4,147.851Z" transform="translate(-98.892 -31.328)" fill="#ff6165"/>
      <path id="Trazado_1017047" data-name="Trazado 1017047" d="M178.388,187.744a3.178,3.178,0,1,1-3.178-3.115A3.147,3.147,0,0,1,178.388,187.744Z" transform="translate(-149.508 -72.679)" fill="#fff1ba"/>
      <path id="Trazado_1017048" data-name="Trazado 1017048" d="M207.036,285.1h-5.609a7.711,7.711,0,0,1-2.762,0h-5.609v-4.363a7.322,7.322,0,0,1-.636-2.988,7.627,7.627,0,0,1,15.252,0,7.322,7.322,0,0,1-.636,2.988Z" transform="translate(-167.226 -147.11)" fill="#51bf7e"/>
      <path id="Trazado_1017049" data-name="Trazado 1017049" d="M71.5,283.681a.615.615,0,0,1-.153.992,10.357,10.357,0,0,1-11.843-1.841,9.857,9.857,0,0,1-1.877-11.61.641.641,0,0,1,1.012-.15Zm26.886-6.643H80.2a.624.624,0,0,0-.607.808,10.186,10.186,0,0,0,9.7,6.908l.144,0v.884h7.626v-4.4A9.94,9.94,0,0,0,99,277.846.624.624,0,0,0,98.39,277.038Z" transform="translate(-49.121 -147.644)" fill="#ff9c41"/>
      <path id="Trazado_1017050" data-name="Trazado 1017050" d="M341.993,271.072a.641.641,0,0,1,1.012.15,9.857,9.857,0,0,1-1.877,11.61,10.357,10.357,0,0,1-11.843,1.841.615.615,0,0,1-.153-.992Z" transform="translate(-285.874 -147.644)" fill="#ffb45a"/>
      <path id="Trazado_1017051" data-name="Trazado 1017051" d="M165.1,331.109a3.814,3.814,0,1,1-3.813-3.738A3.776,3.776,0,0,1,165.1,331.109Zm27.453-3.738a3.739,3.739,0,1,0,3.813,3.738A3.776,3.776,0,0,0,192.555,327.371Z" transform="translate(-136.857 -196.731)" fill="#8ee694"/>
      <path id="Trazado_1017052" data-name="Trazado 1017052" d="M72.574,376.821a1.888,1.888,0,0,1-1.907,1.869H9.407a1.869,1.869,0,1,1,0-3.738H70.668A1.888,1.888,0,0,1,72.574,376.821Z" transform="translate(-6.518 -238.082)" fill="#d08261"/>
      <path id="Trazado_1017053" data-name="Trazado 1017053" d="M60.134,117.916a3.531,3.531,0,0,0,6.9-.982,3.431,3.431,0,0,0-.556-1.869,3.43,3.43,0,0,0,.556-1.869,3.531,3.531,0,0,0-6.9-.982H53.506A15.583,15.583,0,0,0,38.476,101H25.766a15.491,15.491,0,0,0-15.581,14.609L7.3,112.784v-4.945a.982.982,0,0,0-1.964,0v3.019L1.964,107.55v-3.076a.982.982,0,1,0-1.964,0v3.489a.982.982,0,0,0,.295.7l2.35,2.3H.982a.982.982,0,0,0,0,1.964H4.648l1.81,1.774H3.524a.982.982,0,1,0,0,1.964H8.461l1.707,1.673v4.406l-.023-.022a1.635,1.635,0,0,0-1.4-.444,1.591,1.591,0,0,0-1.174.843,10.806,10.806,0,0,0,2.06,12.762H2.851a2.851,2.851,0,0,0,0,5.7H64.187a2.851,2.851,0,0,0,0-5.7H60.178a4.662,4.662,0,0,0-1.368-5.042,10.757,10.757,0,0,0-.871-7.72,1.591,1.591,0,0,0-1.174-.843,1.634,1.634,0,0,0-1.4.444l-1.294,1.268v-6.079h6.059Zm.839-3.738a.982.982,0,0,0,.982-.982,1.561,1.561,0,0,1,3.12,0,1.49,1.49,0,0,1-.524,1.126.982.982,0,0,0,0,1.487,1.471,1.471,0,0,1,.524,1.126,1.561,1.561,0,0,1-3.12,0,.982.982,0,0,0-.982-.982h-6.9a15.062,15.062,0,0,0-.147-1.774Zm-48.84,2.133a13.637,13.637,0,0,1,27.269,0v8.953a8.594,8.594,0,0,0-1.849-1.645v-7.308a11.694,11.694,0,0,0-11.785-11.573,11.852,11.852,0,0,0-8.108,3.174A.982.982,0,0,0,19,109.349a9.894,9.894,0,0,1,6.77-2.647,9.728,9.728,0,0,1,9.821,9.609v6.343a8.719,8.719,0,0,0-2.831-.472,8.566,8.566,0,0,0-8.549,7.48,4.8,4.8,0,0,0-4.193,2.741l-2.724-2.67,1.885-1.848h3.412a.982.982,0,1,0,0-1.964H21.18l2.1-2.055a.982.982,0,0,0,.295-.7v-2.492a.982.982,0,0,0-1.964,0v2.079l-1.849,1.813v-1.4a.982.982,0,0,0-1.964,0v3.325L15.945,128.3V116.311a9.338,9.338,0,0,1,1.062-4.351.982.982,0,1,0-1.742-.906,11.284,11.284,0,0,0-1.284,5.258v10.176l-1.849-1.813v-8.363Zm30.005,19.577H37.954a.974.974,0,0,0-.11-.035,9.227,9.227,0,0,1-6.326-5.477H47.565l-5.059,4.96A1.61,1.61,0,0,0,42.137,135.887Zm-20.137,0a2.672,2.672,0,0,1-.462-1.51,2.832,2.832,0,0,1,5.662,0,2.668,2.668,0,0,1-.464,1.51ZM26.146,130A6.677,6.677,0,0,1,39,128.412H31.016a1.629,1.629,0,0,0-1.318.672,1.59,1.59,0,0,0-.221,1.427,11.051,11.051,0,0,0,3.93,5.377h-4.5a4.653,4.653,0,0,0,.254-1.51A4.728,4.728,0,0,0,26.146,130Zm-15.135,4.491a8.854,8.854,0,0,1-1.9-10.026l10.48,10.273a4.67,4.67,0,0,0,.239,1.154H12.856A9.218,9.218,0,0,1,11.011,134.487Zm54.063,4.252a.888.888,0,0,1-.887.887H2.851a.887.887,0,1,1,0-1.774H58.258a.966.966,0,0,0,.4,0h5.529A.888.888,0,0,1,65.074,138.739Zm-11.808-2.851a2.67,2.67,0,0,1-.463-1.51,2.832,2.832,0,0,1,5.662,0,2.7,2.7,0,0,1-.466,1.51ZM56.4,124.46a8.793,8.793,0,0,1,.616,5.4,4.849,4.849,0,0,0-1.387-.2,4.763,4.763,0,0,0-4.795,4.72,4.657,4.657,0,0,0,.254,1.51H44.748Zm-6.871,3.985a1.626,1.626,0,0,0-.328-.034H41.364v-12.1A15.278,15.278,0,0,0,33.4,102.964h5.074A13.508,13.508,0,0,1,52.11,116.311v9.609Zm-23.768-9.283a4.1,4.1,0,1,0-4.16-4.1A4.133,4.133,0,0,0,25.766,119.162Zm0-6.23a2.134,2.134,0,1,1-2.2,2.133A2.167,2.167,0,0,1,25.766,112.932Zm17.848-4.587a.982.982,0,0,1-1.383-.129l-.826-1a.982.982,0,0,1,1.512-1.253l.826,1A.982.982,0,0,1,43.615,108.345Zm1.657,6.994-.135,1.278a.982.982,0,0,1-.975.879,1.038,1.038,0,0,1-.1-.006.982.982,0,0,1-.874-1.08l.135-1.278a.982.982,0,1,1,1.953.206Zm3.473-5.409a.982.982,0,0,1-.087,1.386l-1.271,1.121a.982.982,0,1,1-1.3-1.473l1.271-1.121A.982.982,0,0,1,48.745,109.93Z" transform="translate(0 0)"/>
    </g>
  </g>
</svg>
