<svg xmlns="http://www.w3.org/2000/svg" xmlns:xlink="http://www.w3.org/1999/xlink" width="108" height="108" viewBox="0 0 108 108">
  <defs>
    <filter id="Fondo" x="0" y="0" width="108" height="108" filterUnits="userSpaceOnUse">
      <feOffset dy="3" input="SourceAlpha"/>
      <feGaussianBlur stdDeviation="3" result="blur"/>
      <feFlood flood-opacity="0.161"/>
      <feComposite operator="in" in2="blur"/>
      <feComposite in="SourceGraphic"/>
    </filter>
  </defs>
  <g id="Grupo_1171117" data-name="Grupo 1171117" transform="translate(-142.228 -980)">
    <g id="Grupo_1171001" data-name="Grupo 1171001" transform="translate(-12 -4234)">
      <g id="Grupo_1163006" data-name="Grupo 1163006" transform="translate(0 327)">
        <g id="Grupo_1158161" data-name="Grupo 1158161" transform="translate(-42.458 3701)">
          <g transform="matrix(1, 0, 0, 1, 196.69, 1186)" filter="url(#Fondo)">
            <g id="Fondo-2" data-name="Fondo" transform="translate(9 6)" fill="#fefcf6">
              <path d="M 45 88.5 C 39.12687683105469 88.5 33.43022537231445 87.35007476806641 28.06830024719238 85.08217620849609 C 22.88852500915527 82.89131164550781 18.23629951477051 79.75458526611328 14.2408504486084 75.75914764404297 C 10.24541282653809 71.76370239257812 7.108687400817871 67.11147308349609 4.917825222015381 61.93170166015625 C 2.649924993515015 56.56977462768555 1.5 50.87312316894531 1.5 45 C 1.5 39.12687683105469 2.649924993515015 33.43022537231445 4.917825222015381 28.06830024719238 C 7.108687400817871 22.88852500915527 10.24541282653809 18.23629951477051 14.2408504486084 14.2408504486084 C 18.23629951477051 10.24541282653809 22.88852500915527 7.108687400817871 28.06830024719238 4.917825222015381 C 33.43022537231445 2.649924993515015 39.12687683105469 1.5 45 1.5 C 50.87312316894531 1.5 56.56977462768555 2.649924993515015 61.93170166015625 4.917825222015381 C 67.11147308349609 7.108687400817871 71.76370239257812 10.24541282653809 75.75914764404297 14.2408504486084 C 79.75458526611328 18.23629951477051 82.89131164550781 22.88852500915527 85.08217620849609 28.06830024719238 C 87.35007476806641 33.43022537231445 88.5 39.12687683105469 88.5 45 C 88.5 50.87312316894531 87.35007476806641 56.56977462768555 85.08217620849609 61.93170166015625 C 82.89131164550781 67.11147308349609 79.75458526611328 71.76370239257812 75.75914764404297 75.75914764404297 C 71.76370239257812 79.75458526611328 67.11147308349609 82.89131164550781 61.93170166015625 85.08217620849609 C 56.56977462768555 87.35007476806641 50.87312316894531 88.5 45 88.5 Z" stroke="none"/>
              <path d="M 45 3 C 39.32871246337891 3 33.82865524291992 4.110054016113281 28.65262985229492 6.299339294433594 C 23.65165710449219 8.414573669433594 19.15968322753906 11.44334411621094 15.301513671875 15.301513671875 C 11.44334411621094 19.15968322753906 8.414573669433594 23.65165710449219 6.299339294433594 28.65262985229492 C 4.110054016113281 33.82865524291992 3 39.32871246337891 3 45 C 3 50.67128753662109 4.110054016113281 56.17134475708008 6.299339294433594 61.34737396240234 C 8.414573669433594 66.34834289550781 11.44334411621094 70.84031677246094 15.301513671875 74.698486328125 C 19.15968322753906 78.55665588378906 23.65165710449219 81.58542633056641 28.65262985229492 83.70066070556641 C 33.82865524291992 85.88994598388672 39.32871246337891 87 45 87 C 50.67128753662109 87 56.17134475708008 85.88994598388672 61.34737396240234 83.70066070556641 C 66.34834289550781 81.58542633056641 70.84031677246094 78.55665588378906 74.698486328125 74.698486328125 C 78.55665588378906 70.84031677246094 81.58542633056641 66.34834289550781 83.70066070556641 61.34737396240234 C 85.88994598388672 56.17134475708008 87 50.67128753662109 87 45 C 87 39.32871246337891 85.88994598388672 33.82865524291992 83.70066070556641 28.65262985229492 C 81.58542633056641 23.65165710449219 78.55665588378906 19.15968322753906 74.698486328125 15.301513671875 C 70.84031677246094 11.44334411621094 66.34834289550781 8.414573669433594 61.34737396240234 6.299339294433594 C 56.17134475708008 4.110054016113281 50.67128753662109 3 45 3 M 45 0 C 69.85281372070312 0 90 20.14718627929688 90 45 C 90 69.85281372070312 69.85281372070312 90 45 90 C 20.14718627929688 90 0 69.85281372070312 0 45 C 0 20.14718627929688 20.14718627929688 0 45 0 Z" stroke="none" fill="#86815c"/>
            </g>
          </g>
        </g>
      </g>
    </g>
    <g id="estilos-de-vida" transform="translate(164.416 997.06)">
      <path id="Trazado_1016243" data-name="Trazado 1016243" d="M189.826,16.386c-.892-.294-1.588-.484-2.055-2.493a.637.637,0,0,0-1.239,0c-.456,1.964-1.092,2.175-2.055,2.493a.637.637,0,0,0,0,1.208c1.6.528,1.781,1.31,2.055,2.493a.636.636,0,0,0,1.239,0c.456-1.964,1.126-2.186,2.055-2.493A.637.637,0,0,0,189.826,16.386Z" transform="translate(-138.643 -7.2)"/>
      <path id="Trazado_1016244" data-name="Trazado 1016244" d="M194.93,24.982a3.154,3.154,0,0,0-.94,1.062,3.3,3.3,0,0,0-1-1.052,3.14,3.14,0,0,0,.985-1.11,3.253,3.253,0,0,0,.952,1.1Z" transform="translate(-145.453 -15.172)" fill="#f0c020"/>
      <path id="Trazado_1016245" data-name="Trazado 1016245" d="M51.739,16.386c-.892-.294-1.588-.484-2.055-2.493a.637.637,0,0,0-1.239,0c-.456,1.964-1.092,2.175-2.055,2.493a.637.637,0,0,0,0,1.208c1.6.528,1.781,1.31,2.055,2.493a.636.636,0,0,0,1.239,0c.456-1.964,1.126-2.186,2.055-2.493A.637.637,0,0,0,51.739,16.386Z" transform="translate(-33.584 -7.2)"/>
      <path id="Trazado_1016246" data-name="Trazado 1016246" d="M56.844,24.982a3.154,3.154,0,0,0-.94,1.062,3.3,3.3,0,0,0-1-1.052,3.141,3.141,0,0,0,.985-1.11,3.252,3.252,0,0,0,.952,1.1Z" transform="translate(-40.395 -15.172)" fill="#f0c020"/>
      <path id="Trazado_1016247" data-name="Trazado 1016247" d="M111.609,144.268V149.5a5.779,5.779,0,0,1-.1,1.091,6.272,6.272,0,0,1-12.338,0,5.727,5.727,0,0,1-.1-1.091v-5.229Z" transform="translate(-73.998 -106.763)" fill="#ffb69f"/>
      <path id="Trazado_1016248" data-name="Trazado 1016248" d="M91.431,159.224H90.7a1.8,1.8,0,1,1,0-3.605h.629v2.513A5.8,5.8,0,0,0,91.431,159.224Z" transform="translate(-66.255 -115.399)" fill="#ffb69f"/>
      <path id="Trazado_1016249" data-name="Trazado 1016249" d="M153.617,157.412a1.8,1.8,0,0,1-1.8,1.8h-.732a5.849,5.849,0,0,0,.1-1.092v-2.516h.637A1.8,1.8,0,0,1,153.617,157.412Z" transform="translate(-113.566 -115.39)" fill="#ffb69f"/>
      <path id="Trazado_1016250" data-name="Trazado 1016250" d="M112.394,123.085l-.784.8H99.075v-1.816a2.845,2.845,0,0,1,2.846-2.843h6.759a2.152,2.152,0,0,0,2.114-1.75l1.135.777A3.168,3.168,0,0,1,112.394,123.085Z" transform="translate(-73.999 -86.376)" fill="#7c7b7a"/>
      <path id="Trazado_1016251" data-name="Trazado 1016251" d="M97.83,192.2v5.822H92.9v7.9H76.425v-5.113H71.282v-1.828A6.778,6.778,0,0,1,78.06,192.2Z" transform="translate(-52.854 -143.23)" fill="#72c2e9"/>
      <path id="Trazado_1016252" data-name="Trazado 1016252" d="M94.364,218.121v6.315H92.782v-7.9A1.58,1.58,0,0,1,94.364,218.121Z" transform="translate(-69.211 -161.748)" fill="#4ba5c8"/>
      <path id="Trazado_1016253" data-name="Trazado 1016253" d="M182.275,166.695V153.6a2.572,2.572,0,1,1,5.143,0v10.442a2.657,2.657,0,0,1-2.657,2.657Z" transform="translate(-137.298 -111.903)" fill="#ffb69f"/>
      <path id="Trazado_1016254" data-name="Trazado 1016254" d="M71.282,228.177h5.142v5.113H71.282Z" transform="translate(-52.854 -170.602)" fill="#ffb69f"/>
      <path id="Trazado_1016255" data-name="Trazado 1016255" d="M21.413,59.355A10.03,10.03,0,1,0,19.872,74.8l3.647.843L22.676,72A10.033,10.033,0,0,0,21.413,59.355Z" transform="translate(-1.886 -39.925)" fill="#f0c020"/>
      <path id="Trazado_1016256" data-name="Trazado 1016256" d="M24.764,79.284a2.179,2.179,0,0,0-2.042-1.43H20.706a2.178,2.178,0,0,0-2.172,2.064H17.272A2.178,2.178,0,0,0,15.1,77.854H13.085a2.177,2.177,0,0,0-1.956,1.228A2.4,2.4,0,0,0,9,81.458v2.407a2.393,2.393,0,0,0,2.043,2.363,2.179,2.179,0,0,0,2.042,1.43H15.1a2.178,2.178,0,0,0,2.172-2.067h1.262a2.178,2.178,0,0,0,2.172,2.067h2.015a2.178,2.178,0,0,0,1.956-1.228,2.4,2.4,0,0,0,2.129-2.377V81.648a2.394,2.394,0,0,0-2.043-2.364Z" transform="translate(-5.469 -56.235)" fill="#e8a61e"/>
      <path id="Trazado_1016257" data-name="Trazado 1016257" d="M170.781,59.355A10.03,10.03,0,1,1,172.322,74.8l-3.647.843L169.518,72a10.033,10.033,0,0,1,1.263-12.644Z" transform="translate(-126.319 -39.925)" fill="#f0c020"/>
      <path id="Trazado_1016258" data-name="Trazado 1016258" d="M187.438,67.248a1.368,1.368,0,0,1,.337-.167,1.675,1.675,0,1,0-1.189-3.131,4.739,4.739,0,0,0-1.051.541,3.568,3.568,0,0,0-2.245-.793h-1.154a1.674,1.674,0,0,0-1.674,1.674,3.967,3.967,0,0,0,.382,2.024c-2.724.83-4.125,4.072-3.187,7.509,1,3.66,4.294,6.1,7.3,5.173a.559.559,0,0,1,.324,0c3,.921,6.3-1.51,7.3-5.174C193.79,70.471,191.11,66.748,187.438,67.248Z" transform="translate(-133.563 -45.464)" fill="#e8a61e"/>
      <path id="Trazado_1016259" data-name="Trazado 1016259" d="M197.313,70.7h1.154a1.914,1.914,0,0,1,1.914,1.914v.423h-1.154a1.914,1.914,0,0,1-1.914-1.914Z" transform="translate(-148.739 -50.79)" fill="#13bf6d"/>
      <path id="Trazado_1016260" data-name="Trazado 1016260" d="M193.975,85.4a3.864,3.864,0,0,0-3.526,1.447,3.864,3.864,0,0,0-3.526-1.447c-2.006.4-3.045,2.88-2.32,5.534.765,2.8,3.172,4.635,5.193,4.014a2.233,2.233,0,0,1,1.306,0c2.018.619,4.425-1.207,5.192-4.014.724-2.654-.314-5.132-2.32-5.534Z" transform="translate(-138.895 -61.934)" fill="#fc5d3d"/>
      <path id="Trazado_1016261" data-name="Trazado 1016261" d="M106.52,16.292a9.85,9.85,0,1,0-11.8,9.656l1.947,3.118,1.947-3.118a9.852,9.852,0,0,0,7.9-9.656Z" transform="translate(-64.676 -1.904)" fill="#72c2e9"/>
      <path id="Trazado_1016262" data-name="Trazado 1016262" d="M29.741,86.256H28.55v-.9a.5.5,0,0,0-.5-.5H26.032a.5.5,0,0,0-.5.5v1.561h-4.6V85.357a.5.5,0,0,0-.5-.5H18.411a.5.5,0,0,0-.5.5v.709H16.718a.718.718,0,0,0-.718.718v2.407a.718.718,0,0,0,.718.718h1.191v.9a.5.5,0,0,0,.5.5h2.015a.5.5,0,0,0,.5-.5V89.244h4.6v1.564a.5.5,0,0,0,.5.5h2.015a.5.5,0,0,0,.5-.5V90.1h1.191a.718.718,0,0,0,.718-.718V86.973A.718.718,0,0,0,29.741,86.256Z" transform="translate(-10.794 -61.56)" fill="#efefef"/>
      <path id="Trazado_1016263" data-name="Trazado 1016263" d="M101.531,22.794l-.273.273-.272-.272a4.765,4.765,0,0,0-6.738,6.739l5.826,5.825a1.674,1.674,0,0,0,2.368,0l5.826-5.826a4.764,4.764,0,0,0-6.737-6.738Z" transform="translate(-69.263 -13.282)" fill="#4ba5c8"/>
      <path id="Trazado_1016264" data-name="Trazado 1016264" d="M112.414,33.677,106.588,39.5l-5.826-5.825a3.09,3.09,0,0,1,0-4.37h0a3.09,3.09,0,0,1,4.37,0l1.456,1.456,1.457-1.457a3.09,3.09,0,1,1,4.37,4.37Z" transform="translate(-74.593 -18.611)" fill="#fc5d3d"/>
      <path id="Trazado_1016265" data-name="Trazado 1016265" d="M150.334,220.745a.6.6,0,0,1-.6-.6v-.718a.6.6,0,0,1,1.2,0v.718A.6.6,0,0,1,150.334,220.745Zm0-3.109a.6.6,0,0,1-.6-.6v-2.4a.6.6,0,0,1,1.2,0v2.4A.6.6,0,0,1,150.334,217.635Z" transform="translate(-112.542 -159.849)" fill="#c5e5fe"/>
      <path id="Trazado_1016266" data-name="Trazado 1016266" d="M215.49,99.481a.6.6,0,0,1,.282-.8,1.5,1.5,0,0,0,.4-.305.6.6,0,1,1,.855.836,2.649,2.649,0,0,1-.742.548A.6.6,0,0,1,215.49,99.481Zm2.062-2.2a.6.6,0,0,1-.457-.712,2.211,2.211,0,0,0-.128-1.549.6.6,0,0,1,1.018-.629,3.309,3.309,0,0,1,.279,2.432A.6.6,0,0,1,217.552,97.276Z" transform="translate(-162.524 -68.597)" fill="#ffcbc3"/>
      <path id="Trazado_1016267" data-name="Trazado 1016267" d="M125.675,46.041a.6.6,0,0,1,0-.846l.507-.507a.6.6,0,0,1,.846.846l-.507.507A.6.6,0,0,1,125.675,46.041Zm2.2-2.2a.6.6,0,0,1,0-.846l1.937-1.937a.6.6,0,1,1,.846.846l-1.937,1.937A.6.6,0,0,1,127.873,43.843Z" transform="translate(-94.103 -28.108)" fill="#ffcbc3"/>
      <path id="Trazado_1016268" data-name="Trazado 1016268" d="M119.961,172.857a.6.6,0,0,0-.352-.77.611.611,0,0,0-.768.352,1.352,1.352,0,0,1-2.531,0,.613.613,0,0,0-.77-.352.6.6,0,0,0-.352.768,2.548,2.548,0,0,0,4.772,0Z" transform="translate(-86.23 -127.901)"/>
      <path id="Trazado_1016269" data-name="Trazado 1016269" d="M111.786,155.761a.6.6,0,1,0-1.2,0v.369a.6.6,0,0,0,1.2,0Z" transform="translate(-82.76 -115.052)"/>
      <path id="Trazado_1016270" data-name="Trazado 1016270" d="M135.575,156.729a.6.6,0,0,0,.6-.6v-.369a.6.6,0,1,0-1.2,0v.369A.6.6,0,0,0,135.575,156.729Z" transform="translate(-101.314 -115.053)"/>
      <path id="Trazado_1016271" data-name="Trazado 1016271" d="M123.381,159.585a.6.6,0,0,0,.6-.6V157.3a.6.6,0,0,0-1.2,0v1.684A.6.6,0,0,0,123.381,159.585Z" transform="translate(-92.036 -116.225)"/>
      <path id="Trazado_1016272" data-name="Trazado 1016272" d="M68.782,140.22v6.94a.6.6,0,0,0,1.2,0v-4.515h3.946v4.515a.6.6,0,0,0,1.2,0c0-2.388,0-7.069,0-7.9a.6.6,0,0,0-1.2,0v2.185H69.978v-1.229a6.187,6.187,0,0,1,6.18-6.18H95.33v4.626H91a.6.6,0,0,0-.6.6v7.9a.6.6,0,0,0,1.2,0v-7.3h6.815a3.258,3.258,0,0,0,3.254-3.247s0,0,0-.006v-2.789a.6.6,0,1,0-1.2,0v2.787a2.061,2.061,0,0,1-2.059,2.058H96.526v-12.5a1.974,1.974,0,1,1,3.948,0v2.871a.6.6,0,0,0,1.2,0v-2.87s0,0,0,0a3.17,3.17,0,0,0-6.339,0v6.678H86.264a6.447,6.447,0,0,0,2.688-3.949,2.408,2.408,0,1,0,.247-4.8h-.039v-1.869l.611-.62a3.766,3.766,0,0,0-.552-5.752l-1.135-.777a.6.6,0,0,0-.925.382,1.555,1.555,0,0,1-1.526,1.264H82.056a.6.6,0,1,0,0,1.2h3.589a2.753,2.753,0,0,0,2.4-1.422l.5.345a2.57,2.57,0,0,1,.375,3.924l-.608.617H76.625v-1.218a2.241,2.241,0,0,1,1.049-1.9.6.6,0,0,0,.189-.825.615.615,0,0,0-.825-.187,3.419,3.419,0,0,0-1.609,2.927v3.918H75.4a2.407,2.407,0,1,0,.246,4.8,6.492,6.492,0,0,0,2.677,3.949H76.158a7.385,7.385,0,0,0-7.376,7.376Zm20.38-14.933a1.207,1.207,0,1,1-.017,2.412c.006-.087.017-.434.017-.494v-1.918Zm-14.971,1.207a1.207,1.207,0,0,1,1.239-1.2v1.917c0,.155.009.358.018.493A1.209,1.209,0,0,1,74.191,126.495Zm2.436.711c0-4.014,0-.959,0-4.63H87.965v4.632a5.669,5.669,0,0,1-11.338,0Z" transform="translate(-50.952 -84.473)"/>
      <circle id="Elipse_11978" data-name="Elipse 11978" cx="0.598" cy="0.598" r="0.598" transform="translate(49.522 46.358)"/>
      <circle id="Elipse_11979" data-name="Elipse 11979" cx="0.598" cy="0.598" r="0.598" transform="translate(28.115 32.248)"/>
      <path id="Trazado_1016273" data-name="Trazado 1016273" d="M12.449,75.183A10.572,10.572,0,0,0,18.1,73.555l3.4.786a.6.6,0,0,0,.717-.717l-.786-3.4a10.638,10.638,0,1,0-8.981,4.959ZM5.766,57.891A9.433,9.433,0,0,1,20.292,69.78a.6.6,0,0,0-.085.466l.627,2.714-2.714-.627a.6.6,0,0,0-.466.085A9.433,9.433,0,0,1,5.766,57.891Z" transform="translate(0 -38.038)"/>
      <path id="Trazado_1016274" data-name="Trazado 1016274" d="M166.992,70.225l-.786,3.4a.6.6,0,0,0,.717.717l3.4-.786a10.627,10.627,0,1,0-3.331-3.331Zm2.325-12.333a9.432,9.432,0,1,1,1.45,14.527.6.6,0,0,0-.466-.085l-2.714.627.627-2.714a.6.6,0,0,0-.085-.466A9.452,9.452,0,0,1,169.317,57.892Z" transform="translate(-124.432 -38.039)"/>
      <path id="Trazado_1016275" data-name="Trazado 1016275" d="M188.065,82.474a1.639,1.639,0,0,1,.955,0c2.4.737,5.105-1.356,5.945-4.428.831-3.047-.457-5.813-2.779-6.278a4.028,4.028,0,0,0-3.045.719v-.629a2.507,2.507,0,0,1,1.692-2.366.6.6,0,1,0-.407-1.124,3.679,3.679,0,0,0-1.558,1.054,2.51,2.51,0,0,0-2.152-1.224h-1.154a.6.6,0,0,0-.6.6v.423a2.514,2.514,0,0,0,2.511,2.511h.475c0,.043-.005.085-.005.127v.629a4.028,4.028,0,0,0-3.045-.719c-2.325.466-3.61,3.236-2.779,6.278C182.961,81.128,185.669,83.21,188.065,82.474Zm-1.895-13.08h.544a1.317,1.317,0,0,1,1.3,1.141h-.544A1.317,1.317,0,0,1,186.171,69.394Zm-1.037,3.547A3.324,3.324,0,0,1,188.1,74.2a.6.6,0,0,0,.888,0,3.288,3.288,0,0,1,2.964-1.261c1.673.335,2.481,2.519,1.86,4.79-.681,2.494-2.776,4.111-4.44,3.6a2.813,2.813,0,0,0-1.658,0c-1.667.512-3.76-1.108-4.44-3.6C182.653,75.459,183.462,73.276,185.134,72.941Z" transform="translate(-136.988 -48.888)"/>
      <path id="Trazado_1016276" data-name="Trazado 1016276" d="M92.447,24.576l1.813,2.9a.6.6,0,0,0,1.014,0l1.813-2.9A10.448,10.448,0,0,0,94.775,3.941h-.008a10.432,10.432,0,0,0-3.485.6.6.6,0,0,0,.4,1.127,9.23,9.23,0,0,1,3.081-.526h0A9.252,9.252,0,0,1,96.6,23.458a.6.6,0,0,0-.39.27l-1.439,2.305-1.44-2.305a.6.6,0,0,0-.39-.27,9.272,9.272,0,0,1-7.422-9.07s0,0,0,0a9.227,9.227,0,0,1,2.452-6.271.592.592,0,0,0-.033-.844.613.613,0,0,0-.844.033,10.405,10.405,0,0,0-2.77,7.085s0,0,0,.006A10.473,10.473,0,0,0,92.447,24.576Z" transform="translate(-62.772 0)"/>
      <path id="Trazado_1016277" data-name="Trazado 1016277" d="M103.762,11.846a.6.6,0,0,0,.17-.828.611.611,0,0,0-.825-.172,0,0,0,0,0,0,0,.6.6,0,1,0,.658,1Z" transform="translate(-76.859 -5.184)"/>
      <path id="Trazado_1016278" data-name="Trazado 1016278" d="M98.434,32.2l5.826,5.825a.6.6,0,0,0,.846,0l5.826-5.827a3.688,3.688,0,0,0-5.216-5.216l-1.034,1.034-1.033-1.033A3.688,3.688,0,1,0,98.434,32.2Zm.846-4.371a2.49,2.49,0,0,1,3.524,0l1.456,1.456a.6.6,0,0,0,.846,0l1.457-1.457a2.492,2.492,0,0,1,3.524,3.524l-5.4,5.4-5.4-5.4A2.491,2.491,0,0,1,99.28,27.828Z" transform="translate(-72.688 -16.708)"/>
      <g id="Grupo_1171116" data-name="Grupo 1171116" transform="translate(5.206 23.294)">
        <path id="Trazado_1016279" data-name="Trazado 1016279" d="M36.608,93.483h4.6v2.325h-4.6Z" transform="translate(-31.679 -91.419)" fill="#efefef"/>
        <path id="Trazado_1016280" data-name="Trazado 1016280" d="M27,85.357v5.45a.5.5,0,0,1-.5.5H24.481a.5.5,0,0,1-.5-.5v-5.45a.5.5,0,0,1,.5-.5H26.5A.5.5,0,0,1,27,85.357Z" transform="translate(-22.07 -84.854)" fill="#efefef"/>
        <path id="Trazado_1016281" data-name="Trazado 1016281" d="M17.908,93.765H16.718A.718.718,0,0,1,16,93.047V90.641a.718.718,0,0,1,.718-.718h1.191Z" transform="translate(-16 -88.711)" fill="#efefef"/>
        <path id="Trazado_1016282" data-name="Trazado 1016282" d="M55.839,90.807v-5.45a.5.5,0,0,1,.5-.5h2.015a.5.5,0,0,1,.5.5v5.45a.5.5,0,0,1-.5.5H56.342A.5.5,0,0,1,55.839,90.807Z" transform="translate(-46.31 -84.854)" fill="#efefef"/>
        <path id="Trazado_1016283" data-name="Trazado 1016283" d="M68.47,90.714h1.191a.718.718,0,0,1,.718.718v2.407a.718.718,0,0,1-.718.718H68.47Z" transform="translate(-55.92 -89.312)" fill="#efefef"/>
      </g>
      <path id="Trazado_1016284" data-name="Trazado 1016284" d="M27.839,83.756h-.592v-.3a1.1,1.1,0,0,0-1.1-1.1H24.13a1.1,1.1,0,0,0-1.1,1.1v.963h-3.4v-.963a1.1,1.1,0,0,0-1.1-1.1H16.509a1.1,1.1,0,0,0-1.1,1.1v.111h-.592A1.317,1.317,0,0,0,13.5,84.883V87.29a1.317,1.317,0,0,0,1.316,1.316h.593v.3a1.1,1.1,0,0,0,1.1,1.1h2.015a1.1,1.1,0,0,0,1.1-1.1V87.94h3.4v.966a1.1,1.1,0,0,0,1.1,1.1h2.015a1.1,1.1,0,0,0,1.1-1.1v-.111h.593a1.317,1.317,0,0,0,1.316-1.316V85.072a1.318,1.318,0,0,0-1.316-1.316ZM14.816,87.409a.12.12,0,0,1-.12-.12V84.883a.12.12,0,0,1,.12-.12h.593v2.646h-.593Zm3.614,1.4H16.6v-5.26h1.825Zm1.2-2.066V85.615h3.4v1.129Zm6.425,2.066H24.225v-5.26H26.05Zm1.908-1.332a.12.12,0,0,1-.12.12h-.592V84.952h.593a.12.12,0,0,1,.12.12v2.407Z" transform="translate(-8.892 -59.659)"/>
    </g>
  </g>
</svg>
