<svg xmlns="http://www.w3.org/2000/svg" xmlns:xlink="http://www.w3.org/1999/xlink" width="110" height="110" viewBox="0 0 110 110">
  <defs>
    <filter id="Trazado_982547" x="0" y="0" width="110" height="110" filterUnits="userSpaceOnUse">
      <feOffset dy="3" input="SourceAlpha"/>
      <feGaussianBlur stdDeviation="3" result="blur"/>
      <feFlood flood-opacity="0.161"/>
      <feComposite operator="in" in2="blur"/>
      <feComposite in="SourceGraphic"/>
    </filter>
  </defs>
  <g id="Grupo_1171279" data-name="Grupo 1171279" transform="translate(-5021 -2486)">
    <g id="Grupo_1171061" data-name="Grupo 1171061" transform="translate(4329.771 320)">
      <g id="Grupo_1162553" data-name="Grupo 1162553" transform="translate(700.229 2172)">
        <g id="Grupo_1162412" data-name="Grupo 1162412" transform="translate(0 0)">
          <g id="Grupo_1158638" data-name="Grupo 1158638" transform="translate(0 0)">
            <g id="Grupo_1155734" data-name="Grupo 1155734">
              <g id="Grupo_1154704" data-name="Grupo 1154704">
                <g id="Grupo_1150790" data-name="Grupo 1150790" transform="translate(0 0)">
                  <g id="Grupo_1154214" data-name="Grupo 1154214" transform="translate(0)">
                    <g id="Grupo_1152583" data-name="Grupo 1152583">
                      <g id="Grupo_1146973" data-name="Grupo 1146973">
                        <g id="Grupo_1146954" data-name="Grupo 1146954">
                          <g transform="matrix(1, 0, 0, 1, -9, -6)" filter="url(#Trazado_982547)">
                            <g id="Trazado_982547-2" data-name="Trazado 982547" transform="translate(9 6)" fill="#ebe9f0">
                              <path d="M 46.00000381469727 90.49986267089844 C 39.99188232421875 90.49986267089844 34.16427230834961 89.32350158691406 28.67905807495117 87.00344848632812 C 23.38020324707031 84.76223754882812 18.62104415893555 81.55341339111328 14.53375053405762 77.46613311767578 C 10.44647026062012 73.37885284423828 7.237643718719482 68.61968994140625 4.996417045593262 63.32085037231445 C 2.676363706588745 57.83565139770508 1.500003814697266 52.00805282592773 1.500003814697266 45.99993133544922 C 1.500003814697266 39.99182510375977 2.676363706588745 34.16422653198242 4.996417045593262 28.67901039123535 C 7.237643718719482 23.38017082214355 10.44647026062012 18.62101173400879 14.53375053405762 14.53373146057129 C 18.62104415893555 10.44645118713379 23.38020324707031 7.237624645233154 28.67905807495117 4.996411323547363 C 34.16427230834961 2.676357984542847 39.99188232421875 1.499997973442078 46.00000381469727 1.499997973442078 C 52.00812530517578 1.499997973442078 57.83573532104492 2.676357984542847 63.32094955444336 4.996411323547363 C 68.61980438232422 7.237624645233154 73.37896728515625 10.44645118713379 77.46625518798828 14.53373146057129 C 81.55353546142578 18.62101173400879 84.76236724853516 23.38017082214355 87.00359344482422 28.67901039123535 C 89.32364654541016 34.16422653198242 90.5 39.99182510375977 90.5 45.99993133544922 C 90.5 52.00805282592773 89.32364654541016 57.83565139770508 87.00359344482422 63.32085037231445 C 84.76236724853516 68.61968994140625 81.55353546142578 73.37885284423828 77.46625518798828 77.46613311767578 C 73.37896728515625 81.55341339111328 68.61980438232422 84.76223754882812 63.32094955444336 87.00344848632812 C 57.83573532104492 89.32350158691406 52.00812530517578 90.49986267089844 46.00000381469727 90.49986267089844 Z" stroke="none"/>
                              <path d="M 46.00000381469727 3 C 40.19371795654297 3 34.56270217895508 4.136505126953125 29.26337432861328 6.377914428710938 C 24.14333343505859 8.54351806640625 19.54441833496094 11.64438629150391 15.59440612792969 15.59439086914062 C 11.64440155029297 19.54440307617188 8.54351806640625 24.14330291748047 6.377914428710938 29.26334381103516 C 4.136505126953125 34.56266021728516 3.000007629394531 40.19366073608398 3.000007629394531 45.99993133544922 C 3.000007629394531 51.80620193481445 4.136505126953125 57.43720245361328 6.377914428710938 62.73651885986328 C 8.54351806640625 67.85655975341797 11.64440155029297 72.45545959472656 15.59440612792969 76.40547180175781 C 19.54441833496094 80.35547637939453 24.14333343505859 83.45634460449219 29.26337432861328 85.6219482421875 C 34.56270217895508 87.86335754394531 40.19371795654297 88.99986267089844 46.00000381469727 88.99986267089844 C 51.80628967285156 88.99986267089844 57.43730545043945 87.86335754394531 62.73661804199219 85.6219482421875 C 67.85667419433594 83.45634460449219 72.45557403564453 80.35547637939453 76.40558624267578 76.40547180175781 C 80.35560607910156 72.45545959472656 83.45647430419922 67.85655975341797 85.62207794189453 62.73651885986328 C 87.86350250244141 57.43720245361328 89 51.80620193481445 89 45.99993133544922 C 89 40.19366073608398 87.86350250244141 34.56266021728516 85.62207794189453 29.26334381103516 C 83.45647430419922 24.14330291748047 80.35560607910156 19.54440307617188 76.40558624267578 15.59439086914062 C 72.45557403564453 11.64438629150391 67.85667419433594 8.54351806640625 62.73661804199219 6.377914428710938 C 57.43730545043945 4.136505126953125 51.80628967285156 3 46.00000381469727 3 M 46.00000381469727 0 C 71.40509033203125 0 92 20.59487152099609 92 45.99993133544922 C 92 71.40499114990234 71.40509033203125 91.99986267089844 46.00000381469727 91.99986267089844 C 20.59490203857422 91.99986267089844 7.62939453125e-06 71.40499114990234 7.62939453125e-06 45.99993133544922 C 7.62939453125e-06 20.59487152099609 20.59490203857422 0 46.00000381469727 0 Z" stroke="none" fill="#453179"/>
                            </g>
                          </g>
                        </g>
                      </g>
                    </g>
                  </g>
                </g>
              </g>
            </g>
          </g>
        </g>
      </g>
    </g>
    <g id="productos-lacteos_1_" data-name="productos-lacteos (1)" transform="translate(5046.988 2509)">
      <g id="Grupo_1171277" data-name="Grupo 1171277" transform="translate(0.866 0.855)">
        <g id="Grupo_1171272" data-name="Grupo 1171272" transform="translate(16.399)">
          <path id="Trazado_1017054" data-name="Trazado 1017054" d="M177,137.878a4.911,4.911,0,0,1-4.905,4.677h-15.5a4.911,4.911,0,0,1-4.905-4.677q-.5-10.561-.418-21.122.041-4.961.213-9.924l0-.071a11.232,11.232,0,0,1,10.858-10.779q2-.065,4,0a11.233,11.233,0,0,1,10.861,10.85Q177.741,122.354,177,137.878Z" transform="translate(-151.254 -85.859)" fill="#d3effb"/>
          <path id="Trazado_1017055" data-name="Trazado 1017055" d="M164.343,95.961q-.451,0-.9.032c-2.664.191-4.8,4.935-4.89,10.849q-.241,15.524.093,31.048c.056,2.617,1.028,4.676,2.209,4.676H156.59a4.912,4.912,0,0,1-4.906-4.676q-.741-15.524-.2-31.048a11.234,11.234,0,0,1,10.862-10.849Q163.342,95.96,164.343,95.961Z" transform="translate(-151.255 -85.869)" fill="#b1e4f9"/>
          <path id="Trazado_1017056" data-name="Trazado 1017056" d="M163.581,198.342a2.211,2.211,0,0,1-2.084,1.946q-1.47.072-2.94.112-3.6.1-7.189,0,.041-5,.216-9.993h0q3.534-.087,7.068.013,1.423.039,2.845.109a2.21,2.21,0,0,1,2.083,1.946A24.751,24.751,0,0,1,163.581,198.342Z" transform="translate(-151.355 -169.508)" fill="#ececec"/>
          <path id="Trazado_1017057" data-name="Trazado 1017057" d="M158.652,190.422c0,.019,0,.039,0,.058q-.077,4.959-.095,9.919-3.6.1-7.189,0,.041-4.961.213-9.924l0-.071Q155.117,190.323,158.652,190.422Z" transform="translate(-151.354 -169.508)" fill="#dadada"/>
          <path id="Trazado_1017058" data-name="Trazado 1017058" d="M204.822,64.3H192.058a2.315,2.315,0,0,0,0,4.63h12.764a2.315,2.315,0,1,0,0-4.63Z" transform="translate(-185.352 -57.82)" fill="#ececec"/>
          <path id="Trazado_1017059" data-name="Trazado 1017059" d="M195.652,68.253a2.308,2.308,0,0,0,1.637.678h-5.231a2.315,2.315,0,0,1,0-4.631h5.231a2.316,2.316,0,0,0-1.637,3.953Z" transform="translate(-185.352 -57.82)" fill="#dadada"/>
          <path id="Trazado_1017060" data-name="Trazado 1017060" d="M220.085,7.5h-7.331a2.716,2.716,0,0,0-2.717,2.717V13.98H222.8V10.217A2.717,2.717,0,0,0,220.085,7.5Z" transform="translate(-203.332 -7.5)" fill="#ececec"/>
          <path id="Trazado_1017061" data-name="Trazado 1017061" d="M216.653,7.5a2.716,2.716,0,0,0-2.716,2.717v3.762h-3.9V10.213A2.716,2.716,0,0,1,212.754,7.5Z" transform="translate(-203.332 -7.496)" fill="#dadada"/>
        </g>
        <g id="Grupo_1171274" data-name="Grupo 1171274" transform="translate(30.916 28.079)">
          <path id="Trazado_1017062" data-name="Trazado 1017062" d="M307.627,274.411c-.14.2-.312,1.59-.511,1.749a19.129,19.129,0,0,1-23.771,0c-.2-.159-.37-1.551-.511-1.749l9.563-19.027a3.172,3.172,0,0,1,5.668,0l1.434,2.854a3.052,3.052,0,1,0,2.641,5.256Z" transform="translate(-282.341 -253.637)" fill="#ffd064"/>
          <path id="Trazado_1017063" data-name="Trazado 1017063" d="M303.282,439.443a19.132,19.132,0,0,1-23.771,0,2.671,2.671,0,0,1-.719-3.29l.208-.414a2.651,2.651,0,0,0,.511.539,19.129,19.129,0,0,0,23.771,0,2.65,2.65,0,0,0,.511-.539l.208.414A2.671,2.671,0,0,1,303.282,439.443Z" transform="translate(-278.506 -414.965)" fill="#db5b6f"/>
          <g id="Grupo_1171273" data-name="Grupo 1171273" transform="translate(8.679 10.721)">
            <circle id="Elipse_11989" data-name="Elipse 11989" cx="2.954" cy="2.954" r="2.954" transform="translate(5.195 4.672)" fill="#ffc250"/>
            <circle id="Elipse_11990" data-name="Elipse 11990" cx="1.922" cy="1.922" r="1.922" fill="#ffc250"/>
          </g>
        </g>
        <g id="Grupo_1171276" data-name="Grupo 1171276" transform="translate(0 34.153)">
          <path id="Trazado_1017064" data-name="Trazado 1017064" d="M209.574,318.707c0-4.6-3.732-11.825-8.336-11.825S192.9,314.1,192.9,318.707a8.336,8.336,0,1,0,16.673,0Z" transform="translate(-171.751 -306.882)" fill="#ececec"/>
          <path id="Trazado_1017065" data-name="Trazado 1017065" d="M201.239,327.045a8.336,8.336,0,0,1-8.337-8.337c0-4.6,3.733-11.825,8.337-11.825-2.231,0-4.039,7.221-4.039,11.825S199.008,327.045,201.239,327.045Z" transform="translate(-171.752 -306.884)" fill="#dadada"/>
          <path id="Trazado_1017066" data-name="Trazado 1017066" d="M51.921,318.707c0-4.6-3.732-11.825-8.336-11.825s-8.336,7.221-8.336,11.825a8.336,8.336,0,0,0,16.673,0Z" transform="translate(-32.082 -306.882)" fill="#ececec"/>
          <path id="Trazado_1017067" data-name="Trazado 1017067" d="M43.586,327.045a8.336,8.336,0,0,1-8.337-8.337c0-4.6,3.733-11.825,8.337-11.825-2.231,0-4.039,7.221-4.039,11.825S41.355,327.045,43.586,327.045Z" transform="translate(-32.083 -306.884)" fill="#dadada"/>
          <path id="Trazado_1017068" data-name="Trazado 1017068" d="M65.474,410.538c0,.066,0,.132,0,.2a22.061,22.061,0,0,1-.221,2.728c-.264,1.938-.707,3.875-.986,5.814a1.878,1.878,0,0,1-1.645,1.6,49.984,49.984,0,0,1-8.7.306c-1.138-.06-2.312-.162-3.566-.3a1.886,1.886,0,0,1-1.654-1.6c-.081-.56-.174-1.227-.274-1.94a.925.925,0,0,0-1.084-.8.906.906,0,0,0-.782.8c-.1.712-.194,1.38-.275,1.94a1.886,1.886,0,0,1-1.654,1.6,50.155,50.155,0,0,1-12.27,0,1.878,1.878,0,0,1-1.645-1.6c-.279-1.939-.721-3.876-.985-5.814a22.061,22.061,0,0,1-.221-2.728c0-.066,0-.132,0-.2Z" transform="translate(-26.994 -398.713)" fill="#e49542"/>
          <g id="Grupo_1171275" data-name="Grupo 1171275" transform="translate(2.51 11.824)">
            <path id="Trazado_1017069" data-name="Trazado 1017069" d="M65.479,412.269A22.061,22.061,0,0,1,65.258,415H29.733a22.063,22.063,0,0,1-.221-2.728Z" transform="translate(-29.511 -412.071)" fill="#e28424"/>
            <path id="Trazado_1017070" data-name="Trazado 1017070" d="M35.924,421.181c-1.139-.062-2.313-.165-3.569-.307a1.878,1.878,0,0,1-1.645-1.6c-.419-2.913-1.207-5.826-1.207-8.739h4.051c.1,3.042.9,6.084,1.336,9.124a2.093,2.093,0,0,0,1.035,1.524Z" transform="translate(-29.503 -410.533)" fill="#e28424"/>
            <path id="Trazado_1017071" data-name="Trazado 1017071" d="M192.412,421.193c-1.138-.06-2.312-.162-3.566-.3a1.886,1.886,0,0,1-1.654-1.6c-.081-.56-.174-1.227-.274-1.94a.925.925,0,0,0-1.084-.8c.051-2.25.16-4.514.16-6h4.05c.1,3.042.9,6.084,1.336,9.124A2.093,2.093,0,0,0,192.412,421.193Z" transform="translate(-168 -410.545)" fill="#e28424"/>
          </g>
          <path id="Trazado_1017072" data-name="Trazado 1017072" d="M47.122,401.31H8.861a1.364,1.364,0,1,1,0-2.728H47.122a1.364,1.364,0,0,1,0,2.728Z" transform="translate(-7.497 -388.121)" fill="#e49542"/>
          <path id="Trazado_1017073" data-name="Trazado 1017073" d="M13.686,401.309H8.861a1.364,1.364,0,0,1,0-2.729h4.824a1.364,1.364,0,1,0,0,2.729Z" transform="translate(-7.498 -388.119)" fill="#e28424"/>
        </g>
      </g>
      <g id="Grupo_1171278" data-name="Grupo 1171278" transform="translate(0.012 0)">
        <path id="Trazado_1017074" data-name="Trazado 1017074" d="M58.043,49.737l-5.695-11.33a.855.855,0,0,0-1.341-.248,2.2,2.2,0,1,1-1.9-3.784.856.856,0,0,0,.6-1.224L48.273,30.3a4.008,4.008,0,0,0-3.6-2.218h0a4.078,4.078,0,0,0-.439.026c-.038-2.114-.092-4.23-.164-6.306a12.121,12.121,0,0,0-1.784-5.925.856.856,0,0,0-1.457.9,10.407,10.407,0,0,1,1.531,5.088c.078,2.249.136,4.545.173,6.833A4.021,4.021,0,0,0,41.076,30.3L36.89,38.625c-1.62-2.518-3.889-4.472-6.536-4.472-4.617,0-8.084,5.942-8.965,10.461h-.055a17.5,17.5,0,0,0-3.2-7.08q-.017-2.445,0-4.909c.884.018,1.77.029,2.658.029,2.22,0,4.449-.055,6.66-.163a3.057,3.057,0,0,0,2.893-2.7,25.714,25.714,0,0,0,0-6.066,3.057,3.057,0,0,0-2.893-2.7c-2.992-.147-6.022-.194-9.022-.142a10.311,10.311,0,0,1,5.86-8.062H36.422a10.341,10.341,0,0,1,2.361,1.539A.856.856,0,1,0,39.9,13.067a12.117,12.117,0,0,0-1.213-.923,3.168,3.168,0,0,0-1.1-5.547V3.572A3.577,3.577,0,0,0,34.02,0H26.689a3.576,3.576,0,0,0-3.572,3.572V6.6a3.168,3.168,0,0,0-1.1,5.547,12.09,12.09,0,0,0-5.38,9.654c-.161,4.632-.236,9.314-.225,13.949a6.38,6.38,0,0,0-4.043-1.594c-2.08,0-4.185,1.274-5.927,3.586a.856.856,0,0,0,1.367,1.03c.817-1.085,2.5-2.9,4.561-2.9,1.608,0,3.3,1.126,4.756,3.171a15.638,15.638,0,0,1,2.462,5.579H5.15a15.478,15.478,0,0,1,1.024-3.057.856.856,0,0,0-1.559-.705,16.991,16.991,0,0,0-1.209,3.762H2.232a2.22,2.22,0,0,0,0,4.439h.42c.142,1.311.381,2.617.616,3.887.167.905.339,1.841.471,2.753a2.738,2.738,0,0,0,2.4,2.331,54.331,54.331,0,0,0,6.235.382,54.39,54.39,0,0,0,6.229-.381,2.734,2.734,0,0,0,1.124-.389,5.717,5.717,0,0,0,2.881.771h7.75a54.332,54.332,0,0,0,6.238-.382,2.722,2.722,0,0,0,1.546-.714,20.054,20.054,0,0,0,18.954-3.228,3.541,3.541,0,0,0,.952-4.344ZM24.828,3.572a1.863,1.863,0,0,1,1.861-1.861H34.02a1.863,1.863,0,0,1,1.861,1.861V6.48H24.828Zm-.856,4.619H36.736a1.46,1.46,0,0,1,0,2.919H23.973a1.46,1.46,0,1,1,0-2.919Zm3.393,14.543a1.35,1.35,0,0,1,1.277,1.192,24,24,0,0,1,0,5.662,1.35,1.35,0,0,1-1.278,1.192c-3.064.151-6.161.195-9.22.134.029-2.775.089-5.554.18-8.318,3.005-.055,6.042-.01,9.041.137ZM42.6,31.065a2.276,2.276,0,0,1,2.07-1.275h0a2.276,2.276,0,0,1,2.07,1.276l1,1.991a3.908,3.908,0,0,0,3.509,6.984l4.787,9.524-.015.013a18.264,18.264,0,0,1-16.54,3.2c.225-1.22.45-2.471.586-3.727h.421a2.22,2.22,0,0,0,0-4.439H39.318a17.487,17.487,0,0,0-1.42-4.185ZM25.6,39.035c1.46-2.045,3.149-3.171,4.757-3.171s3.3,1.126,4.757,3.171a15.636,15.636,0,0,1,2.462,5.579H23.135A15.636,15.636,0,0,1,25.6,39.035Zm-23.874,7.8a.509.509,0,0,1,.508-.508H40.493a.508.508,0,0,1,0,1.017H2.232a.509.509,0,0,1-.508-.508Zm19.119,9.461a2.727,2.727,0,0,0,.16-.6c.08-.561.175-1.229.274-1.943.007-.048.01-.075.086-.075s.08.027.086.074c.1.714.194,1.382.274,1.944a2.724,2.724,0,0,0,.334.965A4,4,0,0,1,20.842,56.294Zm15.555.03a49.459,49.459,0,0,1-12.077,0,1.03,1.03,0,0,1-.9-.873c-.08-.559-.174-1.226-.274-1.938a1.8,1.8,0,0,0-3.562,0c-.1.712-.194,1.378-.273,1.937a1.03,1.03,0,0,1-.9.874,49.459,49.459,0,0,1-12.077,0,1.025,1.025,0,0,1-.9-.875c-.136-.945-.312-1.9-.482-2.82-.217-1.177-.439-2.386-.577-3.577H38.35c-.138,1.194-.36,2.406-.578,3.587-.169.919-.344,1.868-.48,2.811A1.025,1.025,0,0,1,36.4,56.324Zm19.629-3.582a18.341,18.341,0,0,1-17.057,3.041c.005-.03.012-.059.017-.089.058-.4.125-.812.2-1.22A19.972,19.972,0,0,0,56.7,51.216a1.816,1.816,0,0,1-.676,1.526Z" transform="translate(-0.012 0)"/>
        <path id="Trazado_1017075" data-name="Trazado 1017075" d="M393.3,387.033a3.785,3.785,0,0,0,2.446,1.588,3.853,3.853,0,0,0,.7.065,3.811,3.811,0,1,0-3.147-1.652Zm1.076-2.54a2.1,2.1,0,0,1,2.059-1.717,2.121,2.121,0,0,1,.387.036,2.1,2.1,0,1,1-2.446,1.681Z" transform="translate(-347.839 -337.593)"/>
        <path id="Trazado_1017076" data-name="Trazado 1017076" d="M349.37,345.621a2.813,2.813,0,0,0,.512.047,2.781,2.781,0,1,0-.512-.047Zm-.543-2.925a1.066,1.066,0,1,1,.854,1.243,1.067,1.067,0,0,1-.854-1.243Z" transform="translate(-307.504 -301.313)"/>
      </g>
    </g>
  </g>
</svg>
