<svg xmlns="http://www.w3.org/2000/svg" xmlns:xlink="http://www.w3.org/1999/xlink" width="110" height="110" viewBox="0 0 110 110">
  <defs>
    <filter id="Trazado_982547" x="0" y="0" width="110" height="110" filterUnits="userSpaceOnUse">
      <feOffset dy="3" input="SourceAlpha"/>
      <feGaussianBlur stdDeviation="3" result="blur"/>
      <feFlood flood-opacity="0.161"/>
      <feComposite operator="in" in2="blur"/>
      <feComposite in="SourceGraphic"/>
    </filter>
  </defs>
  <g id="Grupo_1171280" data-name="Grupo 1171280" transform="translate(-4706 -2783)">
    <g id="Grupo_1171063" data-name="Grupo 1171063" transform="translate(4329.771 618)">
      <g id="Grupo_1162529" data-name="Grupo 1162529" transform="translate(385.229 2171)">
        <g id="Grupo_1162411" data-name="Grupo 1162411" transform="translate(0)">
          <g id="Grupo_1158637" data-name="Grupo 1158637" transform="translate(0 0)">
            <g id="Grupo_1155724" data-name="Grupo 1155724">
              <g id="Grupo_1154703" data-name="Grupo 1154703">
                <g id="Grupo_1150789" data-name="Grupo 1150789" transform="translate(0 0)">
                  <g id="Grupo_1154212" data-name="Grupo 1154212" transform="translate(0)">
                    <g id="Grupo_1152583" data-name="Grupo 1152583">
                      <g id="Grupo_1146973" data-name="Grupo 1146973">
                        <g id="Grupo_1146954" data-name="Grupo 1146954">
                          <g transform="matrix(1, 0, 0, 1, -9, -6)" filter="url(#Trazado_982547)">
                            <g id="Trazado_982547-2" data-name="Trazado 982547" transform="translate(9 6)" fill="#ebe9f0">
                              <path d="M 46.00000381469727 90.49986267089844 C 39.99188232421875 90.49986267089844 34.16427230834961 89.32350158691406 28.67905807495117 87.00344848632812 C 23.38020324707031 84.76223754882812 18.62104415893555 81.55341339111328 14.53375053405762 77.46613311767578 C 10.44647026062012 73.37885284423828 7.237643718719482 68.61968994140625 4.996417045593262 63.32085037231445 C 2.676363706588745 57.83565139770508 1.500003814697266 52.00805282592773 1.500003814697266 45.99993133544922 C 1.500003814697266 39.99182510375977 2.676363706588745 34.16422653198242 4.996417045593262 28.67901039123535 C 7.237643718719482 23.38017082214355 10.44647026062012 18.62101173400879 14.53375053405762 14.53373146057129 C 18.62104415893555 10.44645118713379 23.38020324707031 7.237624645233154 28.67905807495117 4.996411323547363 C 34.16427230834961 2.676357984542847 39.99188232421875 1.499997973442078 46.00000381469727 1.499997973442078 C 52.00812530517578 1.499997973442078 57.83573532104492 2.676357984542847 63.32094955444336 4.996411323547363 C 68.61980438232422 7.237624645233154 73.37896728515625 10.44645118713379 77.46625518798828 14.53373146057129 C 81.55353546142578 18.62101173400879 84.76236724853516 23.38017082214355 87.00359344482422 28.67901039123535 C 89.32364654541016 34.16422653198242 90.5 39.99182510375977 90.5 45.99993133544922 C 90.5 52.00805282592773 89.32364654541016 57.83565139770508 87.00359344482422 63.32085037231445 C 84.76236724853516 68.61968994140625 81.55353546142578 73.37885284423828 77.46625518798828 77.46613311767578 C 73.37896728515625 81.55341339111328 68.61980438232422 84.76223754882812 63.32094955444336 87.00344848632812 C 57.83573532104492 89.32350158691406 52.00812530517578 90.49986267089844 46.00000381469727 90.49986267089844 Z" stroke="none"/>
                              <path d="M 46.00000381469727 3 C 40.19371795654297 3 34.56270217895508 4.136505126953125 29.26337432861328 6.377914428710938 C 24.14333343505859 8.54351806640625 19.54441833496094 11.64438629150391 15.59440612792969 15.59439086914062 C 11.64440155029297 19.54440307617188 8.54351806640625 24.14330291748047 6.377914428710938 29.26334381103516 C 4.136505126953125 34.56266021728516 3.000007629394531 40.19366073608398 3.000007629394531 45.99993133544922 C 3.000007629394531 51.80620193481445 4.136505126953125 57.43720245361328 6.377914428710938 62.73651885986328 C 8.54351806640625 67.85655975341797 11.64440155029297 72.45545959472656 15.59440612792969 76.40547180175781 C 19.54441833496094 80.35547637939453 24.14333343505859 83.45634460449219 29.26337432861328 85.6219482421875 C 34.56270217895508 87.86335754394531 40.19371795654297 88.99986267089844 46.00000381469727 88.99986267089844 C 51.80628967285156 88.99986267089844 57.43730545043945 87.86335754394531 62.73661804199219 85.6219482421875 C 67.85667419433594 83.45634460449219 72.45557403564453 80.35547637939453 76.40558624267578 76.40547180175781 C 80.35560607910156 72.45545959472656 83.45647430419922 67.85655975341797 85.62207794189453 62.73651885986328 C 87.86350250244141 57.43720245361328 89 51.80620193481445 89 45.99993133544922 C 89 40.19366073608398 87.86350250244141 34.56266021728516 85.62207794189453 29.26334381103516 C 83.45647430419922 24.14330291748047 80.35560607910156 19.54440307617188 76.40558624267578 15.59439086914062 C 72.45557403564453 11.64438629150391 67.85667419433594 8.54351806640625 62.73661804199219 6.377914428710938 C 57.43730545043945 4.136505126953125 51.80628967285156 3 46.00000381469727 3 M 46.00000381469727 0 C 71.40509033203125 0 92 20.59487152099609 92 45.99993133544922 C 92 71.40499114990234 71.40509033203125 91.99986267089844 46.00000381469727 91.99986267089844 C 20.59490203857422 91.99986267089844 7.62939453125e-06 71.40499114990234 7.62939453125e-06 45.99993133544922 C 7.62939453125e-06 20.59487152099609 20.59490203857422 0 46.00000381469727 0 Z" stroke="none" fill="#453179"/>
                            </g>
                          </g>
                        </g>
                      </g>
                    </g>
                  </g>
                </g>
              </g>
            </g>
          </g>
        </g>
      </g>
    </g>
    <g id="salsas" transform="translate(4715 2789)">
      <path id="Trazado_1017077" data-name="Trazado 1017077" d="M36.049,72H30.025s0,15.943-4.6,22.516A7.951,7.951,0,0,0,24,99.079V120.2a4.017,4.017,0,0,0,4.017,4.017H38.058a4.017,4.017,0,0,0,4.017-4.017V99.079a7.951,7.951,0,0,0-1.423-4.563c-4.6-6.573-4.6-22.516-4.6-22.516Z" transform="translate(-6.996 -48.971)" fill="#eb423f"/>
      <rect id="Rect치ngulo_413679" data-name="Rect치ngulo 413679" width="12.022" height="6.011" rx="3.005" transform="translate(20.007 23.347)" fill="#c7312e"/>
      <path id="Trazado_1017078" data-name="Trazado 1017078" d="M24,280H42.075v20.083H24Z" transform="translate(-6.996 -230.863)" fill="#ed6f6d"/>
      <path id="Trazado_1017079" data-name="Trazado 1017079" d="M344,296v20.083a4.017,4.017,0,0,0,4.017,4.017h10.041a4.017,4.017,0,0,0,4.017-4.017V296" transform="translate(-286.831 -244.855)" fill="#ff8e26"/>
      <path id="Trazado_1017080" data-name="Trazado 1017080" d="M368,104h12.05v6.025H368Z" transform="translate(-307.818 -76.954)" fill="#d46109"/>
      <path id="Trazado_1017081" data-name="Trazado 1017081" d="M398.025,32.033H392L393,24h4.017Z" transform="translate(-328.806 -6.996)" fill="#d46109"/>
      <path id="Trazado_1017082" data-name="Trazado 1017082" d="M362.075,169.936l-5.021-18.094-8.033.02L344,169.936Z" transform="translate(-286.831 -118.791)" fill="#ff8e26"/>
      <path id="Trazado_1017083" data-name="Trazado 1017083" d="M384,72h8.033v4.017H384Z" transform="translate(-321.81 -48.971)" fill="#ff8e26"/>
      <path id="Trazado_1017084" data-name="Trazado 1017084" d="M344,296h18.075v16.066H344Z" transform="translate(-286.831 -244.855)" fill="#d46109"/>
      <rect id="Rect치ngulo_413680" data-name="Rect치ngulo 413680" width="16.029" height="6.011" rx="3.005" transform="translate(38.04 29.358)" fill="#ffd33a"/>
      <path id="Trazado_1017085" data-name="Trazado 1017085" d="M188.584,174.827l-3.513-2.811V168h-12.05v4.017l-3.513,2.811A4.017,4.017,0,0,0,168,177.964v26.186a4.017,4.017,0,0,0,4.017,4.017h14.058a4.017,4.017,0,0,0,4.017-4.017V177.964A4.017,4.017,0,0,0,188.584,174.827Z" transform="translate(-132.922 -132.921)" fill="#ea9f26"/>
      <path id="Trazado_1017086" data-name="Trazado 1017086" d="M200,248h14.058v24.1H200Z" transform="translate(-160.905 -202.88)" fill="#ffd33a"/>
      <circle id="Elipse_11991" data-name="Elipse 11991" cx="4.007" cy="4.007" r="4.007" transform="translate(22.01 56.073)" fill="#c7312e"/>
      <ellipse id="Elipse_11992" data-name="Elipse 11992" cx="4.007" cy="3.005" rx="4.007" ry="3.005" transform="translate(62.084 56.073)" fill="#ff8e26"/>
      <path id="Trazado_1017087" data-name="Trazado 1017087" d="M71.549,34.075h.682a1,1,0,0,0,1-1V27.046a1,1,0,0,0-1-1h-1V23.029a1,1,0,0,0-1-1h-.369l-.643-5.145a1,1,0,0,0-1-.88H64.2a1,1,0,0,0-1,.88l-.643,5.145H62.19a1,1,0,0,0-1,1v3.012h-1a1,1,0,0,0-1,1V33.07a1,1,0,0,0,1,1h.687L58.084,44.1a4.991,4.991,0,0,0-1.795-2.979l-3.136-2.509v-2.7a3.017,3.017,0,0,0,2.008-2.84V31.062a3.016,3.016,0,0,0-3.012-3.012H40.1a3.016,3.016,0,0,0-3.012,3.012V33.07a3.017,3.017,0,0,0,2.008,2.84v2.7l-3.136,2.509a4.991,4.991,0,0,0-1.844,3.288c-2.186-3.574-3.2-9.544-3.67-14.377a3.016,3.016,0,0,0,2.625-2.987V25.037a3.016,3.016,0,0,0-3.012-3.012H22.024a3.016,3.016,0,0,0-3.012,3.012v2.008a3.016,3.016,0,0,0,2.625,2.987c-.5,5.094-1.594,11.453-4.034,14.937A8.91,8.91,0,0,0,16,50.108v21.12a5.026,5.026,0,0,0,5.021,5.021H31.062a5.016,5.016,0,0,0,4.016-2.011,5.016,5.016,0,0,0,4.017,2.011H53.153a5.016,5.016,0,0,0,4.016-2.012,5.016,5.016,0,0,0,4.017,2.012H71.227a5.026,5.026,0,0,0,5.021-5.021V51.145a1.006,1.006,0,0,0-.037-.268ZM21.02,27.046V25.037a1,1,0,0,1,1-1h8.033a1,1,0,0,1,1,1v2.008a1,1,0,0,1-1,1H22.024A1,1,0,0,1,21.02,27.046Zm7.627,5.021H23.435c.083-.686.155-1.358.218-2.008H28.43C28.492,30.709,28.564,31.381,28.647,32.066Zm-9.4,14.054c2.066-2.951,3.243-7.617,3.913-12.046H28.92c.67,4.429,1.847,9.1,3.913,12.046a6.813,6.813,0,0,1,.962,2.012H18.287a6.814,6.814,0,0,1,.962-2.012ZM34.074,71.228a3.016,3.016,0,0,1-3.012,3.012H21.02a3.016,3.016,0,0,1-3.012-3.012v-1H34.074Zm0-3.012H18.008V50.141H34.074Zm5.021-37.153a1,1,0,0,1,1-1h12.05a1,1,0,0,1,1,1V33.07a1,1,0,0,1-1,1H40.1a1,1,0,0,1-1-1Zm17.07,20.083V71.228a3.016,3.016,0,0,1-3.012,3.012H39.095a3.016,3.016,0,0,1-3.012-3.012V45.042a3,3,0,0,1,1.131-2.352l3.513-2.811A1,1,0,0,0,41.1,39.1V36.083H51.144V39.1a1,1,0,0,0,.377.784l3.513,2.811a3,3,0,0,1,1.131,2.352Zm8.92-33.137h2.244l.5,4.017H64.583Zm-1.891,6.025h6.025v2.008H63.194ZM61.186,28.05H71.227v4.017H61.186Zm8.836,8.033H62.4l.558-2.008h6.512Zm-8.185,2.008H70.58l3.344,12.05H58.49Zm12.4,33.137a3.016,3.016,0,0,1-3.012,3.012H61.186a3.016,3.016,0,0,1-3.012-3.012V68.215H74.24Zm0-5.021H58.173V52.149H74.24Z" transform="translate(0)"/>
      <path id="Trazado_1017088" data-name="Trazado 1017088" d="M207.062,240H193a1,1,0,0,0-1,1v24.1a1,1,0,0,0,1,1h14.058a1,1,0,0,0,1-1V241A1,1,0,0,0,207.062,240Zm-1,24.1h-12.05V242.008h12.05Z" transform="translate(-153.909 -195.884)"/>
      <path id="Trazado_1017089" data-name="Trazado 1017089" d="M61.018,324.05a5.019,5.019,0,0,0,2.5-9.371A3,3,0,0,0,64.03,313a1,1,0,1,0-2.008,0,1,1,0,1,1-2.008,0,1,1,0,1,0-2.008,0,3,3,0,0,0,.51,1.675,5.019,5.019,0,0,0,2.5,9.371Zm0-8.033a3.012,3.012,0,1,1-3.012,3.012A3.012,3.012,0,0,1,61.018,316.017Z" transform="translate(-34.977 -258.847)"/>
      <path id="Trazado_1017090" data-name="Trazado 1017090" d="M233,298.008h4.017a1,1,0,0,0,0-2.008H233a1,1,0,0,0,0,2.008Z" transform="translate(-188.889 -244.855)"/>
      <path id="Trazado_1017091" data-name="Trazado 1017091" d="M233,378.008h4.017a1,1,0,1,0,0-2.008H233a1,1,0,1,0,0,2.008Z" transform="translate(-188.889 -314.814)"/>
      <path id="Trazado_1017092" data-name="Trazado 1017092" d="M233,338.008h4.017a1,1,0,1,0,0-2.008H233a1,1,0,1,0,0,2.008Z" transform="translate(-188.889 -279.834)"/>
      <path id="Trazado_1017093" data-name="Trazado 1017093" d="M381.021,336.033c2.768,0,5.021-1.8,5.021-4.017S383.789,328,381.021,328,376,329.8,376,332.017,378.252,336.033,381.021,336.033Zm0-6.025c1.633,0,3.012.92,3.012,2.008s-1.379,2.008-3.012,2.008-3.012-.92-3.012-2.008S379.388,330.008,381.021,330.008Z" transform="translate(-314.814 -272.838)"/>
    </g>
  </g>
</svg>
