<svg xmlns="http://www.w3.org/2000/svg" xmlns:xlink="http://www.w3.org/1999/xlink" width="110" height="110" viewBox="0 0 110 110">
  <defs>
    <filter id="Trazado_982547" x="0" y="0" width="110" height="110" filterUnits="userSpaceOnUse">
      <feOffset dy="3" input="SourceAlpha"/>
      <feGaussianBlur stdDeviation="3" result="blur"/>
      <feFlood flood-opacity="0.161"/>
      <feComposite operator="in" in2="blur"/>
      <feComposite in="SourceGraphic"/>
    </filter>
  </defs>
  <g id="Grupo_1171212" data-name="Grupo 1171212" transform="translate(-796.865 -1489)">
    <g id="Grupo_1171018" data-name="Grupo 1171018" transform="translate(420.636 -676)">
      <g id="Grupo_1162529" data-name="Grupo 1162529" transform="translate(385.229 2171)">
        <g id="Grupo_1162411" data-name="Grupo 1162411" transform="translate(0)">
          <g id="Grupo_1158637" data-name="Grupo 1158637" transform="translate(0 0)">
            <g id="Grupo_1155724" data-name="Grupo 1155724">
              <g id="Grupo_1154703" data-name="Grupo 1154703">
                <g id="Grupo_1150789" data-name="Grupo 1150789" transform="translate(0 0)">
                  <g id="Grupo_1154212" data-name="Grupo 1154212" transform="translate(0)">
                    <g id="Grupo_1152583" data-name="Grupo 1152583">
                      <g id="Grupo_1146973" data-name="Grupo 1146973">
                        <g id="Grupo_1146954" data-name="Grupo 1146954">
                          <g transform="matrix(1, 0, 0, 1, -9, -6)" filter="url(#Trazado_982547)">
                            <g id="Trazado_982547-2" data-name="Trazado 982547" transform="translate(9 6)" fill="#ebe9f0">
                              <path d="M 46.00000381469727 90.49986267089844 C 39.99188232421875 90.49986267089844 34.16427230834961 89.32350158691406 28.67905807495117 87.00344848632812 C 23.38020324707031 84.76223754882812 18.62104415893555 81.55341339111328 14.53375053405762 77.46613311767578 C 10.44647026062012 73.37885284423828 7.237643718719482 68.61968994140625 4.996417045593262 63.32085037231445 C 2.676363706588745 57.83565139770508 1.500003814697266 52.00805282592773 1.500003814697266 45.99993133544922 C 1.500003814697266 39.99182510375977 2.676363706588745 34.16422653198242 4.996417045593262 28.67901039123535 C 7.237643718719482 23.38017082214355 10.44647026062012 18.62101173400879 14.53375053405762 14.53373146057129 C 18.62104415893555 10.44645118713379 23.38020324707031 7.237624645233154 28.67905807495117 4.996411323547363 C 34.16427230834961 2.676357984542847 39.99188232421875 1.499997973442078 46.00000381469727 1.499997973442078 C 52.00812530517578 1.499997973442078 57.83573532104492 2.676357984542847 63.32094955444336 4.996411323547363 C 68.61980438232422 7.237624645233154 73.37896728515625 10.44645118713379 77.46625518798828 14.53373146057129 C 81.55353546142578 18.62101173400879 84.76236724853516 23.38017082214355 87.00359344482422 28.67901039123535 C 89.32364654541016 34.16422653198242 90.5 39.99182510375977 90.5 45.99993133544922 C 90.5 52.00805282592773 89.32364654541016 57.83565139770508 87.00359344482422 63.32085037231445 C 84.76236724853516 68.61968994140625 81.55353546142578 73.37885284423828 77.46625518798828 77.46613311767578 C 73.37896728515625 81.55341339111328 68.61980438232422 84.76223754882812 63.32094955444336 87.00344848632812 C 57.83573532104492 89.32350158691406 52.00812530517578 90.49986267089844 46.00000381469727 90.49986267089844 Z" stroke="none"/>
                              <path d="M 46.00000381469727 3 C 40.19371795654297 3 34.56270217895508 4.136505126953125 29.26337432861328 6.377914428710938 C 24.14333343505859 8.54351806640625 19.54441833496094 11.64438629150391 15.59440612792969 15.59439086914062 C 11.64440155029297 19.54440307617188 8.54351806640625 24.14330291748047 6.377914428710938 29.26334381103516 C 4.136505126953125 34.56266021728516 3.000007629394531 40.19366073608398 3.000007629394531 45.99993133544922 C 3.000007629394531 51.80620193481445 4.136505126953125 57.43720245361328 6.377914428710938 62.73651885986328 C 8.54351806640625 67.85655975341797 11.64440155029297 72.45545959472656 15.59440612792969 76.40547180175781 C 19.54441833496094 80.35547637939453 24.14333343505859 83.45634460449219 29.26337432861328 85.6219482421875 C 34.56270217895508 87.86335754394531 40.19371795654297 88.99986267089844 46.00000381469727 88.99986267089844 C 51.80628967285156 88.99986267089844 57.43730545043945 87.86335754394531 62.73661804199219 85.6219482421875 C 67.85667419433594 83.45634460449219 72.45557403564453 80.35547637939453 76.40558624267578 76.40547180175781 C 80.35560607910156 72.45545959472656 83.45647430419922 67.85655975341797 85.62207794189453 62.73651885986328 C 87.86350250244141 57.43720245361328 89 51.80620193481445 89 45.99993133544922 C 89 40.19366073608398 87.86350250244141 34.56266021728516 85.62207794189453 29.26334381103516 C 83.45647430419922 24.14330291748047 80.35560607910156 19.54440307617188 76.40558624267578 15.59439086914062 C 72.45557403564453 11.64438629150391 67.85667419433594 8.54351806640625 62.73661804199219 6.377914428710938 C 57.43730545043945 4.136505126953125 51.80628967285156 3 46.00000381469727 3 M 46.00000381469727 0 C 71.40509033203125 0 92 20.59487152099609 92 45.99993133544922 C 92 71.40499114990234 71.40509033203125 91.99986267089844 46.00000381469727 91.99986267089844 C 20.59490203857422 91.99986267089844 7.62939453125e-06 71.40499114990234 7.62939453125e-06 45.99993133544922 C 7.62939453125e-06 20.59487152099609 20.59490203857422 0 46.00000381469727 0 Z" stroke="none" fill="#453179"/>
                            </g>
                          </g>
                        </g>
                      </g>
                    </g>
                  </g>
                </g>
              </g>
            </g>
          </g>
        </g>
      </g>
    </g>
    <g id="fruta" transform="translate(818.183 1468.378)">
      <g id="Grupo_1171210" data-name="Grupo 1171210" transform="translate(0.976 48.901)">
        <g id="Grupo_1171209" data-name="Grupo 1171209">
          <g id="Grupo_1171202" data-name="Grupo 1171202" transform="translate(15.059)">
            <path id="Trazado_1016806" data-name="Trazado 1016806" d="M137.241,71.63a5.487,5.487,0,0,0-.011-.645,5.341,5.341,0,0,0-10.666.419q0,.112,0,.222a14.938,14.938,0,0,1-2.1,8.4,8.7,8.7,0,1,0,14.828-.087A14.5,14.5,0,0,1,137.241,71.63Z" transform="translate(-123.206 -66.063)" fill="#2db181"/>
            <path id="Trazado_1016807" data-name="Trazado 1016807" d="M185.787,84.527a8.7,8.7,0,0,1-8.828,8.7,8.544,8.544,0,0,1-1.8-.217A8.7,8.7,0,0,0,180.6,79.934a14.5,14.5,0,0,1-2.051-8.307,5.631,5.631,0,0,0-.012-.644,5.362,5.362,0,0,0-3.392-4.559,5.342,5.342,0,0,1,7.274,5.2,14.5,14.5,0,0,0,2.051,8.307A8.645,8.645,0,0,1,185.787,84.527Z" transform="translate(-168.39 -66.06)" fill="#1ca56f"/>
          </g>
          <g id="Grupo_1171203" data-name="Grupo 1171203" transform="translate(36.6 2.766)">
            <path id="Trazado_1016808" data-name="Trazado 1016808" d="M302.748,92.882a5.484,5.484,0,0,0-.011-.645,5.341,5.341,0,0,0-10.665.419q0,.112,0,.222a14.938,14.938,0,0,1-2.1,8.4,8.7,8.7,0,1,0,14.828-.087A14.5,14.5,0,0,1,302.748,92.882Z" transform="translate(-288.713 -87.316)" fill="#99d53b"/>
            <path id="Trazado_1016809" data-name="Trazado 1016809" d="M347.183,105.784a8.7,8.7,0,0,1-8.828,8.7,8.575,8.575,0,0,1-1.178-.1,8.7,8.7,0,0,0,4.5-12.8,14.51,14.51,0,0,1-2.051-8.307,5.627,5.627,0,0,0-.01-.644,5.358,5.358,0,0,0-3.69-4.663,5.341,5.341,0,0,1,7.89,4.917,14.5,14.5,0,0,0,2.051,8.307A8.645,8.645,0,0,1,347.183,105.784Z" transform="translate(-329.785 -87.318)" fill="#8dc637"/>
          </g>
          <g id="Grupo_1171204" data-name="Grupo 1171204" transform="translate(22.453 12.461)">
            <path id="Trazado_1016810" data-name="Trazado 1016810" d="M195.813,161.8a7.438,7.438,0,0,0-3.627.954,7.44,7.44,0,0,0-3.627-.954c-4.718,0-8.542,4.516-8.542,10.086s3.824,10.086,8.542,10.086a7.438,7.438,0,0,0,3.627-.954,7.438,7.438,0,0,0,3.627.954c4.718,0,8.542-4.516,8.542-10.086S200.531,161.8,195.813,161.8Z" transform="translate(-180.017 -161.803)" fill="#fb4a59"/>
            <path id="Trazado_1016811" data-name="Trazado 1016811" d="M293.987,171.892c0,5.57-3.825,10.087-8.542,10.087a7.307,7.307,0,0,1-2.386-.4c3.554-1.221,6.151-5.1,6.151-9.686s-2.6-8.464-6.151-9.684a7.273,7.273,0,0,1,2.386-.4C290.162,161.807,293.987,166.322,293.987,171.892Z" transform="translate(-269.649 -161.806)" fill="#f82f40"/>
          </g>
          <g id="Grupo_1171205" data-name="Grupo 1171205" transform="translate(36.37 8.26)">
            <path id="Trazado_1016812" data-name="Trazado 1016812" d="M295.313,168.212a16.2,16.2,0,0,1-7.184-1.668,2.124,2.124,0,0,1,.549-3.991,21.9,21.9,0,0,0,17.629-22.6,16.269,16.269,0,0,1-10.994,28.262Z" transform="translate(-286.945 -138.593)" fill="#fac574"/>
            <path id="Trazado_1016813" data-name="Trazado 1016813" d="M355,151.94a16.27,16.27,0,0,1-16.27,16.269,16.463,16.463,0,0,1-1.872-.107,16.277,16.277,0,0,0,12.619-23.568,22.016,22.016,0,0,0,.246-4.588A16.221,16.221,0,0,1,355,151.94Z" transform="translate(-330.364 -138.591)" fill="#e8b66b"/>
            <path id="Trazado_1016814" data-name="Trazado 1016814" d="M432.808,132.09l-.758,3.615h-3.894l-.758-3.615a2.123,2.123,0,0,1,2.078-2.559h1.255A2.123,2.123,0,0,1,432.808,132.09Z" transform="translate(-409.078 -129.53)" fill="#c76d3d"/>
            <path id="Trazado_1016815" data-name="Trazado 1016815" d="M442,132.086l-.759,3.616h-2.751l.759-3.616a2.127,2.127,0,0,0-1.33-2.425,2.145,2.145,0,0,1,.748-.134h1.255A2.124,2.124,0,0,1,442,132.086Z" transform="translate(-418.271 -129.527)" fill="#aa5e33"/>
          </g>
          <g id="Grupo_1171206" data-name="Grupo 1171206" transform="translate(3.677 17.969)">
            <path id="Trazado_1016816" data-name="Trazado 1016816" d="M46.241,204.63a6.712,6.712,0,0,0-2.694,2.047,6.711,6.711,0,0,0-3.353.457c-3.932,1.629-5.561,6.713-3.637,11.355s6.67,7.086,10.6,5.458a6.712,6.712,0,0,0,2.694-2.047,6.711,6.711,0,0,0,3.353-.457c3.932-1.629,5.561-6.713,3.637-11.355S50.173,203,46.241,204.63Z" transform="translate(-35.749 -204.125)" fill="#fac574"/>
            <path id="Trazado_1016817" data-name="Trazado 1016817" d="M109.65,221.445a6.642,6.642,0,0,1-1.783.459c2.387-2.28,3.13-6.29,1.587-10.016-1.637-3.955-5.326-6.315-8.814-5.918a6.6,6.6,0,0,1,2.046-1.338c3.932-1.629,8.678.815,10.6,5.457S113.582,219.815,109.65,221.445Z" transform="translate(-92.194 -204.127)" fill="#e8b66b"/>
          </g>
          <g id="Grupo_1171208" data-name="Grupo 1171208" transform="translate(0 30.053)">
            <g id="Grupo_1171207" data-name="Grupo 1171207" transform="translate(3.099 4.033)">
              <path id="Trazado_1016818" data-name="Trazado 1016818" d="M89.8,327.955c0,9.359-10.7,16.947-23.91,16.947H55.22c-13.2,0-23.91-7.588-23.91-16.947Z" transform="translate(-31.31 -327.955)" fill="#d67f4f"/>
              <path id="Trazado_1016819" data-name="Trazado 1016819" d="M31.31,327.955a12.981,12.981,0,0,0,2.36,7.344H76.389a1.953,1.953,0,0,1,1.263,3.442C73.266,342.5,66.633,344.9,59.209,344.9h6.678c13.2,0,23.91-7.588,23.91-16.947Z" transform="translate(-31.31 -327.955)" fill="#c76d3d"/>
            </g>
            <path id="Trazado_1016820" data-name="Trazado 1016820" d="M68.55,304.237H11.134a3.634,3.634,0,1,1,0-7.268H68.55a3.634,3.634,0,1,1,0,7.268Z" transform="translate(-7.5 -296.969)" fill="#e09977"/>
            <path id="Trazado_1016821" data-name="Trazado 1016821" d="M450.822,300.6a3.635,3.635,0,0,1-3.634,3.634h-4.4a3.634,3.634,0,0,0,0-7.268h4.4A3.634,3.634,0,0,1,450.822,300.6Z" transform="translate(-386.137 -296.97)" fill="#da875d"/>
          </g>
        </g>
      </g>
      <g id="Grupo_1171211" data-name="Grupo 1171211" transform="translate(0 46.333)">
        <path id="Trazado_1016822" data-name="Trazado 1016822" d="M66.637,82.588a4.615,4.615,0,0,0-4.61-4.61h-.767a17.253,17.253,0,0,0,1.7-7.468,17.073,17.073,0,0,0-1.618-7.3l.69-3.289A3.1,3.1,0,0,0,59,56.186H57.743a3.1,3.1,0,0,0-3.033,3.735l.719,3.429a20.98,20.98,0,0,1-.56,2.342c-.118-.227-.244-.45-.38-.668a13.5,13.5,0,0,1-1.9-7.75,6.439,6.439,0,0,0-.013-.76,6.347,6.347,0,0,0-4.633-5.6l.187-2.4,2.5-.236a.976.976,0,1,0-.183-1.944l-4.691.442a.976.976,0,0,0,.09,1.948c.031,0,.062,0,.093,0l.213-.02L46,50.7a6.25,6.25,0,0,0-4.029,1.687,6.339,6.339,0,0,0-2.012,4.623c0,.088,0,.175.005.262a14.708,14.708,0,0,1-.206,3.135c-.177-.012-.354-.02-.532-.02a8.26,8.26,0,0,0-2.429.365,5.449,5.449,0,0,1,1.231-2.892.976.976,0,1,0-1.364-1.4,7.871,7.871,0,0,0-1.875,4.417A8.258,8.258,0,0,0,32,60.387a14.261,14.261,0,0,1-.956-5.879,6.493,6.493,0,0,0-.013-.759,6.31,6.31,0,0,0-2.315-4.4,5.6,5.6,0,0,1,.561-.18.976.976,0,1,0-.5-1.887,7.1,7.1,0,0,0-2.132.941,6.307,6.307,0,0,0-6.219,1.4,6.339,6.339,0,0,0-2.012,4.623c0,.088,0,.176.005.262a13.953,13.953,0,0,1-1.964,7.85,9.671,9.671,0,0,0-1.345,3.988c-.115.041-.23.084-.344.131a7.566,7.566,0,0,0-1.451.8,8.486,8.486,0,0,1,.142-1.686.976.976,0,1,0-1.919-.356,10.319,10.319,0,0,0-.1,3.178,7.549,7.549,0,0,0-2.718.573c-3.367,1.395-5.329,5-5.015,9.089a4.61,4.61,0,0,0,.052,9.052C5.027,91,8.109,94.509,12.454,97a31.614,31.614,0,0,0,15.531,3.9H38.652a32.734,32.734,0,0,0,12.415-2.378.976.976,0,1,0-.747-1.8,30.765,30.765,0,0,1-11.668,2.23H27.985a29.636,29.636,0,0,1-14.559-3.645A16.93,16.93,0,0,1,5.864,87.2H60.773a16.6,16.6,0,0,1-6.815,7.664.976.976,0,1,0,1.036,1.655,17.872,17.872,0,0,0,7.881-9.4,4.617,4.617,0,0,0,3.761-4.531ZM48.5,77.977a22.977,22.977,0,0,0,2.511-2.169,22.715,22.715,0,0,0,6.218-11.5H59.7a15.308,15.308,0,0,1-.638,13.666Zm8.35-19.416a1.143,1.143,0,0,1,.89-.424H59a1.147,1.147,0,0,1,1.122,1.382l-.6,2.84H57.217l-.6-2.84A1.142,1.142,0,0,1,56.853,58.562ZM34.62,63.5a3.514,3.514,0,0,1-.826-.213.976.976,0,0,0-.82,1.772,6.305,6.305,0,0,0,2.5.451,9.007,9.007,0,0,0,2.612-.4.976.976,0,0,0-.565-1.869,7.784,7.784,0,0,1-.953.225c0-.089,0-.283,0-.548a6.369,6.369,0,0,1,2.649-.58c3.509,0,6.613,2.991,7.381,7.113a.976.976,0,0,0,1.919-.357,11.516,11.516,0,0,0-3.238-6.177,9.109,9.109,0,0,0-3.61-2.157,16.659,16.659,0,0,0,.236-3.569q0-.091,0-.183a4.365,4.365,0,0,1,4.685-4.353,4.376,4.376,0,0,1,4.031,4.008,4.5,4.5,0,0,1,.009.53,15.441,15.441,0,0,0,2.2,8.864,7.65,7.65,0,0,1,.982,2.407,20.959,20.959,0,0,1-5.9,7.5,12.341,12.341,0,0,0,.629-2.27.976.976,0,0,0-1.922-.341,9.687,9.687,0,0,1-2.131,4.625H27.465a11.184,11.184,0,0,0-.818-5.519,11.511,11.511,0,0,0-2.013-3.234c.837-4,3.891-6.887,7.337-6.887a6.37,6.37,0,0,1,2.649.58c-.005.261,0,.46,0,.583Zm-16.493-.134a15.9,15.9,0,0,0,2.246-8.944q0-.09,0-.182a4.363,4.363,0,0,1,4.577-4.358,7.066,7.066,0,0,0-.85,1.634.976.976,0,0,0-1.51,1.236,5.813,5.813,0,0,0,3.642,1.935.976.976,0,1,0,.224-1.939,3.488,3.488,0,0,1-.657-.143A4.952,4.952,0,0,1,26.971,50.5a4.371,4.371,0,0,1,2.115,3.4,4.509,4.509,0,0,1,.009.53,16.374,16.374,0,0,0,.911,6.2,9.034,9.034,0,0,0-4.1,2.29A11.272,11.272,0,0,0,23,67.732a9.966,9.966,0,0,0-1.359-.848,8.472,8.472,0,0,0-4.494-.971,7.707,7.707,0,0,1,.976-2.545Zm43.9,21.878H4.61a2.658,2.658,0,1,1,0-5.316h8.259a.976.976,0,0,0,0-1.952H5.66c-.271-3.269,1.222-6.124,3.811-7.2a5.71,5.71,0,0,1,2.868-.389.975.975,0,0,0,.875-.362,5.714,5.714,0,0,1,2.3-1.753,6.156,6.156,0,0,1,5.234.343,8.953,8.953,0,0,1,4.092,4.586,9.2,9.2,0,0,1,.653,4.772H17.12a.976.976,0,1,0,0,1.952H62.027a2.658,2.658,0,1,1,0,5.316Z" transform="translate(0 -46.333)"/>
        <path id="Trazado_1016823" data-name="Trazado 1016823" d="M106.083,377.371a.976.976,0,0,0-.976-.976h-2.618a.976.976,0,1,0,0,1.952h2.618A.976.976,0,0,0,106.083,377.371Z" transform="translate(-88.3 -333.438)"/>
        <path id="Trazado_1016824" data-name="Trazado 1016824" d="M119.682,405.093H122.3a.976.976,0,1,0,0-1.952h-2.618a.976.976,0,1,0,0,1.952Z" transform="translate(-103.256 -356.703)"/>
        <path id="Trazado_1016825" data-name="Trazado 1016825" d="M301.316,377.371a.976.976,0,0,0-.976-.976h-2.618a.976.976,0,0,0,0,1.952h2.618A.976.976,0,0,0,301.316,377.371Z" transform="translate(-258.124 -333.438)"/>
        <path id="Trazado_1016826" data-name="Trazado 1016826" d="M336.257,394.141a.976.976,0,1,0,0,1.952h2.618a.976.976,0,1,0,0-1.952Z" transform="translate(-291.644 -348.874)"/>
        <path id="Trazado_1016827" data-name="Trazado 1016827" d="M287.543,407.539a.976.976,0,1,0,0,1.952h2.618a.976.976,0,0,0,0-1.952Z" transform="translate(-249.27 -360.528)"/>
      </g>
    </g>
  </g>
</svg>
