<svg xmlns="http://www.w3.org/2000/svg" xmlns:xlink="http://www.w3.org/1999/xlink" width="110" height="110" viewBox="0 0 110 110">
  <defs>
    <filter id="Trazado_982547" x="0" y="0" width="110" height="110" filterUnits="userSpaceOnUse">
      <feOffset dy="3" input="SourceAlpha"/>
      <feGaussianBlur stdDeviation="3" result="blur"/>
      <feFlood flood-opacity="0.161"/>
      <feComposite operator="in" in2="blur"/>
      <feComposite in="SourceGraphic"/>
    </filter>
  </defs>
  <g id="Grupo_1171215" data-name="Grupo 1171215" transform="translate(-1111.865 -1490)">
    <g id="Grupo_1171019" data-name="Grupo 1171019" transform="translate(420.636 -676)">
      <g id="Grupo_1162553" data-name="Grupo 1162553" transform="translate(700.229 2172)">
        <g id="Grupo_1162412" data-name="Grupo 1162412" transform="translate(0 0)">
          <g id="Grupo_1158638" data-name="Grupo 1158638" transform="translate(0 0)">
            <g id="Grupo_1155734" data-name="Grupo 1155734">
              <g id="Grupo_1154704" data-name="Grupo 1154704">
                <g id="Grupo_1150790" data-name="Grupo 1150790" transform="translate(0 0)">
                  <g id="Grupo_1154214" data-name="Grupo 1154214" transform="translate(0)">
                    <g id="Grupo_1152583" data-name="Grupo 1152583">
                      <g id="Grupo_1146973" data-name="Grupo 1146973">
                        <g id="Grupo_1146954" data-name="Grupo 1146954">
                          <g transform="matrix(1, 0, 0, 1, -9, -6)" filter="url(#Trazado_982547)">
                            <g id="Trazado_982547-2" data-name="Trazado 982547" transform="translate(9 6)" fill="#ebe9f0">
                              <path d="M 46.00000381469727 90.49986267089844 C 39.99188232421875 90.49986267089844 34.16427230834961 89.32350158691406 28.67905807495117 87.00344848632812 C 23.38020324707031 84.76223754882812 18.62104415893555 81.55341339111328 14.53375053405762 77.46613311767578 C 10.44647026062012 73.37885284423828 7.237643718719482 68.61968994140625 4.996417045593262 63.32085037231445 C 2.676363706588745 57.83565139770508 1.500003814697266 52.00805282592773 1.500003814697266 45.99993133544922 C 1.500003814697266 39.99182510375977 2.676363706588745 34.16422653198242 4.996417045593262 28.67901039123535 C 7.237643718719482 23.38017082214355 10.44647026062012 18.62101173400879 14.53375053405762 14.53373146057129 C 18.62104415893555 10.44645118713379 23.38020324707031 7.237624645233154 28.67905807495117 4.996411323547363 C 34.16427230834961 2.676357984542847 39.99188232421875 1.499997973442078 46.00000381469727 1.499997973442078 C 52.00812530517578 1.499997973442078 57.83573532104492 2.676357984542847 63.32094955444336 4.996411323547363 C 68.61980438232422 7.237624645233154 73.37896728515625 10.44645118713379 77.46625518798828 14.53373146057129 C 81.55353546142578 18.62101173400879 84.76236724853516 23.38017082214355 87.00359344482422 28.67901039123535 C 89.32364654541016 34.16422653198242 90.5 39.99182510375977 90.5 45.99993133544922 C 90.5 52.00805282592773 89.32364654541016 57.83565139770508 87.00359344482422 63.32085037231445 C 84.76236724853516 68.61968994140625 81.55353546142578 73.37885284423828 77.46625518798828 77.46613311767578 C 73.37896728515625 81.55341339111328 68.61980438232422 84.76223754882812 63.32094955444336 87.00344848632812 C 57.83573532104492 89.32350158691406 52.00812530517578 90.49986267089844 46.00000381469727 90.49986267089844 Z" stroke="none"/>
                              <path d="M 46.00000381469727 3 C 40.19371795654297 3 34.56270217895508 4.136505126953125 29.26337432861328 6.377914428710938 C 24.14333343505859 8.54351806640625 19.54441833496094 11.64438629150391 15.59440612792969 15.59439086914062 C 11.64440155029297 19.54440307617188 8.54351806640625 24.14330291748047 6.377914428710938 29.26334381103516 C 4.136505126953125 34.56266021728516 3.000007629394531 40.19366073608398 3.000007629394531 45.99993133544922 C 3.000007629394531 51.80620193481445 4.136505126953125 57.43720245361328 6.377914428710938 62.73651885986328 C 8.54351806640625 67.85655975341797 11.64440155029297 72.45545959472656 15.59440612792969 76.40547180175781 C 19.54441833496094 80.35547637939453 24.14333343505859 83.45634460449219 29.26337432861328 85.6219482421875 C 34.56270217895508 87.86335754394531 40.19371795654297 88.99986267089844 46.00000381469727 88.99986267089844 C 51.80628967285156 88.99986267089844 57.43730545043945 87.86335754394531 62.73661804199219 85.6219482421875 C 67.85667419433594 83.45634460449219 72.45557403564453 80.35547637939453 76.40558624267578 76.40547180175781 C 80.35560607910156 72.45545959472656 83.45647430419922 67.85655975341797 85.62207794189453 62.73651885986328 C 87.86350250244141 57.43720245361328 89 51.80620193481445 89 45.99993133544922 C 89 40.19366073608398 87.86350250244141 34.56266021728516 85.62207794189453 29.26334381103516 C 83.45647430419922 24.14330291748047 80.35560607910156 19.54440307617188 76.40558624267578 15.59439086914062 C 72.45557403564453 11.64438629150391 67.85667419433594 8.54351806640625 62.73661804199219 6.377914428710938 C 57.43730545043945 4.136505126953125 51.80628967285156 3 46.00000381469727 3 M 46.00000381469727 0 C 71.40509033203125 0 92 20.59487152099609 92 45.99993133544922 C 92 71.40499114990234 71.40509033203125 91.99986267089844 46.00000381469727 91.99986267089844 C 20.59490203857422 91.99986267089844 7.62939453125e-06 71.40499114990234 7.62939453125e-06 45.99993133544922 C 7.62939453125e-06 20.59487152099609 20.59490203857422 0 46.00000381469727 0 Z" stroke="none" fill="#453179"/>
                            </g>
                          </g>
                        </g>
                      </g>
                    </g>
                  </g>
                </g>
              </g>
            </g>
          </g>
        </g>
      </g>
    </g>
    <g id="raiz-de-yuca" transform="translate(1085.697 1511.5)">
      <g id="Grupo_1171214" data-name="Grupo 1171214" transform="translate(59.394 0.894)">
        <path id="Trazado_1016828" data-name="Trazado 1016828" d="M255.711,325.484l.089.194a1.17,1.17,0,0,0,.723.631l.081.025a1.17,1.17,0,0,1,.712,1.629,1.17,1.17,0,0,0-.01,1l1.989,4.334a1.545,1.545,0,0,0,.641.7l.089.051a1.545,1.545,0,0,1,.742,1.69,1.544,1.544,0,0,0,.1.991l1.529,3.332a2.522,2.522,0,0,0,4.731-1.692l-2.4-9.124-2.451-9.027-6.57-.729Z" transform="translate(-233.109 -282.314)" fill="#be785a"/>
        <path id="Trazado_1016829" data-name="Trazado 1016829" d="M173.109,295.475l-1.934,4.216a1.17,1.17,0,0,1-.723.631l-.081.025a1.17,1.17,0,0,0-.712,1.629,1.17,1.17,0,0,1,.01,1l-1.989,4.334a1.545,1.545,0,0,1-.641.7l-.089.051a1.545,1.545,0,0,0-.742,1.69,1.545,1.545,0,0,1-.1.991l-1.529,3.332a2.522,2.522,0,0,1-4.731-1.692l2.4-9.124,8.493-13.271,3.811,2.814Z" transform="translate(-148.593 -256.327)" fill="#ce845c"/>
        <path id="Trazado_1016830" data-name="Trazado 1016830" d="M114.9,134.256v5.767a3.574,3.574,0,0,1-1.36,2.805l-.885.7a1.308,1.308,0,0,1-1.048.26,1.308,1.308,0,0,0-1.541,1.169l-.009.1a1.308,1.308,0,0,1-.492.909l-1.544,1.219a2.383,2.383,0,0,0-.906,1.87v1.488a2.383,2.383,0,0,0,1.76,2.3l2.715.736a3.575,3.575,0,0,1,1.984,1.386l3.754,5.309a1.916,1.916,0,0,1,.351,1.128v.06a1.916,1.916,0,0,0,1.326,1.845,1.916,1.916,0,0,1,.975.717l4.493,6.354a2.52,2.52,0,0,1-3.834,3.243l-.445-.442a1.145,1.145,0,0,1-.336-.884,1.145,1.145,0,0,0-1.128-1.216l-.195,0a1.145,1.145,0,0,1-.792-.333l-6.819-6.773a1.311,1.311,0,0,1-.384-.837l-.013-.185a1.311,1.311,0,0,0-1.313-1.218,1.311,1.311,0,0,1-.929-.381l-1.043-1.036a3.574,3.574,0,0,1-1.053-2.661v-.039a1.754,1.754,0,1,0-3.506,0v.039a3.575,3.575,0,0,1-1.053,2.661l-1.043,1.036a1.312,1.312,0,0,1-.929.381,1.311,1.311,0,0,0-1.313,1.218l-.013.185a1.312,1.312,0,0,1-.384.837l-6.819,6.773a1.145,1.145,0,0,1-.792.333l-.195,0a1.145,1.145,0,0,0-1.129,1.216,1.145,1.145,0,0,1-.336.884l-.445.442a2.52,2.52,0,0,1-3.834-3.243l4.493-6.354a1.916,1.916,0,0,1,.975-.717,1.916,1.916,0,0,0,1.326-1.845v-.06a1.916,1.916,0,0,1,.351-1.128l3.754-5.309a3.574,3.574,0,0,1,1.984-1.386l2.715-.736a2.383,2.383,0,0,0,1.76-2.3v-1.488a2.383,2.383,0,0,0-.906-1.87l-1.544-1.219a1.309,1.309,0,0,1-.492-.909l-.009-.1a1.308,1.308,0,0,0-1.541-1.169,1.308,1.308,0,0,1-1.048-.26l-.885-.7a3.574,3.574,0,0,1-1.36-2.805v-5.767l4.51,1.512v3.419a.6.6,0,0,0,.227.468l4.254,3.358a2.383,2.383,0,0,0,2.953,0l4.254-3.358a.6.6,0,0,0,.227-.468v-2.937Z" transform="translate(-81.802 -119.154)" fill="#e29a6c"/>
        <path id="Trazado_1016831" data-name="Trazado 1016831" d="M269.064,173.707a2.518,2.518,0,0,1-3.467-.08l-.012-.012a2.517,2.517,0,0,0,.272-3.231l-4.493-6.355a1.97,1.97,0,0,0-.43-.437,1.884,1.884,0,0,0-.544-.279,1.916,1.916,0,0,1-1.326-1.845v-.061a1.913,1.913,0,0,0-.351-1.128l-3.754-5.309a3.575,3.575,0,0,0-1.984-1.387l-2.714-.735a2.384,2.384,0,0,1-1.76-2.3V149.06a2.383,2.383,0,0,1,.907-1.871l1.544-1.219a1.311,1.311,0,0,0,.492-.909l.01-.1a1.309,1.309,0,0,1,1.3-1.191,1.275,1.275,0,0,1,.241.023,1.306,1.306,0,0,0,1.048-.26l.885-.7a3.574,3.574,0,0,0,1.359-2.806v-4.185l3.574-1.581v5.766a3.574,3.574,0,0,1-1.359,2.806l-.885.7a1.306,1.306,0,0,1-1.048.26,1.275,1.275,0,0,0-.241-.023,1.309,1.309,0,0,0-1.3,1.191l-.01.1a1.311,1.311,0,0,1-.492.909l-1.544,1.219a2.383,2.383,0,0,0-.907,1.871v1.488a2.384,2.384,0,0,0,1.76,2.3l2.714.735a3.575,3.575,0,0,1,1.984,1.387l3.754,5.309a1.913,1.913,0,0,1,.351,1.128v.061a1.916,1.916,0,0,0,1.326,1.845,1.884,1.884,0,0,1,.544.279,1.97,1.97,0,0,1,.43.437l4.493,6.355A2.518,2.518,0,0,1,269.064,173.707Z" transform="translate(-226.757 -119.158)" fill="#ce845c"/>
        <path id="Trazado_1016832" data-name="Trazado 1016832" d="M106.508,15.006a4.774,4.774,0,0,0-.885.083.26.26,0,0,1-.309-.267q0-.086,0-.173a4.764,4.764,0,0,0-8.062-3.44.256.256,0,0,1-.426-.123,4.765,4.765,0,0,0-8.01-2.165.255.255,0,0,1-.363,0,4.765,4.765,0,0,0-8.01,2.165.256.256,0,0,1-.426.123,4.764,4.764,0,0,0-8.062,3.44q0,.087,0,.173a.26.26,0,0,1-.309.267,4.766,4.766,0,1,0,1.509,8.8.257.257,0,0,1,.367.123,4.764,4.764,0,0,0,7.78,1.484.255.255,0,0,1,.363,0,4.762,4.762,0,0,0,6.785,0,.255.255,0,0,1,.363,0,4.762,4.762,0,0,0,6.785,0,.255.255,0,0,1,.363,0,4.764,4.764,0,0,0,7.78-1.484.257.257,0,0,1,.367-.123,4.766,4.766,0,1,0,2.394-8.887Z" transform="translate(-66 -7.5)" fill="#ccf49f"/>
        <g id="Grupo_1171213" data-name="Grupo 1171213" transform="translate(24.424)">
          <path id="Trazado_1016833" data-name="Trazado 1016833" d="M336.924,145.438a4.77,4.77,0,0,1-5.934,2.071,4.7,4.7,0,0,0,.876-.466,4.788,4.788,0,0,0,1.726-2.092.255.255,0,0,1,.366-.123,4.767,4.767,0,0,0,2.967.61Z" transform="translate(-323.843 -128.436)" fill="#b3e59f"/>
          <path id="Trazado_1016834" data-name="Trazado 1016834" d="M276.937,9.922a4.744,4.744,0,0,0-2.681,1.287.256.256,0,0,1-.425-.124A4.777,4.777,0,0,0,271,7.847a4.769,4.769,0,0,1,5.937,2.075Z" transform="translate(-271 -7.5)" fill="#b3e59f"/>
          <path id="Trazado_1016835" data-name="Trazado 1016835" d="M353.51,37.389a4.765,4.765,0,0,1-6.553,4.418,4.766,4.766,0,0,0-1.787-9.183,4.816,4.816,0,0,0-.885.082.26.26,0,0,1-.31-.266c0-.058,0-.116,0-.174A4.774,4.774,0,0,0,341,27.847a4.768,4.768,0,0,1,6.553,4.419c0,.058,0,.116,0,.174a.26.26,0,0,0,.31.266,4.816,4.816,0,0,1,.885-.082,4.767,4.767,0,0,1,4.766,4.766Z" transform="translate(-332.66 -25.117)" fill="#b3e59f"/>
        </g>
      </g>
      <path id="Trazado_1016836" data-name="Trazado 1016836" d="M86.172,29.627l1.544-1.219a2.211,2.211,0,0,0,.829-1.53c.018-.32.164-.5.5-.473a2.2,2.2,0,0,0,1.765-.437l.885-.7a4.443,4.443,0,0,0,1.7-3.507v-.594a5.646,5.646,0,0,0,4.272-2.805A5.659,5.659,0,1,0,99.9,7.506c-.107,0-.215,0-.322.009a5.659,5.659,0,0,0-8.8-4.161,5.661,5.661,0,0,0-8.744-2.082,5.661,5.661,0,0,0-8.744,2.082,5.627,5.627,0,0,0-3.17-.971,5.707,5.707,0,0,0-.966.082.894.894,0,0,0,.3,1.761,3.912,3.912,0,0,1,.663-.056,3.851,3.851,0,0,1,2.678,1.077A1.158,1.158,0,0,0,74.7,4.7a3.871,3.871,0,0,1,6.509-1.758,1.154,1.154,0,0,0,1.636,0A3.871,3.871,0,0,1,89.357,4.7a1.158,1.158,0,0,0,1.91.547,3.871,3.871,0,0,1,6.55,2.8c0,.047,0,.094,0,.14A1.153,1.153,0,0,0,99.182,9.36a3.872,3.872,0,1,1-1.225,7.154,1.15,1.15,0,0,0-1.639.546A3.871,3.871,0,0,1,90,18.266a1.154,1.154,0,0,0-1.636,0,3.868,3.868,0,0,1-5.513,0,1.154,1.154,0,0,0-1.636,0,3.868,3.868,0,0,1-5.513,0,1.154,1.154,0,0,0-1.636,0,3.871,3.871,0,0,1-6.321-1.207,1.158,1.158,0,0,0-1.639-.545A3.872,3.872,0,1,1,64.88,9.36a1.16,1.16,0,0,0,1.368-1.177c0-.047,0-.094,0-.141A3.878,3.878,0,0,1,66.7,6.214a.894.894,0,0,0-1.575-.845,5.665,5.665,0,0,0-.646,2.147c-.107-.006-.215-.009-.323-.009A5.659,5.659,0,1,0,66.4,18.363a5.646,5.646,0,0,0,4.272,2.805v.594a4.443,4.443,0,0,0,1.7,3.507l.885.7a2.2,2.2,0,0,0,1.765.437c.334-.029.479.153.5.473a2.211,2.211,0,0,0,.828,1.53l1.544,1.219a1.481,1.481,0,0,1,.567,1.169v1.488a1.492,1.492,0,0,1-1.1,1.437l-2.715.736a4.477,4.477,0,0,0-2.479,1.733L68.409,41.5a2.791,2.791,0,0,0-.515,1.654v.06a1.018,1.018,0,0,1-.708.985,2.828,2.828,0,0,0-1.429,1.051L61.265,51.6A3.414,3.414,0,0,0,66.458,56l.445-.442a2.04,2.04,0,0,0,.6-1.573c-.011-.26.242-.282.443-.27a2.029,2.029,0,0,0,1.411-.592l1.859-1.847-1.429,5.443a3.415,3.415,0,0,0,6.408,2.292l1.529-3.331a2.451,2.451,0,0,0,.16-1.564.656.656,0,0,1,.313-.712l.089-.051a2.425,2.425,0,0,0,1.012-1.1l1.989-4.334a2.057,2.057,0,0,0-.018-1.759c-.085-.223.033-.356.249-.409a2.057,2.057,0,0,0,.517-.243,2.06,2.06,0,0,0,.518.243c.217.053.333.186.249.409a2.057,2.057,0,0,0-.018,1.76l1.989,4.334a2.425,2.425,0,0,0,1.012,1.1l.089.05a.656.656,0,0,1,.313.713,2.451,2.451,0,0,0,.16,1.563l1.529,3.332a3.415,3.415,0,0,0,6.408-2.292l-1.429-5.443,1.859,1.846a2.03,2.03,0,0,0,1.411.592c.2-.012.453.01.443.27a2.039,2.039,0,0,0,.6,1.573L97.6,56A3.414,3.414,0,0,0,102.8,51.6L98.3,45.25A2.828,2.828,0,0,0,96.876,44.2a1.018,1.018,0,0,1-.708-.985v-.06a2.792,2.792,0,0,0-.515-1.654l-1.346-1.9a.894.894,0,1,0-1.459,1.032l1.346,1.9a1.016,1.016,0,0,1,.188.6v.061A2.8,2.8,0,0,0,96.325,45.9a1.029,1.029,0,0,1,.52.383l4.493,6.354a1.627,1.627,0,0,1-2.475,2.093l-.445-.442a.252.252,0,0,1-.074-.194,2.039,2.039,0,0,0-2.009-2.165c-.111-.005-.287.021-.369-.076L89.149,45.08a.622.622,0,0,1-.136-.452,2.211,2.211,0,0,0-2.2-2.049H86.8a.416.416,0,0,1-.295-.121l-1.043-1.036a2.688,2.688,0,0,1-.79-1.995v-.04a2.648,2.648,0,1,0-5.292,0v.039a2.689,2.689,0,0,1-.79,2l-1.043,1.036a.415.415,0,0,1-.295.122h-.011a2.211,2.211,0,0,0-2.2,2.049.622.622,0,0,1-.135.452l-6.819,6.773c-.081.1-.258.071-.369.076a2.039,2.039,0,0,0-2.009,2.165.252.252,0,0,1-.074.194l-.445.442a1.627,1.627,0,0,1-2.475-2.093l4.493-6.354a1.029,1.029,0,0,1,.52-.383,2.8,2.8,0,0,0,1.945-2.706v-.06a1.016,1.016,0,0,1,.188-.6l3.754-5.309a2.687,2.687,0,0,1,1.488-1.04l2.715-.736a3.283,3.283,0,0,0,2.419-3.163V30.8A3.258,3.258,0,0,0,79,28.224L77.454,27a.416.416,0,0,1-.156-.288l-.009-.1A2.2,2.2,0,0,0,74.7,24.647a.414.414,0,0,1-.332-.082l-.885-.7a2.666,2.666,0,0,1-1.02-2.1V21.09a5.593,5.593,0,0,0,2.425-1.155c.1.079.2.154.3.226v.766a1.481,1.481,0,0,0,.567,1.169L80,25.454a3.266,3.266,0,0,0,4.06,0L88.315,22.1a1.481,1.481,0,0,0,.567-1.169v-.766c.1-.072.2-.147.3-.226A5.6,5.6,0,0,0,91.6,21.09v.672a2.665,2.665,0,0,1-1.02,2.1l-.885.7a.413.413,0,0,1-.332.082,2.2,2.2,0,0,0-2.593,1.967l-.009.1a.416.416,0,0,1-.156.288l-1.544,1.219A3.258,3.258,0,0,0,83.818,30.8v1.488a3.283,3.283,0,0,0,2.419,3.162l2.715.736a2.687,2.687,0,0,1,1.488,1.04A.894.894,0,0,0,91.9,36.189a4.477,4.477,0,0,0-2.479-1.733L86.7,33.721a1.492,1.492,0,0,1-1.1-1.437V30.8a1.481,1.481,0,0,1,.567-1.169ZM84.206,42.689l1.043,1.036a2.187,2.187,0,0,0,1.563.64c.31-.008.45.3.432.573a2.2,2.2,0,0,0,.646,1.408l2.46,2.443,2.2,8.379a1.628,1.628,0,0,1-3.055,1.093l-1.529-3.332a.654.654,0,0,1-.043-.417,2.454,2.454,0,0,0-1.172-2.667l-.089-.05a.649.649,0,0,1-.27-.295L84.4,47.167a.275.275,0,0,1,0-.236,2.063,2.063,0,0,0-1.257-2.873l-.081-.025-.005,0,.8-1.733a4.44,4.44,0,0,0,.348.391ZM71.513,57.17l2.2-8.379,2.46-2.444a2.2,2.2,0,0,0,.646-1.408c-.018-.277.124-.586.441-.573a2.191,2.191,0,0,0,1.554-.64l1.043-1.036a4.481,4.481,0,0,0,1.317-3.326v-.039a.854.854,0,0,1,.241-.628.864.864,0,0,1,1.238,0,.853.853,0,0,1,.241.627v.04a4.45,4.45,0,0,0,.03.694l-1.756,3.827a.334.334,0,0,1-.252.174,2.063,2.063,0,0,0-1.257,2.873.275.275,0,0,1,0,.235L77.67,51.5a.648.648,0,0,1-.27.295l-.089.051a2.454,2.454,0,0,0-1.172,2.667.654.654,0,0,1-.043.418l-1.529,3.332a1.628,1.628,0,0,1-3.055-1.093ZM82.954,24.051a1.484,1.484,0,0,1-1.845,0L77.373,21.1a5.719,5.719,0,0,0,1.084.1,5.609,5.609,0,0,0,3.574-1.272,5.61,5.61,0,0,0,3.574,1.272,5.718,5.718,0,0,0,1.084-.1Z"/>
    </g>
  </g>
</svg>
