<svg xmlns="http://www.w3.org/2000/svg" xmlns:xlink="http://www.w3.org/1999/xlink" width="110" height="110" viewBox="0 0 110 110">
  <defs>
    <filter id="Trazado_982547" x="0" y="0" width="110" height="110" filterUnits="userSpaceOnUse">
      <feOffset dy="3" input="SourceAlpha"/>
      <feGaussianBlur stdDeviation="3" result="blur"/>
      <feFlood flood-opacity="0.161"/>
      <feComposite operator="in" in2="blur"/>
      <feComposite in="SourceGraphic"/>
    </filter>
  </defs>
  <g id="Grupo_1171223" data-name="Grupo 1171223" transform="translate(-692 -1490)">
    <g id="Grupo_1171021" data-name="Grupo 1171021" transform="translate(0.771 -676)">
      <g id="Grupo_1162553" data-name="Grupo 1162553" transform="translate(700.229 2172)">
        <g id="Grupo_1162412" data-name="Grupo 1162412" transform="translate(0 0)">
          <g id="Grupo_1158638" data-name="Grupo 1158638" transform="translate(0 0)">
            <g id="Grupo_1155734" data-name="Grupo 1155734">
              <g id="Grupo_1154704" data-name="Grupo 1154704">
                <g id="Grupo_1150790" data-name="Grupo 1150790" transform="translate(0 0)">
                  <g id="Grupo_1154214" data-name="Grupo 1154214" transform="translate(0)">
                    <g id="Grupo_1152583" data-name="Grupo 1152583">
                      <g id="Grupo_1146973" data-name="Grupo 1146973">
                        <g id="Grupo_1146954" data-name="Grupo 1146954">
                          <g transform="matrix(1, 0, 0, 1, -9, -6)" filter="url(#Trazado_982547)">
                            <g id="Trazado_982547-2" data-name="Trazado 982547" transform="translate(9 6)" fill="#ebe9f0">
                              <path d="M 46.00000381469727 90.49986267089844 C 39.99188232421875 90.49986267089844 34.16427230834961 89.32350158691406 28.67905807495117 87.00344848632812 C 23.38020324707031 84.76223754882812 18.62104415893555 81.55341339111328 14.53375053405762 77.46613311767578 C 10.44647026062012 73.37885284423828 7.237643718719482 68.61968994140625 4.996417045593262 63.32085037231445 C 2.676363706588745 57.83565139770508 1.500003814697266 52.00805282592773 1.500003814697266 45.99993133544922 C 1.500003814697266 39.99182510375977 2.676363706588745 34.16422653198242 4.996417045593262 28.67901039123535 C 7.237643718719482 23.38017082214355 10.44647026062012 18.62101173400879 14.53375053405762 14.53373146057129 C 18.62104415893555 10.44645118713379 23.38020324707031 7.237624645233154 28.67905807495117 4.996411323547363 C 34.16427230834961 2.676357984542847 39.99188232421875 1.499997973442078 46.00000381469727 1.499997973442078 C 52.00812530517578 1.499997973442078 57.83573532104492 2.676357984542847 63.32094955444336 4.996411323547363 C 68.61980438232422 7.237624645233154 73.37896728515625 10.44645118713379 77.46625518798828 14.53373146057129 C 81.55353546142578 18.62101173400879 84.76236724853516 23.38017082214355 87.00359344482422 28.67901039123535 C 89.32364654541016 34.16422653198242 90.5 39.99182510375977 90.5 45.99993133544922 C 90.5 52.00805282592773 89.32364654541016 57.83565139770508 87.00359344482422 63.32085037231445 C 84.76236724853516 68.61968994140625 81.55353546142578 73.37885284423828 77.46625518798828 77.46613311767578 C 73.37896728515625 81.55341339111328 68.61980438232422 84.76223754882812 63.32094955444336 87.00344848632812 C 57.83573532104492 89.32350158691406 52.00812530517578 90.49986267089844 46.00000381469727 90.49986267089844 Z" stroke="none"/>
                              <path d="M 46.00000381469727 3 C 40.19371795654297 3 34.56270217895508 4.136505126953125 29.26337432861328 6.377914428710938 C 24.14333343505859 8.54351806640625 19.54441833496094 11.64438629150391 15.59440612792969 15.59439086914062 C 11.64440155029297 19.54440307617188 8.54351806640625 24.14330291748047 6.377914428710938 29.26334381103516 C 4.136505126953125 34.56266021728516 3.000007629394531 40.19366073608398 3.000007629394531 45.99993133544922 C 3.000007629394531 51.80620193481445 4.136505126953125 57.43720245361328 6.377914428710938 62.73651885986328 C 8.54351806640625 67.85655975341797 11.64440155029297 72.45545959472656 15.59440612792969 76.40547180175781 C 19.54441833496094 80.35547637939453 24.14333343505859 83.45634460449219 29.26337432861328 85.6219482421875 C 34.56270217895508 87.86335754394531 40.19371795654297 88.99986267089844 46.00000381469727 88.99986267089844 C 51.80628967285156 88.99986267089844 57.43730545043945 87.86335754394531 62.73661804199219 85.6219482421875 C 67.85667419433594 83.45634460449219 72.45557403564453 80.35547637939453 76.40558624267578 76.40547180175781 C 80.35560607910156 72.45545959472656 83.45647430419922 67.85655975341797 85.62207794189453 62.73651885986328 C 87.86350250244141 57.43720245361328 89 51.80620193481445 89 45.99993133544922 C 89 40.19366073608398 87.86350250244141 34.56266021728516 85.62207794189453 29.26334381103516 C 83.45647430419922 24.14330291748047 80.35560607910156 19.54440307617188 76.40558624267578 15.59439086914062 C 72.45557403564453 11.64438629150391 67.85667419433594 8.54351806640625 62.73661804199219 6.377914428710938 C 57.43730545043945 4.136505126953125 51.80628967285156 3 46.00000381469727 3 M 46.00000381469727 0 C 71.40509033203125 0 92 20.59487152099609 92 45.99993133544922 C 92 71.40499114990234 71.40509033203125 91.99986267089844 46.00000381469727 91.99986267089844 C 20.59490203857422 91.99986267089844 7.62939453125e-06 71.40499114990234 7.62939453125e-06 45.99993133544922 C 7.62939453125e-06 20.59487152099609 20.59490203857422 0 46.00000381469727 0 Z" stroke="none" fill="#453179"/>
                            </g>
                          </g>
                        </g>
                      </g>
                    </g>
                  </g>
                </g>
              </g>
            </g>
          </g>
        </g>
      </g>
    </g>
    <g id="arroz" transform="translate(718 1499.917)">
      <g id="Grupo_1171221" data-name="Grupo 1171221" transform="translate(0.848 15.931)">
        <path id="Trazado_1016863" data-name="Trazado 1016863" d="M48.283,209.842V194.1a10.179,10.179,0,0,0-4.235-8.263l-.528-.379H16.169l-.528.379a10.179,10.179,0,0,0-4.235,8.263v15.747a3.171,3.171,0,0,1-.63,1.9l-2.722,3.643a2.788,2.788,0,0,0,2.234,4.457H49.4a2.788,2.788,0,0,0,2.234-4.457l-2.722-3.644A3.171,3.171,0,0,1,48.283,209.842Z" transform="translate(-7.5 -167.027)" fill="#b57f5f"/>
        <path id="Trazado_1016864" data-name="Trazado 1016864" d="M307.411,215.383l-2.722-3.644a3.171,3.171,0,0,1-.63-1.9V194.1a10.179,10.179,0,0,0-4.235-8.263l-.528-.379H295.9l.528.379a10.179,10.179,0,0,1,4.235,8.263v15.747a3.171,3.171,0,0,0,.63,1.9l2.722,3.644a2.788,2.788,0,0,1-2.234,4.457h3.394a2.788,2.788,0,0,0,2.234-4.457Z" transform="translate(-263.276 -167.027)" fill="#9f6e50"/>
        <path id="Trazado_1016865" data-name="Trazado 1016865" d="M93.349,34.739a5.836,5.836,0,0,0,.355-1.387,5.764,5.764,0,0,0-5.658-6.49.346.346,0,0,1-.326-.242,5.763,5.763,0,0,0-9.84-2.068.35.35,0,0,1-.436.075,5.349,5.349,0,0,0-7.621,2.792.35.35,0,0,1-.374.225,7.058,7.058,0,0,0-8,7.1h31.9Z" transform="translate(-55.344 -22.579)" fill="#f0e9e6"/>
        <path id="Trazado_1016866" data-name="Trazado 1016866" d="M234.965,27.125a5.807,5.807,0,0,0-1.658-.262.346.346,0,0,1-.326-.242,5.762,5.762,0,0,0-7.744-3.583l.119.025a5.759,5.759,0,0,1,4.231,3.9.347.347,0,0,0,.326.242,5.762,5.762,0,0,1,5.423,7.538h3.273a5.835,5.835,0,0,0,.355-1.387,5.777,5.777,0,0,0-4-6.228Z" transform="translate(-200.605 -22.58)" fill="#dcd2cd"/>
        <path id="Trazado_1016867" data-name="Trazado 1016867" d="M322.735,290.182a3.8,3.8,0,0,0-3.38-2.975.643.643,0,0,1-.564-.438,5.035,5.035,0,0,0-9.456-.427.639.639,0,0,1-.606.388,7.69,7.69,0,0,0-5.63,2.013c-1.941,2.043-1.076,4.767,1.932,6.085s13.436.336,15.163-.22A3.817,3.817,0,0,0,322.735,290.182Z" transform="translate(-268.739 -253.749)" fill="#f0e9e6"/>
        <path id="Trazado_1016868" data-name="Trazado 1016868" d="M397.582,290.184a3.8,3.8,0,0,0-3.38-2.975.643.643,0,0,1-.564-.438,5.034,5.034,0,0,0-7.181-2.935,5.042,5.042,0,0,1,4.24,3.5.643.643,0,0,0,.564.438,3.8,3.8,0,0,1,1.151,7.284,17.722,17.722,0,0,0,2.629-.449A3.817,3.817,0,0,0,397.582,290.184Z" transform="translate(-343.586 -253.75)" fill="#dcd2cd"/>
        <path id="Trazado_1016869" data-name="Trazado 1016869" d="M350.628,435.175H337.441v5.66a.476.476,0,0,0,.476.476h12.234a.476.476,0,0,0,.476-.477Z" transform="translate(-300.115 -388.499)" fill="#9ec63d"/>
        <path id="Trazado_1016870" data-name="Trazado 1016870" d="M420.269,435.175v5.66a.476.476,0,0,1-.476.477h3.394a.476.476,0,0,0,.477-.476v-5.66Z" transform="translate(-373.151 -388.499)" fill="#87a733"/>
        <path id="Trazado_1016871" data-name="Trazado 1016871" d="M303.881,362.919h-9.26a7.676,7.676,0,0,1-7.676-7.676V352.48a.746.746,0,0,1,.746-.746H310.81a.747.747,0,0,1,.747.747v2.763A7.676,7.676,0,0,1,303.881,362.919Z" transform="translate(-255.332 -314.497)" fill="#5ea570"/>
        <path id="Trazado_1016872" data-name="Trazado 1016872" d="M416.973,351.734h-3.394a.747.747,0,0,1,.746.747v2.763a7.676,7.676,0,0,1-7.676,7.676h3.394a7.676,7.676,0,0,0,7.676-7.676v-2.763A.747.747,0,0,0,416.973,351.734Z" transform="translate(-361.495 -314.497)" fill="#518f60"/>
        <path id="Trazado_1016873" data-name="Trazado 1016873" d="M73.8,113.575H39.523a1.784,1.784,0,0,0-1.784,1.784v5.646a1.784,1.784,0,0,0,1.784,1.784H73.8a1.784,1.784,0,0,0,1.784-1.784v-5.646A1.784,1.784,0,0,0,73.8,113.575Z" transform="translate(-34.318 -103.281)" fill="#e2a975"/>
        <path id="Trazado_1016874" data-name="Trazado 1016874" d="M329.911,113.575h-3.394a1.785,1.785,0,0,1,1.784,1.784v5.646a1.784,1.784,0,0,1-1.784,1.784h3.394a1.785,1.785,0,0,0,1.785-1.784v-5.646A1.784,1.784,0,0,0,329.911,113.575Z" transform="translate(-290.427 -103.281)" fill="#d19a6e"/>
        <g id="Grupo_1171220" data-name="Grupo 1171220" transform="translate(15.581 27.556)">
          <ellipse id="Elipse_11981" data-name="Elipse 11981" cx="1.645" cy="2.912" rx="1.645" ry="2.912" transform="translate(0 13.345) rotate(-45)" fill="#f0e9e6"/>
          <ellipse id="Elipse_11982" data-name="Elipse 11982" cx="2.912" cy="1.645" rx="2.912" ry="1.645" transform="translate(7.069 11.561) rotate(-45)" fill="#f0e9e6"/>
          <ellipse id="Elipse_11983" data-name="Elipse 11983" cx="1.645" cy="2.912" rx="1.645" ry="2.912" transform="translate(0.001 5.902) rotate(-45)" fill="#f0e9e6"/>
          <ellipse id="Elipse_11984" data-name="Elipse 11984" cx="2.912" cy="1.645" rx="2.912" ry="1.645" transform="translate(7.07 4.118) rotate(-45)" fill="#f0e9e6"/>
        </g>
      </g>
      <g id="Grupo_1171222" data-name="Grupo 1171222" transform="translate(0 15.083)">
        <path id="Trazado_1016875" data-name="Trazado 1016875" d="M56.327,52.32H55.7c-.009-.045-.016-.091-.026-.136a4.629,4.629,0,0,0-4.01-3.626,5.9,5.9,0,0,0-.832-1.593.848.848,0,1,0-1.368,1,4.207,4.207,0,0,1,.627,1.238,1.487,1.487,0,0,0,1.3,1.028,2.938,2.938,0,0,1,2.566,2.085h-18.7a3.161,3.161,0,0,1,.568-.81,6.879,6.879,0,0,1,5-1.749,1.5,1.5,0,0,0,1.409-.912c.044-.105.09-.209.143-.308l.016-.031a4.179,4.179,0,0,1,4.282-2.2.849.849,0,1,0,.235-1.681,5.874,5.874,0,0,0-4.425,1.184V43A11.047,11.047,0,0,0,40.2,36.288h.131a2.636,2.636,0,0,0,2.633-2.633V28.01a2.636,2.636,0,0,0-2.633-2.633h-.256a6.611,6.611,0,0,0-6.158-6,6.611,6.611,0,0,0-10.9-2.322,6.2,6.2,0,0,0-8.333,3.055,7.9,7.9,0,0,0-8.133,5.265H6.054A2.636,2.636,0,0,0,3.421,28.01v5.646a2.636,2.636,0,0,0,2.633,2.633h.13A11.046,11.046,0,0,0,3.907,43v9.753a.848.848,0,1,0,1.7,0V43a9.345,9.345,0,0,1,2.849-6.711H37.934A9.345,9.345,0,0,1,40.783,43v4.928c-.021.045-.043.089-.063.135h-.063a8.417,8.417,0,0,0-6.063,2.278,4.57,4.57,0,0,0-1.14,1.979h-.245a1.6,1.6,0,0,0-1.595,1.595v2.763a8.538,8.538,0,0,0,5.712,8.045V67.9H3.637a1.94,1.94,0,0,1-1.555-3.1l2.723-3.644a4.053,4.053,0,0,0,.8-2.4V56.712a.848.848,0,0,0-1.7,0v2.035a2.344,2.344,0,0,1-.461,1.389L.723,63.779a3.637,3.637,0,0,0,2.914,5.813H50.884a1.326,1.326,0,0,0,1.325-1.325V64.723a8.537,8.537,0,0,0,5.713-8.046V53.914A1.6,1.6,0,0,0,56.327,52.32ZM14.841,21.837a1.2,1.2,0,0,0,1.282-.77,4.5,4.5,0,0,1,6.41-2.349,1.2,1.2,0,0,0,1.49-.255,4.915,4.915,0,0,1,8.393,1.766,1.2,1.2,0,0,0,1.126.834,4.915,4.915,0,0,1,4.828,4.315H8.376a6.208,6.208,0,0,1,6.465-3.54ZM5.118,33.656V28.01a.937.937,0,0,1,.936-.936H40.332a.937.937,0,0,1,.936.936v5.646a.937.937,0,0,1-.936.936H6.054a.937.937,0,0,1-.936-.936ZM50.512,67.9H39.023V65.127a8.551,8.551,0,0,0,1.115.075H49.4a8.543,8.543,0,0,0,1.114-.075Zm5.713-11.218A6.835,6.835,0,0,1,49.4,63.5h-9.26a6.835,6.835,0,0,1-6.827-6.827V54.017H56.225v2.661Z" transform="translate(0 -15.083)"/>
        <path id="Trazado_1016876" data-name="Trazado 1016876" d="M146.787,368.607a4.455,4.455,0,0,0,2.983,1.454,1.98,1.98,0,0,0,1.439-.558c1.005-1.005.62-2.906-.9-4.422s-3.417-1.9-4.422-.9S145.271,367.091,146.787,368.607Zm.3-3.223c.172-.172,1.114-.012,2.023.9s1.068,1.851.9,2.023-1.115.012-2.023-.9S146.919,365.556,147.091,365.384Z" transform="translate(-128.892 -324.196)"/>
        <path id="Trazado_1016877" data-name="Trazado 1016877" d="M208.38,337.883a2.258,2.258,0,0,0,2.253.437,5.116,5.116,0,0,0,2.169-1.333c1.516-1.516,1.9-3.417.9-4.422s-2.906-.62-4.422.9S207.375,336.878,208.38,337.883Zm2.1-3.223a2.915,2.915,0,0,1,1.8-.957.329.329,0,0,1,.226.061c.172.172.012,1.114-.9,2.022a3.459,3.459,0,0,1-1.424.9c-.343.1-.545.051-.6,0C209.408,336.511,209.568,335.568,210.476,334.66Z" transform="translate(-184.311 -296.153)"/>
        <path id="Trazado_1016878" data-name="Trazado 1016878" d="M149.769,304.262a1.98,1.98,0,0,0,1.439-.558c1.005-1.005.62-2.906-.9-4.422s-3.417-1.9-4.422-.9-.62,2.906.9,4.422A4.456,4.456,0,0,0,149.769,304.262Zm-2.679-4.677c.172-.172,1.114-.012,2.023.9s1.068,1.851.9,2.022-1.115.012-2.023-.9S146.918,299.757,147.09,299.585Z" transform="translate(-128.891 -265.841)"/>
        <path id="Trazado_1016879" data-name="Trazado 1016879" d="M210.632,272.521a5.116,5.116,0,0,0,2.169-1.333c1.516-1.516,1.9-3.417.9-4.422s-2.906-.62-4.422.9-1.9,3.417-.9,4.422A2.258,2.258,0,0,0,210.632,272.521Zm-.157-3.659a2.915,2.915,0,0,1,1.8-.957.329.329,0,0,1,.226.061c.172.172.012,1.115-.9,2.023-.848.847-1.824,1.1-2.023.9C209.407,270.712,209.568,269.77,210.476,268.861Z" transform="translate(-184.311 -237.798)"/>
      </g>
    </g>
  </g>
</svg>
